<?xml version="1.0" encoding="UTF-8" standalone="no"?>
<!-- Created with Inkscape (http://www.inkscape.org/) -->

<svg
   xmlns:dc="http://purl.org/dc/elements/1.1/"
   xmlns:cc="http://creativecommons.org/ns#"
   xmlns:rdf="http://www.w3.org/1999/02/22-rdf-syntax-ns#"
   xmlns:svg="http://www.w3.org/2000/svg"
   xmlns="http://www.w3.org/2000/svg"
   xmlns:sodipodi="http://sodipodi.sourceforge.net/DTD/sodipodi-0.dtd"
   xmlns:inkscape="http://www.inkscape.org/namespaces/inkscape"
   width="100mm"
   height="100mm"
   viewBox="0 0 100 100"
   version="1.1"
   id="svg8"
   inkscape:version="0.92.2 (5c3e80d, 2017-08-06)"
   sodipodi:docname="border_owl.svg">
  <defs
     id="defs2" />
  <sodipodi:namedview
     id="base"
     pagecolor="#ffffff"
     bordercolor="#666666"
     borderopacity="1.0"
     inkscape:pageopacity="0.0"
     inkscape:pageshadow="2"
     inkscape:zoom="0.98994949"
     inkscape:cx="64.144611"
     inkscape:cy="222.48897"
     inkscape:document-units="mm"
     inkscape:current-layer="layer1"
     showgrid="false"
     inkscape:window-width="1366"
     inkscape:window-height="705"
     inkscape:window-x="1272"
     inkscape:window-y="305"
     inkscape:window-maximized="1" />
  <metadata
     id="metadata5">
    <rdf:RDF>
      <cc:Work
         rdf:about="">
        <dc:format>image/svg+xml</dc:format>
        <dc:type
           rdf:resource="http://purl.org/dc/dcmitype/StillImage" />
        <dc:title></dc:title>
      </cc:Work>
    </rdf:RDF>
  </metadata>
  <g
     inkscape:label="Layer 1"
     inkscape:groupmode="layer"
     id="layer1"
     transform="translate(0,-197)">
    <path
       style="fill:none;stroke:#000000;stroke-width:0.26458338;stroke-opacity:1"
       d="m 19.811174,292.30796 c -0.177695,-0.0718 -0.369791,-0.19999 -0.561389,-0.36574 -0.191598,-0.16575 -0.382698,-0.36907 -0.558402,-0.59112 -0.175705,-0.22205 -0.336013,-0.46284 -0.466027,-0.70353 -0.130015,-0.2407 -0.229735,-0.4813 -0.284262,-0.70298 -0.02315,-0.0941 -0.05598,-0.20056 -0.09547,-0.31231 -0.03949,-0.11174 -0.08566,-0.22881 -0.135479,-0.34424 -0.04982,-0.11543 -0.103307,-0.22922 -0.157445,-0.33439 -0.05414,-0.10518 -0.108929,-0.20175 -0.161366,-0.28275 -0.07133,-0.11018 -0.139119,-0.35201 -0.206834,-0.76413 -0.06771,-0.41211 -0.135357,-0.99451 -0.206392,-1.78582 -0.07104,-0.79132 -0.145465,-1.79154 -0.226757,-3.03931 -0.08129,-1.24777 -0.169444,-2.74308 -0.267927,-4.52457 l -0.131635,-2.38119 -0.131635,-2.38119 -0.131635,-2.38118 -0.131635,-2.38119 -0.522222,-0.5082 -0.522222,-0.50819 -0.522223,-0.5082 -0.522222,-0.5082 c -1.11188,-1.08202 -2.119757,-2.23333 -3.029198,-3.4648 -0.9094403,-1.23147 -1.7204437,-2.5431 -2.4385756,-3.94576 -0.7181318,-1.40266 -1.3433921,-2.89635 -1.8813464,-4.49195 -0.5379542,-1.59559 -0.9886023,-3.29308 -1.3575098,-5.10334 -0.151525,-0.74354 -0.2726994,-1.63679 -0.3616131,-2.59463 -0.088914,-0.95783 -0.1455669,-1.98026 -0.1680494,-2.98215 -0.022482,-1.0019 -0.010794,-1.98326 0.036974,-2.85897 0.047769,-0.87571 0.1316181,-1.64576 0.2534581,-2.22504 0.158105,-0.75169 0.4004381,-1.50005 0.7070828,-2.21535 0.3066447,-0.7153 0.6776009,-1.39756 1.0929522,-2.01706 0.4153512,-0.6195 0.8750975,-1.17624 1.3593222,-1.64052 0.4842247,-0.46429 0.9929278,-0.83611 1.5061928,-1.08577 0.2482074,-0.12073 0.4398298,-0.22036 0.5985978,-0.33836 0.158768,-0.11799 0.284682,-0.25435 0.401472,-0.44852 0.11679,-0.19416 0.224456,-0.44615 0.346729,-0.79539 0.122274,-0.34925 0.259153,-0.79576 0.434371,-1.37899 0.435398,-1.44927 0.996314,-2.92496 1.662852,-4.39406 0.666537,-1.4691 1.438697,-2.93161 2.296581,-4.35453 0.857885,-1.42292 1.801493,-2.80625 2.81093,-4.11699 1.009437,-1.31074 2.084701,-2.54888 3.205896,-3.68144 l 0.30996,-0.3131 0.30996,-0.31309 0.30996,-0.3131 0.30996,-0.3131 -0.409168,0.0155 -0.409167,0.0154 -0.409167,0.0155 -0.409168,0.0154 c -0.395475,0.0149 -0.695671,0.0248 -0.92471,0.0209 -0.22904,-0.004 -0.386924,-0.0215 -0.497775,-0.0617 -0.110851,-0.0402 -0.17467,-0.10292 -0.21558,-0.19692 -0.04091,-0.094 -0.05891,-0.21929 -0.07813,-0.3846 -0.01093,-0.0941 -0.01116,-0.19232 -0.0023,-0.28937 0.0089,-0.097 0.02695,-0.19289 0.05259,-0.28216 0.02564,-0.0893 0.05888,-0.17194 0.09817,-0.24264 0.03929,-0.0707 0.08463,-0.12943 0.13448,-0.1708 0.04985,-0.0414 0.232923,-0.12573 0.520897,-0.24273 0.287974,-0.117 0.680847,-0.26662 1.150291,-0.4385 0.469443,-0.17188 1.015458,-0.36601 1.609714,-0.57203 0.594257,-0.20602 1.236756,-0.42392 1.899168,-0.64334 0.662412,-0.21942 1.362269,-0.46278 2.060089,-0.71478 0.697819,-0.252 1.393602,-0.51263 2.047865,-0.76657 0.654263,-0.25393 1.267007,-0.50117 1.79875,-0.7264 0.531744,-0.22522 0.982486,-0.42843 1.312746,-0.5943 0.692313,-0.3477 1.462406,-0.69539 2.27868,-1.03214 0.816275,-0.33674 1.678731,-0.66253 2.55577,-0.96642 0.877039,-0.30389 1.76866,-0.58588 2.643265,-0.83502 0.874604,-0.24914 1.732193,-0.46543 2.541165,-0.63792 0.45416,-0.0968 0.894913,-0.17504 1.377384,-0.23768 0.482471,-0.0626 1.00666,-0.10971 1.627692,-0.14429 0.621032,-0.0346 1.338907,-0.0567 2.208749,-0.0693 0.869843,-0.0127 1.891653,-0.0159 3.120555,-0.0128 1.484433,0.004 2.611653,0.008 3.514388,0.0244 0.902735,0.0165 1.580984,0.0454 2.167473,0.0987 0.58649,0.0533 1.081219,0.13117 1.616915,0.24554 0.535697,0.11437 1.112359,0.26529 1.862714,0.46482 1.24635,0.33142 2.440817,0.6924 3.588607,1.0852 1.147789,0.3928 2.248901,0.81742 3.308538,1.2761 1.059638,0.45868 2.077801,0.95144 3.059696,1.48051 0.981894,0.52907 1.927519,1.09447 2.842079,1.69844 0.181903,0.12013 0.407626,0.2527 0.659808,0.38946 0.252182,0.13676 0.530822,0.2777 0.818556,0.41457 0.287734,0.13687 0.584563,0.26967 0.873124,0.39013 0.28856,0.12046 0.568852,0.22859 0.823512,0.31613 0.956478,0.32879 1.691032,0.58519 2.254845,0.79842 0.563813,0.21323 0.956884,0.38329 1.230396,0.53938 0.273512,0.1561 0.427464,0.29823 0.513039,0.45561 0.08557,0.15738 0.10277,0.33001 0.10277,0.54709 0,0.13948 -0.0094,0.26104 -0.02908,0.36639 -0.01971,0.10535 -0.04974,0.19449 -0.09106,0.26915 -0.04131,0.0747 -0.09391,0.13483 -0.158738,0.18224 -0.06483,0.0474 -0.141889,0.0821 -0.232134,0.10565 -0.109623,0.0287 -0.179949,0.0704 -0.198951,0.14549 -0.019,0.0751 0.01332,0.18373 0.10899,0.34619 0.09567,0.16246 0.254694,0.37879 0.489096,0.66941 0.234401,0.29062 0.54418,0.65554 0.941365,1.11517 0.89623,1.03715 1.728758,2.09651 2.500695,3.18355 0.771938,1.08704 1.483284,2.20176 2.137151,3.34961 0.653867,1.14786 1.250254,2.32886 1.792273,3.54845 0.542019,1.2196 1.029669,2.4778 1.466061,3.78006 0.24147,0.72059 0.429076,1.27232 0.591748,1.70545 0.162673,0.43314 0.300413,0.74766 0.442152,0.99384 0.141739,0.24617 0.287476,0.42399 0.466144,0.58371 0.178668,0.15971 0.390266,0.30133 0.663726,0.47508 0.792048,0.50326 1.499669,1.1405 2.115574,1.89505 0.615905,0.75455 1.140094,1.62641 1.565277,2.59891 0.425183,0.9725 0.751361,2.04564 0.971242,3.20274 0.219881,1.1571 0.333467,2.39817 0.333467,3.70652 0,1.08843 -0.110933,2.3364 -0.312901,3.66648 -0.201968,1.33009 -0.494971,2.74229 -0.859111,4.15918 -0.36414,1.41689 -0.799417,2.83848 -1.285933,4.18733 -0.486516,1.34886 -1.02427,2.62498 -1.593365,3.75095 -0.388592,0.76883 -0.746878,1.43697 -1.106444,2.04765 -0.359566,0.61068 -0.720412,1.1639 -1.114125,1.70291 -0.393713,0.53902 -0.820293,1.06382 -1.311328,1.61765 -0.491034,0.55384 -1.046523,1.1367 -1.698053,1.79184 l -0.53483,0.5378 -0.53483,0.5378 -0.53483,0.53779 -0.53483,0.5378 -0.125385,2.17418 -0.125385,2.17419 -0.125385,2.17418 -0.125385,2.17418 c -0.06896,1.1958 -0.134951,2.36405 -0.195199,3.45198 -0.06025,1.08793 -0.114751,2.09553 -0.160736,2.97004 -0.04599,0.87452 -0.08345,1.61593 -0.109624,2.17149 -0.02617,0.55555 -0.04105,0.92523 -0.04186,1.05628 -10e-4,0.147 -0.01754,0.30159 -0.0481,0.45945 -0.03056,0.15786 -0.07514,0.319 -0.132218,0.47909 -0.05708,0.1601 -0.126652,0.31915 -0.207203,0.47284 -0.08055,0.1537 -0.172077,0.30204 -0.273057,0.4407 -0.09002,0.12362 -0.182944,0.25715 -0.273824,0.39268 -0.09088,0.13552 -0.17972,0.27303 -0.261578,0.40459 -0.08186,0.13156 -0.156737,0.25716 -0.219695,0.36887 -0.06296,0.11171 -0.113995,0.20953 -0.148173,0.28551 -0.03418,0.076 -0.09033,0.16832 -0.162538,0.27013 -0.07221,0.10182 -0.160458,0.21311 -0.258822,0.327 -0.09836,0.1139 -0.206839,0.2304 -0.319489,0.34263 -0.11265,0.11223 -0.229476,0.22019 -0.344541,0.31701 -0.201965,0.16995 -0.362358,0.29893 -0.538925,0.39681 -0.176566,0.0979 -0.369306,0.16465 -0.635964,0.21018 -0.266658,0.0455 -0.607234,0.0698 -1.079475,0.0827 -0.47224,0.0129 -1.076143,0.0144 -1.869456,0.0144 -0.686345,0 -1.234954,-0.004 -1.671799,-0.0154 -0.436845,-0.0113 -0.761926,-0.0298 -1.001213,-0.0587 -0.239288,-0.0289 -0.392782,-0.0682 -0.486455,-0.12089 -0.09367,-0.0528 -0.127523,-0.11899 -0.127523,-0.20186 0,-0.0874 -0.170876,-0.15596 -0.74414,-0.20956 -0.573263,-0.0536 -1.548913,-0.0923 -3.158461,-0.12003 -1.609548,-0.0277 -3.852994,-0.0446 -6.961849,-0.0544 -3.108854,-0.01 -7.083117,-0.0128 -12.1543,-0.0128 -5.07118,0 -9.045442,0.003 -12.154296,0.0128 -3.108854,0.01 -5.3523,0.0267 -6.961849,0.0545 -1.609549,0.0277 -2.5852,0.0664 -3.158464,0.12003 -0.573264,0.0536 -0.744141,0.12213 -0.744141,0.20957 0,0.083 -0.03307,0.14917 -0.125042,0.20147 -0.09197,0.0523 -0.24286,0.0907 -0.478498,0.11838 -0.235637,0.0276 -0.556027,0.0444 -0.987013,0.0535 -0.430986,0.009 -0.972567,0.0103 -1.650587,0.007 -0.445657,-0.002 -0.886773,-0.0108 -1.302566,-0.0242 -0.415793,-0.0135 -0.806264,-0.0319 -1.150631,-0.0539 -0.344368,-0.022 -0.642632,-0.0476 -0.874013,-0.0754 -0.231381,-0.0279 -0.395877,-0.058 -0.47271,-0.089 v -1e-5 0 -10e-6 z"
       id="path5250"
       inkscape:connector-curvature="0"
       sodipodi:nodetypes="cssscssssssssccccccccssscssscssscssscssscccccccccssscssscssssssscssscssssssscssssssscssssssscssscssscssscssssssscssscccccccccssscssscssscssscssssssssssssssssssscsssccccc" />
  </g>
</svg>
