  0
SECTION
  2
HEADER
  9
$ACADVER
  1
AC1014
  9
$HANDSEED
  5
FFFF
  9
$MEASUREMENT
 70
     1
  0
ENDSEC
  0
SECTION
  2
TABLES
  0
TABLE
  2
VPORT
  5
8
330
0
100
AcDbSymbolTable
 70
     4
  0
VPORT
  5
2E
330
8
100
AcDbSymbolTableRecord
100
AcDbViewportTableRecord
  2
*ACTIVE
 70
     0
 10
0.0
 20
0.0
 11
1.0
 21
1.0
 12
210.0
 22
148.5
 13
0.0
 23
0.0
 14
10.0
 24
10.0
 15
10.0
 25
10.0
 16
0.0
 26
0.0
 36
1.0
 17
0.0
 27
0.0
 37
0.0
 40
341.0
 41
1.24
 42
50.0
 43
0.0
 44
0.0
 50
0.0
 51
0.0
 71
     0
 72
   100
 73
     1
 74
     3
 75
     0
 76
     0
 77
     0
 78
     0
  0
ENDTAB
  0
TABLE
  2
LTYPE
  5
5
330
0
100
AcDbSymbolTable
 70
     1
  0
LTYPE
  5
14
330
5
100
AcDbSymbolTableRecord
100
AcDbLinetypeTableRecord
  2
BYBLOCK
 70
     0
  3

 72
    65
 73
     0
 40
0.0
  0
LTYPE
  5
15
330
5
100
AcDbSymbolTableRecord
100
AcDbLinetypeTableRecord
  2
BYLAYER
 70
     0
  3

 72
    65
 73
     0
 40
0.0
  0
LTYPE
  5
16
330
5
100
AcDbSymbolTableRecord
100
AcDbLinetypeTableRecord
  2
CONTINUOUS
 70
     0
  3
Solid line
 72
    65
 73
     0
 40
0.0
  0
ENDTAB
  0
TABLE
  2
LAYER
  5
2
100
AcDbSymbolTable
 70
2
  0
LAYER
  5
50
100
AcDbSymbolTableRecord
100
AcDbLayerTableRecord
  2
0
 70
0
  6
CONTINUOUS
  0
LAYER
  5
51
100
AcDbSymbolTableRecord
100
AcDbLayerTableRecord
  2
Layer_1
 70
0
  6
CONTINUOUS
  0
ENDTAB
  0
TABLE
  2
STYLE
  5
3
330
0
100
AcDbSymbolTable
 70
     1
  0
STYLE
  5
11
330
3
100
AcDbSymbolTableRecord
100
AcDbTextStyleTableRecord
  2
STANDARD
 70
     0
 40
0.0
 41
1.0
 50
0.0
 71
     0
 42
2.5
  3
txt
  4

  0
ENDTAB
  0
TABLE
  2
VIEW
  5
6
330
0
100
AcDbSymbolTable
 70
     0
  0
ENDTAB
  0
TABLE
  2
UCS
  5
7
330
0
100
AcDbSymbolTable
 70
     0
  0
ENDTAB
  0
TABLE
  2
APPID
  5
9
330
0
100
AcDbSymbolTable
 70
     2
  0
APPID
  5
12
330
9
100
AcDbSymbolTableRecord
100
AcDbRegAppTableRecord
  2
ACAD
 70
     0
  0
ENDTAB
  0
TABLE
  2
DIMSTYLE
  5
A
330
0
100
AcDbSymbolTable
 70
     1
  0
DIMSTYLE
105
27
330
A
100
AcDbSymbolTableRecord
100
AcDbDimStyleTableRecord
  2
ISO-25
 70
     0
  3

  4

  5

  6

  7

 40
1.0
 41
2.5
 42
0.625
 43
3.75
 44
1.25
 45
0.0
 46
0.0
 47
0.0
 48
0.0
140
2.5
141
2.5
142
0.0
143
0.03937007874016
144
1.0
145
0.0
146
1.0
147
0.625
 71
     0
 72
     0
 73
     0
 74
     0
 75
     0
 76
     0
 77
     1
 78
     8
170
     0
171
     3
172
     1
173
     0
174
     0
175
     0
176
     0
177
     0
178
     0
270
     2
271
     2
272
     2
273
     2
274
     3
340
11
275
     0
280
     0
281
     0
282
     0
283
     0
284
     8
285
     0
286
     0
287
     3
288
     0
  0
ENDTAB
  0
TABLE
  2
BLOCK_RECORD
  5
1
330
0
100
AcDbSymbolTable
 70
     1
  0
BLOCK_RECORD
  5
1F
330
1
100
AcDbSymbolTableRecord
100
AcDbBlockTableRecord
  2
*MODEL_SPACE
  0
BLOCK_RECORD
  5
1B
330
1
100
AcDbSymbolTableRecord
100
AcDbBlockTableRecord
  2
*PAPER_SPACE
  0
ENDTAB
  0
ENDSEC
  0
SECTION
  2
BLOCKS
  0
BLOCK
  5
20
330
1F
100
AcDbEntity
  8
0
100
AcDbBlockBegin
  2
*MODEL_SPACE
 70
     0
 10
0.0
 20
0.0
 30
0.0
  3
*MODEL_SPACE
  1

  0
ENDBLK
  5
21
330
1F
100
AcDbEntity
  8
0
100
AcDbBlockEnd
  0
BLOCK
  5
1C
330
1B
100
AcDbEntity
 67
     1
  8
0
100
AcDbBlockBegin
  2
*PAPER_SPACE
  1

  0
ENDBLK
  5
1D
330
1B
100
AcDbEntity
 67
     1
  8
0
100
AcDbBlockEnd
  0
ENDSEC
  0
SECTION
  2
ENTITIES
  0
SPLINE
  5
100
100
AcDbEntity
  8
Layer_1
 62
7
100
AcDbSpline
 70
8
 71
3
 72
8
 73
4
 74
0
 40
0
 40
0
 40
0
 40
0
 40
1
 40
1
 40
1
 40
1
 10
19.811174
 20
4.692040
 30
0.0
 10
19.633479
 20
4.763840
 30
0.0
 10
19.441383
 20
4.892030
 30
0.0
 10
19.249785
 20
5.057780
 30
0.0
  0
SPLINE
  5
101
100
AcDbEntity
  8
Layer_1
 62
7
100
AcDbSpline
 70
8
 71
3
 72
8
 73
4
 74
0
 40
0
 40
0
 40
0
 40
0
 40
1
 40
1
 40
1
 40
1
 10
19.249785
 20
5.057780
 30
0.0
 10
19.058187
 20
5.223530
 30
0.0
 10
18.867087
 20
5.426850
 30
0.0
 10
18.691383
 20
5.648900
 30
0.0
  0
SPLINE
  5
102
100
AcDbEntity
  8
Layer_1
 62
7
100
AcDbSpline
 70
8
 71
3
 72
8
 73
4
 74
0
 40
0
 40
0
 40
0
 40
0
 40
1
 40
1
 40
1
 40
1
 10
18.691383
 20
5.648900
 30
0.0
 10
18.515678
 20
5.870950
 30
0.0
 10
18.355370
 20
6.111740
 30
0.0
 10
18.225356
 20
6.352430
 30
0.0
  0
SPLINE
  5
103
100
AcDbEntity
  8
Layer_1
 62
7
100
AcDbSpline
 70
8
 71
3
 72
8
 73
4
 74
0
 40
0
 40
0
 40
0
 40
0
 40
1
 40
1
 40
1
 40
1
 10
18.225356
 20
6.352430
 30
0.0
 10
18.095341
 20
6.593130
 30
0.0
 10
17.995621
 20
6.833730
 30
0.0
 10
17.941094
 20
7.055410
 30
0.0
  0
SPLINE
  5
104
100
AcDbEntity
  8
Layer_1
 62
7
100
AcDbSpline
 70
8
 71
3
 72
8
 73
4
 74
0
 40
0
 40
0
 40
0
 40
0
 40
1
 40
1
 40
1
 40
1
 10
17.941094
 20
7.055410
 30
0.0
 10
17.917944
 20
7.149510
 30
0.0
 10
17.885114
 20
7.255970
 30
0.0
 10
17.845624
 20
7.367720
 30
0.0
  0
SPLINE
  5
105
100
AcDbEntity
  8
Layer_1
 62
7
100
AcDbSpline
 70
8
 71
3
 72
8
 73
4
 74
0
 40
0
 40
0
 40
0
 40
0
 40
1
 40
1
 40
1
 40
1
 10
17.845624
 20
7.367720
 30
0.0
 10
17.806134
 20
7.479460
 30
0.0
 10
17.759964
 20
7.596530
 30
0.0
 10
17.710145
 20
7.711960
 30
0.0
  0
SPLINE
  5
106
100
AcDbEntity
  8
Layer_1
 62
7
100
AcDbSpline
 70
8
 71
3
 72
8
 73
4
 74
0
 40
0
 40
0
 40
0
 40
0
 40
1
 40
1
 40
1
 40
1
 10
17.710145
 20
7.711960
 30
0.0
 10
17.660325
 20
7.827390
 30
0.0
 10
17.606838
 20
7.941180
 30
0.0
 10
17.552700
 20
8.046350
 30
0.0
  0
SPLINE
  5
107
100
AcDbEntity
  8
Layer_1
 62
7
100
AcDbSpline
 70
8
 71
3
 72
8
 73
4
 74
0
 40
0
 40
0
 40
0
 40
0
 40
1
 40
1
 40
1
 40
1
 10
17.552700
 20
8.046350
 30
0.0
 10
17.498560
 20
8.151530
 30
0.0
 10
17.443771
 20
8.248100
 30
0.0
 10
17.391334
 20
8.329100
 30
0.0
  0
SPLINE
  5
108
100
AcDbEntity
  8
Layer_1
 62
7
100
AcDbSpline
 70
8
 71
3
 72
8
 73
4
 74
0
 40
0
 40
0
 40
0
 40
0
 40
1
 40
1
 40
1
 40
1
 10
17.391334
 20
8.329100
 30
0.0
 10
17.320004
 20
8.439280
 30
0.0
 10
17.252215
 20
8.681110
 30
0.0
 10
17.184500
 20
9.093230
 30
0.0
  0
SPLINE
  5
109
100
AcDbEntity
  8
Layer_1
 62
7
100
AcDbSpline
 70
8
 71
3
 72
8
 73
4
 74
0
 40
0
 40
0
 40
0
 40
0
 40
1
 40
1
 40
1
 40
1
 10
17.184500
 20
9.093230
 30
0.0
 10
17.116790
 20
9.505340
 30
0.0
 10
17.049143
 20
10.087740
 30
0.0
 10
16.978108
 20
10.879050
 30
0.0
  0
SPLINE
  5
10a
100
AcDbEntity
  8
Layer_1
 62
7
100
AcDbSpline
 70
8
 71
3
 72
8
 73
4
 74
0
 40
0
 40
0
 40
0
 40
0
 40
1
 40
1
 40
1
 40
1
 10
16.978108
 20
10.879050
 30
0.0
 10
16.907068
 20
11.670370
 30
0.0
 10
16.832643
 20
12.670590
 30
0.0
 10
16.751351
 20
13.918360
 30
0.0
  0
SPLINE
  5
10b
100
AcDbEntity
  8
Layer_1
 62
7
100
AcDbSpline
 70
8
 71
3
 72
8
 73
4
 74
0
 40
0
 40
0
 40
0
 40
0
 40
1
 40
1
 40
1
 40
1
 10
16.751351
 20
13.918360
 30
0.0
 10
16.670061
 20
15.166130
 30
0.0
 10
16.581907
 20
16.661440
 30
0.0
 10
16.483424
 20
18.442930
 30
0.0
  0
SPLINE
  5
10c
100
AcDbEntity
  8
Layer_1
 62
7
100
AcDbSpline
 70
8
 71
3
 72
8
 73
4
 74
0
 40
0
 40
0
 40
0
 40
0
 40
1
 40
1
 40
1
 40
1
 10
13.867995
 20
30.000470
 30
0.0
 10
12.756115
 20
31.082490
 30
0.0
 10
11.748238
 20
32.233800
 30
0.0
 10
10.838797
 20
33.465270
 30
0.0
  0
SPLINE
  5
10d
100
AcDbEntity
  8
Layer_1
 62
7
100
AcDbSpline
 70
8
 71
3
 72
8
 73
4
 74
0
 40
0
 40
0
 40
0
 40
0
 40
1
 40
1
 40
1
 40
1
 10
10.838797
 20
33.465270
 30
0.0
 10
9.929357
 20
34.696740
 30
0.0
 10
9.118353
 20
36.008370
 30
0.0
 10
8.400221
 20
37.411030
 30
0.0
  0
SPLINE
  5
10e
100
AcDbEntity
  8
Layer_1
 62
7
100
AcDbSpline
 70
8
 71
3
 72
8
 73
4
 74
0
 40
0
 40
0
 40
0
 40
0
 40
1
 40
1
 40
1
 40
1
 10
8.400221
 20
37.411030
 30
0.0
 10
7.682090
 20
38.813690
 30
0.0
 10
7.056829
 20
40.307380
 30
0.0
 10
6.518875
 20
41.902980
 30
0.0
  0
SPLINE
  5
10f
100
AcDbEntity
  8
Layer_1
 62
7
100
AcDbSpline
 70
8
 71
3
 72
8
 73
4
 74
0
 40
0
 40
0
 40
0
 40
0
 40
1
 40
1
 40
1
 40
1
 10
6.518875
 20
41.902980
 30
0.0
 10
5.980921
 20
43.498570
 30
0.0
 10
5.530273
 20
45.196060
 30
0.0
 10
5.161365
 20
47.006320
 30
0.0
  0
SPLINE
  5
110
100
AcDbEntity
  8
Layer_1
 62
7
100
AcDbSpline
 70
8
 71
3
 72
8
 73
4
 74
0
 40
0
 40
0
 40
0
 40
0
 40
1
 40
1
 40
1
 40
1
 10
5.161365
 20
47.006320
 30
0.0
 10
5.009840
 20
47.749860
 30
0.0
 10
4.888666
 20
48.643110
 30
0.0
 10
4.799752
 20
49.600950
 30
0.0
  0
SPLINE
  5
111
100
AcDbEntity
  8
Layer_1
 62
7
100
AcDbSpline
 70
8
 71
3
 72
8
 73
4
 74
0
 40
0
 40
0
 40
0
 40
0
 40
1
 40
1
 40
1
 40
1
 10
4.799752
 20
49.600950
 30
0.0
 10
4.710838
 20
50.558780
 30
0.0
 10
4.654185
 20
51.581210
 30
0.0
 10
4.631703
 20
52.583100
 30
0.0
  0
SPLINE
  5
112
100
AcDbEntity
  8
Layer_1
 62
7
100
AcDbSpline
 70
8
 71
3
 72
8
 73
4
 74
0
 40
0
 40
0
 40
0
 40
0
 40
1
 40
1
 40
1
 40
1
 10
4.631703
 20
52.583100
 30
0.0
 10
4.609221
 20
53.585000
 30
0.0
 10
4.620909
 20
54.566360
 30
0.0
 10
4.668677
 20
55.442070
 30
0.0
  0
SPLINE
  5
113
100
AcDbEntity
  8
Layer_1
 62
7
100
AcDbSpline
 70
8
 71
3
 72
8
 73
4
 74
0
 40
0
 40
0
 40
0
 40
0
 40
1
 40
1
 40
1
 40
1
 10
4.668677
 20
55.442070
 30
0.0
 10
4.716446
 20
56.317780
 30
0.0
 10
4.800295
 20
57.087830
 30
0.0
 10
4.922135
 20
57.667110
 30
0.0
  0
SPLINE
  5
114
100
AcDbEntity
  8
Layer_1
 62
7
100
AcDbSpline
 70
8
 71
3
 72
8
 73
4
 74
0
 40
0
 40
0
 40
0
 40
0
 40
1
 40
1
 40
1
 40
1
 10
4.922135
 20
57.667110
 30
0.0
 10
5.080240
 20
58.418800
 30
0.0
 10
5.322573
 20
59.167160
 30
0.0
 10
5.629218
 20
59.882460
 30
0.0
  0
SPLINE
  5
115
100
AcDbEntity
  8
Layer_1
 62
7
100
AcDbSpline
 70
8
 71
3
 72
8
 73
4
 74
0
 40
0
 40
0
 40
0
 40
0
 40
1
 40
1
 40
1
 40
1
 10
5.629218
 20
59.882460
 30
0.0
 10
5.935862
 20
60.597760
 30
0.0
 10
6.306819
 20
61.280020
 30
0.0
 10
6.722170
 20
61.899520
 30
0.0
  0
SPLINE
  5
116
100
AcDbEntity
  8
Layer_1
 62
7
100
AcDbSpline
 70
8
 71
3
 72
8
 73
4
 74
0
 40
0
 40
0
 40
0
 40
0
 40
1
 40
1
 40
1
 40
1
 10
6.722170
 20
61.899520
 30
0.0
 10
7.137521
 20
62.519020
 30
0.0
 10
7.597267
 20
63.075760
 30
0.0
 10
8.081492
 20
63.540040
 30
0.0
  0
SPLINE
  5
117
100
AcDbEntity
  8
Layer_1
 62
7
100
AcDbSpline
 70
8
 71
3
 72
8
 73
4
 74
0
 40
0
 40
0
 40
0
 40
0
 40
1
 40
1
 40
1
 40
1
 10
8.081492
 20
63.540040
 30
0.0
 10
8.565717
 20
64.004330
 30
0.0
 10
9.074420
 20
64.376150
 30
0.0
 10
9.587685
 20
64.625810
 30
0.0
  0
SPLINE
  5
118
100
AcDbEntity
  8
Layer_1
 62
7
100
AcDbSpline
 70
8
 71
3
 72
8
 73
4
 74
0
 40
0
 40
0
 40
0
 40
0
 40
1
 40
1
 40
1
 40
1
 10
9.587685
 20
64.625810
 30
0.0
 10
9.835892
 20
64.746540
 30
0.0
 10
10.027515
 20
64.846170
 30
0.0
 10
10.186283
 20
64.964170
 30
0.0
  0
SPLINE
  5
119
100
AcDbEntity
  8
Layer_1
 62
7
100
AcDbSpline
 70
8
 71
3
 72
8
 73
4
 74
0
 40
0
 40
0
 40
0
 40
0
 40
1
 40
1
 40
1
 40
1
 10
10.186283
 20
64.964170
 30
0.0
 10
10.345051
 20
65.082160
 30
0.0
 10
10.470965
 20
65.218520
 30
0.0
 10
10.587755
 20
65.412690
 30
0.0
  0
SPLINE
  5
11a
100
AcDbEntity
  8
Layer_1
 62
7
100
AcDbSpline
 70
8
 71
3
 72
8
 73
4
 74
0
 40
0
 40
0
 40
0
 40
0
 40
1
 40
1
 40
1
 40
1
 10
10.587755
 20
65.412690
 30
0.0
 10
10.704545
 20
65.606850
 30
0.0
 10
10.812211
 20
65.858840
 30
0.0
 10
10.934484
 20
66.208080
 30
0.0
  0
SPLINE
  5
11b
100
AcDbEntity
  8
Layer_1
 62
7
100
AcDbSpline
 70
8
 71
3
 72
8
 73
4
 74
0
 40
0
 40
0
 40
0
 40
0
 40
1
 40
1
 40
1
 40
1
 10
10.934484
 20
66.208080
 30
0.0
 10
11.056758
 20
66.557330
 30
0.0
 10
11.193637
 20
67.003840
 30
0.0
 10
11.368855
 20
67.587070
 30
0.0
  0
SPLINE
  5
11c
100
AcDbEntity
  8
Layer_1
 62
7
100
AcDbSpline
 70
8
 71
3
 72
8
 73
4
 74
0
 40
0
 40
0
 40
0
 40
0
 40
1
 40
1
 40
1
 40
1
 10
11.368855
 20
67.587070
 30
0.0
 10
11.804253
 20
69.036340
 30
0.0
 10
12.365169
 20
70.512030
 30
0.0
 10
13.031707
 20
71.981130
 30
0.0
  0
SPLINE
  5
11d
100
AcDbEntity
  8
Layer_1
 62
7
100
AcDbSpline
 70
8
 71
3
 72
8
 73
4
 74
0
 40
0
 40
0
 40
0
 40
0
 40
1
 40
1
 40
1
 40
1
 10
13.031707
 20
71.981130
 30
0.0
 10
13.698244
 20
73.450230
 30
0.0
 10
14.470404
 20
74.912740
 30
0.0
 10
15.328288
 20
76.335660
 30
0.0
  0
SPLINE
  5
11e
100
AcDbEntity
  8
Layer_1
 62
7
100
AcDbSpline
 70
8
 71
3
 72
8
 73
4
 74
0
 40
0
 40
0
 40
0
 40
0
 40
1
 40
1
 40
1
 40
1
 10
15.328288
 20
76.335660
 30
0.0
 10
16.186173
 20
77.758580
 30
0.0
 10
17.129781
 20
79.141910
 30
0.0
 10
18.139218
 20
80.452650
 30
0.0
  0
SPLINE
  5
11f
100
AcDbEntity
  8
Layer_1
 62
7
100
AcDbSpline
 70
8
 71
3
 72
8
 73
4
 74
0
 40
0
 40
0
 40
0
 40
0
 40
1
 40
1
 40
1
 40
1
 10
18.139218
 20
80.452650
 30
0.0
 10
19.148655
 20
81.763390
 30
0.0
 10
20.223919
 20
83.001530
 30
0.0
 10
21.345114
 20
84.134090
 30
0.0
  0
LWPOLYLINE
  5
120
100
AcDbEntity
  8
Layer_1
 62
7
100
AcDbPolyline
 90
9
 70
0
 10
16.483424
 20
18.442930
 30
0.0
 10
16.351789
 20
20.824120
 30
0.0
 10
16.220154
 20
23.205310
 30
0.0
 10
16.088519
 20
25.586490
 30
0.0
 10
15.956884
 20
27.967680
 30
0.0
 10
15.434662
 20
28.475880
 30
0.0
 10
14.912440
 20
28.984070
 30
0.0
 10
14.390217
 20
29.492270
 30
0.0
 10
13.867995
 20
30.000470
 30
0.0
  0
SPLINE
  5
121
100
AcDbEntity
  8
Layer_1
 62
7
100
AcDbSpline
 70
8
 71
3
 72
8
 73
4
 74
0
 40
0
 40
0
 40
0
 40
0
 40
1
 40
1
 40
1
 40
1
 10
20.948284
 20
85.324680
 30
0.0
 10
20.552809
 20
85.309780
 30
0.0
 10
20.252613
 20
85.299880
 30
0.0
 10
20.023574
 20
85.303780
 30
0.0
  0
SPLINE
  5
122
100
AcDbEntity
  8
Layer_1
 62
7
100
AcDbSpline
 70
8
 71
3
 72
8
 73
4
 74
0
 40
0
 40
0
 40
0
 40
0
 40
1
 40
1
 40
1
 40
1
 10
20.023574
 20
85.303780
 30
0.0
 10
19.794534
 20
85.307780
 30
0.0
 10
19.636650
 20
85.325280
 30
0.0
 10
19.525799
 20
85.365480
 30
0.0
  0
SPLINE
  5
123
100
AcDbEntity
  8
Layer_1
 62
7
100
AcDbSpline
 70
8
 71
3
 72
8
 73
4
 74
0
 40
0
 40
0
 40
0
 40
0
 40
1
 40
1
 40
1
 40
1
 10
19.525799
 20
85.365480
 30
0.0
 10
19.414948
 20
85.405680
 30
0.0
 10
19.351129
 20
85.468400
 30
0.0
 10
19.310219
 20
85.562400
 30
0.0
  0
SPLINE
  5
124
100
AcDbEntity
  8
Layer_1
 62
7
100
AcDbSpline
 70
8
 71
3
 72
8
 73
4
 74
0
 40
0
 40
0
 40
0
 40
0
 40
1
 40
1
 40
1
 40
1
 10
19.310219
 20
85.562400
 30
0.0
 10
19.269309
 20
85.656400
 30
0.0
 10
19.251309
 20
85.781690
 30
0.0
 10
19.232089
 20
85.947000
 30
0.0
  0
SPLINE
  5
125
100
AcDbEntity
  8
Layer_1
 62
7
100
AcDbSpline
 70
8
 71
3
 72
8
 73
4
 74
0
 40
0
 40
0
 40
0
 40
0
 40
1
 40
1
 40
1
 40
1
 10
19.232089
 20
85.947000
 30
0.0
 10
19.221159
 20
86.041100
 30
0.0
 10
19.220929
 20
86.139320
 30
0.0
 10
19.229789
 20
86.236370
 30
0.0
  0
SPLINE
  5
126
100
AcDbEntity
  8
Layer_1
 62
7
100
AcDbSpline
 70
8
 71
3
 72
8
 73
4
 74
0
 40
0
 40
0
 40
0
 40
0
 40
1
 40
1
 40
1
 40
1
 10
19.229789
 20
86.236370
 30
0.0
 10
19.238689
 20
86.333370
 30
0.0
 10
19.256739
 20
86.429260
 30
0.0
 10
19.282379
 20
86.518530
 30
0.0
  0
SPLINE
  5
127
100
AcDbEntity
  8
Layer_1
 62
7
100
AcDbSpline
 70
8
 71
3
 72
8
 73
4
 74
0
 40
0
 40
0
 40
0
 40
0
 40
1
 40
1
 40
1
 40
1
 10
19.282379
 20
86.518530
 30
0.0
 10
19.308019
 20
86.607830
 30
0.0
 10
19.341259
 20
86.690470
 30
0.0
 10
19.380549
 20
86.761170
 30
0.0
  0
SPLINE
  5
128
100
AcDbEntity
  8
Layer_1
 62
7
100
AcDbSpline
 70
8
 71
3
 72
8
 73
4
 74
0
 40
0
 40
0
 40
0
 40
0
 40
1
 40
1
 40
1
 40
1
 10
19.380549
 20
86.761170
 30
0.0
 10
19.419839
 20
86.831870
 30
0.0
 10
19.465179
 20
86.890600
 30
0.0
 10
19.515029
 20
86.931970
 30
0.0
  0
SPLINE
  5
129
100
AcDbEntity
  8
Layer_1
 62
7
100
AcDbSpline
 70
8
 71
3
 72
8
 73
4
 74
0
 40
0
 40
0
 40
0
 40
0
 40
1
 40
1
 40
1
 40
1
 10
19.515029
 20
86.931970
 30
0.0
 10
19.564879
 20
86.973370
 30
0.0
 10
19.747952
 20
87.057700
 30
0.0
 10
20.035926
 20
87.174700
 30
0.0
  0
SPLINE
  5
12a
100
AcDbEntity
  8
Layer_1
 62
7
100
AcDbSpline
 70
8
 71
3
 72
8
 73
4
 74
0
 40
0
 40
0
 40
0
 40
0
 40
1
 40
1
 40
1
 40
1
 10
20.035926
 20
87.174700
 30
0.0
 10
20.323900
 20
87.291700
 30
0.0
 10
20.716773
 20
87.441320
 30
0.0
 10
21.186217
 20
87.613200
 30
0.0
  0
SPLINE
  5
12b
100
AcDbEntity
  8
Layer_1
 62
7
100
AcDbSpline
 70
8
 71
3
 72
8
 73
4
 74
0
 40
0
 40
0
 40
0
 40
0
 40
1
 40
1
 40
1
 40
1
 10
21.186217
 20
87.613200
 30
0.0
 10
21.655660
 20
87.785080
 30
0.0
 10
22.201675
 20
87.979210
 30
0.0
 10
22.795931
 20
88.185230
 30
0.0
  0
SPLINE
  5
12c
100
AcDbEntity
  8
Layer_1
 62
7
100
AcDbSpline
 70
8
 71
3
 72
8
 73
4
 74
0
 40
0
 40
0
 40
0
 40
0
 40
1
 40
1
 40
1
 40
1
 10
22.795931
 20
88.185230
 30
0.0
 10
23.390188
 20
88.391250
 30
0.0
 10
24.032687
 20
88.609150
 30
0.0
 10
24.695099
 20
88.828570
 30
0.0
  0
SPLINE
  5
12d
100
AcDbEntity
  8
Layer_1
 62
7
100
AcDbSpline
 70
8
 71
3
 72
8
 73
4
 74
0
 40
0
 40
0
 40
0
 40
0
 40
1
 40
1
 40
1
 40
1
 10
24.695099
 20
88.828570
 30
0.0
 10
25.357511
 20
89.047990
 30
0.0
 10
26.057368
 20
89.291350
 30
0.0
 10
26.755188
 20
89.543350
 30
0.0
  0
SPLINE
  5
12e
100
AcDbEntity
  8
Layer_1
 62
7
100
AcDbSpline
 70
8
 71
3
 72
8
 73
4
 74
0
 40
0
 40
0
 40
0
 40
0
 40
1
 40
1
 40
1
 40
1
 10
26.755188
 20
89.543350
 30
0.0
 10
27.453007
 20
89.795350
 30
0.0
 10
28.148790
 20
90.055980
 30
0.0
 10
28.803053
 20
90.309920
 30
0.0
  0
SPLINE
  5
12f
100
AcDbEntity
  8
Layer_1
 62
7
100
AcDbSpline
 70
8
 71
3
 72
8
 73
4
 74
0
 40
0
 40
0
 40
0
 40
0
 40
1
 40
1
 40
1
 40
1
 10
28.803053
 20
90.309920
 30
0.0
 10
29.457316
 20
90.563850
 30
0.0
 10
30.070060
 20
90.811090
 30
0.0
 10
30.601803
 20
91.036320
 30
0.0
  0
SPLINE
  5
130
100
AcDbEntity
  8
Layer_1
 62
7
100
AcDbSpline
 70
8
 71
3
 72
8
 73
4
 74
0
 40
0
 40
0
 40
0
 40
0
 40
1
 40
1
 40
1
 40
1
 10
30.601803
 20
91.036320
 30
0.0
 10
31.133547
 20
91.261540
 30
0.0
 10
31.584289
 20
91.464750
 30
0.0
 10
31.914549
 20
91.630620
 30
0.0
  0
SPLINE
  5
131
100
AcDbEntity
  8
Layer_1
 62
7
100
AcDbSpline
 70
8
 71
3
 72
8
 73
4
 74
0
 40
0
 40
0
 40
0
 40
0
 40
1
 40
1
 40
1
 40
1
 10
31.914549
 20
91.630620
 30
0.0
 10
32.606862
 20
91.978320
 30
0.0
 10
33.376955
 20
92.326010
 30
0.0
 10
34.193229
 20
92.662760
 30
0.0
  0
SPLINE
  5
132
100
AcDbEntity
  8
Layer_1
 62
7
100
AcDbSpline
 70
8
 71
3
 72
8
 73
4
 74
0
 40
0
 40
0
 40
0
 40
0
 40
1
 40
1
 40
1
 40
1
 10
34.193229
 20
92.662760
 30
0.0
 10
35.009504
 20
92.999500
 30
0.0
 10
35.871960
 20
93.325290
 30
0.0
 10
36.748999
 20
93.629180
 30
0.0
  0
SPLINE
  5
133
100
AcDbEntity
  8
Layer_1
 62
7
100
AcDbSpline
 70
8
 71
3
 72
8
 73
4
 74
0
 40
0
 40
0
 40
0
 40
0
 40
1
 40
1
 40
1
 40
1
 10
36.748999
 20
93.629180
 30
0.0
 10
37.626038
 20
93.933070
 30
0.0
 10
38.517659
 20
94.215060
 30
0.0
 10
39.392264
 20
94.464200
 30
0.0
  0
SPLINE
  5
134
100
AcDbEntity
  8
Layer_1
 62
7
100
AcDbSpline
 70
8
 71
3
 72
8
 73
4
 74
0
 40
0
 40
0
 40
0
 40
0
 40
1
 40
1
 40
1
 40
1
 10
39.392264
 20
94.464200
 30
0.0
 10
40.266868
 20
94.713340
 30
0.0
 10
41.124457
 20
94.929630
 30
0.0
 10
41.933429
 20
95.102120
 30
0.0
  0
SPLINE
  5
135
100
AcDbEntity
  8
Layer_1
 62
7
100
AcDbSpline
 70
8
 71
3
 72
8
 73
4
 74
0
 40
0
 40
0
 40
0
 40
0
 40
1
 40
1
 40
1
 40
1
 10
41.933429
 20
95.102120
 30
0.0
 10
42.387589
 20
95.198920
 30
0.0
 10
42.828342
 20
95.277160
 30
0.0
 10
43.310813
 20
95.339800
 30
0.0
  0
SPLINE
  5
136
100
AcDbEntity
  8
Layer_1
 62
7
100
AcDbSpline
 70
8
 71
3
 72
8
 73
4
 74
0
 40
0
 40
0
 40
0
 40
0
 40
1
 40
1
 40
1
 40
1
 10
43.310813
 20
95.339800
 30
0.0
 10
43.793284
 20
95.402400
 30
0.0
 10
44.317473
 20
95.449510
 30
0.0
 10
44.938505
 20
95.484090
 30
0.0
  0
SPLINE
  5
137
100
AcDbEntity
  8
Layer_1
 62
7
100
AcDbSpline
 70
8
 71
3
 72
8
 73
4
 74
0
 40
0
 40
0
 40
0
 40
0
 40
1
 40
1
 40
1
 40
1
 10
44.938505
 20
95.484090
 30
0.0
 10
45.559537
 20
95.518690
 30
0.0
 10
46.277412
 20
95.540790
 30
0.0
 10
47.147254
 20
95.553390
 30
0.0
  0
SPLINE
  5
138
100
AcDbEntity
  8
Layer_1
 62
7
100
AcDbSpline
 70
8
 71
3
 72
8
 73
4
 74
0
 40
0
 40
0
 40
0
 40
0
 40
1
 40
1
 40
1
 40
1
 10
47.147254
 20
95.553390
 30
0.0
 10
48.017097
 20
95.566090
 30
0.0
 10
49.038907
 20
95.569290
 30
0.0
 10
50.267809
 20
95.566190
 30
0.0
  0
SPLINE
  5
139
100
AcDbEntity
  8
Layer_1
 62
7
100
AcDbSpline
 70
8
 71
3
 72
8
 73
4
 74
0
 40
0
 40
0
 40
0
 40
0
 40
1
 40
1
 40
1
 40
1
 10
50.267809
 20
95.566190
 30
0.0
 10
51.752242
 20
95.562190
 30
0.0
 10
52.879462
 20
95.558190
 30
0.0
 10
53.782197
 20
95.541790
 30
0.0
  0
SPLINE
  5
13a
100
AcDbEntity
  8
Layer_1
 62
7
100
AcDbSpline
 70
8
 71
3
 72
8
 73
4
 74
0
 40
0
 40
0
 40
0
 40
0
 40
1
 40
1
 40
1
 40
1
 10
53.782197
 20
95.541790
 30
0.0
 10
54.684932
 20
95.525290
 30
0.0
 10
55.363181
 20
95.496390
 30
0.0
 10
55.949670
 20
95.443090
 30
0.0
  0
SPLINE
  5
13b
100
AcDbEntity
  8
Layer_1
 62
7
100
AcDbSpline
 70
8
 71
3
 72
8
 73
4
 74
0
 40
0
 40
0
 40
0
 40
0
 40
1
 40
1
 40
1
 40
1
 10
55.949670
 20
95.443090
 30
0.0
 10
56.536160
 20
95.389790
 30
0.0
 10
57.030889
 20
95.311920
 30
0.0
 10
57.566585
 20
95.197550
 30
0.0
  0
SPLINE
  5
13c
100
AcDbEntity
  8
Layer_1
 62
7
100
AcDbSpline
 70
8
 71
3
 72
8
 73
4
 74
0
 40
0
 40
0
 40
0
 40
0
 40
1
 40
1
 40
1
 40
1
 10
57.566585
 20
95.197550
 30
0.0
 10
58.102282
 20
95.083180
 30
0.0
 10
58.678944
 20
94.932260
 30
0.0
 10
59.429299
 20
94.732730
 30
0.0
  0
SPLINE
  5
13d
100
AcDbEntity
  8
Layer_1
 62
7
100
AcDbSpline
 70
8
 71
3
 72
8
 73
4
 74
0
 40
0
 40
0
 40
0
 40
0
 40
1
 40
1
 40
1
 40
1
 10
59.429299
 20
94.732730
 30
0.0
 10
60.675649
 20
94.401310
 30
0.0
 10
61.870116
 20
94.040330
 30
0.0
 10
63.017906
 20
93.647530
 30
0.0
  0
SPLINE
  5
13e
100
AcDbEntity
  8
Layer_1
 62
7
100
AcDbSpline
 70
8
 71
3
 72
8
 73
4
 74
0
 40
0
 40
0
 40
0
 40
0
 40
1
 40
1
 40
1
 40
1
 10
63.017906
 20
93.647530
 30
0.0
 10
64.165695
 20
93.254730
 30
0.0
 10
65.266807
 20
92.830110
 30
0.0
 10
66.326444
 20
92.371430
 30
0.0
  0
SPLINE
  5
13f
100
AcDbEntity
  8
Layer_1
 62
7
100
AcDbSpline
 70
8
 71
3
 72
8
 73
4
 74
0
 40
0
 40
0
 40
0
 40
0
 40
1
 40
1
 40
1
 40
1
 10
66.326444
 20
92.371430
 30
0.0
 10
67.386082
 20
91.912750
 30
0.0
 10
68.404245
 20
91.419990
 30
0.0
 10
69.386140
 20
90.890920
 30
0.0
  0
SPLINE
  5
140
100
AcDbEntity
  8
Layer_1
 62
7
100
AcDbSpline
 70
8
 71
3
 72
8
 73
4
 74
0
 40
0
 40
0
 40
0
 40
0
 40
1
 40
1
 40
1
 40
1
 10
69.386140
 20
90.890920
 30
0.0
 10
70.368034
 20
90.361850
 30
0.0
 10
71.313659
 20
89.796450
 30
0.0
 10
72.228219
 20
89.192480
 30
0.0
  0
SPLINE
  5
141
100
AcDbEntity
  8
Layer_1
 62
7
100
AcDbSpline
 70
8
 71
3
 72
8
 73
4
 74
0
 40
0
 40
0
 40
0
 40
0
 40
1
 40
1
 40
1
 40
1
 10
72.228219
 20
89.192480
 30
0.0
 10
72.410122
 20
89.072350
 30
0.0
 10
72.635845
 20
88.939780
 30
0.0
 10
72.888027
 20
88.803020
 30
0.0
  0
SPLINE
  5
142
100
AcDbEntity
  8
Layer_1
 62
7
100
AcDbSpline
 70
8
 71
3
 72
8
 73
4
 74
0
 40
0
 40
0
 40
0
 40
0
 40
1
 40
1
 40
1
 40
1
 10
72.888027
 20
88.803020
 30
0.0
 10
73.140209
 20
88.666260
 30
0.0
 10
73.418849
 20
88.525320
 30
0.0
 10
73.706583
 20
88.388450
 30
0.0
  0
SPLINE
  5
143
100
AcDbEntity
  8
Layer_1
 62
7
100
AcDbSpline
 70
8
 71
3
 72
8
 73
4
 74
0
 40
0
 40
0
 40
0
 40
0
 40
1
 40
1
 40
1
 40
1
 10
73.706583
 20
88.388450
 30
0.0
 10
73.994317
 20
88.251580
 30
0.0
 10
74.291146
 20
88.118780
 30
0.0
 10
74.579707
 20
87.998320
 30
0.0
  0
SPLINE
  5
144
100
AcDbEntity
  8
Layer_1
 62
7
100
AcDbSpline
 70
8
 71
3
 72
8
 73
4
 74
0
 40
0
 40
0
 40
0
 40
0
 40
1
 40
1
 40
1
 40
1
 10
74.579707
 20
87.998320
 30
0.0
 10
74.868267
 20
87.877860
 30
0.0
 10
75.148559
 20
87.769730
 30
0.0
 10
75.403219
 20
87.682190
 30
0.0
  0
SPLINE
  5
145
100
AcDbEntity
  8
Layer_1
 62
7
100
AcDbSpline
 70
8
 71
3
 72
8
 73
4
 74
0
 40
0
 40
0
 40
0
 40
0
 40
1
 40
1
 40
1
 40
1
 10
75.403219
 20
87.682190
 30
0.0
 10
76.359697
 20
87.353400
 30
0.0
 10
77.094251
 20
87.097000
 30
0.0
 10
77.658064
 20
86.883770
 30
0.0
  0
SPLINE
  5
146
100
AcDbEntity
  8
Layer_1
 62
7
100
AcDbSpline
 70
8
 71
3
 72
8
 73
4
 74
0
 40
0
 40
0
 40
0
 40
0
 40
1
 40
1
 40
1
 40
1
 10
77.658064
 20
86.883770
 30
0.0
 10
78.221877
 20
86.670540
 30
0.0
 10
78.614948
 20
86.500480
 30
0.0
 10
78.888460
 20
86.344390
 30
0.0
  0
SPLINE
  5
147
100
AcDbEntity
  8
Layer_1
 62
7
100
AcDbSpline
 70
8
 71
3
 72
8
 73
4
 74
0
 40
0
 40
0
 40
0
 40
0
 40
1
 40
1
 40
1
 40
1
 10
78.888460
 20
86.344390
 30
0.0
 10
79.161972
 20
86.188290
 30
0.0
 10
79.315924
 20
86.046160
 30
0.0
 10
79.401499
 20
85.888780
 30
0.0
  0
SPLINE
  5
148
100
AcDbEntity
  8
Layer_1
 62
7
100
AcDbSpline
 70
8
 71
3
 72
8
 73
4
 74
0
 40
0
 40
0
 40
0
 40
0
 40
1
 40
1
 40
1
 40
1
 10
79.401499
 20
85.888780
 30
0.0
 10
79.487069
 20
85.731400
 30
0.0
 10
79.504269
 20
85.558770
 30
0.0
 10
79.504269
 20
85.341690
 30
0.0
  0
SPLINE
  5
149
100
AcDbEntity
  8
Layer_1
 62
7
100
AcDbSpline
 70
8
 71
3
 72
8
 73
4
 74
0
 40
0
 40
0
 40
0
 40
0
 40
1
 40
1
 40
1
 40
1
 10
79.504269
 20
85.341690
 30
0.0
 10
79.504269
 20
85.202210
 30
0.0
 10
79.494869
 20
85.080650
 30
0.0
 10
79.475189
 20
84.975300
 30
0.0
  0
SPLINE
  5
14a
100
AcDbEntity
  8
Layer_1
 62
7
100
AcDbSpline
 70
8
 71
3
 72
8
 73
4
 74
0
 40
0
 40
0
 40
0
 40
0
 40
1
 40
1
 40
1
 40
1
 10
79.475189
 20
84.975300
 30
0.0
 10
79.455479
 20
84.869950
 30
0.0
 10
79.425449
 20
84.780810
 30
0.0
 10
79.384129
 20
84.706150
 30
0.0
  0
SPLINE
  5
14b
100
AcDbEntity
  8
Layer_1
 62
7
100
AcDbSpline
 70
8
 71
3
 72
8
 73
4
 74
0
 40
0
 40
0
 40
0
 40
0
 40
1
 40
1
 40
1
 40
1
 10
79.384129
 20
84.706150
 30
0.0
 10
79.342819
 20
84.631450
 30
0.0
 10
79.290219
 20
84.571320
 30
0.0
 10
79.225391
 20
84.523910
 30
0.0
  0
SPLINE
  5
14c
100
AcDbEntity
  8
Layer_1
 62
7
100
AcDbSpline
 70
8
 71
3
 72
8
 73
4
 74
0
 40
0
 40
0
 40
0
 40
0
 40
1
 40
1
 40
1
 40
1
 10
79.225391
 20
84.523910
 30
0.0
 10
79.160561
 20
84.476510
 30
0.0
 10
79.083502
 20
84.441810
 30
0.0
 10
78.993257
 20
84.418260
 30
0.0
  0
SPLINE
  5
14d
100
AcDbEntity
  8
Layer_1
 62
7
100
AcDbSpline
 70
8
 71
3
 72
8
 73
4
 74
0
 40
0
 40
0
 40
0
 40
0
 40
1
 40
1
 40
1
 40
1
 10
78.993257
 20
84.418260
 30
0.0
 10
78.883634
 20
84.389560
 30
0.0
 10
78.813308
 20
84.347860
 30
0.0
 10
78.794306
 20
84.272770
 30
0.0
  0
SPLINE
  5
14e
100
AcDbEntity
  8
Layer_1
 62
7
100
AcDbSpline
 70
8
 71
3
 72
8
 73
4
 74
0
 40
0
 40
0
 40
0
 40
0
 40
1
 40
1
 40
1
 40
1
 10
78.794306
 20
84.272770
 30
0.0
 10
78.775306
 20
84.197670
 30
0.0
 10
78.807626
 20
84.089040
 30
0.0
 10
78.903296
 20
83.926580
 30
0.0
  0
SPLINE
  5
14f
100
AcDbEntity
  8
Layer_1
 62
7
100
AcDbSpline
 70
8
 71
3
 72
8
 73
4
 74
0
 40
0
 40
0
 40
0
 40
0
 40
1
 40
1
 40
1
 40
1
 10
78.903296
 20
83.926580
 30
0.0
 10
78.998966
 20
83.764120
 30
0.0
 10
79.157990
 20
83.547790
 30
0.0
 10
79.392392
 20
83.257170
 30
0.0
  0
SPLINE
  5
150
100
AcDbEntity
  8
Layer_1
 62
7
100
AcDbSpline
 70
8
 71
3
 72
8
 73
4
 74
0
 40
0
 40
0
 40
0
 40
0
 40
1
 40
1
 40
1
 40
1
 10
79.392392
 20
83.257170
 30
0.0
 10
79.626793
 20
82.966550
 30
0.0
 10
79.936572
 20
82.601630
 30
0.0
 10
80.333757
 20
82.142000
 30
0.0
  0
SPLINE
  5
151
100
AcDbEntity
  8
Layer_1
 62
7
100
AcDbSpline
 70
8
 71
3
 72
8
 73
4
 74
0
 40
0
 40
0
 40
0
 40
0
 40
1
 40
1
 40
1
 40
1
 10
80.333757
 20
82.142000
 30
0.0
 10
81.229987
 20
81.104850
 30
0.0
 10
82.062515
 20
80.045490
 30
0.0
 10
82.834452
 20
78.958450
 30
0.0
  0
SPLINE
  5
152
100
AcDbEntity
  8
Layer_1
 62
7
100
AcDbSpline
 70
8
 71
3
 72
8
 73
4
 74
0
 40
0
 40
0
 40
0
 40
0
 40
1
 40
1
 40
1
 40
1
 10
82.834452
 20
78.958450
 30
0.0
 10
83.606390
 20
77.871410
 30
0.0
 10
84.317736
 20
76.756690
 30
0.0
 10
84.971603
 20
75.608840
 30
0.0
  0
SPLINE
  5
153
100
AcDbEntity
  8
Layer_1
 62
7
100
AcDbSpline
 70
8
 71
3
 72
8
 73
4
 74
0
 40
0
 40
0
 40
0
 40
0
 40
1
 40
1
 40
1
 40
1
 10
84.971603
 20
75.608840
 30
0.0
 10
85.625470
 20
74.460980
 30
0.0
 10
86.221857
 20
73.279980
 30
0.0
 10
86.763876
 20
72.060390
 30
0.0
  0
SPLINE
  5
154
100
AcDbEntity
  8
Layer_1
 62
7
100
AcDbSpline
 70
8
 71
3
 72
8
 73
4
 74
0
 40
0
 40
0
 40
0
 40
0
 40
1
 40
1
 40
1
 40
1
 10
86.763876
 20
72.060390
 30
0.0
 10
87.305895
 20
70.840790
 30
0.0
 10
87.793545
 20
69.582590
 30
0.0
 10
88.229937
 20
68.280330
 30
0.0
  0
SPLINE
  5
155
100
AcDbEntity
  8
Layer_1
 62
7
100
AcDbSpline
 70
8
 71
3
 72
8
 73
4
 74
0
 40
0
 40
0
 40
0
 40
0
 40
1
 40
1
 40
1
 40
1
 10
88.229937
 20
68.280330
 30
0.0
 10
88.471407
 20
67.559740
 30
0.0
 10
88.659013
 20
67.008010
 30
0.0
 10
88.821685
 20
66.574880
 30
0.0
  0
SPLINE
  5
156
100
AcDbEntity
  8
Layer_1
 62
7
100
AcDbSpline
 70
8
 71
3
 72
8
 73
4
 74
0
 40
0
 40
0
 40
0
 40
0
 40
1
 40
1
 40
1
 40
1
 10
88.821685
 20
66.574880
 30
0.0
 10
88.984358
 20
66.141740
 30
0.0
 10
89.122098
 20
65.827220
 30
0.0
 10
89.263837
 20
65.581040
 30
0.0
  0
SPLINE
  5
157
100
AcDbEntity
  8
Layer_1
 62
7
100
AcDbSpline
 70
8
 71
3
 72
8
 73
4
 74
0
 40
0
 40
0
 40
0
 40
0
 40
1
 40
1
 40
1
 40
1
 10
89.263837
 20
65.581040
 30
0.0
 10
89.405576
 20
65.334870
 30
0.0
 10
89.551313
 20
65.157050
 30
0.0
 10
89.729981
 20
64.997330
 30
0.0
  0
SPLINE
  5
158
100
AcDbEntity
  8
Layer_1
 62
7
100
AcDbSpline
 70
8
 71
3
 72
8
 73
4
 74
0
 40
0
 40
0
 40
0
 40
0
 40
1
 40
1
 40
1
 40
1
 10
89.729981
 20
64.997330
 30
0.0
 10
89.908649
 20
64.837620
 30
0.0
 10
90.120247
 20
64.696000
 30
0.0
 10
90.393707
 20
64.522250
 30
0.0
  0
SPLINE
  5
159
100
AcDbEntity
  8
Layer_1
 62
7
100
AcDbSpline
 70
8
 71
3
 72
8
 73
4
 74
0
 40
0
 40
0
 40
0
 40
0
 40
1
 40
1
 40
1
 40
1
 10
90.393707
 20
64.522250
 30
0.0
 10
91.185755
 20
64.018990
 30
0.0
 10
91.893376
 20
63.381750
 30
0.0
 10
92.509281
 20
62.627200
 30
0.0
  0
SPLINE
  5
15a
100
AcDbEntity
  8
Layer_1
 62
7
100
AcDbSpline
 70
8
 71
3
 72
8
 73
4
 74
0
 40
0
 40
0
 40
0
 40
0
 40
1
 40
1
 40
1
 40
1
 10
92.509281
 20
62.627200
 30
0.0
 10
93.125186
 20
61.872650
 30
0.0
 10
93.649375
 20
61.000790
 30
0.0
 10
94.074558
 20
60.028290
 30
0.0
  0
SPLINE
  5
15b
100
AcDbEntity
  8
Layer_1
 62
7
100
AcDbSpline
 70
8
 71
3
 72
8
 73
4
 74
0
 40
0
 40
0
 40
0
 40
0
 40
1
 40
1
 40
1
 40
1
 10
94.074558
 20
60.028290
 30
0.0
 10
94.499741
 20
59.055790
 30
0.0
 10
94.825919
 20
57.982650
 30
0.0
 10
95.045800
 20
56.825550
 30
0.0
  0
SPLINE
  5
15c
100
AcDbEntity
  8
Layer_1
 62
7
100
AcDbSpline
 70
8
 71
3
 72
8
 73
4
 74
0
 40
0
 40
0
 40
0
 40
0
 40
1
 40
1
 40
1
 40
1
 10
95.045800
 20
56.825550
 30
0.0
 10
95.265681
 20
55.668450
 30
0.0
 10
95.379267
 20
54.427380
 30
0.0
 10
95.379267
 20
53.119030
 30
0.0
  0
SPLINE
  5
15d
100
AcDbEntity
  8
Layer_1
 62
7
100
AcDbSpline
 70
8
 71
3
 72
8
 73
4
 74
0
 40
0
 40
0
 40
0
 40
0
 40
1
 40
1
 40
1
 40
1
 10
95.379267
 20
53.119030
 30
0.0
 10
95.379267
 20
52.030600
 30
0.0
 10
95.268334
 20
50.782630
 30
0.0
 10
95.066366
 20
49.452550
 30
0.0
  0
SPLINE
  5
15e
100
AcDbEntity
  8
Layer_1
 62
7
100
AcDbSpline
 70
8
 71
3
 72
8
 73
4
 74
0
 40
0
 40
0
 40
0
 40
0
 40
1
 40
1
 40
1
 40
1
 10
95.066366
 20
49.452550
 30
0.0
 10
94.864398
 20
48.122460
 30
0.0
 10
94.571395
 20
46.710260
 30
0.0
 10
94.207255
 20
45.293370
 30
0.0
  0
SPLINE
  5
15f
100
AcDbEntity
  8
Layer_1
 62
7
100
AcDbSpline
 70
8
 71
3
 72
8
 73
4
 74
0
 40
0
 40
0
 40
0
 40
0
 40
1
 40
1
 40
1
 40
1
 10
94.207255
 20
45.293370
 30
0.0
 10
93.843115
 20
43.876480
 30
0.0
 10
93.407838
 20
42.454890
 30
0.0
 10
92.921322
 20
41.106040
 30
0.0
  0
SPLINE
  5
160
100
AcDbEntity
  8
Layer_1
 62
7
100
AcDbSpline
 70
8
 71
3
 72
8
 73
4
 74
0
 40
0
 40
0
 40
0
 40
0
 40
1
 40
1
 40
1
 40
1
 10
92.921322
 20
41.106040
 30
0.0
 10
92.434806
 20
39.757180
 30
0.0
 10
91.897052
 20
38.481060
 30
0.0
 10
91.327957
 20
37.355090
 30
0.0
  0
SPLINE
  5
161
100
AcDbEntity
  8
Layer_1
 62
7
100
AcDbSpline
 70
8
 71
3
 72
8
 73
4
 74
0
 40
0
 40
0
 40
0
 40
0
 40
1
 40
1
 40
1
 40
1
 10
91.327957
 20
37.355090
 30
0.0
 10
90.939365
 20
36.586260
 30
0.0
 10
90.581079
 20
35.918120
 30
0.0
 10
90.221513
 20
35.307440
 30
0.0
  0
SPLINE
  5
162
100
AcDbEntity
  8
Layer_1
 62
7
100
AcDbSpline
 70
8
 71
3
 72
8
 73
4
 74
0
 40
0
 40
0
 40
0
 40
0
 40
1
 40
1
 40
1
 40
1
 10
90.221513
 20
35.307440
 30
0.0
 10
89.861947
 20
34.696760
 30
0.0
 10
89.501101
 20
34.143540
 30
0.0
 10
89.107388
 20
33.604530
 30
0.0
  0
SPLINE
  5
163
100
AcDbEntity
  8
Layer_1
 62
7
100
AcDbSpline
 70
8
 71
3
 72
8
 73
4
 74
0
 40
0
 40
0
 40
0
 40
0
 40
1
 40
1
 40
1
 40
1
 10
89.107388
 20
33.604530
 30
0.0
 10
88.713675
 20
33.065510
 30
0.0
 10
88.287095
 20
32.540710
 30
0.0
 10
87.796060
 20
31.986880
 30
0.0
  0
SPLINE
  5
164
100
AcDbEntity
  8
Layer_1
 62
7
100
AcDbSpline
 70
8
 71
3
 72
8
 73
4
 74
0
 40
0
 40
0
 40
0
 40
0
 40
1
 40
1
 40
1
 40
1
 10
87.796060
 20
31.986880
 30
0.0
 10
87.305026
 20
31.433040
 30
0.0
 10
86.749537
 20
30.850180
 30
0.0
 10
86.098007
 20
30.195040
 30
0.0
  0
LWPOLYLINE
  5
165
100
AcDbEntity
  8
Layer_1
 62
7
100
AcDbPolyline
 90
9
 70
0
 10
21.345114
 20
84.134090
 30
0.0
 10
21.655074
 20
84.447190
 30
0.0
 10
21.965034
 20
84.760280
 30
0.0
 10
22.274994
 20
85.073380
 30
0.0
 10
22.584954
 20
85.386480
 30
0.0
 10
22.175786
 20
85.370980
 30
0.0
 10
21.766619
 20
85.355580
 30
0.0
 10
21.357452
 20
85.340080
 30
0.0
 10
20.948284
 20
85.324680
 30
0.0
  0
SPLINE
  5
166
100
AcDbEntity
  8
Layer_1
 62
7
100
AcDbSpline
 70
8
 71
3
 72
8
 73
4
 74
0
 40
0
 40
0
 40
0
 40
0
 40
1
 40
1
 40
1
 40
1
 10
83.457147
 20
19.347120
 30
0.0
 10
83.388187
 20
18.151320
 30
0.0
 10
83.322196
 20
16.983070
 30
0.0
 10
83.261948
 20
15.895140
 30
0.0
  0
SPLINE
  5
167
100
AcDbEntity
  8
Layer_1
 62
7
100
AcDbSpline
 70
8
 71
3
 72
8
 73
4
 74
0
 40
0
 40
0
 40
0
 40
0
 40
1
 40
1
 40
1
 40
1
 10
83.261948
 20
15.895140
 30
0.0
 10
83.201698
 20
14.807210
 30
0.0
 10
83.147197
 20
13.799610
 30
0.0
 10
83.101212
 20
12.925100
 30
0.0
  0
SPLINE
  5
168
100
AcDbEntity
  8
Layer_1
 62
7
100
AcDbSpline
 70
8
 71
3
 72
8
 73
4
 74
0
 40
0
 40
0
 40
0
 40
0
 40
1
 40
1
 40
1
 40
1
 10
83.101212
 20
12.925100
 30
0.0
 10
83.055222
 20
12.050580
 30
0.0
 10
83.017762
 20
11.309170
 30
0.0
 10
82.991588
 20
10.753610
 30
0.0
  0
SPLINE
  5
169
100
AcDbEntity
  8
Layer_1
 62
7
100
AcDbSpline
 70
8
 71
3
 72
8
 73
4
 74
0
 40
0
 40
0
 40
0
 40
0
 40
1
 40
1
 40
1
 40
1
 10
82.991588
 20
10.753610
 30
0.0
 10
82.965418
 20
10.198060
 30
0.0
 10
82.950538
 20
9.828380
 30
0.0
 10
82.949728
 20
9.697330
 30
0.0
  0
SPLINE
  5
16a
100
AcDbEntity
  8
Layer_1
 62
7
100
AcDbSpline
 70
8
 71
3
 72
8
 73
4
 74
0
 40
0
 40
0
 40
0
 40
0
 40
1
 40
1
 40
1
 40
1
 10
82.949728
 20
9.697330
 30
0.0
 10
82.948728
 20
9.550330
 30
0.0
 10
82.932188
 20
9.395740
 30
0.0
 10
82.901628
 20
9.237880
 30
0.0
  0
SPLINE
  5
16b
100
AcDbEntity
  8
Layer_1
 62
7
100
AcDbSpline
 70
8
 71
3
 72
8
 73
4
 74
0
 40
0
 40
0
 40
0
 40
0
 40
1
 40
1
 40
1
 40
1
 10
82.901628
 20
9.237880
 30
0.0
 10
82.871068
 20
9.080020
 30
0.0
 10
82.826488
 20
8.918880
 30
0.0
 10
82.769410
 20
8.758790
 30
0.0
  0
SPLINE
  5
16c
100
AcDbEntity
  8
Layer_1
 62
7
100
AcDbSpline
 70
8
 71
3
 72
8
 73
4
 74
0
 40
0
 40
0
 40
0
 40
0
 40
1
 40
1
 40
1
 40
1
 10
82.769410
 20
8.758790
 30
0.0
 10
82.712330
 20
8.598690
 30
0.0
 10
82.642758
 20
8.439640
 30
0.0
 10
82.562207
 20
8.285950
 30
0.0
  0
SPLINE
  5
16d
100
AcDbEntity
  8
Layer_1
 62
7
100
AcDbSpline
 70
8
 71
3
 72
8
 73
4
 74
0
 40
0
 40
0
 40
0
 40
0
 40
1
 40
1
 40
1
 40
1
 10
82.562207
 20
8.285950
 30
0.0
 10
82.481657
 20
8.132250
 30
0.0
 10
82.390130
 20
7.983910
 30
0.0
 10
82.289150
 20
7.845250
 30
0.0
  0
SPLINE
  5
16e
100
AcDbEntity
  8
Layer_1
 62
7
100
AcDbSpline
 70
8
 71
3
 72
8
 73
4
 74
0
 40
0
 40
0
 40
0
 40
0
 40
1
 40
1
 40
1
 40
1
 10
82.289150
 20
7.845250
 30
0.0
 10
82.199130
 20
7.721630
 30
0.0
 10
82.106206
 20
7.588100
 30
0.0
 10
82.015326
 20
7.452570
 30
0.0
  0
SPLINE
  5
16f
100
AcDbEntity
  8
Layer_1
 62
7
100
AcDbSpline
 70
8
 71
3
 72
8
 73
4
 74
0
 40
0
 40
0
 40
0
 40
0
 40
1
 40
1
 40
1
 40
1
 10
82.015326
 20
7.452570
 30
0.0
 10
81.924446
 20
7.317050
 30
0.0
 10
81.835606
 20
7.179540
 30
0.0
 10
81.753748
 20
7.047980
 30
0.0
  0
SPLINE
  5
170
100
AcDbEntity
  8
Layer_1
 62
7
100
AcDbSpline
 70
8
 71
3
 72
8
 73
4
 74
0
 40
0
 40
0
 40
0
 40
0
 40
1
 40
1
 40
1
 40
1
 10
81.753748
 20
7.047980
 30
0.0
 10
81.671888
 20
6.916420
 30
0.0
 10
81.597011
 20
6.790820
 30
0.0
 10
81.534053
 20
6.679110
 30
0.0
  0
SPLINE
  5
171
100
AcDbEntity
  8
Layer_1
 62
7
100
AcDbSpline
 70
8
 71
3
 72
8
 73
4
 74
0
 40
0
 40
0
 40
0
 40
0
 40
1
 40
1
 40
1
 40
1
 10
81.534053
 20
6.679110
 30
0.0
 10
81.471093
 20
6.567400
 30
0.0
 10
81.420058
 20
6.469580
 30
0.0
 10
81.385880
 20
6.393600
 30
0.0
  0
SPLINE
  5
172
100
AcDbEntity
  8
Layer_1
 62
7
100
AcDbSpline
 70
8
 71
3
 72
8
 73
4
 74
0
 40
0
 40
0
 40
0
 40
0
 40
1
 40
1
 40
1
 40
1
 10
81.385880
 20
6.393600
 30
0.0
 10
81.351700
 20
6.317600
 30
0.0
 10
81.295550
 20
6.225280
 30
0.0
 10
81.223342
 20
6.123470
 30
0.0
  0
SPLINE
  5
173
100
AcDbEntity
  8
Layer_1
 62
7
100
AcDbSpline
 70
8
 71
3
 72
8
 73
4
 74
0
 40
0
 40
0
 40
0
 40
0
 40
1
 40
1
 40
1
 40
1
 10
81.223342
 20
6.123470
 30
0.0
 10
81.151132
 20
6.021650
 30
0.0
 10
81.062884
 20
5.910360
 30
0.0
 10
80.964520
 20
5.796470
 30
0.0
  0
SPLINE
  5
174
100
AcDbEntity
  8
Layer_1
 62
7
100
AcDbSpline
 70
8
 71
3
 72
8
 73
4
 74
0
 40
0
 40
0
 40
0
 40
0
 40
1
 40
1
 40
1
 40
1
 10
80.964520
 20
5.796470
 30
0.0
 10
80.866160
 20
5.682570
 30
0.0
 10
80.757681
 20
5.566070
 30
0.0
 10
80.645031
 20
5.453840
 30
0.0
  0
SPLINE
  5
175
100
AcDbEntity
  8
Layer_1
 62
7
100
AcDbSpline
 70
8
 71
3
 72
8
 73
4
 74
0
 40
0
 40
0
 40
0
 40
0
 40
1
 40
1
 40
1
 40
1
 10
80.645031
 20
5.453840
 30
0.0
 10
80.532381
 20
5.341610
 30
0.0
 10
80.415555
 20
5.233650
 30
0.0
 10
80.300490
 20
5.136830
 30
0.0
  0
SPLINE
  5
176
100
AcDbEntity
  8
Layer_1
 62
7
100
AcDbSpline
 70
8
 71
3
 72
8
 73
4
 74
0
 40
0
 40
0
 40
0
 40
0
 40
1
 40
1
 40
1
 40
1
 10
80.300490
 20
5.136830
 30
0.0
 10
80.098525
 20
4.966880
 30
0.0
 10
79.938132
 20
4.837900
 30
0.0
 10
79.761565
 20
4.740020
 30
0.0
  0
SPLINE
  5
177
100
AcDbEntity
  8
Layer_1
 62
7
100
AcDbSpline
 70
8
 71
3
 72
8
 73
4
 74
0
 40
0
 40
0
 40
0
 40
0
 40
1
 40
1
 40
1
 40
1
 10
79.761565
 20
4.740020
 30
0.0
 10
79.584999
 20
4.642120
 30
0.0
 10
79.392259
 20
4.575370
 30
0.0
 10
79.125601
 20
4.529840
 30
0.0
  0
SPLINE
  5
178
100
AcDbEntity
  8
Layer_1
 62
7
100
AcDbSpline
 70
8
 71
3
 72
8
 73
4
 74
0
 40
0
 40
0
 40
0
 40
0
 40
1
 40
1
 40
1
 40
1
 10
79.125601
 20
4.529840
 30
0.0
 10
78.858943
 20
4.484340
 30
0.0
 10
78.518367
 20
4.460040
 30
0.0
 10
78.046126
 20
4.447140
 30
0.0
  0
SPLINE
  5
179
100
AcDbEntity
  8
Layer_1
 62
7
100
AcDbSpline
 70
8
 71
3
 72
8
 73
4
 74
0
 40
0
 40
0
 40
0
 40
0
 40
1
 40
1
 40
1
 40
1
 10
78.046126
 20
4.447140
 30
0.0
 10
77.573886
 20
4.434240
 30
0.0
 10
76.969983
 20
4.432740
 30
0.0
 10
76.176670
 20
4.432740
 30
0.0
  0
SPLINE
  5
17a
100
AcDbEntity
  8
Layer_1
 62
7
100
AcDbSpline
 70
8
 71
3
 72
8
 73
4
 74
0
 40
0
 40
0
 40
0
 40
0
 40
1
 40
1
 40
1
 40
1
 10
76.176670
 20
4.432740
 30
0.0
 10
75.490325
 20
4.432740
 30
0.0
 10
74.941716
 20
4.436740
 30
0.0
 10
74.504871
 20
4.448140
 30
0.0
  0
SPLINE
  5
17b
100
AcDbEntity
  8
Layer_1
 62
7
100
AcDbSpline
 70
8
 71
3
 72
8
 73
4
 74
0
 40
0
 40
0
 40
0
 40
0
 40
1
 40
1
 40
1
 40
1
 10
74.504871
 20
4.448140
 30
0.0
 10
74.068026
 20
4.459440
 30
0.0
 10
73.742945
 20
4.477940
 30
0.0
 10
73.503658
 20
4.506840
 30
0.0
  0
SPLINE
  5
17c
100
AcDbEntity
  8
Layer_1
 62
7
100
AcDbSpline
 70
8
 71
3
 72
8
 73
4
 74
0
 40
0
 40
0
 40
0
 40
0
 40
1
 40
1
 40
1
 40
1
 10
73.503658
 20
4.506840
 30
0.0
 10
73.264370
 20
4.535740
 30
0.0
 10
73.110876
 20
4.575040
 30
0.0
 10
73.017203
 20
4.627730
 30
0.0
  0
SPLINE
  5
17d
100
AcDbEntity
  8
Layer_1
 62
7
100
AcDbSpline
 70
8
 71
3
 72
8
 73
4
 74
0
 40
0
 40
0
 40
0
 40
0
 40
1
 40
1
 40
1
 40
1
 10
73.017203
 20
4.627730
 30
0.0
 10
72.923533
 20
4.680530
 30
0.0
 10
72.889680
 20
4.746720
 30
0.0
 10
72.889680
 20
4.829590
 30
0.0
  0
SPLINE
  5
17e
100
AcDbEntity
  8
Layer_1
 62
7
100
AcDbSpline
 70
8
 71
3
 72
8
 73
4
 74
0
 40
0
 40
0
 40
0
 40
0
 40
1
 40
1
 40
1
 40
1
 10
72.889680
 20
4.829590
 30
0.0
 10
72.889680
 20
4.916990
 30
0.0
 10
72.718804
 20
4.985550
 30
0.0
 10
72.145540
 20
5.039150
 30
0.0
  0
SPLINE
  5
17f
100
AcDbEntity
  8
Layer_1
 62
7
100
AcDbSpline
 70
8
 71
3
 72
8
 73
4
 74
0
 40
0
 40
0
 40
0
 40
0
 40
1
 40
1
 40
1
 40
1
 10
72.145540
 20
5.039150
 30
0.0
 10
71.572277
 20
5.092750
 30
0.0
 10
70.596627
 20
5.131450
 30
0.0
 10
68.987079
 20
5.159180
 30
0.0
  0
SPLINE
  5
180
100
AcDbEntity
  8
Layer_1
 62
7
100
AcDbSpline
 70
8
 71
3
 72
8
 73
4
 74
0
 40
0
 40
0
 40
0
 40
0
 40
1
 40
1
 40
1
 40
1
 10
68.987079
 20
5.159180
 30
0.0
 10
67.377531
 20
5.186880
 30
0.0
 10
65.134085
 20
5.203780
 30
0.0
 10
62.025230
 20
5.213580
 30
0.0
  0
SPLINE
  5
181
100
AcDbEntity
  8
Layer_1
 62
7
100
AcDbSpline
 70
8
 71
3
 72
8
 73
4
 74
0
 40
0
 40
0
 40
0
 40
0
 40
1
 40
1
 40
1
 40
1
 10
62.025230
 20
5.213580
 30
0.0
 10
58.916376
 20
5.223580
 30
0.0
 10
54.942113
 20
5.226380
 30
0.0
 10
49.870930
 20
5.226380
 30
0.0
  0
SPLINE
  5
182
100
AcDbEntity
  8
Layer_1
 62
7
100
AcDbSpline
 70
8
 71
3
 72
8
 73
4
 74
0
 40
0
 40
0
 40
0
 40
0
 40
1
 40
1
 40
1
 40
1
 10
49.870930
 20
5.226380
 30
0.0
 10
44.799750
 20
5.226380
 30
0.0
 10
40.825488
 20
5.223380
 30
0.0
 10
37.716634
 20
5.213580
 30
0.0
  0
SPLINE
  5
183
100
AcDbEntity
  8
Layer_1
 62
7
100
AcDbSpline
 70
8
 71
3
 72
8
 73
4
 74
0
 40
0
 40
0
 40
0
 40
0
 40
1
 40
1
 40
1
 40
1
 10
37.716634
 20
5.213580
 30
0.0
 10
34.607780
 20
5.203580
 30
0.0
 10
32.364334
 20
5.186880
 30
0.0
 10
30.754785
 20
5.159080
 30
0.0
  0
SPLINE
  5
184
100
AcDbEntity
  8
Layer_1
 62
7
100
AcDbSpline
 70
8
 71
3
 72
8
 73
4
 74
0
 40
0
 40
0
 40
0
 40
0
 40
1
 40
1
 40
1
 40
1
 10
30.754785
 20
5.159080
 30
0.0
 10
29.145236
 20
5.131380
 30
0.0
 10
28.169585
 20
5.092680
 30
0.0
 10
27.596321
 20
5.039050
 30
0.0
  0
SPLINE
  5
185
100
AcDbEntity
  8
Layer_1
 62
7
100
AcDbSpline
 70
8
 71
3
 72
8
 73
4
 74
0
 40
0
 40
0
 40
0
 40
0
 40
1
 40
1
 40
1
 40
1
 10
27.596321
 20
5.039050
 30
0.0
 10
27.023057
 20
4.985450
 30
0.0
 10
26.852180
 20
4.916920
 30
0.0
 10
26.852180
 20
4.829480
 30
0.0
  0
SPLINE
  5
186
100
AcDbEntity
  8
Layer_1
 62
7
100
AcDbSpline
 70
8
 71
3
 72
8
 73
4
 74
0
 40
0
 40
0
 40
0
 40
0
 40
1
 40
1
 40
1
 40
1
 10
26.852180
 20
4.829480
 30
0.0
 10
26.852180
 20
4.746480
 30
0.0
 10
26.819110
 20
4.680310
 30
0.0
 10
26.727138
 20
4.628010
 30
0.0
  0
SPLINE
  5
187
100
AcDbEntity
  8
Layer_1
 62
7
100
AcDbSpline
 70
8
 71
3
 72
8
 73
4
 74
0
 40
0
 40
0
 40
0
 40
0
 40
1
 40
1
 40
1
 40
1
 10
26.727138
 20
4.628010
 30
0.0
 10
26.635168
 20
4.575710
 30
0.0
 10
26.484278
 20
4.537310
 30
0.0
 10
26.248640
 20
4.509630
 30
0.0
  0
SPLINE
  5
188
100
AcDbEntity
  8
Layer_1
 62
7
100
AcDbSpline
 70
8
 71
3
 72
8
 73
4
 74
0
 40
0
 40
0
 40
0
 40
0
 40
1
 40
1
 40
1
 40
1
 10
26.248640
 20
4.509630
 30
0.0
 10
26.013003
 20
4.482030
 30
0.0
 10
25.692613
 20
4.465230
 30
0.0
 10
25.261627
 20
4.456130
 30
0.0
  0
SPLINE
  5
189
100
AcDbEntity
  8
Layer_1
 62
7
100
AcDbSpline
 70
8
 71
3
 72
8
 73
4
 74
0
 40
0
 40
0
 40
0
 40
0
 40
1
 40
1
 40
1
 40
1
 10
25.261627
 20
4.456130
 30
0.0
 10
24.830641
 20
4.447130
 30
0.0
 10
24.289060
 20
4.445830
 30
0.0
 10
23.611040
 20
4.449130
 30
0.0
  0
SPLINE
  5
18a
100
AcDbEntity
  8
Layer_1
 62
7
100
AcDbSpline
 70
8
 71
3
 72
8
 73
4
 74
0
 40
0
 40
0
 40
0
 40
0
 40
1
 40
1
 40
1
 40
1
 10
23.611040
 20
4.449130
 30
0.0
 10
23.165383
 20
4.451130
 30
0.0
 10
22.724267
 20
4.459930
 30
0.0
 10
22.308474
 20
4.473330
 30
0.0
  0
SPLINE
  5
18b
100
AcDbEntity
  8
Layer_1
 62
7
100
AcDbSpline
 70
8
 71
3
 72
8
 73
4
 74
0
 40
0
 40
0
 40
0
 40
0
 40
1
 40
1
 40
1
 40
1
 10
22.308474
 20
4.473330
 30
0.0
 10
21.892681
 20
4.486830
 30
0.0
 10
21.502210
 20
4.505230
 30
0.0
 10
21.157843
 20
4.527230
 30
0.0
  0
SPLINE
  5
18c
100
AcDbEntity
  8
Layer_1
 62
7
100
AcDbSpline
 70
8
 71
3
 72
8
 73
4
 74
0
 40
0
 40
0
 40
0
 40
0
 40
1
 40
1
 40
1
 40
1
 10
21.157843
 20
4.527230
 30
0.0
 10
20.813475
 20
4.549230
 30
0.0
 10
20.515211
 20
4.574830
 30
0.0
 10
20.283830
 20
4.602630
 30
0.0
  0
SPLINE
  5
18d
100
AcDbEntity
  8
Layer_1
 62
7
100
AcDbSpline
 70
8
 71
3
 72
8
 73
4
 74
0
 40
0
 40
0
 40
0
 40
0
 40
1
 40
1
 40
1
 40
1
 10
20.283830
 20
4.602630
 30
0.0
 10
20.052449
 20
4.630530
 30
0.0
 10
19.887953
 20
4.660630
 30
0.0
 10
19.811120
 20
4.691630
 30
0.0
  0
LWPOLYLINE
  5
18e
100
AcDbEntity
  8
Layer_1
 62
7
100
AcDbPolyline
 90
9
 70
0
 10
86.098007
 20
30.195040
 30
0.0
 10
85.563177
 20
29.657240
 30
0.0
 10
85.028347
 20
29.119440
 30
0.0
 10
84.493517
 20
28.581650
 30
0.0
 10
83.958687
 20
28.043850
 30
0.0
 10
83.833302
 20
25.869670
 30
0.0
 10
83.707917
 20
23.695480
 30
0.0
 10
83.582532
 20
21.521300
 30
0.0
 10
83.457147
 20
19.347120
 30
0.0
  0
LWPOLYLINE
  5
18f
100
AcDbEntity
  8
Layer_1
 62
7
100
AcDbPolyline
 90
5
 70
0
 10
19.811120
 20
4.691630
 30
0.0
 10
19.811120
 20
4.691640
 30
0.0
 10
19.811120
 20
4.691640
 30
0.0
 10
19.811120
 20
4.691650
 30
0.0
 10
19.811174
 20
4.692040
 30
0.0
  0
ENDSEC
  0
SECTION
  2
OBJECTS
  0
DICTIONARY
  5
C
330
0
100
AcDbDictionary
  3
ACAD_GROUP
350
D
  3
ACAD_MLINESTYLE
350
17
  0
DICTIONARY
  5
D
330
C
100
AcDbDictionary
  0
DICTIONARY
  5
1A
330
C
100
AcDbDictionary
  0
DICTIONARY
  5
17
330
C
100
AcDbDictionary
  3
STANDARD
350
18
  0
DICTIONARY
  5
19
330
C
100
AcDbDictionary
  0
ENDSEC
  0
EOF
