G04 #@! TF.GenerationSoftware,KiCad,Pcbnew,(5.0.2)-1*
G04 #@! TF.CreationDate,2019-02-25T22:43:21-04:00*
G04 #@! TF.ProjectId,MegaBadge,4d656761-4261-4646-9765-2e6b69636164,rev?*
G04 #@! TF.SameCoordinates,Original*
G04 #@! TF.FileFunction,Legend,Bot*
G04 #@! TF.FilePolarity,Positive*
%FSLAX46Y46*%
G04 Gerber Fmt 4.6, Leading zero omitted, Abs format (unit mm)*
G04 Created by KiCad (PCBNEW (5.0.2)-1) date 2/25/2019 10:43:21 PM*
%MOMM*%
%LPD*%
G01*
G04 APERTURE LIST*
%ADD10C,0.300000*%
%ADD11C,0.120000*%
%ADD12C,0.127000*%
%ADD13C,0.066040*%
%ADD14C,0.063500*%
%ADD15C,0.203200*%
%ADD16C,0.010000*%
%ADD17C,0.150000*%
%ADD18C,0.101600*%
G04 APERTURE END LIST*
D10*
X230123428Y-123233571D02*
X230123428Y-121733571D01*
X229552000Y-121733571D01*
X229409142Y-121805000D01*
X229337714Y-121876428D01*
X229266285Y-122019285D01*
X229266285Y-122233571D01*
X229337714Y-122376428D01*
X229409142Y-122447857D01*
X229552000Y-122519285D01*
X230123428Y-122519285D01*
X228623428Y-123233571D02*
X228623428Y-122233571D01*
X228623428Y-122519285D02*
X228552000Y-122376428D01*
X228480571Y-122305000D01*
X228337714Y-122233571D01*
X228194857Y-122233571D01*
X227480571Y-123233571D02*
X227623428Y-123162142D01*
X227694857Y-123090714D01*
X227766285Y-122947857D01*
X227766285Y-122519285D01*
X227694857Y-122376428D01*
X227623428Y-122305000D01*
X227480571Y-122233571D01*
X227266285Y-122233571D01*
X227123428Y-122305000D01*
X227052000Y-122376428D01*
X226980571Y-122519285D01*
X226980571Y-122947857D01*
X227052000Y-123090714D01*
X227123428Y-123162142D01*
X227266285Y-123233571D01*
X227480571Y-123233571D01*
X226552000Y-122233571D02*
X225980571Y-122233571D01*
X226337714Y-121733571D02*
X226337714Y-123019285D01*
X226266285Y-123162142D01*
X226123428Y-123233571D01*
X225980571Y-123233571D01*
X225266285Y-123233571D02*
X225409142Y-123162142D01*
X225480571Y-123090714D01*
X225552000Y-122947857D01*
X225552000Y-122519285D01*
X225480571Y-122376428D01*
X225409142Y-122305000D01*
X225266285Y-122233571D01*
X225052000Y-122233571D01*
X224909142Y-122305000D01*
X224837714Y-122376428D01*
X224766285Y-122519285D01*
X224766285Y-122947857D01*
X224837714Y-123090714D01*
X224909142Y-123162142D01*
X225052000Y-123233571D01*
X225266285Y-123233571D01*
X223194857Y-121733571D02*
X222694857Y-123233571D01*
X222194857Y-121733571D01*
X220909142Y-123233571D02*
X221766285Y-123233571D01*
X221337714Y-123233571D02*
X221337714Y-121733571D01*
X221480571Y-121947857D01*
X221623428Y-122090714D01*
X221766285Y-122162142D01*
X183229000Y-100905571D02*
X182729000Y-102405571D01*
X182229000Y-100905571D01*
X180871857Y-102262714D02*
X180943285Y-102334142D01*
X181157571Y-102405571D01*
X181300428Y-102405571D01*
X181514714Y-102334142D01*
X181657571Y-102191285D01*
X181729000Y-102048428D01*
X181800428Y-101762714D01*
X181800428Y-101548428D01*
X181729000Y-101262714D01*
X181657571Y-101119857D01*
X181514714Y-100977000D01*
X181300428Y-100905571D01*
X181157571Y-100905571D01*
X180943285Y-100977000D01*
X180871857Y-101048428D01*
X179371857Y-102262714D02*
X179443285Y-102334142D01*
X179657571Y-102405571D01*
X179800428Y-102405571D01*
X180014714Y-102334142D01*
X180157571Y-102191285D01*
X180229000Y-102048428D01*
X180300428Y-101762714D01*
X180300428Y-101548428D01*
X180229000Y-101262714D01*
X180157571Y-101119857D01*
X180014714Y-100977000D01*
X179800428Y-100905571D01*
X179657571Y-100905571D01*
X179443285Y-100977000D01*
X179371857Y-101048428D01*
X183205142Y-104945571D02*
X183205142Y-103445571D01*
X182705142Y-104517000D01*
X182205142Y-103445571D01*
X182205142Y-104945571D01*
X181490857Y-104945571D02*
X181490857Y-103445571D01*
X180848000Y-104874142D02*
X180633714Y-104945571D01*
X180276571Y-104945571D01*
X180133714Y-104874142D01*
X180062285Y-104802714D01*
X179990857Y-104659857D01*
X179990857Y-104517000D01*
X180062285Y-104374142D01*
X180133714Y-104302714D01*
X180276571Y-104231285D01*
X180562285Y-104159857D01*
X180705142Y-104088428D01*
X180776571Y-104017000D01*
X180848000Y-103874142D01*
X180848000Y-103731285D01*
X180776571Y-103588428D01*
X180705142Y-103517000D01*
X180562285Y-103445571D01*
X180205142Y-103445571D01*
X179990857Y-103517000D01*
X179062285Y-103445571D02*
X178776571Y-103445571D01*
X178633714Y-103517000D01*
X178490857Y-103659857D01*
X178419428Y-103945571D01*
X178419428Y-104445571D01*
X178490857Y-104731285D01*
X178633714Y-104874142D01*
X178776571Y-104945571D01*
X179062285Y-104945571D01*
X179205142Y-104874142D01*
X179348000Y-104731285D01*
X179419428Y-104445571D01*
X179419428Y-103945571D01*
X179348000Y-103659857D01*
X179205142Y-103517000D01*
X179062285Y-103445571D01*
X194381142Y-104945571D02*
X194381142Y-103445571D01*
X193881142Y-104517000D01*
X193381142Y-103445571D01*
X193381142Y-104945571D01*
X192381142Y-103445571D02*
X192095428Y-103445571D01*
X191952571Y-103517000D01*
X191809714Y-103659857D01*
X191738285Y-103945571D01*
X191738285Y-104445571D01*
X191809714Y-104731285D01*
X191952571Y-104874142D01*
X192095428Y-104945571D01*
X192381142Y-104945571D01*
X192524000Y-104874142D01*
X192666857Y-104731285D01*
X192738285Y-104445571D01*
X192738285Y-103945571D01*
X192666857Y-103659857D01*
X192524000Y-103517000D01*
X192381142Y-103445571D01*
X191166857Y-104874142D02*
X190952571Y-104945571D01*
X190595428Y-104945571D01*
X190452571Y-104874142D01*
X190381142Y-104802714D01*
X190309714Y-104659857D01*
X190309714Y-104517000D01*
X190381142Y-104374142D01*
X190452571Y-104302714D01*
X190595428Y-104231285D01*
X190881142Y-104159857D01*
X191024000Y-104088428D01*
X191095428Y-104017000D01*
X191166857Y-103874142D01*
X191166857Y-103731285D01*
X191095428Y-103588428D01*
X191024000Y-103517000D01*
X190881142Y-103445571D01*
X190524000Y-103445571D01*
X190309714Y-103517000D01*
X189666857Y-104945571D02*
X189666857Y-103445571D01*
X192210428Y-102278571D02*
X192710428Y-101564285D01*
X193067571Y-102278571D02*
X193067571Y-100778571D01*
X192496142Y-100778571D01*
X192353285Y-100850000D01*
X192281857Y-100921428D01*
X192210428Y-101064285D01*
X192210428Y-101278571D01*
X192281857Y-101421428D01*
X192353285Y-101492857D01*
X192496142Y-101564285D01*
X193067571Y-101564285D01*
X191639000Y-102207142D02*
X191424714Y-102278571D01*
X191067571Y-102278571D01*
X190924714Y-102207142D01*
X190853285Y-102135714D01*
X190781857Y-101992857D01*
X190781857Y-101850000D01*
X190853285Y-101707142D01*
X190924714Y-101635714D01*
X191067571Y-101564285D01*
X191353285Y-101492857D01*
X191496142Y-101421428D01*
X191567571Y-101350000D01*
X191639000Y-101207142D01*
X191639000Y-101064285D01*
X191567571Y-100921428D01*
X191496142Y-100850000D01*
X191353285Y-100778571D01*
X190996142Y-100778571D01*
X190781857Y-100850000D01*
X190353285Y-100778571D02*
X189496142Y-100778571D01*
X189924714Y-102278571D02*
X189924714Y-100778571D01*
X192658857Y-98310000D02*
X192801714Y-98238571D01*
X193016000Y-98238571D01*
X193230285Y-98310000D01*
X193373142Y-98452857D01*
X193444571Y-98595714D01*
X193516000Y-98881428D01*
X193516000Y-99095714D01*
X193444571Y-99381428D01*
X193373142Y-99524285D01*
X193230285Y-99667142D01*
X193016000Y-99738571D01*
X192873142Y-99738571D01*
X192658857Y-99667142D01*
X192587428Y-99595714D01*
X192587428Y-99095714D01*
X192873142Y-99095714D01*
X191944571Y-99738571D02*
X191944571Y-98238571D01*
X191087428Y-99738571D01*
X191087428Y-98238571D01*
X190373142Y-99738571D02*
X190373142Y-98238571D01*
X190016000Y-98238571D01*
X189801714Y-98310000D01*
X189658857Y-98452857D01*
X189587428Y-98595714D01*
X189516000Y-98881428D01*
X189516000Y-99095714D01*
X189587428Y-99381428D01*
X189658857Y-99524285D01*
X189801714Y-99667142D01*
X190016000Y-99738571D01*
X190373142Y-99738571D01*
X183157571Y-99540142D02*
X182943285Y-99611571D01*
X182586142Y-99611571D01*
X182443285Y-99540142D01*
X182371857Y-99468714D01*
X182300428Y-99325857D01*
X182300428Y-99183000D01*
X182371857Y-99040142D01*
X182443285Y-98968714D01*
X182586142Y-98897285D01*
X182871857Y-98825857D01*
X183014714Y-98754428D01*
X183086142Y-98683000D01*
X183157571Y-98540142D01*
X183157571Y-98397285D01*
X183086142Y-98254428D01*
X183014714Y-98183000D01*
X182871857Y-98111571D01*
X182514714Y-98111571D01*
X182300428Y-98183000D01*
X180800428Y-99468714D02*
X180871857Y-99540142D01*
X181086142Y-99611571D01*
X181229000Y-99611571D01*
X181443285Y-99540142D01*
X181586142Y-99397285D01*
X181657571Y-99254428D01*
X181729000Y-98968714D01*
X181729000Y-98754428D01*
X181657571Y-98468714D01*
X181586142Y-98325857D01*
X181443285Y-98183000D01*
X181229000Y-98111571D01*
X181086142Y-98111571D01*
X180871857Y-98183000D01*
X180800428Y-98254428D01*
X180157571Y-99611571D02*
X180157571Y-98111571D01*
X179300428Y-99611571D02*
X179943285Y-98754428D01*
X179300428Y-98111571D02*
X180157571Y-98968714D01*
D11*
G04 #@! TO.C,REF\002A\002A*
X184396000Y-66630000D02*
X183396000Y-66630000D01*
X183396000Y-67990000D02*
X184396000Y-67990000D01*
X176276000Y-98806000D02*
G75*
G03X176276000Y-98806000I-2286000J0D01*
G01*
X173736000Y-94361000D02*
G75*
G03X173736000Y-94361000I-2286000J0D01*
G01*
X171196000Y-89408000D02*
G75*
G03X171196000Y-89408000I-2286000J0D01*
G01*
X169418000Y-84328000D02*
G75*
G03X169418000Y-84328000I-2286000J0D01*
G01*
X168529000Y-78994000D02*
G75*
G03X168529000Y-78994000I-2286000J0D01*
G01*
X168529000Y-73660000D02*
G75*
G03X168529000Y-73660000I-2286000J0D01*
G01*
X170053000Y-68326000D02*
G75*
G03X170053000Y-68326000I-2286000J0D01*
G01*
X212598000Y-38862000D02*
G75*
G03X212598000Y-38862000I-2286000J0D01*
G01*
X174117000Y-64389000D02*
G75*
G03X174117000Y-64389000I-2286000J0D01*
G01*
D12*
G04 #@! TO.C,1uf1*
X211963000Y-108585000D02*
X214757000Y-108585000D01*
X214757000Y-108585000D02*
X214757000Y-107315000D01*
X214757000Y-107315000D02*
X211963000Y-107315000D01*
X211963000Y-107315000D02*
X211963000Y-108585000D01*
G04 #@! TO.C,C1*
X206121000Y-107315000D02*
X203327000Y-107315000D01*
X203327000Y-107315000D02*
X203327000Y-108585000D01*
X203327000Y-108585000D02*
X206121000Y-108585000D01*
X206121000Y-108585000D02*
X206121000Y-107315000D01*
D11*
G04 #@! TO.C,R1*
X208554000Y-114218000D02*
X209554000Y-114218000D01*
X209554000Y-112858000D02*
X208554000Y-112858000D01*
G04 #@! TO.C,R2*
X208780000Y-110318000D02*
X207780000Y-110318000D01*
X207780000Y-111678000D02*
X208780000Y-111678000D01*
G04 #@! TO.C,R3*
X197186000Y-102636000D02*
X197186000Y-103636000D01*
X198546000Y-103636000D02*
X198546000Y-102636000D01*
D12*
G04 #@! TO.C,U1*
X211736488Y-100217518D02*
X206737768Y-100217518D01*
X211736488Y-105216238D02*
X211736488Y-100217518D01*
X207245768Y-105216238D02*
X211736488Y-105216238D01*
X206737768Y-104708238D02*
X207245768Y-105216238D01*
X206737768Y-100217518D02*
X206737768Y-104708238D01*
D13*
X211777128Y-100176878D02*
X211777128Y-105256878D01*
X206697128Y-100176878D02*
X211777128Y-100176878D01*
D12*
X206591664Y-105486878D02*
G75*
G03X206591664Y-105486878I-134536J0D01*
G01*
G04 #@! TO.C,USB1*
X204581760Y-124686580D02*
X204231240Y-125286020D01*
X204231240Y-125286020D02*
X212328760Y-125286020D01*
X212328760Y-125286020D02*
X211978240Y-124686580D01*
X211978240Y-124686580D02*
X204581760Y-124686580D01*
X211579460Y-119687860D02*
X211978240Y-119687860D01*
X211978240Y-119687860D02*
X211978240Y-121239800D01*
X205082140Y-119687860D02*
X204581760Y-119687860D01*
X204581760Y-119687860D02*
X204581760Y-121338860D01*
X211978240Y-123736620D02*
X211978240Y-124635780D01*
X204581760Y-123736620D02*
X204581760Y-124635780D01*
D14*
G04 #@! TO.C,Y1*
X203014972Y-102994460D02*
G75*
G03X203014972Y-102994460I-140092J0D01*
G01*
D12*
X202323700Y-104792780D02*
X202323700Y-105191560D01*
X202323700Y-103596440D02*
X202323700Y-103995220D01*
X201028300Y-104792780D02*
X201028300Y-105191560D01*
X201028300Y-103596440D02*
X201028300Y-103995220D01*
D15*
X201028300Y-102544880D02*
X201028300Y-102694740D01*
X202323700Y-102544880D02*
X201028300Y-102544880D01*
X202323700Y-102694740D02*
X202323700Y-102544880D01*
X202323700Y-106192320D02*
X202323700Y-106093260D01*
X201028300Y-106192320D02*
X202323700Y-106192320D01*
X201028300Y-106093260D02*
X201028300Y-106192320D01*
D11*
G04 #@! TO.C,U2*
X223754000Y-111916000D02*
X223754000Y-112316000D01*
X225254000Y-111916000D02*
X223754000Y-111916000D01*
X223754000Y-113716000D02*
X223754000Y-116916000D01*
X223754000Y-118716000D02*
X225254000Y-118716000D01*
X223754000Y-118366000D02*
X223754000Y-118716000D01*
D16*
G04 #@! TO.C,G\002A\002A\002A*
G36*
X199532915Y-57025154D02*
X199538733Y-56626520D01*
X199200703Y-56379667D01*
X199071568Y-56367947D01*
X198577480Y-56464799D01*
X198420789Y-56581239D01*
X198411776Y-56990022D01*
X198727221Y-57313710D01*
X199162489Y-57351088D01*
X199532915Y-57025154D01*
X199532915Y-57025154D01*
G37*
X199532915Y-57025154D02*
X199538733Y-56626520D01*
X199200703Y-56379667D01*
X199071568Y-56367947D01*
X198577480Y-56464799D01*
X198420789Y-56581239D01*
X198411776Y-56990022D01*
X198727221Y-57313710D01*
X199162489Y-57351088D01*
X199532915Y-57025154D01*
G36*
X197448306Y-57267620D02*
X197667901Y-56964019D01*
X197652183Y-56835701D01*
X197321143Y-56492143D01*
X196833613Y-56432128D01*
X196510540Y-56643808D01*
X196498697Y-57076795D01*
X196601324Y-57228851D01*
X197014012Y-57385366D01*
X197448306Y-57267620D01*
X197448306Y-57267620D01*
G37*
X197448306Y-57267620D02*
X197667901Y-56964019D01*
X197652183Y-56835701D01*
X197321143Y-56492143D01*
X196833613Y-56432128D01*
X196510540Y-56643808D01*
X196498697Y-57076795D01*
X196601324Y-57228851D01*
X197014012Y-57385366D01*
X197448306Y-57267620D01*
G36*
X199990440Y-55645407D02*
X199862703Y-55185699D01*
X199518905Y-54609643D01*
X199374763Y-54429526D01*
X198707670Y-54020782D01*
X197843293Y-53948887D01*
X196985922Y-54197584D01*
X196401511Y-54666109D01*
X195938492Y-55366407D01*
X195894658Y-55753310D01*
X196114736Y-55833210D01*
X196358864Y-55619831D01*
X196382105Y-55473596D01*
X196614484Y-54937569D01*
X197181490Y-54476392D01*
X197887929Y-54237242D01*
X198032771Y-54229000D01*
X198706983Y-54419119D01*
X199291802Y-54877397D01*
X199584379Y-55435714D01*
X199590526Y-55520053D01*
X199763528Y-55815365D01*
X199849503Y-55833210D01*
X199990440Y-55645407D01*
X199990440Y-55645407D01*
G37*
X199990440Y-55645407D02*
X199862703Y-55185699D01*
X199518905Y-54609643D01*
X199374763Y-54429526D01*
X198707670Y-54020782D01*
X197843293Y-53948887D01*
X196985922Y-54197584D01*
X196401511Y-54666109D01*
X195938492Y-55366407D01*
X195894658Y-55753310D01*
X196114736Y-55833210D01*
X196358864Y-55619831D01*
X196382105Y-55473596D01*
X196614484Y-54937569D01*
X197181490Y-54476392D01*
X197887929Y-54237242D01*
X198032771Y-54229000D01*
X198706983Y-54419119D01*
X199291802Y-54877397D01*
X199584379Y-55435714D01*
X199590526Y-55520053D01*
X199763528Y-55815365D01*
X199849503Y-55833210D01*
X199990440Y-55645407D01*
G36*
X211287894Y-44019917D02*
X211852879Y-43824380D01*
X212023158Y-43534263D01*
X211783855Y-43198555D01*
X211287894Y-43048609D01*
X210748383Y-43064119D01*
X210562376Y-43354134D01*
X210552631Y-43534263D01*
X210652669Y-43941186D01*
X211054198Y-44039249D01*
X211287894Y-44019917D01*
X211287894Y-44019917D01*
G37*
X211287894Y-44019917D02*
X211852879Y-43824380D01*
X212023158Y-43534263D01*
X211783855Y-43198555D01*
X211287894Y-43048609D01*
X210748383Y-43064119D01*
X210562376Y-43354134D01*
X210552631Y-43534263D01*
X210652669Y-43941186D01*
X211054198Y-44039249D01*
X211287894Y-44019917D01*
G36*
X200192105Y-43753385D02*
X200608314Y-43593043D01*
X200774166Y-43165693D01*
X200793684Y-42732158D01*
X200728607Y-42075478D01*
X200469024Y-41780620D01*
X200192105Y-41710930D01*
X199810174Y-41714468D01*
X199636237Y-41960241D01*
X199591090Y-42582699D01*
X199590526Y-42732158D01*
X199621935Y-43430296D01*
X199768965Y-43729391D01*
X200110816Y-43763892D01*
X200192105Y-43753385D01*
X200192105Y-43753385D01*
G37*
X200192105Y-43753385D02*
X200608314Y-43593043D01*
X200774166Y-43165693D01*
X200793684Y-42732158D01*
X200728607Y-42075478D01*
X200469024Y-41780620D01*
X200192105Y-41710930D01*
X199810174Y-41714468D01*
X199636237Y-41960241D01*
X199591090Y-42582699D01*
X199590526Y-42732158D01*
X199621935Y-43430296D01*
X199768965Y-43729391D01*
X200110816Y-43763892D01*
X200192105Y-43753385D01*
G36*
X227425761Y-43474359D02*
X227436947Y-43400579D01*
X227228795Y-43087080D01*
X227149526Y-43050772D01*
X226905729Y-43179836D01*
X226862105Y-43400579D01*
X226997768Y-43733338D01*
X227149526Y-43750386D01*
X227425761Y-43474359D01*
X227425761Y-43474359D01*
G37*
X227425761Y-43474359D02*
X227436947Y-43400579D01*
X227228795Y-43087080D01*
X227149526Y-43050772D01*
X226905729Y-43179836D01*
X226862105Y-43400579D01*
X226997768Y-43733338D01*
X227149526Y-43750386D01*
X227425761Y-43474359D01*
G36*
X227506994Y-42108838D02*
X227613311Y-41863210D01*
X227520304Y-41484227D01*
X227129473Y-41395316D01*
X226690651Y-41530636D01*
X226645636Y-41863210D01*
X226909274Y-42260975D01*
X227129473Y-42331105D01*
X227506994Y-42108838D01*
X227506994Y-42108838D01*
G37*
X227506994Y-42108838D02*
X227613311Y-41863210D01*
X227520304Y-41484227D01*
X227129473Y-41395316D01*
X226690651Y-41530636D01*
X226645636Y-41863210D01*
X226909274Y-42260975D01*
X227129473Y-42331105D01*
X227506994Y-42108838D01*
G36*
X206171447Y-68663172D02*
X209291839Y-68652510D01*
X212424589Y-68635670D01*
X215476606Y-68613412D01*
X218354799Y-68586496D01*
X220966079Y-68555682D01*
X223217355Y-68521730D01*
X224821950Y-68489971D01*
X232494056Y-68313048D01*
X232418607Y-65532462D01*
X232343158Y-62751877D01*
X215914512Y-62776101D01*
X213009433Y-62778754D01*
X210272088Y-62778089D01*
X207747704Y-62774325D01*
X205481502Y-62767683D01*
X203518709Y-62758382D01*
X201904546Y-62746642D01*
X200684239Y-62732683D01*
X199903012Y-62716724D01*
X199606088Y-62698986D01*
X199605038Y-62696839D01*
X199861965Y-62535860D01*
X200508669Y-62147523D01*
X201473353Y-61574453D01*
X202684219Y-60859278D01*
X204069471Y-60044626D01*
X204302805Y-59907717D01*
X208881401Y-57222080D01*
X220679121Y-57024847D01*
X232476842Y-56827613D01*
X232476842Y-50952481D01*
X220779473Y-51070470D01*
X209082105Y-51188459D01*
X204135789Y-48363993D01*
X199189473Y-45539526D01*
X215766315Y-45405842D01*
X232343158Y-45272158D01*
X232419353Y-42531631D01*
X232495548Y-39791105D01*
X215976195Y-39851823D01*
X212868131Y-39864257D01*
X209775253Y-39878532D01*
X206764076Y-39894219D01*
X203901114Y-39910891D01*
X201252880Y-39928120D01*
X198885891Y-39945477D01*
X196866659Y-39962535D01*
X195261700Y-39978865D01*
X194310000Y-39991281D01*
X189163158Y-40070020D01*
X189163158Y-41093302D01*
X198708623Y-41093302D01*
X199876323Y-41177467D01*
X200690641Y-41304079D01*
X201180980Y-41604796D01*
X201453590Y-41996894D01*
X201712491Y-42580660D01*
X201695236Y-42732158D01*
X201996842Y-42732158D01*
X202197245Y-42135320D01*
X202682668Y-41501195D01*
X203279426Y-41016244D01*
X203740161Y-40860579D01*
X204327446Y-40983502D01*
X204688103Y-41137354D01*
X205144014Y-41472933D01*
X205085652Y-41702804D01*
X204525518Y-41813196D01*
X204068947Y-41819444D01*
X203356716Y-41827797D01*
X203029362Y-41971752D01*
X202937243Y-42371503D01*
X202934625Y-42576257D01*
X205931882Y-42576257D01*
X206142006Y-41831146D01*
X206632289Y-41264691D01*
X206872427Y-41137717D01*
X207602659Y-40912642D01*
X208153155Y-40997434D01*
X208778679Y-41414721D01*
X209313250Y-41930456D01*
X209475165Y-42306964D01*
X209232256Y-42464079D01*
X209200010Y-42464789D01*
X209036789Y-42302649D01*
X209074845Y-42209167D01*
X208991848Y-41901452D01*
X208570701Y-41519703D01*
X208568979Y-41518573D01*
X207734056Y-41231297D01*
X206956851Y-41462638D01*
X206382295Y-42066086D01*
X206154796Y-42825807D01*
X206431575Y-43554906D01*
X207013278Y-44067397D01*
X207225774Y-44217851D01*
X208232173Y-44217851D01*
X208413684Y-44069000D01*
X208901101Y-43842756D01*
X209082105Y-43809820D01*
X209129931Y-43920148D01*
X208948421Y-44069000D01*
X208461003Y-44295243D01*
X208280000Y-44328180D01*
X208232173Y-44217851D01*
X207225774Y-44217851D01*
X207316200Y-44281875D01*
X207131410Y-44302185D01*
X206945193Y-44276104D01*
X206337203Y-43959478D01*
X205998190Y-43339282D01*
X205931882Y-42576257D01*
X202934625Y-42576257D01*
X202932631Y-42732158D01*
X202966825Y-43332584D01*
X203172162Y-43605466D01*
X203702777Y-43690604D01*
X204002105Y-43702185D01*
X204750633Y-43733999D01*
X205271246Y-43770149D01*
X205338947Y-43778501D01*
X205376520Y-43899271D01*
X205071478Y-44123631D01*
X204582191Y-44368205D01*
X204292977Y-44470052D01*
X207611579Y-44470052D01*
X207745263Y-44336368D01*
X210285263Y-44336368D01*
X210328052Y-42665316D01*
X210363198Y-41918020D01*
X210414613Y-41636532D01*
X210475714Y-41853902D01*
X210481172Y-41896672D01*
X210591503Y-42799081D01*
X211387893Y-41896672D01*
X211832498Y-41407415D01*
X211964672Y-41314409D01*
X211814517Y-41603280D01*
X211739151Y-41728928D01*
X211460642Y-42259119D01*
X211469086Y-42314069D01*
X213061323Y-42314069D01*
X213409412Y-41732780D01*
X213589607Y-41542455D01*
X214369628Y-40978855D01*
X215130003Y-40925340D01*
X215840508Y-41276792D01*
X216281503Y-41669289D01*
X216434736Y-41945213D01*
X216278505Y-41966703D01*
X215902574Y-41665256D01*
X215900000Y-41662684D01*
X215317956Y-41262103D01*
X214830526Y-41127947D01*
X214213635Y-41332030D01*
X213623003Y-41819306D01*
X213261451Y-42402320D01*
X213226315Y-42610627D01*
X213403884Y-43070125D01*
X213836039Y-43632519D01*
X213882583Y-43680100D01*
X214285323Y-44158623D01*
X214285962Y-44334961D01*
X213913195Y-44160339D01*
X213693104Y-44002158D01*
X213299622Y-43494602D01*
X213081657Y-42946139D01*
X213061323Y-42314069D01*
X211469086Y-42314069D01*
X211511812Y-42592084D01*
X211917286Y-42968284D01*
X212325961Y-43371595D01*
X212331411Y-43692730D01*
X212182274Y-43904671D01*
X211662057Y-44224785D01*
X211054630Y-44336368D01*
X215326314Y-44336368D01*
X215353852Y-44175227D01*
X215683043Y-43777799D01*
X215778469Y-43680100D01*
X216222289Y-43162211D01*
X216432187Y-42771517D01*
X216434736Y-42744311D01*
X216547473Y-42474195D01*
X216586438Y-42464789D01*
X216638517Y-42680485D01*
X216575878Y-42986158D01*
X217549157Y-42986158D01*
X217604086Y-41849806D01*
X217868897Y-41163752D01*
X218368352Y-40876621D01*
X218573684Y-40860579D01*
X219135084Y-41038957D01*
X219322315Y-41181421D01*
X219503835Y-41635377D01*
X219595697Y-42446207D01*
X219598211Y-42986158D01*
X219588941Y-43292226D01*
X220712631Y-43292226D01*
X220747639Y-42612039D01*
X220890224Y-42352080D01*
X221167007Y-42388564D01*
X221422160Y-42571358D01*
X221300692Y-42669822D01*
X221053539Y-42987777D01*
X220980000Y-43422859D01*
X221089269Y-43908702D01*
X221520365Y-44064722D01*
X221679590Y-44069000D01*
X222179523Y-43995272D01*
X222290435Y-43667011D01*
X222251403Y-43400579D01*
X222238920Y-42904030D01*
X222371677Y-42732158D01*
X222524517Y-42959794D01*
X222535127Y-43467421D01*
X222380298Y-43996500D01*
X222251582Y-44069000D01*
X223386315Y-44069000D01*
X223615124Y-43868012D01*
X224054736Y-43801631D01*
X224525432Y-43737537D01*
X224686452Y-43484299D01*
X224545417Y-42950486D01*
X224188421Y-42197421D01*
X223815032Y-41433758D01*
X223676549Y-41029279D01*
X223746972Y-40876399D01*
X223865355Y-40860579D01*
X224084816Y-41081609D01*
X224426916Y-41630087D01*
X226124629Y-41630087D01*
X226263259Y-41106636D01*
X226648868Y-40904903D01*
X227221408Y-40912352D01*
X227722171Y-40992431D01*
X227975577Y-41203416D01*
X228072080Y-41692043D01*
X228095949Y-42331105D01*
X228037723Y-43420235D01*
X227781526Y-44063728D01*
X227774828Y-44067322D01*
X229001052Y-44067322D01*
X229222914Y-43845265D01*
X229491228Y-43801631D01*
X229975720Y-43729516D01*
X230140503Y-43455398D01*
X229994139Y-42892619D01*
X229652972Y-42164857D01*
X229336502Y-41454397D01*
X229208909Y-40980677D01*
X229260068Y-40860579D01*
X229507116Y-41081772D01*
X229896048Y-41661362D01*
X230337894Y-42464789D01*
X230753512Y-43319884D01*
X230931842Y-43808135D01*
X230893977Y-44030870D01*
X230675954Y-44088868D01*
X230020155Y-44154758D01*
X229602631Y-44220875D01*
X229138741Y-44210340D01*
X229001052Y-44067322D01*
X227774828Y-44067322D01*
X227296853Y-44323788D01*
X227112515Y-44336368D01*
X226681894Y-44248857D01*
X226412687Y-43913124D01*
X226246147Y-43219369D01*
X226170008Y-42574827D01*
X226124629Y-41630087D01*
X224426916Y-41630087D01*
X224443512Y-41656694D01*
X224801144Y-42337028D01*
X225184361Y-43158274D01*
X225446854Y-43797077D01*
X225525263Y-44074923D01*
X225288052Y-44238645D01*
X224695474Y-44329704D01*
X224455789Y-44336368D01*
X223786082Y-44277069D01*
X223413586Y-44128933D01*
X223386315Y-44069000D01*
X222251582Y-44069000D01*
X221965040Y-44230396D01*
X221581579Y-44286466D01*
X221027093Y-44308486D01*
X220779332Y-44135910D01*
X220714802Y-43627434D01*
X220712631Y-43292226D01*
X219588941Y-43292226D01*
X219553264Y-44470052D01*
X219397684Y-42865842D01*
X219293593Y-41975455D01*
X219159136Y-41494283D01*
X218930378Y-41297858D01*
X218573684Y-41261631D01*
X218198560Y-41304206D01*
X217977638Y-41514909D01*
X217846983Y-42018207D01*
X217749683Y-42865842D01*
X217594104Y-44470052D01*
X217549157Y-42986158D01*
X216575878Y-42986158D01*
X216559440Y-43066368D01*
X216228622Y-43687904D01*
X215733890Y-44175108D01*
X215326314Y-44336368D01*
X211054630Y-44336368D01*
X210285263Y-44336368D01*
X207745263Y-44336368D01*
X207878947Y-44470052D01*
X207745263Y-44603737D01*
X207611579Y-44470052D01*
X204292977Y-44470052D01*
X204067030Y-44549619D01*
X203789425Y-44594262D01*
X203205089Y-44387505D01*
X202595128Y-43869417D01*
X202136313Y-43223620D01*
X201996842Y-42732158D01*
X201695236Y-42732158D01*
X201658343Y-43056064D01*
X201456580Y-43458998D01*
X201035324Y-43920119D01*
X200408588Y-44324725D01*
X199760363Y-44584007D01*
X199274636Y-44609154D01*
X199185524Y-44555226D01*
X199092702Y-44241595D01*
X198979086Y-43552871D01*
X198882829Y-42760020D01*
X198708623Y-41093302D01*
X189163158Y-41093302D01*
X189163158Y-51628103D01*
X193275565Y-51628103D01*
X193504846Y-51104195D01*
X193589983Y-51003731D01*
X193865581Y-50626461D01*
X193850806Y-50485842D01*
X193819042Y-50321881D01*
X193973346Y-50087733D01*
X194389175Y-49820418D01*
X194691480Y-50032000D01*
X194777894Y-50497117D01*
X195014122Y-50961757D01*
X195740479Y-51486868D01*
X196147237Y-51705469D01*
X196975910Y-52188480D01*
X197289570Y-52537211D01*
X197248522Y-52667425D01*
X196809074Y-52733677D01*
X195990691Y-52428871D01*
X195848238Y-52357864D01*
X194908991Y-51992985D01*
X194164731Y-51922070D01*
X194094918Y-51936130D01*
X193490873Y-51939793D01*
X193275565Y-51628103D01*
X189163158Y-51628103D01*
X189163158Y-55182054D01*
X192632874Y-55182054D01*
X192791559Y-54814001D01*
X193183472Y-54608942D01*
X193451786Y-54633459D01*
X193886465Y-54573852D01*
X194654325Y-54283460D01*
X195654923Y-53818318D01*
X196787821Y-53234458D01*
X197952577Y-52587912D01*
X199048752Y-51934715D01*
X199975903Y-51330899D01*
X200633592Y-50832497D01*
X200921377Y-50495541D01*
X200926437Y-50463561D01*
X201023463Y-49986951D01*
X201098345Y-49869251D01*
X201419971Y-49799414D01*
X201669440Y-50126412D01*
X201729473Y-50501621D01*
X201844481Y-50927445D01*
X201996842Y-51020579D01*
X202229040Y-51239189D01*
X202264210Y-51452815D01*
X202091610Y-51767706D01*
X201758663Y-51752847D01*
X201249884Y-51806007D01*
X200503850Y-52086958D01*
X200030363Y-52334769D01*
X198807611Y-53048895D01*
X200490043Y-53781841D01*
X201399182Y-54130323D01*
X202156354Y-54335535D01*
X202592350Y-54353666D01*
X203044899Y-54332403D01*
X203180741Y-54693081D01*
X202983684Y-55375337D01*
X202908757Y-55533367D01*
X202497425Y-56119418D01*
X202090462Y-56351409D01*
X201801218Y-56199613D01*
X201729473Y-55842617D01*
X201514108Y-55301419D01*
X201212314Y-55040512D01*
X200674875Y-54800626D01*
X200486592Y-54925675D01*
X200550885Y-55487847D01*
X200559015Y-55528812D01*
X200519773Y-56422797D01*
X200155281Y-57350275D01*
X199573802Y-58071603D01*
X199337967Y-58231600D01*
X198311187Y-58532379D01*
X197268745Y-58432778D01*
X196338127Y-57997638D01*
X195646820Y-57291801D01*
X195322307Y-56380108D01*
X195312631Y-56184241D01*
X195259636Y-55586971D01*
X195130229Y-55305811D01*
X195112105Y-55302568D01*
X194566025Y-55551245D01*
X194222017Y-56151597D01*
X194203584Y-56234263D01*
X193955258Y-56669573D01*
X193708421Y-56769000D01*
X193345198Y-56543886D01*
X193213258Y-56234263D01*
X193004979Y-55710561D01*
X192836425Y-55525984D01*
X192632874Y-55182054D01*
X189163158Y-55182054D01*
X189163158Y-68666894D01*
X203156501Y-68666894D01*
X206171447Y-68663172D01*
X206171447Y-68663172D01*
G37*
X206171447Y-68663172D02*
X209291839Y-68652510D01*
X212424589Y-68635670D01*
X215476606Y-68613412D01*
X218354799Y-68586496D01*
X220966079Y-68555682D01*
X223217355Y-68521730D01*
X224821950Y-68489971D01*
X232494056Y-68313048D01*
X232418607Y-65532462D01*
X232343158Y-62751877D01*
X215914512Y-62776101D01*
X213009433Y-62778754D01*
X210272088Y-62778089D01*
X207747704Y-62774325D01*
X205481502Y-62767683D01*
X203518709Y-62758382D01*
X201904546Y-62746642D01*
X200684239Y-62732683D01*
X199903012Y-62716724D01*
X199606088Y-62698986D01*
X199605038Y-62696839D01*
X199861965Y-62535860D01*
X200508669Y-62147523D01*
X201473353Y-61574453D01*
X202684219Y-60859278D01*
X204069471Y-60044626D01*
X204302805Y-59907717D01*
X208881401Y-57222080D01*
X220679121Y-57024847D01*
X232476842Y-56827613D01*
X232476842Y-50952481D01*
X220779473Y-51070470D01*
X209082105Y-51188459D01*
X204135789Y-48363993D01*
X199189473Y-45539526D01*
X215766315Y-45405842D01*
X232343158Y-45272158D01*
X232419353Y-42531631D01*
X232495548Y-39791105D01*
X215976195Y-39851823D01*
X212868131Y-39864257D01*
X209775253Y-39878532D01*
X206764076Y-39894219D01*
X203901114Y-39910891D01*
X201252880Y-39928120D01*
X198885891Y-39945477D01*
X196866659Y-39962535D01*
X195261700Y-39978865D01*
X194310000Y-39991281D01*
X189163158Y-40070020D01*
X189163158Y-41093302D01*
X198708623Y-41093302D01*
X199876323Y-41177467D01*
X200690641Y-41304079D01*
X201180980Y-41604796D01*
X201453590Y-41996894D01*
X201712491Y-42580660D01*
X201695236Y-42732158D01*
X201996842Y-42732158D01*
X202197245Y-42135320D01*
X202682668Y-41501195D01*
X203279426Y-41016244D01*
X203740161Y-40860579D01*
X204327446Y-40983502D01*
X204688103Y-41137354D01*
X205144014Y-41472933D01*
X205085652Y-41702804D01*
X204525518Y-41813196D01*
X204068947Y-41819444D01*
X203356716Y-41827797D01*
X203029362Y-41971752D01*
X202937243Y-42371503D01*
X202934625Y-42576257D01*
X205931882Y-42576257D01*
X206142006Y-41831146D01*
X206632289Y-41264691D01*
X206872427Y-41137717D01*
X207602659Y-40912642D01*
X208153155Y-40997434D01*
X208778679Y-41414721D01*
X209313250Y-41930456D01*
X209475165Y-42306964D01*
X209232256Y-42464079D01*
X209200010Y-42464789D01*
X209036789Y-42302649D01*
X209074845Y-42209167D01*
X208991848Y-41901452D01*
X208570701Y-41519703D01*
X208568979Y-41518573D01*
X207734056Y-41231297D01*
X206956851Y-41462638D01*
X206382295Y-42066086D01*
X206154796Y-42825807D01*
X206431575Y-43554906D01*
X207013278Y-44067397D01*
X207225774Y-44217851D01*
X208232173Y-44217851D01*
X208413684Y-44069000D01*
X208901101Y-43842756D01*
X209082105Y-43809820D01*
X209129931Y-43920148D01*
X208948421Y-44069000D01*
X208461003Y-44295243D01*
X208280000Y-44328180D01*
X208232173Y-44217851D01*
X207225774Y-44217851D01*
X207316200Y-44281875D01*
X207131410Y-44302185D01*
X206945193Y-44276104D01*
X206337203Y-43959478D01*
X205998190Y-43339282D01*
X205931882Y-42576257D01*
X202934625Y-42576257D01*
X202932631Y-42732158D01*
X202966825Y-43332584D01*
X203172162Y-43605466D01*
X203702777Y-43690604D01*
X204002105Y-43702185D01*
X204750633Y-43733999D01*
X205271246Y-43770149D01*
X205338947Y-43778501D01*
X205376520Y-43899271D01*
X205071478Y-44123631D01*
X204582191Y-44368205D01*
X204292977Y-44470052D01*
X207611579Y-44470052D01*
X207745263Y-44336368D01*
X210285263Y-44336368D01*
X210328052Y-42665316D01*
X210363198Y-41918020D01*
X210414613Y-41636532D01*
X210475714Y-41853902D01*
X210481172Y-41896672D01*
X210591503Y-42799081D01*
X211387893Y-41896672D01*
X211832498Y-41407415D01*
X211964672Y-41314409D01*
X211814517Y-41603280D01*
X211739151Y-41728928D01*
X211460642Y-42259119D01*
X211469086Y-42314069D01*
X213061323Y-42314069D01*
X213409412Y-41732780D01*
X213589607Y-41542455D01*
X214369628Y-40978855D01*
X215130003Y-40925340D01*
X215840508Y-41276792D01*
X216281503Y-41669289D01*
X216434736Y-41945213D01*
X216278505Y-41966703D01*
X215902574Y-41665256D01*
X215900000Y-41662684D01*
X215317956Y-41262103D01*
X214830526Y-41127947D01*
X214213635Y-41332030D01*
X213623003Y-41819306D01*
X213261451Y-42402320D01*
X213226315Y-42610627D01*
X213403884Y-43070125D01*
X213836039Y-43632519D01*
X213882583Y-43680100D01*
X214285323Y-44158623D01*
X214285962Y-44334961D01*
X213913195Y-44160339D01*
X213693104Y-44002158D01*
X213299622Y-43494602D01*
X213081657Y-42946139D01*
X213061323Y-42314069D01*
X211469086Y-42314069D01*
X211511812Y-42592084D01*
X211917286Y-42968284D01*
X212325961Y-43371595D01*
X212331411Y-43692730D01*
X212182274Y-43904671D01*
X211662057Y-44224785D01*
X211054630Y-44336368D01*
X215326314Y-44336368D01*
X215353852Y-44175227D01*
X215683043Y-43777799D01*
X215778469Y-43680100D01*
X216222289Y-43162211D01*
X216432187Y-42771517D01*
X216434736Y-42744311D01*
X216547473Y-42474195D01*
X216586438Y-42464789D01*
X216638517Y-42680485D01*
X216575878Y-42986158D01*
X217549157Y-42986158D01*
X217604086Y-41849806D01*
X217868897Y-41163752D01*
X218368352Y-40876621D01*
X218573684Y-40860579D01*
X219135084Y-41038957D01*
X219322315Y-41181421D01*
X219503835Y-41635377D01*
X219595697Y-42446207D01*
X219598211Y-42986158D01*
X219588941Y-43292226D01*
X220712631Y-43292226D01*
X220747639Y-42612039D01*
X220890224Y-42352080D01*
X221167007Y-42388564D01*
X221422160Y-42571358D01*
X221300692Y-42669822D01*
X221053539Y-42987777D01*
X220980000Y-43422859D01*
X221089269Y-43908702D01*
X221520365Y-44064722D01*
X221679590Y-44069000D01*
X222179523Y-43995272D01*
X222290435Y-43667011D01*
X222251403Y-43400579D01*
X222238920Y-42904030D01*
X222371677Y-42732158D01*
X222524517Y-42959794D01*
X222535127Y-43467421D01*
X222380298Y-43996500D01*
X222251582Y-44069000D01*
X223386315Y-44069000D01*
X223615124Y-43868012D01*
X224054736Y-43801631D01*
X224525432Y-43737537D01*
X224686452Y-43484299D01*
X224545417Y-42950486D01*
X224188421Y-42197421D01*
X223815032Y-41433758D01*
X223676549Y-41029279D01*
X223746972Y-40876399D01*
X223865355Y-40860579D01*
X224084816Y-41081609D01*
X224426916Y-41630087D01*
X226124629Y-41630087D01*
X226263259Y-41106636D01*
X226648868Y-40904903D01*
X227221408Y-40912352D01*
X227722171Y-40992431D01*
X227975577Y-41203416D01*
X228072080Y-41692043D01*
X228095949Y-42331105D01*
X228037723Y-43420235D01*
X227781526Y-44063728D01*
X227774828Y-44067322D01*
X229001052Y-44067322D01*
X229222914Y-43845265D01*
X229491228Y-43801631D01*
X229975720Y-43729516D01*
X230140503Y-43455398D01*
X229994139Y-42892619D01*
X229652972Y-42164857D01*
X229336502Y-41454397D01*
X229208909Y-40980677D01*
X229260068Y-40860579D01*
X229507116Y-41081772D01*
X229896048Y-41661362D01*
X230337894Y-42464789D01*
X230753512Y-43319884D01*
X230931842Y-43808135D01*
X230893977Y-44030870D01*
X230675954Y-44088868D01*
X230020155Y-44154758D01*
X229602631Y-44220875D01*
X229138741Y-44210340D01*
X229001052Y-44067322D01*
X227774828Y-44067322D01*
X227296853Y-44323788D01*
X227112515Y-44336368D01*
X226681894Y-44248857D01*
X226412687Y-43913124D01*
X226246147Y-43219369D01*
X226170008Y-42574827D01*
X226124629Y-41630087D01*
X224426916Y-41630087D01*
X224443512Y-41656694D01*
X224801144Y-42337028D01*
X225184361Y-43158274D01*
X225446854Y-43797077D01*
X225525263Y-44074923D01*
X225288052Y-44238645D01*
X224695474Y-44329704D01*
X224455789Y-44336368D01*
X223786082Y-44277069D01*
X223413586Y-44128933D01*
X223386315Y-44069000D01*
X222251582Y-44069000D01*
X221965040Y-44230396D01*
X221581579Y-44286466D01*
X221027093Y-44308486D01*
X220779332Y-44135910D01*
X220714802Y-43627434D01*
X220712631Y-43292226D01*
X219588941Y-43292226D01*
X219553264Y-44470052D01*
X219397684Y-42865842D01*
X219293593Y-41975455D01*
X219159136Y-41494283D01*
X218930378Y-41297858D01*
X218573684Y-41261631D01*
X218198560Y-41304206D01*
X217977638Y-41514909D01*
X217846983Y-42018207D01*
X217749683Y-42865842D01*
X217594104Y-44470052D01*
X217549157Y-42986158D01*
X216575878Y-42986158D01*
X216559440Y-43066368D01*
X216228622Y-43687904D01*
X215733890Y-44175108D01*
X215326314Y-44336368D01*
X211054630Y-44336368D01*
X210285263Y-44336368D01*
X207745263Y-44336368D01*
X207878947Y-44470052D01*
X207745263Y-44603737D01*
X207611579Y-44470052D01*
X204292977Y-44470052D01*
X204067030Y-44549619D01*
X203789425Y-44594262D01*
X203205089Y-44387505D01*
X202595128Y-43869417D01*
X202136313Y-43223620D01*
X201996842Y-42732158D01*
X201695236Y-42732158D01*
X201658343Y-43056064D01*
X201456580Y-43458998D01*
X201035324Y-43920119D01*
X200408588Y-44324725D01*
X199760363Y-44584007D01*
X199274636Y-44609154D01*
X199185524Y-44555226D01*
X199092702Y-44241595D01*
X198979086Y-43552871D01*
X198882829Y-42760020D01*
X198708623Y-41093302D01*
X189163158Y-41093302D01*
X189163158Y-51628103D01*
X193275565Y-51628103D01*
X193504846Y-51104195D01*
X193589983Y-51003731D01*
X193865581Y-50626461D01*
X193850806Y-50485842D01*
X193819042Y-50321881D01*
X193973346Y-50087733D01*
X194389175Y-49820418D01*
X194691480Y-50032000D01*
X194777894Y-50497117D01*
X195014122Y-50961757D01*
X195740479Y-51486868D01*
X196147237Y-51705469D01*
X196975910Y-52188480D01*
X197289570Y-52537211D01*
X197248522Y-52667425D01*
X196809074Y-52733677D01*
X195990691Y-52428871D01*
X195848238Y-52357864D01*
X194908991Y-51992985D01*
X194164731Y-51922070D01*
X194094918Y-51936130D01*
X193490873Y-51939793D01*
X193275565Y-51628103D01*
X189163158Y-51628103D01*
X189163158Y-55182054D01*
X192632874Y-55182054D01*
X192791559Y-54814001D01*
X193183472Y-54608942D01*
X193451786Y-54633459D01*
X193886465Y-54573852D01*
X194654325Y-54283460D01*
X195654923Y-53818318D01*
X196787821Y-53234458D01*
X197952577Y-52587912D01*
X199048752Y-51934715D01*
X199975903Y-51330899D01*
X200633592Y-50832497D01*
X200921377Y-50495541D01*
X200926437Y-50463561D01*
X201023463Y-49986951D01*
X201098345Y-49869251D01*
X201419971Y-49799414D01*
X201669440Y-50126412D01*
X201729473Y-50501621D01*
X201844481Y-50927445D01*
X201996842Y-51020579D01*
X202229040Y-51239189D01*
X202264210Y-51452815D01*
X202091610Y-51767706D01*
X201758663Y-51752847D01*
X201249884Y-51806007D01*
X200503850Y-52086958D01*
X200030363Y-52334769D01*
X198807611Y-53048895D01*
X200490043Y-53781841D01*
X201399182Y-54130323D01*
X202156354Y-54335535D01*
X202592350Y-54353666D01*
X203044899Y-54332403D01*
X203180741Y-54693081D01*
X202983684Y-55375337D01*
X202908757Y-55533367D01*
X202497425Y-56119418D01*
X202090462Y-56351409D01*
X201801218Y-56199613D01*
X201729473Y-55842617D01*
X201514108Y-55301419D01*
X201212314Y-55040512D01*
X200674875Y-54800626D01*
X200486592Y-54925675D01*
X200550885Y-55487847D01*
X200559015Y-55528812D01*
X200519773Y-56422797D01*
X200155281Y-57350275D01*
X199573802Y-58071603D01*
X199337967Y-58231600D01*
X198311187Y-58532379D01*
X197268745Y-58432778D01*
X196338127Y-57997638D01*
X195646820Y-57291801D01*
X195322307Y-56380108D01*
X195312631Y-56184241D01*
X195259636Y-55586971D01*
X195130229Y-55305811D01*
X195112105Y-55302568D01*
X194566025Y-55551245D01*
X194222017Y-56151597D01*
X194203584Y-56234263D01*
X193955258Y-56669573D01*
X193708421Y-56769000D01*
X193345198Y-56543886D01*
X193213258Y-56234263D01*
X193004979Y-55710561D01*
X192836425Y-55525984D01*
X192632874Y-55182054D01*
X189163158Y-55182054D01*
X189163158Y-68666894D01*
X203156501Y-68666894D01*
X206171447Y-68663172D01*
D12*
G04 #@! TO.C,R4*
X219837000Y-109474000D02*
X219837000Y-106680000D01*
X219837000Y-106680000D02*
X218567000Y-106680000D01*
X218567000Y-106680000D02*
X218567000Y-109474000D01*
X218567000Y-109474000D02*
X219837000Y-109474000D01*
D11*
G04 #@! TO.C,REF\002A\002A*
X239403000Y-70784000D02*
X240403000Y-70784000D01*
X240403000Y-69424000D02*
X239403000Y-69424000D01*
D17*
X185229333Y-66312380D02*
X185562666Y-65836190D01*
X185800761Y-66312380D02*
X185800761Y-65312380D01*
X185419809Y-65312380D01*
X185324571Y-65360000D01*
X185276952Y-65407619D01*
X185229333Y-65502857D01*
X185229333Y-65645714D01*
X185276952Y-65740952D01*
X185324571Y-65788571D01*
X185419809Y-65836190D01*
X185800761Y-65836190D01*
X184800761Y-65788571D02*
X184467428Y-65788571D01*
X184324571Y-66312380D02*
X184800761Y-66312380D01*
X184800761Y-65312380D01*
X184324571Y-65312380D01*
X183562666Y-65788571D02*
X183896000Y-65788571D01*
X183896000Y-66312380D02*
X183896000Y-65312380D01*
X183419809Y-65312380D01*
X182896000Y-65312380D02*
X182896000Y-65550476D01*
X183134095Y-65455238D02*
X182896000Y-65550476D01*
X182657904Y-65455238D01*
X183038857Y-65740952D02*
X182896000Y-65550476D01*
X182753142Y-65740952D01*
X182134095Y-65312380D02*
X182134095Y-65550476D01*
X182372190Y-65455238D02*
X182134095Y-65550476D01*
X181896000Y-65455238D01*
X182276952Y-65740952D02*
X182134095Y-65550476D01*
X181991238Y-65740952D01*
X226377333Y-75080380D02*
X226710666Y-74604190D01*
X226948761Y-75080380D02*
X226948761Y-74080380D01*
X226567809Y-74080380D01*
X226472571Y-74128000D01*
X226424952Y-74175619D01*
X226377333Y-74270857D01*
X226377333Y-74413714D01*
X226424952Y-74508952D01*
X226472571Y-74556571D01*
X226567809Y-74604190D01*
X226948761Y-74604190D01*
X225948761Y-74556571D02*
X225615428Y-74556571D01*
X225472571Y-75080380D02*
X225948761Y-75080380D01*
X225948761Y-74080380D01*
X225472571Y-74080380D01*
X224710666Y-74556571D02*
X225044000Y-74556571D01*
X225044000Y-75080380D02*
X225044000Y-74080380D01*
X224567809Y-74080380D01*
X224044000Y-74080380D02*
X224044000Y-74318476D01*
X224282095Y-74223238D02*
X224044000Y-74318476D01*
X223805904Y-74223238D01*
X224186857Y-74508952D02*
X224044000Y-74318476D01*
X223901142Y-74508952D01*
X223282095Y-74080380D02*
X223282095Y-74318476D01*
X223520190Y-74223238D02*
X223282095Y-74318476D01*
X223044000Y-74223238D01*
X223424952Y-74508952D02*
X223282095Y-74318476D01*
X223139238Y-74508952D01*
X196786333Y-75207380D02*
X197119666Y-74731190D01*
X197357761Y-75207380D02*
X197357761Y-74207380D01*
X196976809Y-74207380D01*
X196881571Y-74255000D01*
X196833952Y-74302619D01*
X196786333Y-74397857D01*
X196786333Y-74540714D01*
X196833952Y-74635952D01*
X196881571Y-74683571D01*
X196976809Y-74731190D01*
X197357761Y-74731190D01*
X196357761Y-74683571D02*
X196024428Y-74683571D01*
X195881571Y-75207380D02*
X196357761Y-75207380D01*
X196357761Y-74207380D01*
X195881571Y-74207380D01*
X195119666Y-74683571D02*
X195453000Y-74683571D01*
X195453000Y-75207380D02*
X195453000Y-74207380D01*
X194976809Y-74207380D01*
X194453000Y-74207380D02*
X194453000Y-74445476D01*
X194691095Y-74350238D02*
X194453000Y-74445476D01*
X194214904Y-74350238D01*
X194595857Y-74635952D02*
X194453000Y-74445476D01*
X194310142Y-74635952D01*
X193691095Y-74207380D02*
X193691095Y-74445476D01*
X193929190Y-74350238D02*
X193691095Y-74445476D01*
X193453000Y-74350238D01*
X193833952Y-74635952D02*
X193691095Y-74445476D01*
X193548238Y-74635952D01*
G04 #@! TO.C,C1*
X202350666Y-108307142D02*
X202398285Y-108354761D01*
X202541142Y-108402380D01*
X202636380Y-108402380D01*
X202779238Y-108354761D01*
X202874476Y-108259523D01*
X202922095Y-108164285D01*
X202969714Y-107973809D01*
X202969714Y-107830952D01*
X202922095Y-107640476D01*
X202874476Y-107545238D01*
X202779238Y-107450000D01*
X202636380Y-107402380D01*
X202541142Y-107402380D01*
X202398285Y-107450000D01*
X202350666Y-107497619D01*
X201398285Y-108402380D02*
X201969714Y-108402380D01*
X201684000Y-108402380D02*
X201684000Y-107402380D01*
X201779238Y-107545238D01*
X201874476Y-107640476D01*
X201969714Y-107688095D01*
G04 #@! TO.C,R1*
X206922666Y-113990380D02*
X207256000Y-113514190D01*
X207494095Y-113990380D02*
X207494095Y-112990380D01*
X207113142Y-112990380D01*
X207017904Y-113038000D01*
X206970285Y-113085619D01*
X206922666Y-113180857D01*
X206922666Y-113323714D01*
X206970285Y-113418952D01*
X207017904Y-113466571D01*
X207113142Y-113514190D01*
X207494095Y-113514190D01*
X205970285Y-113990380D02*
X206541714Y-113990380D01*
X206256000Y-113990380D02*
X206256000Y-112990380D01*
X206351238Y-113133238D01*
X206446476Y-113228476D01*
X206541714Y-113276095D01*
G04 #@! TO.C,R2*
X206172666Y-111450380D02*
X206506000Y-110974190D01*
X206744095Y-111450380D02*
X206744095Y-110450380D01*
X206363142Y-110450380D01*
X206267904Y-110498000D01*
X206220285Y-110545619D01*
X206172666Y-110640857D01*
X206172666Y-110783714D01*
X206220285Y-110878952D01*
X206267904Y-110926571D01*
X206363142Y-110974190D01*
X206744095Y-110974190D01*
X205791714Y-110545619D02*
X205744095Y-110498000D01*
X205648857Y-110450380D01*
X205410761Y-110450380D01*
X205315523Y-110498000D01*
X205267904Y-110545619D01*
X205220285Y-110640857D01*
X205220285Y-110736095D01*
X205267904Y-110878952D01*
X205839333Y-111450380D01*
X205220285Y-111450380D01*
G04 #@! TO.C,R3*
X198318380Y-100683333D02*
X197842190Y-100350000D01*
X198318380Y-100111904D02*
X197318380Y-100111904D01*
X197318380Y-100492857D01*
X197366000Y-100588095D01*
X197413619Y-100635714D01*
X197508857Y-100683333D01*
X197651714Y-100683333D01*
X197746952Y-100635714D01*
X197794571Y-100588095D01*
X197842190Y-100492857D01*
X197842190Y-100111904D01*
X197318380Y-101016666D02*
X197318380Y-101635714D01*
X197699333Y-101302380D01*
X197699333Y-101445238D01*
X197746952Y-101540476D01*
X197794571Y-101588095D01*
X197889809Y-101635714D01*
X198127904Y-101635714D01*
X198223142Y-101588095D01*
X198270761Y-101540476D01*
X198318380Y-101445238D01*
X198318380Y-101159523D01*
X198270761Y-101064285D01*
X198223142Y-101016666D01*
G04 #@! TO.C,U1*
D18*
X209804461Y-105786044D02*
X209804461Y-106505711D01*
X209762128Y-106590378D01*
X209719794Y-106632711D01*
X209635128Y-106675044D01*
X209465794Y-106675044D01*
X209381128Y-106632711D01*
X209338794Y-106590378D01*
X209296461Y-106505711D01*
X209296461Y-105786044D01*
X208407461Y-106675044D02*
X208915461Y-106675044D01*
X208661461Y-106675044D02*
X208661461Y-105786044D01*
X208746128Y-105913044D01*
X208830794Y-105997711D01*
X208915461Y-106040044D01*
G04 #@! TO.C,USB1*
D17*
X210018095Y-117440120D02*
X210018095Y-118249644D01*
X209970476Y-118344882D01*
X209922857Y-118392501D01*
X209827619Y-118440120D01*
X209637142Y-118440120D01*
X209541904Y-118392501D01*
X209494285Y-118344882D01*
X209446666Y-118249644D01*
X209446666Y-117440120D01*
X209018095Y-118392501D02*
X208875238Y-118440120D01*
X208637142Y-118440120D01*
X208541904Y-118392501D01*
X208494285Y-118344882D01*
X208446666Y-118249644D01*
X208446666Y-118154406D01*
X208494285Y-118059168D01*
X208541904Y-118011549D01*
X208637142Y-117963930D01*
X208827619Y-117916311D01*
X208922857Y-117868692D01*
X208970476Y-117821073D01*
X209018095Y-117725835D01*
X209018095Y-117630597D01*
X208970476Y-117535359D01*
X208922857Y-117487740D01*
X208827619Y-117440120D01*
X208589523Y-117440120D01*
X208446666Y-117487740D01*
X207684761Y-117916311D02*
X207541904Y-117963930D01*
X207494285Y-118011549D01*
X207446666Y-118106787D01*
X207446666Y-118249644D01*
X207494285Y-118344882D01*
X207541904Y-118392501D01*
X207637142Y-118440120D01*
X208018095Y-118440120D01*
X208018095Y-117440120D01*
X207684761Y-117440120D01*
X207589523Y-117487740D01*
X207541904Y-117535359D01*
X207494285Y-117630597D01*
X207494285Y-117725835D01*
X207541904Y-117821073D01*
X207589523Y-117868692D01*
X207684761Y-117916311D01*
X208018095Y-117916311D01*
X206494285Y-118440120D02*
X207065714Y-118440120D01*
X206780000Y-118440120D02*
X206780000Y-117440120D01*
X206875238Y-117582978D01*
X206970476Y-117678216D01*
X207065714Y-117725835D01*
G04 #@! TO.C,Y1*
X201652190Y-100615809D02*
X202128380Y-100615809D01*
X201128380Y-100282476D02*
X201652190Y-100615809D01*
X201128380Y-100949142D01*
X202128380Y-101806285D02*
X202128380Y-101234857D01*
X202128380Y-101520571D02*
X201128380Y-101520571D01*
X201271238Y-101425333D01*
X201366476Y-101330095D01*
X201414095Y-101234857D01*
G04 #@! TO.C,U2*
X226215904Y-119318380D02*
X226215904Y-120127904D01*
X226168285Y-120223142D01*
X226120666Y-120270761D01*
X226025428Y-120318380D01*
X225834952Y-120318380D01*
X225739714Y-120270761D01*
X225692095Y-120223142D01*
X225644476Y-120127904D01*
X225644476Y-119318380D01*
X225215904Y-119413619D02*
X225168285Y-119366000D01*
X225073047Y-119318380D01*
X224834952Y-119318380D01*
X224739714Y-119366000D01*
X224692095Y-119413619D01*
X224644476Y-119508857D01*
X224644476Y-119604095D01*
X224692095Y-119746952D01*
X225263523Y-120318380D01*
X224644476Y-120318380D01*
G04 #@! TO.C,R4*
X220273619Y-108243666D02*
X220749809Y-108577000D01*
X220273619Y-108815095D02*
X221273619Y-108815095D01*
X221273619Y-108434142D01*
X221226000Y-108338904D01*
X221178380Y-108291285D01*
X221083142Y-108243666D01*
X220940285Y-108243666D01*
X220845047Y-108291285D01*
X220797428Y-108338904D01*
X220749809Y-108434142D01*
X220749809Y-108815095D01*
X220940285Y-107386523D02*
X220273619Y-107386523D01*
X221321238Y-107624619D02*
X220606952Y-107862714D01*
X220606952Y-107243666D01*
G04 #@! TO.C,REF\002A\002A*
X241236333Y-69106380D02*
X241569666Y-68630190D01*
X241807761Y-69106380D02*
X241807761Y-68106380D01*
X241426809Y-68106380D01*
X241331571Y-68154000D01*
X241283952Y-68201619D01*
X241236333Y-68296857D01*
X241236333Y-68439714D01*
X241283952Y-68534952D01*
X241331571Y-68582571D01*
X241426809Y-68630190D01*
X241807761Y-68630190D01*
X240807761Y-68582571D02*
X240474428Y-68582571D01*
X240331571Y-69106380D02*
X240807761Y-69106380D01*
X240807761Y-68106380D01*
X240331571Y-68106380D01*
X239569666Y-68582571D02*
X239903000Y-68582571D01*
X239903000Y-69106380D02*
X239903000Y-68106380D01*
X239426809Y-68106380D01*
X238903000Y-68106380D02*
X238903000Y-68344476D01*
X239141095Y-68249238D02*
X238903000Y-68344476D01*
X238664904Y-68249238D01*
X239045857Y-68534952D02*
X238903000Y-68344476D01*
X238760142Y-68534952D01*
X238141095Y-68106380D02*
X238141095Y-68344476D01*
X238379190Y-68249238D02*
X238141095Y-68344476D01*
X237903000Y-68249238D01*
X238283952Y-68534952D02*
X238141095Y-68344476D01*
X237998238Y-68534952D01*
G04 #@! TD*
M02*
