G04 #@! TF.GenerationSoftware,KiCad,Pcbnew,(5.0.2)-1*
G04 #@! TF.CreationDate,2019-02-25T22:43:21-04:00*
G04 #@! TF.ProjectId,MegaBadge,4d656761-4261-4646-9765-2e6b69636164,rev?*
G04 #@! TF.SameCoordinates,Original*
G04 #@! TF.FileFunction,Soldermask,Bot*
G04 #@! TF.FilePolarity,Negative*
%FSLAX46Y46*%
G04 Gerber Fmt 4.6, Leading zero omitted, Abs format (unit mm)*
G04 Created by KiCad (PCBNEW (5.0.2)-1) date 2/25/2019 10:43:21 PM*
%MOMM*%
%LPD*%
G01*
G04 APERTURE LIST*
%ADD10C,0.100000*%
G04 APERTURE END LIST*
D10*
G36*
X237769560Y-121609759D02*
X238260928Y-121813290D01*
X238260930Y-121813291D01*
X238468723Y-121952134D01*
X238703153Y-122108775D01*
X239079225Y-122484847D01*
X239374710Y-122927072D01*
X239578241Y-123418440D01*
X239682000Y-123940072D01*
X239682000Y-124471928D01*
X239578241Y-124993560D01*
X239374710Y-125484928D01*
X239079225Y-125927153D01*
X238703153Y-126303225D01*
X238703150Y-126303227D01*
X238260930Y-126598709D01*
X238260929Y-126598710D01*
X238260928Y-126598710D01*
X237769560Y-126802241D01*
X237247928Y-126906000D01*
X236716072Y-126906000D01*
X236194440Y-126802241D01*
X235703072Y-126598710D01*
X235703071Y-126598710D01*
X235703070Y-126598709D01*
X235260850Y-126303227D01*
X235260847Y-126303225D01*
X234884775Y-125927153D01*
X234589290Y-125484928D01*
X234385759Y-124993560D01*
X234282000Y-124471928D01*
X234282000Y-123940072D01*
X234385759Y-123418440D01*
X234589290Y-122927072D01*
X234884775Y-122484847D01*
X235260847Y-122108775D01*
X235495277Y-121952134D01*
X235703070Y-121813291D01*
X235703072Y-121813290D01*
X236194440Y-121609759D01*
X236716072Y-121506000D01*
X237247928Y-121506000D01*
X237769560Y-121609759D01*
X237769560Y-121609759D01*
G37*
G36*
X184937560Y-121609759D02*
X185428928Y-121813290D01*
X185428930Y-121813291D01*
X185636723Y-121952134D01*
X185871153Y-122108775D01*
X186247225Y-122484847D01*
X186542710Y-122927072D01*
X186746241Y-123418440D01*
X186850000Y-123940072D01*
X186850000Y-124471928D01*
X186746241Y-124993560D01*
X186542710Y-125484928D01*
X186247225Y-125927153D01*
X185871153Y-126303225D01*
X185871150Y-126303227D01*
X185428930Y-126598709D01*
X185428929Y-126598710D01*
X185428928Y-126598710D01*
X184937560Y-126802241D01*
X184415928Y-126906000D01*
X183884072Y-126906000D01*
X183362440Y-126802241D01*
X182871072Y-126598710D01*
X182871071Y-126598710D01*
X182871070Y-126598709D01*
X182428850Y-126303227D01*
X182428847Y-126303225D01*
X182052775Y-125927153D01*
X181757290Y-125484928D01*
X181553759Y-124993560D01*
X181450000Y-124471928D01*
X181450000Y-123940072D01*
X181553759Y-123418440D01*
X181757290Y-122927072D01*
X182052775Y-122484847D01*
X182428847Y-122108775D01*
X182663277Y-121952134D01*
X182871070Y-121813291D01*
X182871072Y-121813290D01*
X183362440Y-121609759D01*
X183884072Y-121506000D01*
X184415928Y-121506000D01*
X184937560Y-121609759D01*
X184937560Y-121609759D01*
G37*
G36*
X204847124Y-121273231D02*
X204938233Y-121300868D01*
X204983788Y-121314687D01*
X205109737Y-121382009D01*
X205220132Y-121472608D01*
X205310731Y-121583002D01*
X205378053Y-121708951D01*
X205391872Y-121754506D01*
X205419509Y-121845615D01*
X205430000Y-121952133D01*
X205430000Y-123123347D01*
X205419509Y-123229865D01*
X205391872Y-123320974D01*
X205378053Y-123366529D01*
X205310731Y-123492478D01*
X205220132Y-123602872D01*
X205109738Y-123693471D01*
X204983789Y-123760793D01*
X204938234Y-123774612D01*
X204847125Y-123802249D01*
X204752375Y-123811581D01*
X204705001Y-123816247D01*
X204705000Y-123816247D01*
X204562876Y-123802249D01*
X204471767Y-123774612D01*
X204426212Y-123760793D01*
X204300263Y-123693471D01*
X204189869Y-123602872D01*
X204099270Y-123492478D01*
X204031948Y-123366529D01*
X204018129Y-123320974D01*
X203990492Y-123229865D01*
X203980001Y-123123347D01*
X203980000Y-121952134D01*
X203990491Y-121845616D01*
X204031947Y-121708953D01*
X204031947Y-121708952D01*
X204099269Y-121583003D01*
X204189868Y-121472608D01*
X204300262Y-121382009D01*
X204426211Y-121314687D01*
X204471766Y-121300868D01*
X204562875Y-121273231D01*
X204657625Y-121263899D01*
X204704999Y-121259233D01*
X204705000Y-121259233D01*
X204847124Y-121273231D01*
X204847124Y-121273231D01*
G37*
G36*
X211997124Y-121273231D02*
X212088233Y-121300868D01*
X212133788Y-121314687D01*
X212259737Y-121382009D01*
X212370132Y-121472608D01*
X212460731Y-121583002D01*
X212528053Y-121708951D01*
X212541872Y-121754506D01*
X212569509Y-121845615D01*
X212580000Y-121952133D01*
X212580000Y-123123347D01*
X212569509Y-123229865D01*
X212541872Y-123320974D01*
X212528053Y-123366529D01*
X212460731Y-123492478D01*
X212370132Y-123602872D01*
X212259738Y-123693471D01*
X212133789Y-123760793D01*
X212088234Y-123774612D01*
X211997125Y-123802249D01*
X211902375Y-123811581D01*
X211855001Y-123816247D01*
X211855000Y-123816247D01*
X211712876Y-123802249D01*
X211621767Y-123774612D01*
X211576212Y-123760793D01*
X211450263Y-123693471D01*
X211339869Y-123602872D01*
X211249270Y-123492478D01*
X211181948Y-123366529D01*
X211168129Y-123320974D01*
X211140492Y-123229865D01*
X211130001Y-123123347D01*
X211130000Y-121952134D01*
X211140491Y-121845616D01*
X211181947Y-121708953D01*
X211181947Y-121708952D01*
X211249269Y-121583003D01*
X211339868Y-121472608D01*
X211450262Y-121382009D01*
X211576211Y-121314687D01*
X211621766Y-121300868D01*
X211712875Y-121273231D01*
X211807625Y-121263899D01*
X211854999Y-121259233D01*
X211855000Y-121259233D01*
X211997124Y-121273231D01*
X211997124Y-121273231D01*
G37*
G36*
X206145004Y-119117868D02*
X206276955Y-119157895D01*
X206398561Y-119222895D01*
X206400708Y-119224657D01*
X206421073Y-119238265D01*
X206443712Y-119247643D01*
X206467746Y-119252424D01*
X206492250Y-119252424D01*
X206516283Y-119247644D01*
X206538923Y-119238267D01*
X206559297Y-119224654D01*
X206576625Y-119207327D01*
X206590239Y-119186953D01*
X206599617Y-119164314D01*
X206604328Y-119140630D01*
X209956241Y-119140630D01*
X209957402Y-119152412D01*
X209964515Y-119175861D01*
X209976066Y-119197472D01*
X209991612Y-119216414D01*
X210010554Y-119231960D01*
X210032165Y-119243511D01*
X210055614Y-119250624D01*
X210080000Y-119253026D01*
X210104386Y-119250624D01*
X210127835Y-119243511D01*
X210149446Y-119231960D01*
X210159283Y-119224664D01*
X210161439Y-119222895D01*
X210283045Y-119157895D01*
X210414996Y-119117868D01*
X210517830Y-119107740D01*
X210892170Y-119107740D01*
X210995004Y-119117868D01*
X211126955Y-119157895D01*
X211248561Y-119222895D01*
X211355150Y-119310370D01*
X211442625Y-119416959D01*
X211507625Y-119538565D01*
X211547652Y-119670516D01*
X211561167Y-119807740D01*
X211547652Y-119944964D01*
X211507625Y-120076915D01*
X211442625Y-120198521D01*
X211355150Y-120305110D01*
X211248561Y-120392585D01*
X211126955Y-120457585D01*
X210995004Y-120497612D01*
X210892170Y-120507740D01*
X210517830Y-120507740D01*
X210414996Y-120497612D01*
X210283045Y-120457585D01*
X210161439Y-120392585D01*
X210159292Y-120390823D01*
X210138927Y-120377215D01*
X210116288Y-120367837D01*
X210092254Y-120363056D01*
X210067750Y-120363056D01*
X210043717Y-120367836D01*
X210021077Y-120377213D01*
X210000703Y-120390826D01*
X209983375Y-120408153D01*
X209969761Y-120428527D01*
X209960383Y-120451166D01*
X209955602Y-120475200D01*
X209955000Y-120487454D01*
X209955000Y-120889370D01*
X206605000Y-120889370D01*
X206605000Y-120487454D01*
X206602598Y-120463068D01*
X206595485Y-120439619D01*
X206583934Y-120418008D01*
X206568388Y-120399066D01*
X206549446Y-120383520D01*
X206527835Y-120371969D01*
X206504386Y-120364856D01*
X206480000Y-120362454D01*
X206455614Y-120364856D01*
X206432165Y-120371969D01*
X206410554Y-120383520D01*
X206400717Y-120390816D01*
X206398561Y-120392585D01*
X206276955Y-120457585D01*
X206145004Y-120497612D01*
X206042170Y-120507740D01*
X205667830Y-120507740D01*
X205564996Y-120497612D01*
X205433045Y-120457585D01*
X205311439Y-120392585D01*
X205204850Y-120305110D01*
X205117375Y-120198521D01*
X205052375Y-120076915D01*
X205012348Y-119944964D01*
X204998833Y-119807740D01*
X205012348Y-119670516D01*
X205052375Y-119538565D01*
X205117375Y-119416959D01*
X205204850Y-119310370D01*
X205311439Y-119222895D01*
X205433045Y-119157895D01*
X205564996Y-119117868D01*
X205667830Y-119107740D01*
X206042170Y-119107740D01*
X206145004Y-119117868D01*
X206145004Y-119117868D01*
G37*
G36*
X232554000Y-119016000D02*
X225154000Y-119016000D01*
X225154000Y-111616000D01*
X232554000Y-111616000D01*
X232554000Y-119016000D01*
X232554000Y-119016000D01*
G37*
G36*
X223404000Y-118816000D02*
X219504000Y-118816000D01*
X219504000Y-116416000D01*
X223404000Y-116416000D01*
X223404000Y-118816000D01*
X223404000Y-118816000D01*
G37*
G36*
X223404000Y-114236000D02*
X219504000Y-114236000D01*
X219504000Y-111836000D01*
X223404000Y-111836000D01*
X223404000Y-114236000D01*
X223404000Y-114236000D01*
G37*
G36*
X210254000Y-114188000D02*
X209354000Y-114188000D01*
X209354000Y-112888000D01*
X210254000Y-112888000D01*
X210254000Y-114188000D01*
X210254000Y-114188000D01*
G37*
G36*
X208754000Y-114188000D02*
X207854000Y-114188000D01*
X207854000Y-112888000D01*
X208754000Y-112888000D01*
X208754000Y-114188000D01*
X208754000Y-114188000D01*
G37*
G36*
X209480000Y-111648000D02*
X208580000Y-111648000D01*
X208580000Y-110348000D01*
X209480000Y-110348000D01*
X209480000Y-111648000D01*
X209480000Y-111648000D01*
G37*
G36*
X207980000Y-111648000D02*
X207080000Y-111648000D01*
X207080000Y-110348000D01*
X207980000Y-110348000D01*
X207980000Y-111648000D01*
X207980000Y-111648000D01*
G37*
G36*
X219846500Y-109483500D02*
X218557500Y-109483500D01*
X218557500Y-106670500D01*
X219846500Y-106670500D01*
X219846500Y-109483500D01*
X219846500Y-109483500D01*
G37*
G36*
X206136000Y-108600000D02*
X203312000Y-108600000D01*
X203312000Y-107300000D01*
X206136000Y-107300000D01*
X206136000Y-108600000D01*
X206136000Y-108600000D01*
G37*
G36*
X214772000Y-108600000D02*
X211948000Y-108600000D01*
X211948000Y-107300000D01*
X214772000Y-107300000D01*
X214772000Y-108600000D01*
X214772000Y-108600000D01*
G37*
G36*
X202876000Y-105994000D02*
X200476000Y-105994000D01*
X200476000Y-105194000D01*
X202876000Y-105194000D01*
X202876000Y-105994000D01*
X202876000Y-105994000D01*
G37*
G36*
X211048254Y-99723763D02*
X211109414Y-99742316D01*
X211165777Y-99772442D01*
X211215185Y-99812991D01*
X211255734Y-99862399D01*
X211285860Y-99918762D01*
X211304413Y-99979922D01*
X211309108Y-100027595D01*
X211309108Y-100515181D01*
X211309195Y-100515181D01*
X211309196Y-100532672D01*
X211313978Y-100556706D01*
X211323356Y-100579344D01*
X211336971Y-100599718D01*
X211354299Y-100617044D01*
X211374675Y-100630657D01*
X211397314Y-100640033D01*
X211421348Y-100644812D01*
X211438825Y-100644812D01*
X211438825Y-100644898D01*
X211926411Y-100644898D01*
X211974084Y-100649593D01*
X212035244Y-100668146D01*
X212091607Y-100698272D01*
X212141015Y-100738821D01*
X212181564Y-100788229D01*
X212211690Y-100844592D01*
X212230243Y-100905752D01*
X212236507Y-100969358D01*
X212230243Y-101032964D01*
X212211690Y-101094124D01*
X212176824Y-101159354D01*
X212167446Y-101181993D01*
X212162666Y-101206026D01*
X212162666Y-101230531D01*
X212167447Y-101254564D01*
X212176824Y-101277202D01*
X212211690Y-101342432D01*
X212230243Y-101403592D01*
X212236507Y-101467198D01*
X212230243Y-101530804D01*
X212211690Y-101591964D01*
X212176145Y-101658464D01*
X212166767Y-101681103D01*
X212161987Y-101705136D01*
X212161987Y-101729640D01*
X212166768Y-101753674D01*
X212176145Y-101776312D01*
X212211690Y-101842812D01*
X212230243Y-101903972D01*
X212236507Y-101967578D01*
X212230243Y-102031184D01*
X212211690Y-102092344D01*
X212176145Y-102158844D01*
X212166767Y-102181483D01*
X212161987Y-102205516D01*
X212161987Y-102230020D01*
X212166768Y-102254054D01*
X212176145Y-102276692D01*
X212211690Y-102343192D01*
X212230243Y-102404352D01*
X212236507Y-102467958D01*
X212230243Y-102531564D01*
X212211690Y-102592724D01*
X212176824Y-102657954D01*
X212167446Y-102680593D01*
X212162666Y-102704626D01*
X212162666Y-102729131D01*
X212167447Y-102753164D01*
X212176824Y-102775802D01*
X212211690Y-102841032D01*
X212230243Y-102902192D01*
X212236507Y-102965798D01*
X212230243Y-103029404D01*
X212211690Y-103090564D01*
X212176145Y-103157064D01*
X212166767Y-103179703D01*
X212161987Y-103203736D01*
X212161987Y-103228240D01*
X212166768Y-103252274D01*
X212176145Y-103274912D01*
X212211690Y-103341412D01*
X212230243Y-103402572D01*
X212236507Y-103466178D01*
X212230243Y-103529784D01*
X212211690Y-103590944D01*
X212176145Y-103657444D01*
X212166767Y-103680083D01*
X212161987Y-103704116D01*
X212161987Y-103728620D01*
X212166768Y-103752654D01*
X212176145Y-103775292D01*
X212211690Y-103841792D01*
X212230243Y-103902952D01*
X212236507Y-103966558D01*
X212230243Y-104030164D01*
X212211690Y-104091324D01*
X212176824Y-104156554D01*
X212167446Y-104179193D01*
X212162666Y-104203226D01*
X212162666Y-104227731D01*
X212167447Y-104251764D01*
X212176824Y-104274402D01*
X212211690Y-104339632D01*
X212230243Y-104400792D01*
X212236507Y-104464398D01*
X212230243Y-104528004D01*
X212211690Y-104589164D01*
X212181564Y-104645527D01*
X212141015Y-104694935D01*
X212091607Y-104735484D01*
X212035244Y-104765610D01*
X211974084Y-104784163D01*
X211926411Y-104788858D01*
X211438825Y-104788858D01*
X211438825Y-104788945D01*
X211421334Y-104788946D01*
X211397300Y-104793728D01*
X211374662Y-104803106D01*
X211354288Y-104816721D01*
X211336962Y-104834049D01*
X211323349Y-104854425D01*
X211313973Y-104877064D01*
X211309194Y-104901098D01*
X211309194Y-104918575D01*
X211309108Y-104918575D01*
X211309108Y-105406161D01*
X211304413Y-105453834D01*
X211285860Y-105514994D01*
X211255734Y-105571357D01*
X211215185Y-105620765D01*
X211165777Y-105661314D01*
X211109414Y-105691440D01*
X211048254Y-105709993D01*
X210984648Y-105716257D01*
X210921043Y-105709993D01*
X210859883Y-105691440D01*
X210794653Y-105656574D01*
X210772014Y-105647196D01*
X210747981Y-105642416D01*
X210723476Y-105642416D01*
X210699443Y-105647197D01*
X210676805Y-105656573D01*
X210655332Y-105668050D01*
X210611574Y-105691440D01*
X210602968Y-105694050D01*
X210550414Y-105709993D01*
X210486808Y-105716257D01*
X210423203Y-105709993D01*
X210362043Y-105691440D01*
X210295543Y-105655895D01*
X210272904Y-105646517D01*
X210248871Y-105641737D01*
X210224367Y-105641737D01*
X210200333Y-105646518D01*
X210177695Y-105655894D01*
X210160260Y-105665213D01*
X210111194Y-105691440D01*
X210102588Y-105694050D01*
X210050034Y-105709993D01*
X209986428Y-105716257D01*
X209922823Y-105709993D01*
X209861663Y-105691440D01*
X209795163Y-105655895D01*
X209772524Y-105646517D01*
X209748491Y-105641737D01*
X209723987Y-105641737D01*
X209699953Y-105646518D01*
X209677315Y-105655894D01*
X209659880Y-105665213D01*
X209610814Y-105691440D01*
X209602208Y-105694050D01*
X209549654Y-105709993D01*
X209486048Y-105716257D01*
X209422443Y-105709993D01*
X209361283Y-105691440D01*
X209296053Y-105656574D01*
X209273414Y-105647196D01*
X209249381Y-105642416D01*
X209224876Y-105642416D01*
X209200843Y-105647197D01*
X209178205Y-105656573D01*
X209156732Y-105668050D01*
X209112974Y-105691440D01*
X209104368Y-105694050D01*
X209051814Y-105709993D01*
X208988208Y-105716257D01*
X208924603Y-105709993D01*
X208863443Y-105691440D01*
X208796943Y-105655895D01*
X208774304Y-105646517D01*
X208750271Y-105641737D01*
X208725767Y-105641737D01*
X208701733Y-105646518D01*
X208679095Y-105655894D01*
X208661660Y-105665213D01*
X208612594Y-105691440D01*
X208603988Y-105694050D01*
X208551434Y-105709993D01*
X208487828Y-105716257D01*
X208424223Y-105709993D01*
X208363063Y-105691440D01*
X208296563Y-105655895D01*
X208273924Y-105646517D01*
X208249891Y-105641737D01*
X208225387Y-105641737D01*
X208201353Y-105646518D01*
X208178715Y-105655894D01*
X208161280Y-105665213D01*
X208112214Y-105691440D01*
X208103608Y-105694050D01*
X208051054Y-105709993D01*
X207987448Y-105716257D01*
X207923843Y-105709993D01*
X207862683Y-105691440D01*
X207797453Y-105656574D01*
X207774814Y-105647196D01*
X207750781Y-105642416D01*
X207726276Y-105642416D01*
X207702243Y-105647197D01*
X207679605Y-105656573D01*
X207658132Y-105668050D01*
X207614374Y-105691440D01*
X207605768Y-105694050D01*
X207553214Y-105709993D01*
X207489608Y-105716257D01*
X207426003Y-105709993D01*
X207364843Y-105691440D01*
X207308480Y-105661314D01*
X207259072Y-105620765D01*
X207218523Y-105571357D01*
X207188397Y-105514994D01*
X207169844Y-105453834D01*
X207165148Y-105406158D01*
X207165148Y-104918576D01*
X207165061Y-104918576D01*
X207165060Y-104901081D01*
X207160278Y-104877048D01*
X207150899Y-104854410D01*
X207137283Y-104834036D01*
X207119955Y-104816711D01*
X207099579Y-104803098D01*
X207076939Y-104793723D01*
X207052906Y-104788944D01*
X207035431Y-104788944D01*
X207035431Y-104788858D01*
X206547845Y-104788858D01*
X206500172Y-104784163D01*
X206439012Y-104765610D01*
X206382649Y-104735484D01*
X206333241Y-104694935D01*
X206292692Y-104645527D01*
X206262566Y-104589164D01*
X206244013Y-104528004D01*
X206237749Y-104464398D01*
X206244013Y-104400792D01*
X206262566Y-104339632D01*
X206297432Y-104274402D01*
X206306810Y-104251763D01*
X206311590Y-104227730D01*
X206311590Y-104203226D01*
X207265546Y-104203226D01*
X207265546Y-104227731D01*
X207270327Y-104251764D01*
X207279704Y-104274402D01*
X207314570Y-104339632D01*
X207333123Y-104400792D01*
X207339387Y-104464399D01*
X207337905Y-104479452D01*
X207337905Y-104503957D01*
X207342686Y-104527990D01*
X207352063Y-104550629D01*
X207365678Y-104571003D01*
X207383005Y-104588330D01*
X207403380Y-104601944D01*
X207426019Y-104611321D01*
X207450052Y-104616101D01*
X207474554Y-104616101D01*
X207489607Y-104614619D01*
X207489608Y-104614619D01*
X207494841Y-104615134D01*
X207553213Y-104620883D01*
X207605767Y-104636826D01*
X207614373Y-104639436D01*
X207658131Y-104662826D01*
X207679604Y-104674303D01*
X207702243Y-104683680D01*
X207726277Y-104688460D01*
X207750781Y-104688460D01*
X207774815Y-104683679D01*
X207797452Y-104674302D01*
X207862682Y-104639436D01*
X207923842Y-104620883D01*
X207987447Y-104614619D01*
X207987448Y-104614619D01*
X208011646Y-104617002D01*
X208046424Y-104620428D01*
X208070928Y-104620428D01*
X208094962Y-104615648D01*
X208117601Y-104606271D01*
X208137975Y-104592657D01*
X208155303Y-104575330D01*
X208168917Y-104554955D01*
X208178294Y-104532317D01*
X208183075Y-104508283D01*
X208183075Y-104508276D01*
X210291180Y-104508276D01*
X210295960Y-104532309D01*
X210305336Y-104554949D01*
X210318949Y-104575324D01*
X210336275Y-104592652D01*
X210356649Y-104606267D01*
X210379288Y-104615645D01*
X210403321Y-104620427D01*
X210427830Y-104620427D01*
X210486807Y-104614619D01*
X210486808Y-104614619D01*
X210492041Y-104615134D01*
X210550413Y-104620883D01*
X210602967Y-104636826D01*
X210611573Y-104639436D01*
X210655331Y-104662826D01*
X210676804Y-104674303D01*
X210699443Y-104683680D01*
X210723477Y-104688460D01*
X210747981Y-104688460D01*
X210772015Y-104683679D01*
X210794652Y-104674302D01*
X210859882Y-104639436D01*
X210921042Y-104620883D01*
X210979415Y-104615134D01*
X210984648Y-104614619D01*
X210984649Y-104614619D01*
X210999702Y-104616101D01*
X211024207Y-104616101D01*
X211048240Y-104611320D01*
X211070879Y-104601943D01*
X211091253Y-104588328D01*
X211108580Y-104571001D01*
X211122194Y-104550626D01*
X211131571Y-104527987D01*
X211136351Y-104503954D01*
X211136351Y-104479452D01*
X211134869Y-104464399D01*
X211141133Y-104400792D01*
X211159686Y-104339632D01*
X211194552Y-104274402D01*
X211203930Y-104251763D01*
X211208710Y-104227730D01*
X211208710Y-104203225D01*
X211203929Y-104179192D01*
X211194552Y-104156554D01*
X211159686Y-104091324D01*
X211141133Y-104030164D01*
X211134869Y-103966557D01*
X211140677Y-103907580D01*
X211140677Y-103883076D01*
X211135896Y-103859043D01*
X211126519Y-103836404D01*
X211112905Y-103816029D01*
X211095578Y-103798702D01*
X211075203Y-103785088D01*
X211052564Y-103775711D01*
X211028530Y-103770931D01*
X211004026Y-103770931D01*
X210979993Y-103775712D01*
X210957354Y-103785089D01*
X210936979Y-103798703D01*
X210919652Y-103816030D01*
X210910096Y-103830333D01*
X210907771Y-103833166D01*
X210657893Y-104137643D01*
X210353416Y-104387521D01*
X210353413Y-104387523D01*
X210350583Y-104389845D01*
X210336284Y-104399399D01*
X210318956Y-104416725D01*
X210305341Y-104437099D01*
X210295963Y-104459738D01*
X210291181Y-104483771D01*
X210291180Y-104508276D01*
X208183075Y-104508276D01*
X208183075Y-104483779D01*
X208178295Y-104459745D01*
X208168918Y-104437106D01*
X208155304Y-104416732D01*
X208137977Y-104399404D01*
X208123674Y-104389847D01*
X208058062Y-104336000D01*
X207816363Y-104137643D01*
X207566485Y-103833166D01*
X207566483Y-103833163D01*
X207564161Y-103830333D01*
X207554607Y-103816034D01*
X207537281Y-103798706D01*
X207516907Y-103785091D01*
X207494268Y-103775713D01*
X207470235Y-103770931D01*
X207445730Y-103770930D01*
X207421697Y-103775710D01*
X207399057Y-103785086D01*
X207378682Y-103798699D01*
X207361354Y-103816025D01*
X207347739Y-103836399D01*
X207338361Y-103859038D01*
X207333579Y-103883071D01*
X207333579Y-103907580D01*
X207339387Y-103966557D01*
X207333123Y-104030164D01*
X207314570Y-104091324D01*
X207279704Y-104156554D01*
X207270326Y-104179193D01*
X207265546Y-104203226D01*
X206311590Y-104203226D01*
X206311590Y-104203225D01*
X206306809Y-104179192D01*
X206297432Y-104156554D01*
X206262566Y-104091324D01*
X206244013Y-104030164D01*
X206237749Y-103966558D01*
X206244013Y-103902952D01*
X206262566Y-103841792D01*
X206298111Y-103775292D01*
X206307489Y-103752653D01*
X206312269Y-103728620D01*
X206312269Y-103704116D01*
X206307488Y-103680082D01*
X206298111Y-103657444D01*
X206262566Y-103590944D01*
X206244013Y-103529784D01*
X206237749Y-103466178D01*
X206244013Y-103402572D01*
X206262566Y-103341412D01*
X206298111Y-103274912D01*
X206307489Y-103252273D01*
X206312269Y-103228240D01*
X206312269Y-103203736D01*
X206307488Y-103179702D01*
X206298111Y-103157064D01*
X206262566Y-103090564D01*
X206244013Y-103029404D01*
X206237749Y-102965798D01*
X206244013Y-102902192D01*
X206262566Y-102841032D01*
X206297432Y-102775802D01*
X206306810Y-102753163D01*
X206311590Y-102729130D01*
X206311590Y-102704625D01*
X206306809Y-102680592D01*
X206297432Y-102657954D01*
X206262566Y-102592724D01*
X206244013Y-102531564D01*
X206237749Y-102467958D01*
X206244013Y-102404352D01*
X206262566Y-102343192D01*
X206298111Y-102276692D01*
X206307489Y-102254053D01*
X206312269Y-102230020D01*
X206312269Y-102205516D01*
X206307488Y-102181482D01*
X206298111Y-102158844D01*
X206262566Y-102092344D01*
X206244013Y-102031184D01*
X206237749Y-101967578D01*
X206244013Y-101903972D01*
X206262566Y-101842812D01*
X206298111Y-101776312D01*
X206307489Y-101753673D01*
X206312269Y-101729640D01*
X206312269Y-101705136D01*
X206307488Y-101681102D01*
X206298111Y-101658464D01*
X206262566Y-101591964D01*
X206244013Y-101530804D01*
X206237749Y-101467198D01*
X206244013Y-101403592D01*
X206262566Y-101342432D01*
X206297432Y-101277202D01*
X206306810Y-101254563D01*
X206311590Y-101230530D01*
X206311590Y-101206026D01*
X207265546Y-101206026D01*
X207265546Y-101230531D01*
X207270327Y-101254564D01*
X207279704Y-101277202D01*
X207314570Y-101342432D01*
X207333123Y-101403592D01*
X207339387Y-101467198D01*
X207333579Y-101526176D01*
X207333579Y-101550680D01*
X207338360Y-101574713D01*
X207347737Y-101597352D01*
X207361351Y-101617727D01*
X207378678Y-101635054D01*
X207399053Y-101648668D01*
X207421692Y-101658045D01*
X207445726Y-101662825D01*
X207470230Y-101662825D01*
X207494263Y-101658044D01*
X207516902Y-101648667D01*
X207537277Y-101635053D01*
X207554604Y-101617726D01*
X207564160Y-101603423D01*
X207627555Y-101526176D01*
X207816363Y-101296113D01*
X208120840Y-101046235D01*
X208120842Y-101046234D01*
X208123676Y-101043908D01*
X208137982Y-101034348D01*
X208155308Y-101017020D01*
X208168921Y-100996644D01*
X208178297Y-100974005D01*
X208183076Y-100949971D01*
X208183075Y-100925476D01*
X210291181Y-100925476D01*
X210291181Y-100949980D01*
X210295962Y-100974013D01*
X210305339Y-100996652D01*
X210318953Y-101017027D01*
X210336280Y-101034354D01*
X210350583Y-101043910D01*
X210353416Y-101046235D01*
X210657893Y-101296113D01*
X210907771Y-101600590D01*
X210907773Y-101600593D01*
X210910095Y-101603423D01*
X210919649Y-101617722D01*
X210936975Y-101635050D01*
X210957349Y-101648665D01*
X210979988Y-101658043D01*
X211004021Y-101662825D01*
X211028526Y-101662826D01*
X211052559Y-101658046D01*
X211075199Y-101648670D01*
X211095574Y-101635057D01*
X211112902Y-101617731D01*
X211126517Y-101597357D01*
X211135895Y-101574718D01*
X211140677Y-101550685D01*
X211140677Y-101526176D01*
X211134869Y-101467198D01*
X211141133Y-101403592D01*
X211159686Y-101342432D01*
X211194552Y-101277202D01*
X211203930Y-101254563D01*
X211208710Y-101230530D01*
X211208710Y-101206025D01*
X211203929Y-101181992D01*
X211194552Y-101159354D01*
X211159686Y-101094124D01*
X211141133Y-101032964D01*
X211134869Y-100969357D01*
X211136351Y-100954304D01*
X211136351Y-100929799D01*
X211131570Y-100905766D01*
X211122193Y-100883127D01*
X211108578Y-100862753D01*
X211091251Y-100845426D01*
X211070876Y-100831812D01*
X211048237Y-100822435D01*
X211024204Y-100817655D01*
X210999702Y-100817655D01*
X210984649Y-100819137D01*
X210984648Y-100819137D01*
X210979415Y-100818622D01*
X210921042Y-100812873D01*
X210868488Y-100796930D01*
X210859882Y-100794320D01*
X210816124Y-100770930D01*
X210794651Y-100759453D01*
X210772012Y-100750076D01*
X210747978Y-100745296D01*
X210723474Y-100745296D01*
X210699440Y-100750077D01*
X210676803Y-100759454D01*
X210611573Y-100794320D01*
X210550413Y-100812873D01*
X210492041Y-100818622D01*
X210486808Y-100819137D01*
X210486807Y-100819137D01*
X210427830Y-100813329D01*
X210403326Y-100813329D01*
X210379293Y-100818110D01*
X210356654Y-100827487D01*
X210336279Y-100841101D01*
X210318952Y-100858428D01*
X210305338Y-100878803D01*
X210295961Y-100901442D01*
X210291181Y-100925476D01*
X208183075Y-100925476D01*
X208183074Y-100925467D01*
X208178292Y-100901434D01*
X208168914Y-100878795D01*
X208155299Y-100858421D01*
X208137971Y-100841095D01*
X208117595Y-100827482D01*
X208094956Y-100818106D01*
X208070922Y-100813327D01*
X208046424Y-100813328D01*
X208011646Y-100816754D01*
X207987448Y-100819137D01*
X207987447Y-100819137D01*
X207923842Y-100812873D01*
X207871288Y-100796930D01*
X207862682Y-100794320D01*
X207818924Y-100770930D01*
X207797451Y-100759453D01*
X207774812Y-100750076D01*
X207750778Y-100745296D01*
X207726274Y-100745296D01*
X207702240Y-100750077D01*
X207679603Y-100759454D01*
X207614373Y-100794320D01*
X207553213Y-100812873D01*
X207494841Y-100818622D01*
X207489608Y-100819137D01*
X207489607Y-100819137D01*
X207474554Y-100817655D01*
X207450049Y-100817655D01*
X207426016Y-100822436D01*
X207403377Y-100831813D01*
X207383003Y-100845428D01*
X207365676Y-100862755D01*
X207352062Y-100883130D01*
X207342685Y-100905769D01*
X207337905Y-100929802D01*
X207337905Y-100954304D01*
X207339387Y-100969357D01*
X207333123Y-101032964D01*
X207314570Y-101094124D01*
X207279704Y-101159354D01*
X207270326Y-101181993D01*
X207265546Y-101206026D01*
X206311590Y-101206026D01*
X206311590Y-101206025D01*
X206306809Y-101181992D01*
X206297432Y-101159354D01*
X206262566Y-101094124D01*
X206244013Y-101032964D01*
X206237749Y-100969358D01*
X206244013Y-100905752D01*
X206262566Y-100844592D01*
X206292692Y-100788229D01*
X206333241Y-100738821D01*
X206382649Y-100698272D01*
X206439012Y-100668146D01*
X206500172Y-100649593D01*
X206547845Y-100644898D01*
X207035431Y-100644898D01*
X207035431Y-100644811D01*
X207052922Y-100644810D01*
X207076956Y-100640028D01*
X207099594Y-100630650D01*
X207119968Y-100617035D01*
X207137294Y-100599707D01*
X207150907Y-100579331D01*
X207160283Y-100556692D01*
X207165062Y-100532658D01*
X207165062Y-100515180D01*
X207165148Y-100515180D01*
X207165148Y-100027598D01*
X207169844Y-99979922D01*
X207188397Y-99918762D01*
X207218523Y-99862399D01*
X207259072Y-99812991D01*
X207308480Y-99772442D01*
X207364843Y-99742316D01*
X207426003Y-99723763D01*
X207489608Y-99717499D01*
X207553214Y-99723763D01*
X207614374Y-99742316D01*
X207679604Y-99777182D01*
X207702243Y-99786560D01*
X207726276Y-99791340D01*
X207750781Y-99791340D01*
X207774814Y-99786559D01*
X207797452Y-99777183D01*
X207818925Y-99765706D01*
X207862683Y-99742316D01*
X207871289Y-99739706D01*
X207923843Y-99723763D01*
X207987448Y-99717499D01*
X208051054Y-99723763D01*
X208112214Y-99742316D01*
X208178714Y-99777861D01*
X208201353Y-99787239D01*
X208225386Y-99792019D01*
X208249890Y-99792019D01*
X208273924Y-99787238D01*
X208296562Y-99777862D01*
X208313997Y-99768543D01*
X208363063Y-99742316D01*
X208371669Y-99739706D01*
X208424223Y-99723763D01*
X208487828Y-99717499D01*
X208551434Y-99723763D01*
X208612594Y-99742316D01*
X208679094Y-99777861D01*
X208701733Y-99787239D01*
X208725766Y-99792019D01*
X208750270Y-99792019D01*
X208774304Y-99787238D01*
X208796942Y-99777862D01*
X208814377Y-99768543D01*
X208863443Y-99742316D01*
X208872049Y-99739706D01*
X208924603Y-99723763D01*
X208988208Y-99717499D01*
X209051814Y-99723763D01*
X209112974Y-99742316D01*
X209178204Y-99777182D01*
X209200843Y-99786560D01*
X209224876Y-99791340D01*
X209249381Y-99791340D01*
X209273414Y-99786559D01*
X209296052Y-99777183D01*
X209317525Y-99765706D01*
X209361283Y-99742316D01*
X209369889Y-99739706D01*
X209422443Y-99723763D01*
X209486048Y-99717499D01*
X209549654Y-99723763D01*
X209610814Y-99742316D01*
X209677314Y-99777861D01*
X209699953Y-99787239D01*
X209723986Y-99792019D01*
X209748490Y-99792019D01*
X209772524Y-99787238D01*
X209795162Y-99777862D01*
X209812597Y-99768543D01*
X209861663Y-99742316D01*
X209870269Y-99739706D01*
X209922823Y-99723763D01*
X209986428Y-99717499D01*
X210050034Y-99723763D01*
X210111194Y-99742316D01*
X210177694Y-99777861D01*
X210200333Y-99787239D01*
X210224366Y-99792019D01*
X210248870Y-99792019D01*
X210272904Y-99787238D01*
X210295542Y-99777862D01*
X210312977Y-99768543D01*
X210362043Y-99742316D01*
X210370649Y-99739706D01*
X210423203Y-99723763D01*
X210486808Y-99717499D01*
X210550414Y-99723763D01*
X210611574Y-99742316D01*
X210676804Y-99777182D01*
X210699443Y-99786560D01*
X210723476Y-99791340D01*
X210747981Y-99791340D01*
X210772014Y-99786559D01*
X210794652Y-99777183D01*
X210816125Y-99765706D01*
X210859883Y-99742316D01*
X210868489Y-99739706D01*
X210921043Y-99723763D01*
X210984648Y-99717499D01*
X211048254Y-99723763D01*
X211048254Y-99723763D01*
G37*
G36*
X186191500Y-105165500D02*
X184140500Y-105165500D01*
X184140500Y-103114500D01*
X186191500Y-103114500D01*
X186191500Y-105165500D01*
X186191500Y-105165500D01*
G37*
G36*
X187873044Y-103127636D02*
X188005127Y-103153909D01*
X188107551Y-103196335D01*
X188191757Y-103231214D01*
X188359721Y-103343444D01*
X188502556Y-103486279D01*
X188614786Y-103654243D01*
X188619385Y-103665346D01*
X188692091Y-103840873D01*
X188704439Y-103902952D01*
X188731500Y-104038996D01*
X188731500Y-104241004D01*
X188718364Y-104307044D01*
X188692091Y-104439127D01*
X188653493Y-104532309D01*
X188614786Y-104625757D01*
X188502556Y-104793721D01*
X188359721Y-104936556D01*
X188191757Y-105048786D01*
X188129546Y-105074554D01*
X188005127Y-105126091D01*
X187873044Y-105152364D01*
X187807004Y-105165500D01*
X187604996Y-105165500D01*
X187538956Y-105152364D01*
X187406873Y-105126091D01*
X187282454Y-105074554D01*
X187220243Y-105048786D01*
X187052279Y-104936556D01*
X186909444Y-104793721D01*
X186797214Y-104625757D01*
X186758507Y-104532309D01*
X186719909Y-104439127D01*
X186693636Y-104307044D01*
X186680500Y-104241004D01*
X186680500Y-104038996D01*
X186707561Y-103902952D01*
X186719909Y-103840873D01*
X186792615Y-103665346D01*
X186797214Y-103654243D01*
X186909444Y-103486279D01*
X187052279Y-103343444D01*
X187220243Y-103231214D01*
X187304449Y-103196335D01*
X187406873Y-103153909D01*
X187538956Y-103127636D01*
X187604996Y-103114500D01*
X187807004Y-103114500D01*
X187873044Y-103127636D01*
X187873044Y-103127636D01*
G37*
G36*
X202876000Y-104794000D02*
X200476000Y-104794000D01*
X200476000Y-103994000D01*
X202876000Y-103994000D01*
X202876000Y-104794000D01*
X202876000Y-104794000D01*
G37*
G36*
X198516000Y-104336000D02*
X197216000Y-104336000D01*
X197216000Y-103436000D01*
X198516000Y-103436000D01*
X198516000Y-104336000D01*
X198516000Y-104336000D01*
G37*
G36*
X202876000Y-103594000D02*
X200476000Y-103594000D01*
X200476000Y-102794000D01*
X202876000Y-102794000D01*
X202876000Y-103594000D01*
X202876000Y-103594000D01*
G37*
G36*
X198516000Y-102836000D02*
X197216000Y-102836000D01*
X197216000Y-101936000D01*
X198516000Y-101936000D01*
X198516000Y-102836000D01*
X198516000Y-102836000D01*
G37*
G36*
X185291356Y-100579344D02*
X185465127Y-100613909D01*
X185551277Y-100649594D01*
X185651757Y-100691214D01*
X185819721Y-100803444D01*
X185962556Y-100946279D01*
X186074786Y-101114243D01*
X186100554Y-101176454D01*
X186152091Y-101300873D01*
X186191500Y-101498997D01*
X186191500Y-101701003D01*
X186152091Y-101899127D01*
X186131861Y-101947966D01*
X186074786Y-102085757D01*
X185962556Y-102253721D01*
X185819721Y-102396556D01*
X185651757Y-102508786D01*
X185596768Y-102531563D01*
X185465127Y-102586091D01*
X185333044Y-102612364D01*
X185267004Y-102625500D01*
X185064996Y-102625500D01*
X184998956Y-102612364D01*
X184866873Y-102586091D01*
X184735232Y-102531563D01*
X184680243Y-102508786D01*
X184512279Y-102396556D01*
X184369444Y-102253721D01*
X184257214Y-102085757D01*
X184200139Y-101947966D01*
X184179909Y-101899127D01*
X184140500Y-101701003D01*
X184140500Y-101498997D01*
X184179909Y-101300873D01*
X184231446Y-101176454D01*
X184257214Y-101114243D01*
X184369444Y-100946279D01*
X184512279Y-100803444D01*
X184680243Y-100691214D01*
X184780723Y-100649594D01*
X184866873Y-100613909D01*
X185040644Y-100579344D01*
X185064996Y-100574500D01*
X185267004Y-100574500D01*
X185291356Y-100579344D01*
X185291356Y-100579344D01*
G37*
G36*
X187831356Y-100579344D02*
X188005127Y-100613909D01*
X188091277Y-100649594D01*
X188191757Y-100691214D01*
X188359721Y-100803444D01*
X188502556Y-100946279D01*
X188614786Y-101114243D01*
X188640554Y-101176454D01*
X188692091Y-101300873D01*
X188731500Y-101498997D01*
X188731500Y-101701003D01*
X188692091Y-101899127D01*
X188671861Y-101947966D01*
X188614786Y-102085757D01*
X188502556Y-102253721D01*
X188359721Y-102396556D01*
X188191757Y-102508786D01*
X188136768Y-102531563D01*
X188005127Y-102586091D01*
X187873044Y-102612364D01*
X187807004Y-102625500D01*
X187604996Y-102625500D01*
X187538956Y-102612364D01*
X187406873Y-102586091D01*
X187275232Y-102531563D01*
X187220243Y-102508786D01*
X187052279Y-102396556D01*
X186909444Y-102253721D01*
X186797214Y-102085757D01*
X186740139Y-101947966D01*
X186719909Y-101899127D01*
X186680500Y-101701003D01*
X186680500Y-101498997D01*
X186719909Y-101300873D01*
X186771446Y-101176454D01*
X186797214Y-101114243D01*
X186909444Y-100946279D01*
X187052279Y-100803444D01*
X187220243Y-100691214D01*
X187320723Y-100649594D01*
X187406873Y-100613909D01*
X187580644Y-100579344D01*
X187604996Y-100574500D01*
X187807004Y-100574500D01*
X187831356Y-100579344D01*
X187831356Y-100579344D01*
G37*
G36*
X187873044Y-98047636D02*
X188005127Y-98073909D01*
X188129546Y-98125446D01*
X188191757Y-98151214D01*
X188359721Y-98263444D01*
X188502556Y-98406279D01*
X188614786Y-98574243D01*
X188614786Y-98574244D01*
X188692091Y-98760873D01*
X188731500Y-98958997D01*
X188731500Y-99161003D01*
X188692091Y-99359127D01*
X188640554Y-99483546D01*
X188614786Y-99545757D01*
X188502556Y-99713721D01*
X188359721Y-99856556D01*
X188191757Y-99968786D01*
X188129546Y-99994554D01*
X188005127Y-100046091D01*
X187873044Y-100072364D01*
X187807004Y-100085500D01*
X187604996Y-100085500D01*
X187538956Y-100072364D01*
X187406873Y-100046091D01*
X187282454Y-99994554D01*
X187220243Y-99968786D01*
X187052279Y-99856556D01*
X186909444Y-99713721D01*
X186797214Y-99545757D01*
X186771446Y-99483546D01*
X186719909Y-99359127D01*
X186680500Y-99161003D01*
X186680500Y-98958997D01*
X186719909Y-98760873D01*
X186797214Y-98574244D01*
X186797214Y-98574243D01*
X186909444Y-98406279D01*
X187052279Y-98263444D01*
X187220243Y-98151214D01*
X187282454Y-98125446D01*
X187406873Y-98073909D01*
X187538956Y-98047636D01*
X187604996Y-98034500D01*
X187807004Y-98034500D01*
X187873044Y-98047636D01*
X187873044Y-98047636D01*
G37*
G36*
X185333044Y-98047636D02*
X185465127Y-98073909D01*
X185589546Y-98125446D01*
X185651757Y-98151214D01*
X185819721Y-98263444D01*
X185962556Y-98406279D01*
X186074786Y-98574243D01*
X186074786Y-98574244D01*
X186152091Y-98760873D01*
X186191500Y-98958997D01*
X186191500Y-99161003D01*
X186152091Y-99359127D01*
X186100554Y-99483546D01*
X186074786Y-99545757D01*
X185962556Y-99713721D01*
X185819721Y-99856556D01*
X185651757Y-99968786D01*
X185589546Y-99994554D01*
X185465127Y-100046091D01*
X185333044Y-100072364D01*
X185267004Y-100085500D01*
X185064996Y-100085500D01*
X184998956Y-100072364D01*
X184866873Y-100046091D01*
X184742454Y-99994554D01*
X184680243Y-99968786D01*
X184512279Y-99856556D01*
X184369444Y-99713721D01*
X184257214Y-99545757D01*
X184231446Y-99483546D01*
X184179909Y-99359127D01*
X184140500Y-99161003D01*
X184140500Y-98958997D01*
X184179909Y-98760873D01*
X184257214Y-98574244D01*
X184257214Y-98574243D01*
X184369444Y-98406279D01*
X184512279Y-98263444D01*
X184680243Y-98151214D01*
X184742454Y-98125446D01*
X184866873Y-98073909D01*
X184998956Y-98047636D01*
X185064996Y-98034500D01*
X185267004Y-98034500D01*
X185333044Y-98047636D01*
X185333044Y-98047636D01*
G37*
G36*
X174344692Y-97636729D02*
X174565993Y-97728395D01*
X174765158Y-97861473D01*
X174934527Y-98030842D01*
X175067605Y-98230007D01*
X175159271Y-98451308D01*
X175206000Y-98686233D01*
X175206000Y-98925767D01*
X175159271Y-99160692D01*
X175067605Y-99381993D01*
X174934527Y-99581158D01*
X174765158Y-99750527D01*
X174565993Y-99883605D01*
X174344692Y-99975271D01*
X174109767Y-100022000D01*
X173870233Y-100022000D01*
X173635308Y-99975271D01*
X173414007Y-99883605D01*
X173214842Y-99750527D01*
X173045473Y-99581158D01*
X172912395Y-99381993D01*
X172820729Y-99160692D01*
X172774000Y-98925767D01*
X172774000Y-98686233D01*
X172820729Y-98451308D01*
X172912395Y-98230007D01*
X173045473Y-98030842D01*
X173214842Y-97861473D01*
X173414007Y-97728395D01*
X173635308Y-97636729D01*
X173870233Y-97590000D01*
X174109767Y-97590000D01*
X174344692Y-97636729D01*
X174344692Y-97636729D01*
G37*
G36*
X171804692Y-93191729D02*
X172025993Y-93283395D01*
X172225158Y-93416473D01*
X172394527Y-93585842D01*
X172527605Y-93785007D01*
X172619271Y-94006308D01*
X172666000Y-94241233D01*
X172666000Y-94480767D01*
X172619271Y-94715692D01*
X172527605Y-94936993D01*
X172394527Y-95136158D01*
X172225158Y-95305527D01*
X172025993Y-95438605D01*
X171804692Y-95530271D01*
X171569767Y-95577000D01*
X171330233Y-95577000D01*
X171095308Y-95530271D01*
X170874007Y-95438605D01*
X170674842Y-95305527D01*
X170505473Y-95136158D01*
X170372395Y-94936993D01*
X170280729Y-94715692D01*
X170234000Y-94480767D01*
X170234000Y-94241233D01*
X170280729Y-94006308D01*
X170372395Y-93785007D01*
X170505473Y-93585842D01*
X170674842Y-93416473D01*
X170874007Y-93283395D01*
X171095308Y-93191729D01*
X171330233Y-93145000D01*
X171569767Y-93145000D01*
X171804692Y-93191729D01*
X171804692Y-93191729D01*
G37*
G36*
X251433692Y-90270729D02*
X251654993Y-90362395D01*
X251854158Y-90495473D01*
X252023527Y-90664842D01*
X252156605Y-90864007D01*
X252248271Y-91085308D01*
X252295000Y-91320233D01*
X252295000Y-91559767D01*
X252248271Y-91794692D01*
X252156605Y-92015993D01*
X252023527Y-92215158D01*
X251854158Y-92384527D01*
X251654993Y-92517605D01*
X251433692Y-92609271D01*
X251198767Y-92656000D01*
X250959233Y-92656000D01*
X250724308Y-92609271D01*
X250503007Y-92517605D01*
X250303842Y-92384527D01*
X250134473Y-92215158D01*
X250001395Y-92015993D01*
X249909729Y-91794692D01*
X249863000Y-91559767D01*
X249863000Y-91320233D01*
X249909729Y-91085308D01*
X250001395Y-90864007D01*
X250134473Y-90664842D01*
X250303842Y-90495473D01*
X250503007Y-90362395D01*
X250724308Y-90270729D01*
X250959233Y-90224000D01*
X251198767Y-90224000D01*
X251433692Y-90270729D01*
X251433692Y-90270729D01*
G37*
G36*
X169264692Y-88238729D02*
X169485993Y-88330395D01*
X169685158Y-88463473D01*
X169854527Y-88632842D01*
X169987605Y-88832007D01*
X170079271Y-89053308D01*
X170126000Y-89288233D01*
X170126000Y-89527767D01*
X170079271Y-89762692D01*
X169987605Y-89983993D01*
X169854527Y-90183158D01*
X169685158Y-90352527D01*
X169485993Y-90485605D01*
X169264692Y-90577271D01*
X169029767Y-90624000D01*
X168790233Y-90624000D01*
X168555308Y-90577271D01*
X168334007Y-90485605D01*
X168134842Y-90352527D01*
X167965473Y-90183158D01*
X167832395Y-89983993D01*
X167740729Y-89762692D01*
X167694000Y-89527767D01*
X167694000Y-89288233D01*
X167740729Y-89053308D01*
X167832395Y-88832007D01*
X167965473Y-88632842D01*
X168134842Y-88463473D01*
X168334007Y-88330395D01*
X168555308Y-88238729D01*
X168790233Y-88192000D01*
X169029767Y-88192000D01*
X169264692Y-88238729D01*
X169264692Y-88238729D01*
G37*
G36*
X253719692Y-85063729D02*
X253940993Y-85155395D01*
X254140158Y-85288473D01*
X254309527Y-85457842D01*
X254442605Y-85657007D01*
X254534271Y-85878308D01*
X254581000Y-86113233D01*
X254581000Y-86352767D01*
X254534271Y-86587692D01*
X254442605Y-86808993D01*
X254309527Y-87008158D01*
X254140158Y-87177527D01*
X253940993Y-87310605D01*
X253719692Y-87402271D01*
X253484767Y-87449000D01*
X253245233Y-87449000D01*
X253010308Y-87402271D01*
X252789007Y-87310605D01*
X252589842Y-87177527D01*
X252420473Y-87008158D01*
X252287395Y-86808993D01*
X252195729Y-86587692D01*
X252149000Y-86352767D01*
X252149000Y-86113233D01*
X252195729Y-85878308D01*
X252287395Y-85657007D01*
X252420473Y-85457842D01*
X252589842Y-85288473D01*
X252789007Y-85155395D01*
X253010308Y-85063729D01*
X253245233Y-85017000D01*
X253484767Y-85017000D01*
X253719692Y-85063729D01*
X253719692Y-85063729D01*
G37*
G36*
X167486692Y-83158729D02*
X167707993Y-83250395D01*
X167907158Y-83383473D01*
X168076527Y-83552842D01*
X168209605Y-83752007D01*
X168301271Y-83973308D01*
X168348000Y-84208233D01*
X168348000Y-84447767D01*
X168301271Y-84682692D01*
X168209605Y-84903993D01*
X168076527Y-85103158D01*
X167907158Y-85272527D01*
X167707993Y-85405605D01*
X167486692Y-85497271D01*
X167251767Y-85544000D01*
X167012233Y-85544000D01*
X166777308Y-85497271D01*
X166556007Y-85405605D01*
X166356842Y-85272527D01*
X166187473Y-85103158D01*
X166054395Y-84903993D01*
X165962729Y-84682692D01*
X165916000Y-84447767D01*
X165916000Y-84208233D01*
X165962729Y-83973308D01*
X166054395Y-83752007D01*
X166187473Y-83552842D01*
X166356842Y-83383473D01*
X166556007Y-83250395D01*
X166777308Y-83158729D01*
X167012233Y-83112000D01*
X167251767Y-83112000D01*
X167486692Y-83158729D01*
X167486692Y-83158729D01*
G37*
G36*
X254989692Y-79602729D02*
X255210993Y-79694395D01*
X255410158Y-79827473D01*
X255579527Y-79996842D01*
X255712605Y-80196007D01*
X255804271Y-80417308D01*
X255851000Y-80652233D01*
X255851000Y-80891767D01*
X255804271Y-81126692D01*
X255712605Y-81347993D01*
X255579527Y-81547158D01*
X255410158Y-81716527D01*
X255210993Y-81849605D01*
X254989692Y-81941271D01*
X254754767Y-81988000D01*
X254515233Y-81988000D01*
X254280308Y-81941271D01*
X254059007Y-81849605D01*
X253859842Y-81716527D01*
X253690473Y-81547158D01*
X253557395Y-81347993D01*
X253465729Y-81126692D01*
X253419000Y-80891767D01*
X253419000Y-80652233D01*
X253465729Y-80417308D01*
X253557395Y-80196007D01*
X253690473Y-79996842D01*
X253859842Y-79827473D01*
X254059007Y-79694395D01*
X254280308Y-79602729D01*
X254515233Y-79556000D01*
X254754767Y-79556000D01*
X254989692Y-79602729D01*
X254989692Y-79602729D01*
G37*
G36*
X166597692Y-77824729D02*
X166818993Y-77916395D01*
X167018158Y-78049473D01*
X167187527Y-78218842D01*
X167320605Y-78418007D01*
X167412271Y-78639308D01*
X167459000Y-78874233D01*
X167459000Y-79113767D01*
X167412271Y-79348692D01*
X167320605Y-79569993D01*
X167187527Y-79769158D01*
X167018158Y-79938527D01*
X166818993Y-80071605D01*
X166597692Y-80163271D01*
X166362767Y-80210000D01*
X166123233Y-80210000D01*
X165888308Y-80163271D01*
X165667007Y-80071605D01*
X165467842Y-79938527D01*
X165298473Y-79769158D01*
X165165395Y-79569993D01*
X165073729Y-79348692D01*
X165027000Y-79113767D01*
X165027000Y-78874233D01*
X165073729Y-78639308D01*
X165165395Y-78418007D01*
X165298473Y-78218842D01*
X165467842Y-78049473D01*
X165667007Y-77916395D01*
X165888308Y-77824729D01*
X166123233Y-77778000D01*
X166362767Y-77778000D01*
X166597692Y-77824729D01*
X166597692Y-77824729D01*
G37*
G36*
X255370692Y-73887729D02*
X255591993Y-73979395D01*
X255791158Y-74112473D01*
X255960527Y-74281842D01*
X256093605Y-74481007D01*
X256185271Y-74702308D01*
X256232000Y-74937233D01*
X256232000Y-75176767D01*
X256185271Y-75411692D01*
X256093605Y-75632993D01*
X255960527Y-75832158D01*
X255791158Y-76001527D01*
X255591993Y-76134605D01*
X255370692Y-76226271D01*
X255135767Y-76273000D01*
X254896233Y-76273000D01*
X254661308Y-76226271D01*
X254440007Y-76134605D01*
X254240842Y-76001527D01*
X254071473Y-75832158D01*
X253938395Y-75632993D01*
X253846729Y-75411692D01*
X253800000Y-75176767D01*
X253800000Y-74937233D01*
X253846729Y-74702308D01*
X253938395Y-74481007D01*
X254071473Y-74281842D01*
X254240842Y-74112473D01*
X254440007Y-73979395D01*
X254661308Y-73887729D01*
X254896233Y-73841000D01*
X255135767Y-73841000D01*
X255370692Y-73887729D01*
X255370692Y-73887729D01*
G37*
G36*
X166597692Y-72490729D02*
X166818993Y-72582395D01*
X167018158Y-72715473D01*
X167187527Y-72884842D01*
X167320605Y-73084007D01*
X167412271Y-73305308D01*
X167459000Y-73540233D01*
X167459000Y-73779767D01*
X167412271Y-74014692D01*
X167320605Y-74235993D01*
X167187527Y-74435158D01*
X167018158Y-74604527D01*
X166818993Y-74737605D01*
X166597692Y-74829271D01*
X166362767Y-74876000D01*
X166123233Y-74876000D01*
X165888308Y-74829271D01*
X165667007Y-74737605D01*
X165467842Y-74604527D01*
X165298473Y-74435158D01*
X165165395Y-74235993D01*
X165073729Y-74014692D01*
X165027000Y-73779767D01*
X165027000Y-73540233D01*
X165073729Y-73305308D01*
X165165395Y-73084007D01*
X165298473Y-72884842D01*
X165467842Y-72715473D01*
X165667007Y-72582395D01*
X165888308Y-72490729D01*
X166123233Y-72444000D01*
X166362767Y-72444000D01*
X166597692Y-72490729D01*
X166597692Y-72490729D01*
G37*
G36*
X197153000Y-73455000D02*
X193753000Y-73455000D01*
X193753000Y-70055000D01*
X197153000Y-70055000D01*
X197153000Y-73455000D01*
X197153000Y-73455000D01*
G37*
G36*
X226744000Y-73328000D02*
X223344000Y-73328000D01*
X223344000Y-69928000D01*
X226744000Y-69928000D01*
X226744000Y-73328000D01*
X226744000Y-73328000D01*
G37*
G36*
X254227692Y-68426729D02*
X254448993Y-68518395D01*
X254648158Y-68651473D01*
X254817527Y-68820842D01*
X254950605Y-69020007D01*
X255042271Y-69241308D01*
X255089000Y-69476233D01*
X255089000Y-69715767D01*
X255042271Y-69950692D01*
X254950605Y-70171993D01*
X254817527Y-70371158D01*
X254648158Y-70540527D01*
X254448993Y-70673605D01*
X254227692Y-70765271D01*
X253992767Y-70812000D01*
X253753233Y-70812000D01*
X253518308Y-70765271D01*
X253297007Y-70673605D01*
X253097842Y-70540527D01*
X252928473Y-70371158D01*
X252795395Y-70171993D01*
X252703729Y-69950692D01*
X252657000Y-69715767D01*
X252657000Y-69476233D01*
X252703729Y-69241308D01*
X252795395Y-69020007D01*
X252928473Y-68820842D01*
X253097842Y-68651473D01*
X253297007Y-68518395D01*
X253518308Y-68426729D01*
X253753233Y-68380000D01*
X253992767Y-68380000D01*
X254227692Y-68426729D01*
X254227692Y-68426729D01*
G37*
G36*
X241803000Y-70754000D02*
X240203000Y-70754000D01*
X240203000Y-69454000D01*
X241803000Y-69454000D01*
X241803000Y-70754000D01*
X241803000Y-70754000D01*
G37*
G36*
X239603000Y-70754000D02*
X238003000Y-70754000D01*
X238003000Y-69454000D01*
X239603000Y-69454000D01*
X239603000Y-70754000D01*
X239603000Y-70754000D01*
G37*
G36*
X168121692Y-67156729D02*
X168342993Y-67248395D01*
X168542158Y-67381473D01*
X168711527Y-67550842D01*
X168844605Y-67750007D01*
X168936271Y-67971308D01*
X168983000Y-68206233D01*
X168983000Y-68445767D01*
X168936271Y-68680692D01*
X168844605Y-68901993D01*
X168711527Y-69101158D01*
X168542158Y-69270527D01*
X168342993Y-69403605D01*
X168121692Y-69495271D01*
X167886767Y-69542000D01*
X167647233Y-69542000D01*
X167412308Y-69495271D01*
X167191007Y-69403605D01*
X166991842Y-69270527D01*
X166822473Y-69101158D01*
X166689395Y-68901993D01*
X166597729Y-68680692D01*
X166551000Y-68445767D01*
X166551000Y-68206233D01*
X166597729Y-67971308D01*
X166689395Y-67750007D01*
X166822473Y-67550842D01*
X166991842Y-67381473D01*
X167191007Y-67248395D01*
X167412308Y-67156729D01*
X167647233Y-67110000D01*
X167886767Y-67110000D01*
X168121692Y-67156729D01*
X168121692Y-67156729D01*
G37*
G36*
X219367908Y-58687222D02*
X219702784Y-58753833D01*
X220649124Y-59145819D01*
X221500807Y-59714896D01*
X222225104Y-60439193D01*
X222794181Y-61290876D01*
X223186167Y-62237216D01*
X223186167Y-62237217D01*
X223386000Y-63241843D01*
X223386000Y-64266157D01*
X223375089Y-64321008D01*
X223186167Y-65270784D01*
X222794181Y-66217124D01*
X222225104Y-67068807D01*
X221500807Y-67793104D01*
X220649124Y-68362181D01*
X219702784Y-68754167D01*
X219367908Y-68820778D01*
X218698157Y-68954000D01*
X217673843Y-68954000D01*
X217004092Y-68820778D01*
X216669216Y-68754167D01*
X215722876Y-68362181D01*
X214871193Y-67793104D01*
X214146896Y-67068807D01*
X213577819Y-66217124D01*
X213185833Y-65270784D01*
X212996911Y-64321008D01*
X212986000Y-64266157D01*
X212986000Y-63241843D01*
X213185833Y-62237217D01*
X213185833Y-62237216D01*
X213577819Y-61290876D01*
X214146896Y-60439193D01*
X214871193Y-59714896D01*
X215722876Y-59145819D01*
X216669216Y-58753833D01*
X217004092Y-58687222D01*
X217673843Y-58554000D01*
X218698157Y-58554000D01*
X219367908Y-58687222D01*
X219367908Y-58687222D01*
G37*
G36*
X204127908Y-58687222D02*
X204462784Y-58753833D01*
X205409124Y-59145819D01*
X206260807Y-59714896D01*
X206985104Y-60439193D01*
X207554181Y-61290876D01*
X207946167Y-62237216D01*
X207946167Y-62237217D01*
X208146000Y-63241843D01*
X208146000Y-64266157D01*
X208135089Y-64321008D01*
X207946167Y-65270784D01*
X207554181Y-66217124D01*
X206985104Y-67068807D01*
X206260807Y-67793104D01*
X205409124Y-68362181D01*
X204462784Y-68754167D01*
X204127908Y-68820778D01*
X203458157Y-68954000D01*
X202433843Y-68954000D01*
X201764092Y-68820778D01*
X201429216Y-68754167D01*
X200482876Y-68362181D01*
X199631193Y-67793104D01*
X198906896Y-67068807D01*
X198337819Y-66217124D01*
X197945833Y-65270784D01*
X197756911Y-64321008D01*
X197746000Y-64266157D01*
X197746000Y-63241843D01*
X197945833Y-62237217D01*
X197945833Y-62237216D01*
X198337819Y-61290876D01*
X198906896Y-60439193D01*
X199631193Y-59714896D01*
X200482876Y-59145819D01*
X201429216Y-58753833D01*
X201764092Y-58687222D01*
X202433843Y-58554000D01*
X203458157Y-58554000D01*
X204127908Y-58687222D01*
X204127908Y-58687222D01*
G37*
G36*
X183596000Y-67960000D02*
X181996000Y-67960000D01*
X181996000Y-66660000D01*
X183596000Y-66660000D01*
X183596000Y-67960000D01*
X183596000Y-67960000D01*
G37*
G36*
X185796000Y-67960000D02*
X184196000Y-67960000D01*
X184196000Y-66660000D01*
X185796000Y-66660000D01*
X185796000Y-67960000D01*
X185796000Y-67960000D01*
G37*
G36*
X250036692Y-63727729D02*
X250257993Y-63819395D01*
X250457158Y-63952473D01*
X250626527Y-64121842D01*
X250759605Y-64321007D01*
X250851271Y-64542308D01*
X250898000Y-64777233D01*
X250898000Y-65016767D01*
X250851271Y-65251692D01*
X250759605Y-65472993D01*
X250626527Y-65672158D01*
X250457158Y-65841527D01*
X250257993Y-65974605D01*
X250036692Y-66066271D01*
X249801767Y-66113000D01*
X249562233Y-66113000D01*
X249327308Y-66066271D01*
X249106007Y-65974605D01*
X248906842Y-65841527D01*
X248737473Y-65672158D01*
X248604395Y-65472993D01*
X248512729Y-65251692D01*
X248466000Y-65016767D01*
X248466000Y-64777233D01*
X248512729Y-64542308D01*
X248604395Y-64321007D01*
X248737473Y-64121842D01*
X248906842Y-63952473D01*
X249106007Y-63819395D01*
X249327308Y-63727729D01*
X249562233Y-63681000D01*
X249801767Y-63681000D01*
X250036692Y-63727729D01*
X250036692Y-63727729D01*
G37*
G36*
X172185692Y-63219729D02*
X172406993Y-63311395D01*
X172606158Y-63444473D01*
X172775527Y-63613842D01*
X172908605Y-63813007D01*
X173000271Y-64034308D01*
X173047000Y-64269233D01*
X173047000Y-64508767D01*
X173000271Y-64743692D01*
X172908605Y-64964993D01*
X172775527Y-65164158D01*
X172606158Y-65333527D01*
X172406993Y-65466605D01*
X172185692Y-65558271D01*
X171950767Y-65605000D01*
X171711233Y-65605000D01*
X171476308Y-65558271D01*
X171255007Y-65466605D01*
X171055842Y-65333527D01*
X170886473Y-65164158D01*
X170753395Y-64964993D01*
X170661729Y-64743692D01*
X170615000Y-64508767D01*
X170615000Y-64269233D01*
X170661729Y-64034308D01*
X170753395Y-63813007D01*
X170886473Y-63613842D01*
X171055842Y-63444473D01*
X171255007Y-63311395D01*
X171476308Y-63219729D01*
X171711233Y-63173000D01*
X171950767Y-63173000D01*
X172185692Y-63219729D01*
X172185692Y-63219729D01*
G37*
G36*
X211099560Y-36265759D02*
X211590928Y-36469290D01*
X211590930Y-36469291D01*
X212027268Y-36760843D01*
X212033153Y-36764775D01*
X212409225Y-37140847D01*
X212704710Y-37583072D01*
X212908241Y-38074440D01*
X213012000Y-38596072D01*
X213012000Y-39127928D01*
X212908241Y-39649560D01*
X212704710Y-40140928D01*
X212409225Y-40583153D01*
X212033153Y-40959225D01*
X212033150Y-40959227D01*
X211590930Y-41254709D01*
X211590929Y-41254710D01*
X211590928Y-41254710D01*
X211099560Y-41458241D01*
X210577928Y-41562000D01*
X210046072Y-41562000D01*
X209524440Y-41458241D01*
X209033072Y-41254710D01*
X209033071Y-41254710D01*
X209033070Y-41254709D01*
X208590850Y-40959227D01*
X208590847Y-40959225D01*
X208214775Y-40583153D01*
X207919290Y-40140928D01*
X207715759Y-39649560D01*
X207612000Y-39127928D01*
X207612000Y-38596072D01*
X207715759Y-38074440D01*
X207919290Y-37583072D01*
X208214775Y-37140847D01*
X208590847Y-36764775D01*
X208596732Y-36760843D01*
X209033070Y-36469291D01*
X209033072Y-36469290D01*
X209524440Y-36265759D01*
X210046072Y-36162000D01*
X210577928Y-36162000D01*
X211099560Y-36265759D01*
X211099560Y-36265759D01*
G37*
M02*
