G04 #@! TF.GenerationSoftware,KiCad,Pcbnew,(5.0.2)-1*
G04 #@! TF.CreationDate,2019-02-25T22:43:21-04:00*
G04 #@! TF.ProjectId,MegaBadge,4d656761-4261-4646-9765-2e6b69636164,rev?*
G04 #@! TF.SameCoordinates,Original*
G04 #@! TF.FileFunction,Soldermask,Top*
G04 #@! TF.FilePolarity,Negative*
%FSLAX46Y46*%
G04 Gerber Fmt 4.6, Leading zero omitted, Abs format (unit mm)*
G04 Created by KiCad (PCBNEW (5.0.2)-1) date 2/25/2019 10:43:21 PM*
%MOMM*%
%LPD*%
G01*
G04 APERTURE LIST*
%ADD10C,0.100000*%
G04 APERTURE END LIST*
D10*
G36*
X237769560Y-121609759D02*
X238260928Y-121813290D01*
X238260930Y-121813291D01*
X238468723Y-121952134D01*
X238703153Y-122108775D01*
X239079225Y-122484847D01*
X239374710Y-122927072D01*
X239578241Y-123418440D01*
X239682000Y-123940072D01*
X239682000Y-124471928D01*
X239578241Y-124993560D01*
X239374710Y-125484928D01*
X239079225Y-125927153D01*
X238703153Y-126303225D01*
X238703150Y-126303227D01*
X238260930Y-126598709D01*
X238260929Y-126598710D01*
X238260928Y-126598710D01*
X237769560Y-126802241D01*
X237247928Y-126906000D01*
X236716072Y-126906000D01*
X236194440Y-126802241D01*
X235703072Y-126598710D01*
X235703071Y-126598710D01*
X235703070Y-126598709D01*
X235260850Y-126303227D01*
X235260847Y-126303225D01*
X234884775Y-125927153D01*
X234589290Y-125484928D01*
X234385759Y-124993560D01*
X234282000Y-124471928D01*
X234282000Y-123940072D01*
X234385759Y-123418440D01*
X234589290Y-122927072D01*
X234884775Y-122484847D01*
X235260847Y-122108775D01*
X235495277Y-121952134D01*
X235703070Y-121813291D01*
X235703072Y-121813290D01*
X236194440Y-121609759D01*
X236716072Y-121506000D01*
X237247928Y-121506000D01*
X237769560Y-121609759D01*
X237769560Y-121609759D01*
G37*
G36*
X184937560Y-121609759D02*
X185428928Y-121813290D01*
X185428930Y-121813291D01*
X185636723Y-121952134D01*
X185871153Y-122108775D01*
X186247225Y-122484847D01*
X186542710Y-122927072D01*
X186746241Y-123418440D01*
X186850000Y-123940072D01*
X186850000Y-124471928D01*
X186746241Y-124993560D01*
X186542710Y-125484928D01*
X186247225Y-125927153D01*
X185871153Y-126303225D01*
X185871150Y-126303227D01*
X185428930Y-126598709D01*
X185428929Y-126598710D01*
X185428928Y-126598710D01*
X184937560Y-126802241D01*
X184415928Y-126906000D01*
X183884072Y-126906000D01*
X183362440Y-126802241D01*
X182871072Y-126598710D01*
X182871071Y-126598710D01*
X182871070Y-126598709D01*
X182428850Y-126303227D01*
X182428847Y-126303225D01*
X182052775Y-125927153D01*
X181757290Y-125484928D01*
X181553759Y-124993560D01*
X181450000Y-124471928D01*
X181450000Y-123940072D01*
X181553759Y-123418440D01*
X181757290Y-122927072D01*
X182052775Y-122484847D01*
X182428847Y-122108775D01*
X182663277Y-121952134D01*
X182871070Y-121813291D01*
X182871072Y-121813290D01*
X183362440Y-121609759D01*
X183884072Y-121506000D01*
X184415928Y-121506000D01*
X184937560Y-121609759D01*
X184937560Y-121609759D01*
G37*
G36*
X204847124Y-121273231D02*
X204938233Y-121300868D01*
X204983788Y-121314687D01*
X205109737Y-121382009D01*
X205220132Y-121472608D01*
X205310731Y-121583002D01*
X205378053Y-121708951D01*
X205391872Y-121754506D01*
X205419509Y-121845615D01*
X205430000Y-121952133D01*
X205430000Y-123123347D01*
X205419509Y-123229865D01*
X205391872Y-123320974D01*
X205378053Y-123366529D01*
X205310731Y-123492478D01*
X205220132Y-123602872D01*
X205109738Y-123693471D01*
X204983789Y-123760793D01*
X204938234Y-123774612D01*
X204847125Y-123802249D01*
X204752375Y-123811581D01*
X204705001Y-123816247D01*
X204705000Y-123816247D01*
X204562876Y-123802249D01*
X204471767Y-123774612D01*
X204426212Y-123760793D01*
X204300263Y-123693471D01*
X204189869Y-123602872D01*
X204099270Y-123492478D01*
X204031948Y-123366529D01*
X204018129Y-123320974D01*
X203990492Y-123229865D01*
X203980001Y-123123347D01*
X203980000Y-121952134D01*
X203990491Y-121845616D01*
X204031947Y-121708953D01*
X204031947Y-121708952D01*
X204099269Y-121583003D01*
X204189868Y-121472608D01*
X204300262Y-121382009D01*
X204426211Y-121314687D01*
X204471766Y-121300868D01*
X204562875Y-121273231D01*
X204657625Y-121263899D01*
X204704999Y-121259233D01*
X204705000Y-121259233D01*
X204847124Y-121273231D01*
X204847124Y-121273231D01*
G37*
G36*
X211997124Y-121273231D02*
X212088233Y-121300868D01*
X212133788Y-121314687D01*
X212259737Y-121382009D01*
X212370132Y-121472608D01*
X212460731Y-121583002D01*
X212528053Y-121708951D01*
X212541872Y-121754506D01*
X212569509Y-121845615D01*
X212580000Y-121952133D01*
X212580000Y-123123347D01*
X212569509Y-123229865D01*
X212541872Y-123320974D01*
X212528053Y-123366529D01*
X212460731Y-123492478D01*
X212370132Y-123602872D01*
X212259738Y-123693471D01*
X212133789Y-123760793D01*
X212088234Y-123774612D01*
X211997125Y-123802249D01*
X211902375Y-123811581D01*
X211855001Y-123816247D01*
X211855000Y-123816247D01*
X211712876Y-123802249D01*
X211621767Y-123774612D01*
X211576212Y-123760793D01*
X211450263Y-123693471D01*
X211339869Y-123602872D01*
X211249270Y-123492478D01*
X211181948Y-123366529D01*
X211168129Y-123320974D01*
X211140492Y-123229865D01*
X211130001Y-123123347D01*
X211130000Y-121952134D01*
X211140491Y-121845616D01*
X211181947Y-121708953D01*
X211181947Y-121708952D01*
X211249269Y-121583003D01*
X211339868Y-121472608D01*
X211450262Y-121382009D01*
X211576211Y-121314687D01*
X211621766Y-121300868D01*
X211712875Y-121273231D01*
X211807625Y-121263899D01*
X211854999Y-121259233D01*
X211855000Y-121259233D01*
X211997124Y-121273231D01*
X211997124Y-121273231D01*
G37*
G36*
X206145004Y-119117868D02*
X206276955Y-119157895D01*
X206398561Y-119222895D01*
X206505150Y-119310370D01*
X206592625Y-119416959D01*
X206657625Y-119538565D01*
X206697652Y-119670516D01*
X206711167Y-119807740D01*
X206697652Y-119944964D01*
X206657625Y-120076915D01*
X206592625Y-120198521D01*
X206505150Y-120305110D01*
X206398561Y-120392585D01*
X206276955Y-120457585D01*
X206145004Y-120497612D01*
X206042170Y-120507740D01*
X205667830Y-120507740D01*
X205564996Y-120497612D01*
X205433045Y-120457585D01*
X205311439Y-120392585D01*
X205204850Y-120305110D01*
X205117375Y-120198521D01*
X205052375Y-120076915D01*
X205012348Y-119944964D01*
X204998833Y-119807740D01*
X205012348Y-119670516D01*
X205052375Y-119538565D01*
X205117375Y-119416959D01*
X205204850Y-119310370D01*
X205311439Y-119222895D01*
X205433045Y-119157895D01*
X205564996Y-119117868D01*
X205667830Y-119107740D01*
X206042170Y-119107740D01*
X206145004Y-119117868D01*
X206145004Y-119117868D01*
G37*
G36*
X210995004Y-119117868D02*
X211126955Y-119157895D01*
X211248561Y-119222895D01*
X211355150Y-119310370D01*
X211442625Y-119416959D01*
X211507625Y-119538565D01*
X211547652Y-119670516D01*
X211561167Y-119807740D01*
X211547652Y-119944964D01*
X211507625Y-120076915D01*
X211442625Y-120198521D01*
X211355150Y-120305110D01*
X211248561Y-120392585D01*
X211126955Y-120457585D01*
X210995004Y-120497612D01*
X210892170Y-120507740D01*
X210517830Y-120507740D01*
X210414996Y-120497612D01*
X210283045Y-120457585D01*
X210161439Y-120392585D01*
X210054850Y-120305110D01*
X209967375Y-120198521D01*
X209902375Y-120076915D01*
X209862348Y-119944964D01*
X209848833Y-119807740D01*
X209862348Y-119670516D01*
X209902375Y-119538565D01*
X209967375Y-119416959D01*
X210054850Y-119310370D01*
X210161439Y-119222895D01*
X210283045Y-119157895D01*
X210414996Y-119117868D01*
X210517830Y-119107740D01*
X210892170Y-119107740D01*
X210995004Y-119117868D01*
X210995004Y-119117868D01*
G37*
G36*
X186191500Y-105165500D02*
X184140500Y-105165500D01*
X184140500Y-103114500D01*
X186191500Y-103114500D01*
X186191500Y-105165500D01*
X186191500Y-105165500D01*
G37*
G36*
X187873044Y-103127636D02*
X188005127Y-103153909D01*
X188129546Y-103205446D01*
X188191757Y-103231214D01*
X188359721Y-103343444D01*
X188502556Y-103486279D01*
X188614786Y-103654243D01*
X188614786Y-103654244D01*
X188692091Y-103840873D01*
X188731500Y-104038997D01*
X188731500Y-104241003D01*
X188692091Y-104439127D01*
X188640554Y-104563546D01*
X188614786Y-104625757D01*
X188502556Y-104793721D01*
X188359721Y-104936556D01*
X188191757Y-105048786D01*
X188129546Y-105074554D01*
X188005127Y-105126091D01*
X187873044Y-105152364D01*
X187807004Y-105165500D01*
X187604996Y-105165500D01*
X187538956Y-105152364D01*
X187406873Y-105126091D01*
X187282454Y-105074554D01*
X187220243Y-105048786D01*
X187052279Y-104936556D01*
X186909444Y-104793721D01*
X186797214Y-104625757D01*
X186771446Y-104563546D01*
X186719909Y-104439127D01*
X186680500Y-104241003D01*
X186680500Y-104038997D01*
X186719909Y-103840873D01*
X186797214Y-103654244D01*
X186797214Y-103654243D01*
X186909444Y-103486279D01*
X187052279Y-103343444D01*
X187220243Y-103231214D01*
X187282454Y-103205446D01*
X187406873Y-103153909D01*
X187538956Y-103127636D01*
X187604996Y-103114500D01*
X187807004Y-103114500D01*
X187873044Y-103127636D01*
X187873044Y-103127636D01*
G37*
G36*
X185333044Y-100587636D02*
X185465127Y-100613909D01*
X185589546Y-100665446D01*
X185651757Y-100691214D01*
X185819721Y-100803444D01*
X185962556Y-100946279D01*
X186074786Y-101114243D01*
X186074786Y-101114244D01*
X186152091Y-101300873D01*
X186191500Y-101498997D01*
X186191500Y-101701003D01*
X186152091Y-101899127D01*
X186100554Y-102023546D01*
X186074786Y-102085757D01*
X185962556Y-102253721D01*
X185819721Y-102396556D01*
X185651757Y-102508786D01*
X185589546Y-102534554D01*
X185465127Y-102586091D01*
X185333044Y-102612364D01*
X185267004Y-102625500D01*
X185064996Y-102625500D01*
X184998956Y-102612364D01*
X184866873Y-102586091D01*
X184742454Y-102534554D01*
X184680243Y-102508786D01*
X184512279Y-102396556D01*
X184369444Y-102253721D01*
X184257214Y-102085757D01*
X184231446Y-102023546D01*
X184179909Y-101899127D01*
X184140500Y-101701003D01*
X184140500Y-101498997D01*
X184179909Y-101300873D01*
X184257214Y-101114244D01*
X184257214Y-101114243D01*
X184369444Y-100946279D01*
X184512279Y-100803444D01*
X184680243Y-100691214D01*
X184742454Y-100665446D01*
X184866873Y-100613909D01*
X184998956Y-100587636D01*
X185064996Y-100574500D01*
X185267004Y-100574500D01*
X185333044Y-100587636D01*
X185333044Y-100587636D01*
G37*
G36*
X187873044Y-100587636D02*
X188005127Y-100613909D01*
X188129546Y-100665446D01*
X188191757Y-100691214D01*
X188359721Y-100803444D01*
X188502556Y-100946279D01*
X188614786Y-101114243D01*
X188614786Y-101114244D01*
X188692091Y-101300873D01*
X188731500Y-101498997D01*
X188731500Y-101701003D01*
X188692091Y-101899127D01*
X188640554Y-102023546D01*
X188614786Y-102085757D01*
X188502556Y-102253721D01*
X188359721Y-102396556D01*
X188191757Y-102508786D01*
X188129546Y-102534554D01*
X188005127Y-102586091D01*
X187873044Y-102612364D01*
X187807004Y-102625500D01*
X187604996Y-102625500D01*
X187538956Y-102612364D01*
X187406873Y-102586091D01*
X187282454Y-102534554D01*
X187220243Y-102508786D01*
X187052279Y-102396556D01*
X186909444Y-102253721D01*
X186797214Y-102085757D01*
X186771446Y-102023546D01*
X186719909Y-101899127D01*
X186680500Y-101701003D01*
X186680500Y-101498997D01*
X186719909Y-101300873D01*
X186797214Y-101114244D01*
X186797214Y-101114243D01*
X186909444Y-100946279D01*
X187052279Y-100803444D01*
X187220243Y-100691214D01*
X187282454Y-100665446D01*
X187406873Y-100613909D01*
X187538956Y-100587636D01*
X187604996Y-100574500D01*
X187807004Y-100574500D01*
X187873044Y-100587636D01*
X187873044Y-100587636D01*
G37*
G36*
X185333044Y-98047636D02*
X185465127Y-98073909D01*
X185589546Y-98125446D01*
X185651757Y-98151214D01*
X185819721Y-98263444D01*
X185962556Y-98406279D01*
X186074786Y-98574243D01*
X186074786Y-98574244D01*
X186152091Y-98760873D01*
X186191500Y-98958997D01*
X186191500Y-99161003D01*
X186152091Y-99359127D01*
X186100554Y-99483546D01*
X186074786Y-99545757D01*
X185962556Y-99713721D01*
X185819721Y-99856556D01*
X185651757Y-99968786D01*
X185589546Y-99994554D01*
X185465127Y-100046091D01*
X185333044Y-100072364D01*
X185267004Y-100085500D01*
X185064996Y-100085500D01*
X184998956Y-100072364D01*
X184866873Y-100046091D01*
X184742454Y-99994554D01*
X184680243Y-99968786D01*
X184512279Y-99856556D01*
X184369444Y-99713721D01*
X184257214Y-99545757D01*
X184231446Y-99483546D01*
X184179909Y-99359127D01*
X184140500Y-99161003D01*
X184140500Y-98958997D01*
X184179909Y-98760873D01*
X184257214Y-98574244D01*
X184257214Y-98574243D01*
X184369444Y-98406279D01*
X184512279Y-98263444D01*
X184680243Y-98151214D01*
X184742454Y-98125446D01*
X184866873Y-98073909D01*
X184998956Y-98047636D01*
X185064996Y-98034500D01*
X185267004Y-98034500D01*
X185333044Y-98047636D01*
X185333044Y-98047636D01*
G37*
G36*
X187873044Y-98047636D02*
X188005127Y-98073909D01*
X188129546Y-98125446D01*
X188191757Y-98151214D01*
X188359721Y-98263444D01*
X188502556Y-98406279D01*
X188614786Y-98574243D01*
X188614786Y-98574244D01*
X188692091Y-98760873D01*
X188731500Y-98958997D01*
X188731500Y-99161003D01*
X188692091Y-99359127D01*
X188640554Y-99483546D01*
X188614786Y-99545757D01*
X188502556Y-99713721D01*
X188359721Y-99856556D01*
X188191757Y-99968786D01*
X188129546Y-99994554D01*
X188005127Y-100046091D01*
X187873044Y-100072364D01*
X187807004Y-100085500D01*
X187604996Y-100085500D01*
X187538956Y-100072364D01*
X187406873Y-100046091D01*
X187282454Y-99994554D01*
X187220243Y-99968786D01*
X187052279Y-99856556D01*
X186909444Y-99713721D01*
X186797214Y-99545757D01*
X186771446Y-99483546D01*
X186719909Y-99359127D01*
X186680500Y-99161003D01*
X186680500Y-98958997D01*
X186719909Y-98760873D01*
X186797214Y-98574244D01*
X186797214Y-98574243D01*
X186909444Y-98406279D01*
X187052279Y-98263444D01*
X187220243Y-98151214D01*
X187282454Y-98125446D01*
X187406873Y-98073909D01*
X187538956Y-98047636D01*
X187604996Y-98034500D01*
X187807004Y-98034500D01*
X187873044Y-98047636D01*
X187873044Y-98047636D01*
G37*
G36*
X174344692Y-97636729D02*
X174565993Y-97728395D01*
X174765158Y-97861473D01*
X174934527Y-98030842D01*
X175067605Y-98230007D01*
X175159271Y-98451308D01*
X175206000Y-98686233D01*
X175206000Y-98925767D01*
X175159271Y-99160692D01*
X175067605Y-99381993D01*
X174934527Y-99581158D01*
X174765158Y-99750527D01*
X174565993Y-99883605D01*
X174344692Y-99975271D01*
X174109767Y-100022000D01*
X173870233Y-100022000D01*
X173635308Y-99975271D01*
X173414007Y-99883605D01*
X173214842Y-99750527D01*
X173045473Y-99581158D01*
X172912395Y-99381993D01*
X172820729Y-99160692D01*
X172774000Y-98925767D01*
X172774000Y-98686233D01*
X172820729Y-98451308D01*
X172912395Y-98230007D01*
X173045473Y-98030842D01*
X173214842Y-97861473D01*
X173414007Y-97728395D01*
X173635308Y-97636729D01*
X173870233Y-97590000D01*
X174109767Y-97590000D01*
X174344692Y-97636729D01*
X174344692Y-97636729D01*
G37*
G36*
X171804692Y-93191729D02*
X172025993Y-93283395D01*
X172225158Y-93416473D01*
X172394527Y-93585842D01*
X172527605Y-93785007D01*
X172619271Y-94006308D01*
X172666000Y-94241233D01*
X172666000Y-94480767D01*
X172619271Y-94715692D01*
X172527605Y-94936993D01*
X172394527Y-95136158D01*
X172225158Y-95305527D01*
X172025993Y-95438605D01*
X171804692Y-95530271D01*
X171569767Y-95577000D01*
X171330233Y-95577000D01*
X171095308Y-95530271D01*
X170874007Y-95438605D01*
X170674842Y-95305527D01*
X170505473Y-95136158D01*
X170372395Y-94936993D01*
X170280729Y-94715692D01*
X170234000Y-94480767D01*
X170234000Y-94241233D01*
X170280729Y-94006308D01*
X170372395Y-93785007D01*
X170505473Y-93585842D01*
X170674842Y-93416473D01*
X170874007Y-93283395D01*
X171095308Y-93191729D01*
X171330233Y-93145000D01*
X171569767Y-93145000D01*
X171804692Y-93191729D01*
X171804692Y-93191729D01*
G37*
G36*
X251433692Y-90270729D02*
X251654993Y-90362395D01*
X251854158Y-90495473D01*
X252023527Y-90664842D01*
X252156605Y-90864007D01*
X252248271Y-91085308D01*
X252295000Y-91320233D01*
X252295000Y-91559767D01*
X252248271Y-91794692D01*
X252156605Y-92015993D01*
X252023527Y-92215158D01*
X251854158Y-92384527D01*
X251654993Y-92517605D01*
X251433692Y-92609271D01*
X251198767Y-92656000D01*
X250959233Y-92656000D01*
X250724308Y-92609271D01*
X250503007Y-92517605D01*
X250303842Y-92384527D01*
X250134473Y-92215158D01*
X250001395Y-92015993D01*
X249909729Y-91794692D01*
X249863000Y-91559767D01*
X249863000Y-91320233D01*
X249909729Y-91085308D01*
X250001395Y-90864007D01*
X250134473Y-90664842D01*
X250303842Y-90495473D01*
X250503007Y-90362395D01*
X250724308Y-90270729D01*
X250959233Y-90224000D01*
X251198767Y-90224000D01*
X251433692Y-90270729D01*
X251433692Y-90270729D01*
G37*
G36*
X169264692Y-88238729D02*
X169485993Y-88330395D01*
X169685158Y-88463473D01*
X169854527Y-88632842D01*
X169987605Y-88832007D01*
X170079271Y-89053308D01*
X170126000Y-89288233D01*
X170126000Y-89527767D01*
X170079271Y-89762692D01*
X169987605Y-89983993D01*
X169854527Y-90183158D01*
X169685158Y-90352527D01*
X169485993Y-90485605D01*
X169264692Y-90577271D01*
X169029767Y-90624000D01*
X168790233Y-90624000D01*
X168555308Y-90577271D01*
X168334007Y-90485605D01*
X168134842Y-90352527D01*
X167965473Y-90183158D01*
X167832395Y-89983993D01*
X167740729Y-89762692D01*
X167694000Y-89527767D01*
X167694000Y-89288233D01*
X167740729Y-89053308D01*
X167832395Y-88832007D01*
X167965473Y-88632842D01*
X168134842Y-88463473D01*
X168334007Y-88330395D01*
X168555308Y-88238729D01*
X168790233Y-88192000D01*
X169029767Y-88192000D01*
X169264692Y-88238729D01*
X169264692Y-88238729D01*
G37*
G36*
X253719692Y-85063729D02*
X253940993Y-85155395D01*
X254140158Y-85288473D01*
X254309527Y-85457842D01*
X254442605Y-85657007D01*
X254534271Y-85878308D01*
X254581000Y-86113233D01*
X254581000Y-86352767D01*
X254534271Y-86587692D01*
X254442605Y-86808993D01*
X254309527Y-87008158D01*
X254140158Y-87177527D01*
X253940993Y-87310605D01*
X253719692Y-87402271D01*
X253484767Y-87449000D01*
X253245233Y-87449000D01*
X253010308Y-87402271D01*
X252789007Y-87310605D01*
X252589842Y-87177527D01*
X252420473Y-87008158D01*
X252287395Y-86808993D01*
X252195729Y-86587692D01*
X252149000Y-86352767D01*
X252149000Y-86113233D01*
X252195729Y-85878308D01*
X252287395Y-85657007D01*
X252420473Y-85457842D01*
X252589842Y-85288473D01*
X252789007Y-85155395D01*
X253010308Y-85063729D01*
X253245233Y-85017000D01*
X253484767Y-85017000D01*
X253719692Y-85063729D01*
X253719692Y-85063729D01*
G37*
G36*
X167486692Y-83158729D02*
X167707993Y-83250395D01*
X167907158Y-83383473D01*
X168076527Y-83552842D01*
X168209605Y-83752007D01*
X168301271Y-83973308D01*
X168348000Y-84208233D01*
X168348000Y-84447767D01*
X168301271Y-84682692D01*
X168209605Y-84903993D01*
X168076527Y-85103158D01*
X167907158Y-85272527D01*
X167707993Y-85405605D01*
X167486692Y-85497271D01*
X167251767Y-85544000D01*
X167012233Y-85544000D01*
X166777308Y-85497271D01*
X166556007Y-85405605D01*
X166356842Y-85272527D01*
X166187473Y-85103158D01*
X166054395Y-84903993D01*
X165962729Y-84682692D01*
X165916000Y-84447767D01*
X165916000Y-84208233D01*
X165962729Y-83973308D01*
X166054395Y-83752007D01*
X166187473Y-83552842D01*
X166356842Y-83383473D01*
X166556007Y-83250395D01*
X166777308Y-83158729D01*
X167012233Y-83112000D01*
X167251767Y-83112000D01*
X167486692Y-83158729D01*
X167486692Y-83158729D01*
G37*
G36*
X254989692Y-79602729D02*
X255210993Y-79694395D01*
X255410158Y-79827473D01*
X255579527Y-79996842D01*
X255712605Y-80196007D01*
X255804271Y-80417308D01*
X255851000Y-80652233D01*
X255851000Y-80891767D01*
X255804271Y-81126692D01*
X255712605Y-81347993D01*
X255579527Y-81547158D01*
X255410158Y-81716527D01*
X255210993Y-81849605D01*
X254989692Y-81941271D01*
X254754767Y-81988000D01*
X254515233Y-81988000D01*
X254280308Y-81941271D01*
X254059007Y-81849605D01*
X253859842Y-81716527D01*
X253690473Y-81547158D01*
X253557395Y-81347993D01*
X253465729Y-81126692D01*
X253419000Y-80891767D01*
X253419000Y-80652233D01*
X253465729Y-80417308D01*
X253557395Y-80196007D01*
X253690473Y-79996842D01*
X253859842Y-79827473D01*
X254059007Y-79694395D01*
X254280308Y-79602729D01*
X254515233Y-79556000D01*
X254754767Y-79556000D01*
X254989692Y-79602729D01*
X254989692Y-79602729D01*
G37*
G36*
X166597692Y-77824729D02*
X166818993Y-77916395D01*
X167018158Y-78049473D01*
X167187527Y-78218842D01*
X167320605Y-78418007D01*
X167412271Y-78639308D01*
X167459000Y-78874233D01*
X167459000Y-79113767D01*
X167412271Y-79348692D01*
X167320605Y-79569993D01*
X167187527Y-79769158D01*
X167018158Y-79938527D01*
X166818993Y-80071605D01*
X166597692Y-80163271D01*
X166362767Y-80210000D01*
X166123233Y-80210000D01*
X165888308Y-80163271D01*
X165667007Y-80071605D01*
X165467842Y-79938527D01*
X165298473Y-79769158D01*
X165165395Y-79569993D01*
X165073729Y-79348692D01*
X165027000Y-79113767D01*
X165027000Y-78874233D01*
X165073729Y-78639308D01*
X165165395Y-78418007D01*
X165298473Y-78218842D01*
X165467842Y-78049473D01*
X165667007Y-77916395D01*
X165888308Y-77824729D01*
X166123233Y-77778000D01*
X166362767Y-77778000D01*
X166597692Y-77824729D01*
X166597692Y-77824729D01*
G37*
G36*
X255370692Y-73887729D02*
X255591993Y-73979395D01*
X255791158Y-74112473D01*
X255960527Y-74281842D01*
X256093605Y-74481007D01*
X256185271Y-74702308D01*
X256232000Y-74937233D01*
X256232000Y-75176767D01*
X256185271Y-75411692D01*
X256093605Y-75632993D01*
X255960527Y-75832158D01*
X255791158Y-76001527D01*
X255591993Y-76134605D01*
X255370692Y-76226271D01*
X255135767Y-76273000D01*
X254896233Y-76273000D01*
X254661308Y-76226271D01*
X254440007Y-76134605D01*
X254240842Y-76001527D01*
X254071473Y-75832158D01*
X253938395Y-75632993D01*
X253846729Y-75411692D01*
X253800000Y-75176767D01*
X253800000Y-74937233D01*
X253846729Y-74702308D01*
X253938395Y-74481007D01*
X254071473Y-74281842D01*
X254240842Y-74112473D01*
X254440007Y-73979395D01*
X254661308Y-73887729D01*
X254896233Y-73841000D01*
X255135767Y-73841000D01*
X255370692Y-73887729D01*
X255370692Y-73887729D01*
G37*
G36*
X166597692Y-72490729D02*
X166818993Y-72582395D01*
X167018158Y-72715473D01*
X167187527Y-72884842D01*
X167320605Y-73084007D01*
X167412271Y-73305308D01*
X167459000Y-73540233D01*
X167459000Y-73779767D01*
X167412271Y-74014692D01*
X167320605Y-74235993D01*
X167187527Y-74435158D01*
X167018158Y-74604527D01*
X166818993Y-74737605D01*
X166597692Y-74829271D01*
X166362767Y-74876000D01*
X166123233Y-74876000D01*
X165888308Y-74829271D01*
X165667007Y-74737605D01*
X165467842Y-74604527D01*
X165298473Y-74435158D01*
X165165395Y-74235993D01*
X165073729Y-74014692D01*
X165027000Y-73779767D01*
X165027000Y-73540233D01*
X165073729Y-73305308D01*
X165165395Y-73084007D01*
X165298473Y-72884842D01*
X165467842Y-72715473D01*
X165667007Y-72582395D01*
X165888308Y-72490729D01*
X166123233Y-72444000D01*
X166362767Y-72444000D01*
X166597692Y-72490729D01*
X166597692Y-72490729D01*
G37*
G36*
X254227692Y-68426729D02*
X254448993Y-68518395D01*
X254648158Y-68651473D01*
X254817527Y-68820842D01*
X254950605Y-69020007D01*
X255042271Y-69241308D01*
X255089000Y-69476233D01*
X255089000Y-69715767D01*
X255042271Y-69950692D01*
X254950605Y-70171993D01*
X254817527Y-70371158D01*
X254648158Y-70540527D01*
X254448993Y-70673605D01*
X254227692Y-70765271D01*
X253992767Y-70812000D01*
X253753233Y-70812000D01*
X253518308Y-70765271D01*
X253297007Y-70673605D01*
X253097842Y-70540527D01*
X252928473Y-70371158D01*
X252795395Y-70171993D01*
X252703729Y-69950692D01*
X252657000Y-69715767D01*
X252657000Y-69476233D01*
X252703729Y-69241308D01*
X252795395Y-69020007D01*
X252928473Y-68820842D01*
X253097842Y-68651473D01*
X253297007Y-68518395D01*
X253518308Y-68426729D01*
X253753233Y-68380000D01*
X253992767Y-68380000D01*
X254227692Y-68426729D01*
X254227692Y-68426729D01*
G37*
G36*
X168121692Y-67156729D02*
X168342993Y-67248395D01*
X168542158Y-67381473D01*
X168711527Y-67550842D01*
X168844605Y-67750007D01*
X168936271Y-67971308D01*
X168983000Y-68206233D01*
X168983000Y-68445767D01*
X168936271Y-68680692D01*
X168844605Y-68901993D01*
X168711527Y-69101158D01*
X168542158Y-69270527D01*
X168342993Y-69403605D01*
X168121692Y-69495271D01*
X167886767Y-69542000D01*
X167647233Y-69542000D01*
X167412308Y-69495271D01*
X167191007Y-69403605D01*
X166991842Y-69270527D01*
X166822473Y-69101158D01*
X166689395Y-68901993D01*
X166597729Y-68680692D01*
X166551000Y-68445767D01*
X166551000Y-68206233D01*
X166597729Y-67971308D01*
X166689395Y-67750007D01*
X166822473Y-67550842D01*
X166991842Y-67381473D01*
X167191007Y-67248395D01*
X167412308Y-67156729D01*
X167647233Y-67110000D01*
X167886767Y-67110000D01*
X168121692Y-67156729D01*
X168121692Y-67156729D01*
G37*
G36*
X204127908Y-58687222D02*
X204462784Y-58753833D01*
X205409124Y-59145819D01*
X206260807Y-59714896D01*
X206985104Y-60439193D01*
X207554181Y-61290876D01*
X207946167Y-62237216D01*
X207946167Y-62237217D01*
X208146000Y-63241843D01*
X208146000Y-64266157D01*
X208135089Y-64321008D01*
X207946167Y-65270784D01*
X207554181Y-66217124D01*
X206985104Y-67068807D01*
X206260807Y-67793104D01*
X205409124Y-68362181D01*
X204462784Y-68754167D01*
X204127908Y-68820778D01*
X203458157Y-68954000D01*
X202433843Y-68954000D01*
X201764092Y-68820778D01*
X201429216Y-68754167D01*
X200482876Y-68362181D01*
X199631193Y-67793104D01*
X198906896Y-67068807D01*
X198337819Y-66217124D01*
X197945833Y-65270784D01*
X197756911Y-64321008D01*
X197746000Y-64266157D01*
X197746000Y-63241843D01*
X197945833Y-62237217D01*
X197945833Y-62237216D01*
X198337819Y-61290876D01*
X198906896Y-60439193D01*
X199631193Y-59714896D01*
X200482876Y-59145819D01*
X201429216Y-58753833D01*
X201764092Y-58687222D01*
X202433843Y-58554000D01*
X203458157Y-58554000D01*
X204127908Y-58687222D01*
X204127908Y-58687222D01*
G37*
G36*
X219367908Y-58687222D02*
X219702784Y-58753833D01*
X220649124Y-59145819D01*
X221500807Y-59714896D01*
X222225104Y-60439193D01*
X222794181Y-61290876D01*
X223186167Y-62237216D01*
X223186167Y-62237217D01*
X223386000Y-63241843D01*
X223386000Y-64266157D01*
X223375089Y-64321008D01*
X223186167Y-65270784D01*
X222794181Y-66217124D01*
X222225104Y-67068807D01*
X221500807Y-67793104D01*
X220649124Y-68362181D01*
X219702784Y-68754167D01*
X219367908Y-68820778D01*
X218698157Y-68954000D01*
X217673843Y-68954000D01*
X217004092Y-68820778D01*
X216669216Y-68754167D01*
X215722876Y-68362181D01*
X214871193Y-67793104D01*
X214146896Y-67068807D01*
X213577819Y-66217124D01*
X213185833Y-65270784D01*
X212996911Y-64321008D01*
X212986000Y-64266157D01*
X212986000Y-63241843D01*
X213185833Y-62237217D01*
X213185833Y-62237216D01*
X213577819Y-61290876D01*
X214146896Y-60439193D01*
X214871193Y-59714896D01*
X215722876Y-59145819D01*
X216669216Y-58753833D01*
X217004092Y-58687222D01*
X217673843Y-58554000D01*
X218698157Y-58554000D01*
X219367908Y-58687222D01*
X219367908Y-58687222D01*
G37*
G36*
X250036692Y-63727729D02*
X250257993Y-63819395D01*
X250457158Y-63952473D01*
X250626527Y-64121842D01*
X250759605Y-64321007D01*
X250851271Y-64542308D01*
X250898000Y-64777233D01*
X250898000Y-65016767D01*
X250851271Y-65251692D01*
X250759605Y-65472993D01*
X250626527Y-65672158D01*
X250457158Y-65841527D01*
X250257993Y-65974605D01*
X250036692Y-66066271D01*
X249801767Y-66113000D01*
X249562233Y-66113000D01*
X249327308Y-66066271D01*
X249106007Y-65974605D01*
X248906842Y-65841527D01*
X248737473Y-65672158D01*
X248604395Y-65472993D01*
X248512729Y-65251692D01*
X248466000Y-65016767D01*
X248466000Y-64777233D01*
X248512729Y-64542308D01*
X248604395Y-64321007D01*
X248737473Y-64121842D01*
X248906842Y-63952473D01*
X249106007Y-63819395D01*
X249327308Y-63727729D01*
X249562233Y-63681000D01*
X249801767Y-63681000D01*
X250036692Y-63727729D01*
X250036692Y-63727729D01*
G37*
G36*
X172185692Y-63219729D02*
X172406993Y-63311395D01*
X172606158Y-63444473D01*
X172775527Y-63613842D01*
X172908605Y-63813007D01*
X173000271Y-64034308D01*
X173047000Y-64269233D01*
X173047000Y-64508767D01*
X173000271Y-64743692D01*
X172908605Y-64964993D01*
X172775527Y-65164158D01*
X172606158Y-65333527D01*
X172406993Y-65466605D01*
X172185692Y-65558271D01*
X171950767Y-65605000D01*
X171711233Y-65605000D01*
X171476308Y-65558271D01*
X171255007Y-65466605D01*
X171055842Y-65333527D01*
X170886473Y-65164158D01*
X170753395Y-64964993D01*
X170661729Y-64743692D01*
X170615000Y-64508767D01*
X170615000Y-64269233D01*
X170661729Y-64034308D01*
X170753395Y-63813007D01*
X170886473Y-63613842D01*
X171055842Y-63444473D01*
X171255007Y-63311395D01*
X171476308Y-63219729D01*
X171711233Y-63173000D01*
X171950767Y-63173000D01*
X172185692Y-63219729D01*
X172185692Y-63219729D01*
G37*
G36*
X212139000Y-59993000D02*
X208739000Y-59993000D01*
X208739000Y-56593000D01*
X212139000Y-56593000D01*
X212139000Y-59993000D01*
X212139000Y-59993000D01*
G37*
G36*
X211099560Y-36265759D02*
X211590928Y-36469290D01*
X211590930Y-36469291D01*
X212027268Y-36760843D01*
X212033153Y-36764775D01*
X212409225Y-37140847D01*
X212704710Y-37583072D01*
X212908241Y-38074440D01*
X213012000Y-38596072D01*
X213012000Y-39127928D01*
X212908241Y-39649560D01*
X212704710Y-40140928D01*
X212409225Y-40583153D01*
X212033153Y-40959225D01*
X212033150Y-40959227D01*
X211590930Y-41254709D01*
X211590929Y-41254710D01*
X211590928Y-41254710D01*
X211099560Y-41458241D01*
X210577928Y-41562000D01*
X210046072Y-41562000D01*
X209524440Y-41458241D01*
X209033072Y-41254710D01*
X209033071Y-41254710D01*
X209033070Y-41254709D01*
X208590850Y-40959227D01*
X208590847Y-40959225D01*
X208214775Y-40583153D01*
X207919290Y-40140928D01*
X207715759Y-39649560D01*
X207612000Y-39127928D01*
X207612000Y-38596072D01*
X207715759Y-38074440D01*
X207919290Y-37583072D01*
X208214775Y-37140847D01*
X208590847Y-36764775D01*
X208596732Y-36760843D01*
X209033070Y-36469291D01*
X209033072Y-36469290D01*
X209524440Y-36265759D01*
X210046072Y-36162000D01*
X210577928Y-36162000D01*
X211099560Y-36265759D01*
X211099560Y-36265759D01*
G37*
M02*
