G04 #@! TF.GenerationSoftware,KiCad,Pcbnew,(5.0.2)-1*
G04 #@! TF.CreationDate,2019-02-25T22:43:21-04:00*
G04 #@! TF.ProjectId,MegaBadge,4d656761-4261-4646-9765-2e6b69636164,rev?*
G04 #@! TF.SameCoordinates,Original*
G04 #@! TF.FileFunction,Legend,Top*
G04 #@! TF.FilePolarity,Positive*
%FSLAX46Y46*%
G04 Gerber Fmt 4.6, Leading zero omitted, Abs format (unit mm)*
G04 Created by KiCad (PCBNEW (5.0.2)-1) date 2/25/2019 10:43:21 PM*
%MOMM*%
%LPD*%
G01*
G04 APERTURE LIST*
%ADD10C,0.300000*%
%ADD11C,0.120000*%
%ADD12C,0.010000*%
%ADD13C,0.127000*%
%ADD14C,0.150000*%
G04 APERTURE END LIST*
D10*
X181388285Y-118503047D02*
X181507333Y-118384000D01*
X181745428Y-118264952D01*
X182340666Y-118264952D01*
X182578761Y-118384000D01*
X182697809Y-118503047D01*
X182816857Y-118741142D01*
X182816857Y-118979238D01*
X182697809Y-119336380D01*
X181269238Y-120764952D01*
X182816857Y-120764952D01*
X184364476Y-118264952D02*
X184602571Y-118264952D01*
X184840666Y-118384000D01*
X184959714Y-118503047D01*
X185078761Y-118741142D01*
X185197809Y-119217333D01*
X185197809Y-119812571D01*
X185078761Y-120288761D01*
X184959714Y-120526857D01*
X184840666Y-120645904D01*
X184602571Y-120764952D01*
X184364476Y-120764952D01*
X184126380Y-120645904D01*
X184007333Y-120526857D01*
X183888285Y-120288761D01*
X183769238Y-119812571D01*
X183769238Y-119217333D01*
X183888285Y-118741142D01*
X184007333Y-118503047D01*
X184126380Y-118384000D01*
X184364476Y-118264952D01*
X187578761Y-120764952D02*
X186150190Y-120764952D01*
X186864476Y-120764952D02*
X186864476Y-118264952D01*
X186626380Y-118622095D01*
X186388285Y-118860190D01*
X186150190Y-118979238D01*
X188769238Y-120764952D02*
X189245428Y-120764952D01*
X189483523Y-120645904D01*
X189602571Y-120526857D01*
X189840666Y-120169714D01*
X189959714Y-119693523D01*
X189959714Y-118741142D01*
X189840666Y-118503047D01*
X189721619Y-118384000D01*
X189483523Y-118264952D01*
X189007333Y-118264952D01*
X188769238Y-118384000D01*
X188650190Y-118503047D01*
X188531142Y-118741142D01*
X188531142Y-119336380D01*
X188650190Y-119574476D01*
X188769238Y-119693523D01*
X189007333Y-119812571D01*
X189483523Y-119812571D01*
X189721619Y-119693523D01*
X189840666Y-119574476D01*
X189959714Y-119336380D01*
D11*
G04 #@! TO.C,REF\002A\002A*
X253365000Y-91440000D02*
G75*
G03X253365000Y-91440000I-2286000J0D01*
G01*
X255651000Y-86233000D02*
G75*
G03X255651000Y-86233000I-2286000J0D01*
G01*
X256921000Y-80772000D02*
G75*
G03X256921000Y-80772000I-2286000J0D01*
G01*
X257302000Y-75057000D02*
G75*
G03X257302000Y-75057000I-2286000J0D01*
G01*
X256159000Y-69596000D02*
G75*
G03X256159000Y-69596000I-2286000J0D01*
G01*
X251968000Y-64897000D02*
G75*
G03X251968000Y-64897000I-2286000J0D01*
G01*
X220472000Y-63754000D02*
G75*
G03X220472000Y-63754000I-2286000J0D01*
G01*
X239268000Y-124206000D02*
G75*
G03X239268000Y-124206000I-2286000J0D01*
G01*
X186436000Y-124206000D02*
G75*
G03X186436000Y-124206000I-2286000J0D01*
G01*
D12*
G04 #@! TO.C,G\002A\002A\002A*
G36*
X217323933Y-62070460D02*
X217672257Y-62596223D01*
X217571070Y-63328651D01*
X217562620Y-63347496D01*
X217075496Y-63868969D01*
X216396822Y-64010273D01*
X215746268Y-63731360D01*
X215699474Y-63687157D01*
X215387488Y-63079388D01*
X215507270Y-62469364D01*
X215980394Y-62014976D01*
X216602525Y-61869052D01*
X217323933Y-62070460D01*
X217323933Y-62070460D01*
G37*
X217323933Y-62070460D02*
X217672257Y-62596223D01*
X217571070Y-63328651D01*
X217562620Y-63347496D01*
X217075496Y-63868969D01*
X216396822Y-64010273D01*
X215746268Y-63731360D01*
X215699474Y-63687157D01*
X215387488Y-63079388D01*
X215507270Y-62469364D01*
X215980394Y-62014976D01*
X216602525Y-61869052D01*
X217323933Y-62070460D01*
G36*
X202757775Y-61133824D02*
X203275123Y-61490092D01*
X203350599Y-61608310D01*
X203453023Y-62237060D01*
X203169446Y-62769554D01*
X202648604Y-63109084D01*
X202039235Y-63158943D01*
X201490074Y-62822425D01*
X201487687Y-62819558D01*
X201265338Y-62257218D01*
X201254423Y-61816927D01*
X201547313Y-61317157D01*
X202115134Y-61082818D01*
X202757775Y-61133824D01*
X202757775Y-61133824D01*
G37*
X202757775Y-61133824D02*
X203275123Y-61490092D01*
X203350599Y-61608310D01*
X203453023Y-62237060D01*
X203169446Y-62769554D01*
X202648604Y-63109084D01*
X202039235Y-63158943D01*
X201490074Y-62822425D01*
X201487687Y-62819558D01*
X201265338Y-62257218D01*
X201254423Y-61816927D01*
X201547313Y-61317157D01*
X202115134Y-61082818D01*
X202757775Y-61133824D01*
G36*
X198446539Y-82110742D02*
X198534421Y-82456421D01*
X198345363Y-82903275D01*
X197999684Y-82991157D01*
X197552829Y-82802099D01*
X197464947Y-82456421D01*
X197654005Y-82009566D01*
X197999684Y-81921684D01*
X198446539Y-82110742D01*
X198446539Y-82110742D01*
G37*
X198446539Y-82110742D02*
X198534421Y-82456421D01*
X198345363Y-82903275D01*
X197999684Y-82991157D01*
X197552829Y-82802099D01*
X197464947Y-82456421D01*
X197654005Y-82009566D01*
X197999684Y-81921684D01*
X198446539Y-82110742D01*
G36*
X192564434Y-82110742D02*
X192652316Y-82456421D01*
X192463258Y-82903275D01*
X192117579Y-82991157D01*
X191670724Y-82802099D01*
X191582842Y-82456421D01*
X191771900Y-82009566D01*
X192117579Y-81921684D01*
X192564434Y-82110742D01*
X192564434Y-82110742D01*
G37*
X192564434Y-82110742D02*
X192652316Y-82456421D01*
X192463258Y-82903275D01*
X192117579Y-82991157D01*
X191670724Y-82802099D01*
X191582842Y-82456421D01*
X191771900Y-82009566D01*
X192117579Y-81921684D01*
X192564434Y-82110742D01*
G36*
X211995555Y-82288730D02*
X212164728Y-82689113D01*
X212170211Y-82857473D01*
X212261734Y-83359941D01*
X212437579Y-83525894D01*
X212650304Y-83737231D01*
X212696495Y-84208171D01*
X212587709Y-84694108D01*
X212370737Y-84940719D01*
X212170604Y-85119254D01*
X212370737Y-85417526D01*
X212632633Y-85912025D01*
X212690527Y-86478749D01*
X212547857Y-86903374D01*
X212345334Y-87001684D01*
X211912754Y-86818316D01*
X211484016Y-86447308D01*
X211157879Y-85872656D01*
X210957960Y-84956235D01*
X210877669Y-84040992D01*
X210830565Y-83070632D01*
X210851893Y-82517105D01*
X210979180Y-82263402D01*
X211249952Y-82192512D01*
X211471618Y-82189052D01*
X211995555Y-82288730D01*
X211995555Y-82288730D01*
G37*
X211995555Y-82288730D02*
X212164728Y-82689113D01*
X212170211Y-82857473D01*
X212261734Y-83359941D01*
X212437579Y-83525894D01*
X212650304Y-83737231D01*
X212696495Y-84208171D01*
X212587709Y-84694108D01*
X212370737Y-84940719D01*
X212170604Y-85119254D01*
X212370737Y-85417526D01*
X212632633Y-85912025D01*
X212690527Y-86478749D01*
X212547857Y-86903374D01*
X212345334Y-87001684D01*
X211912754Y-86818316D01*
X211484016Y-86447308D01*
X211157879Y-85872656D01*
X210957960Y-84956235D01*
X210877669Y-84040992D01*
X210830565Y-83070632D01*
X210851893Y-82517105D01*
X210979180Y-82263402D01*
X211249952Y-82192512D01*
X211471618Y-82189052D01*
X211995555Y-82288730D01*
G36*
X209111432Y-83344091D02*
X209704404Y-83674739D01*
X210061943Y-84022758D01*
X210241793Y-84530231D01*
X210297614Y-85367848D01*
X210298632Y-85564914D01*
X210281469Y-86405417D01*
X210194767Y-86833356D01*
X209985709Y-86970643D01*
X209697053Y-86953437D01*
X209300076Y-86798866D01*
X209070108Y-86383684D01*
X208935105Y-85664842D01*
X208774735Y-84461684D01*
X208734578Y-85731684D01*
X208684179Y-86500905D01*
X208545105Y-86875179D01*
X208239420Y-86994191D01*
X208026000Y-87001684D01*
X207629299Y-86958341D01*
X207431394Y-86737145D01*
X207363911Y-86201348D01*
X207357579Y-85664842D01*
X207441537Y-84653909D01*
X207725416Y-83987649D01*
X207892316Y-83793263D01*
X208511113Y-83338932D01*
X209111432Y-83344091D01*
X209111432Y-83344091D01*
G37*
X209111432Y-83344091D02*
X209704404Y-83674739D01*
X210061943Y-84022758D01*
X210241793Y-84530231D01*
X210297614Y-85367848D01*
X210298632Y-85564914D01*
X210281469Y-86405417D01*
X210194767Y-86833356D01*
X209985709Y-86970643D01*
X209697053Y-86953437D01*
X209300076Y-86798866D01*
X209070108Y-86383684D01*
X208935105Y-85664842D01*
X208774735Y-84461684D01*
X208734578Y-85731684D01*
X208684179Y-86500905D01*
X208545105Y-86875179D01*
X208239420Y-86994191D01*
X208026000Y-87001684D01*
X207629299Y-86958341D01*
X207431394Y-86737145D01*
X207363911Y-86201348D01*
X207357579Y-85664842D01*
X207441537Y-84653909D01*
X207725416Y-83987649D01*
X207892316Y-83793263D01*
X208511113Y-83338932D01*
X209111432Y-83344091D01*
G36*
X205940885Y-83683493D02*
X206381633Y-84466202D01*
X206555107Y-85604231D01*
X206555474Y-85664842D01*
X206527320Y-86466685D01*
X206407822Y-86866595D01*
X206144421Y-86995963D01*
X206020737Y-87001684D01*
X205647020Y-86892476D01*
X205500371Y-86470472D01*
X205486000Y-86098632D01*
X205377751Y-85411408D01*
X205114140Y-84896610D01*
X204786870Y-84689984D01*
X204592452Y-84775933D01*
X204414462Y-85203148D01*
X204570743Y-85575830D01*
X204817579Y-85664842D01*
X205140136Y-85897266D01*
X205218632Y-86333263D01*
X205055645Y-86860953D01*
X204640723Y-86998511D01*
X204084920Y-86748464D01*
X203633827Y-86297206D01*
X203158760Y-85446710D01*
X203191305Y-84683530D01*
X203735420Y-83915326D01*
X203735952Y-83914794D01*
X204545947Y-83363040D01*
X205304957Y-83300856D01*
X205940885Y-83683493D01*
X205940885Y-83683493D01*
G37*
X205940885Y-83683493D02*
X206381633Y-84466202D01*
X206555107Y-85604231D01*
X206555474Y-85664842D01*
X206527320Y-86466685D01*
X206407822Y-86866595D01*
X206144421Y-86995963D01*
X206020737Y-87001684D01*
X205647020Y-86892476D01*
X205500371Y-86470472D01*
X205486000Y-86098632D01*
X205377751Y-85411408D01*
X205114140Y-84896610D01*
X204786870Y-84689984D01*
X204592452Y-84775933D01*
X204414462Y-85203148D01*
X204570743Y-85575830D01*
X204817579Y-85664842D01*
X205140136Y-85897266D01*
X205218632Y-86333263D01*
X205055645Y-86860953D01*
X204640723Y-86998511D01*
X204084920Y-86748464D01*
X203633827Y-86297206D01*
X203158760Y-85446710D01*
X203191305Y-84683530D01*
X203735420Y-83915326D01*
X203735952Y-83914794D01*
X204545947Y-83363040D01*
X205304957Y-83300856D01*
X205940885Y-83683493D01*
G36*
X198280705Y-83309019D02*
X198441698Y-83536726D01*
X198515331Y-84055982D01*
X198534272Y-84981128D01*
X198534421Y-85130105D01*
X198519994Y-86113677D01*
X198454935Y-86677152D01*
X198306576Y-86934867D01*
X198042249Y-87001162D01*
X197999684Y-87001684D01*
X197718664Y-86951190D01*
X197557671Y-86723484D01*
X197484038Y-86204227D01*
X197465097Y-85279082D01*
X197464947Y-85130105D01*
X197479374Y-84146533D01*
X197544433Y-83583058D01*
X197692792Y-83325342D01*
X197957119Y-83259048D01*
X197999684Y-83258526D01*
X198280705Y-83309019D01*
X198280705Y-83309019D01*
G37*
X198280705Y-83309019D02*
X198441698Y-83536726D01*
X198515331Y-84055982D01*
X198534272Y-84981128D01*
X198534421Y-85130105D01*
X198519994Y-86113677D01*
X198454935Y-86677152D01*
X198306576Y-86934867D01*
X198042249Y-87001162D01*
X197999684Y-87001684D01*
X197718664Y-86951190D01*
X197557671Y-86723484D01*
X197484038Y-86204227D01*
X197465097Y-85279082D01*
X197464947Y-85130105D01*
X197479374Y-84146533D01*
X197544433Y-83583058D01*
X197692792Y-83325342D01*
X197957119Y-83259048D01*
X197999684Y-83258526D01*
X198280705Y-83309019D01*
G36*
X195381034Y-83329187D02*
X195792003Y-83535085D01*
X196342329Y-83972039D01*
X196618271Y-84427698D01*
X196599426Y-84736015D01*
X196294328Y-84845570D01*
X195684373Y-84819560D01*
X194981799Y-84813229D01*
X194686466Y-84982151D01*
X194657579Y-85130105D01*
X194803752Y-85394599D01*
X195313085Y-85464230D01*
X195660211Y-85443406D01*
X196404766Y-85490120D01*
X196677952Y-85775349D01*
X196462178Y-86260884D01*
X196173895Y-86559192D01*
X195404320Y-86946152D01*
X194561043Y-86914251D01*
X193879209Y-86493174D01*
X193505058Y-85731076D01*
X193494647Y-84835482D01*
X193816707Y-84014699D01*
X194323369Y-83534294D01*
X194906173Y-83275427D01*
X195381034Y-83329187D01*
X195381034Y-83329187D01*
G37*
X195381034Y-83329187D02*
X195792003Y-83535085D01*
X196342329Y-83972039D01*
X196618271Y-84427698D01*
X196599426Y-84736015D01*
X196294328Y-84845570D01*
X195684373Y-84819560D01*
X194981799Y-84813229D01*
X194686466Y-84982151D01*
X194657579Y-85130105D01*
X194803752Y-85394599D01*
X195313085Y-85464230D01*
X195660211Y-85443406D01*
X196404766Y-85490120D01*
X196677952Y-85775349D01*
X196462178Y-86260884D01*
X196173895Y-86559192D01*
X195404320Y-86946152D01*
X194561043Y-86914251D01*
X193879209Y-86493174D01*
X193505058Y-85731076D01*
X193494647Y-84835482D01*
X193816707Y-84014699D01*
X194323369Y-83534294D01*
X194906173Y-83275427D01*
X195381034Y-83329187D01*
G36*
X192398600Y-83309019D02*
X192559592Y-83536726D01*
X192633225Y-84055982D01*
X192652167Y-84981128D01*
X192652316Y-85130105D01*
X192637889Y-86113677D01*
X192572830Y-86677152D01*
X192424471Y-86934867D01*
X192160144Y-87001162D01*
X192117579Y-87001684D01*
X191836558Y-86951190D01*
X191675566Y-86723484D01*
X191601933Y-86204227D01*
X191582991Y-85279082D01*
X191582842Y-85130105D01*
X191597269Y-84146533D01*
X191662328Y-83583058D01*
X191810687Y-83325342D01*
X192075014Y-83259048D01*
X192117579Y-83258526D01*
X192398600Y-83309019D01*
X192398600Y-83309019D01*
G37*
X192398600Y-83309019D02*
X192559592Y-83536726D01*
X192633225Y-84055982D01*
X192652167Y-84981128D01*
X192652316Y-85130105D01*
X192637889Y-86113677D01*
X192572830Y-86677152D01*
X192424471Y-86934867D01*
X192160144Y-87001162D01*
X192117579Y-87001684D01*
X191836558Y-86951190D01*
X191675566Y-86723484D01*
X191601933Y-86204227D01*
X191582991Y-85279082D01*
X191582842Y-85130105D01*
X191597269Y-84146533D01*
X191662328Y-83583058D01*
X191810687Y-83325342D01*
X192075014Y-83259048D01*
X192117579Y-83258526D01*
X192398600Y-83309019D01*
G36*
X190160120Y-82379947D02*
X190246000Y-82708010D01*
X190368773Y-83219846D01*
X190513369Y-83392210D01*
X190717000Y-83735515D01*
X190773410Y-84257832D01*
X190684175Y-84712776D01*
X190503961Y-84862736D01*
X190363751Y-85026404D01*
X190503961Y-85379896D01*
X190713309Y-85972866D01*
X190773273Y-86564547D01*
X190675150Y-86950023D01*
X190572860Y-87001684D01*
X190219274Y-86862466D01*
X189770754Y-86585470D01*
X189460593Y-86306016D01*
X189281024Y-85917095D01*
X189197775Y-85279926D01*
X189176574Y-84255725D01*
X189176526Y-84179154D01*
X189189342Y-83158552D01*
X189247707Y-82561258D01*
X189381501Y-82276071D01*
X189620603Y-82191792D01*
X189711263Y-82189052D01*
X190160120Y-82379947D01*
X190160120Y-82379947D01*
G37*
X190160120Y-82379947D02*
X190246000Y-82708010D01*
X190368773Y-83219846D01*
X190513369Y-83392210D01*
X190717000Y-83735515D01*
X190773410Y-84257832D01*
X190684175Y-84712776D01*
X190503961Y-84862736D01*
X190363751Y-85026404D01*
X190503961Y-85379896D01*
X190713309Y-85972866D01*
X190773273Y-86564547D01*
X190675150Y-86950023D01*
X190572860Y-87001684D01*
X190219274Y-86862466D01*
X189770754Y-86585470D01*
X189460593Y-86306016D01*
X189281024Y-85917095D01*
X189197775Y-85279926D01*
X189176574Y-84255725D01*
X189176526Y-84179154D01*
X189189342Y-83158552D01*
X189247707Y-82561258D01*
X189381501Y-82276071D01*
X189620603Y-82191792D01*
X189711263Y-82189052D01*
X190160120Y-82379947D01*
G36*
X188812950Y-83475273D02*
X188903472Y-83961663D01*
X188826764Y-84471921D01*
X188641790Y-84729052D01*
X188470888Y-85079612D01*
X188379306Y-85744572D01*
X188374421Y-85947989D01*
X188336644Y-86630553D01*
X188159381Y-86931332D01*
X187746734Y-87001502D01*
X187706000Y-87001684D01*
X187321689Y-86962979D01*
X187122478Y-86759204D01*
X187047975Y-86258867D01*
X187037579Y-85546318D01*
X187078274Y-84636459D01*
X187236792Y-84085462D01*
X187567784Y-83721200D01*
X187631807Y-83674739D01*
X188197986Y-83360779D01*
X188567596Y-83258526D01*
X188812950Y-83475273D01*
X188812950Y-83475273D01*
G37*
X188812950Y-83475273D02*
X188903472Y-83961663D01*
X188826764Y-84471921D01*
X188641790Y-84729052D01*
X188470888Y-85079612D01*
X188379306Y-85744572D01*
X188374421Y-85947989D01*
X188336644Y-86630553D01*
X188159381Y-86931332D01*
X187746734Y-87001502D01*
X187706000Y-87001684D01*
X187321689Y-86962979D01*
X187122478Y-86759204D01*
X187047975Y-86258867D01*
X187037579Y-85546318D01*
X187078274Y-84636459D01*
X187236792Y-84085462D01*
X187567784Y-83721200D01*
X187631807Y-83674739D01*
X188197986Y-83360779D01*
X188567596Y-83258526D01*
X188812950Y-83475273D01*
G36*
X185400471Y-83497376D02*
X185946558Y-84171850D01*
X186214973Y-85218827D01*
X186235474Y-85664842D01*
X186207320Y-86466685D01*
X186087822Y-86866595D01*
X185824421Y-86995963D01*
X185700737Y-87001684D01*
X185285339Y-86849596D01*
X185166001Y-86318053D01*
X185166000Y-86315685D01*
X185067572Y-85606007D01*
X184826305Y-85022037D01*
X184523223Y-84720591D01*
X184350480Y-84737343D01*
X184109190Y-85100608D01*
X184185829Y-85498809D01*
X184497579Y-85664842D01*
X184820136Y-85897266D01*
X184898632Y-86333263D01*
X184709520Y-86863474D01*
X184229353Y-87015716D01*
X183668658Y-86797063D01*
X183238403Y-86304018D01*
X182885138Y-85584468D01*
X182759684Y-85001845D01*
X182973973Y-84448581D01*
X183492441Y-83857931D01*
X184128496Y-83404838D01*
X184619110Y-83258526D01*
X185400471Y-83497376D01*
X185400471Y-83497376D01*
G37*
X185400471Y-83497376D02*
X185946558Y-84171850D01*
X186214973Y-85218827D01*
X186235474Y-85664842D01*
X186207320Y-86466685D01*
X186087822Y-86866595D01*
X185824421Y-86995963D01*
X185700737Y-87001684D01*
X185285339Y-86849596D01*
X185166001Y-86318053D01*
X185166000Y-86315685D01*
X185067572Y-85606007D01*
X184826305Y-85022037D01*
X184523223Y-84720591D01*
X184350480Y-84737343D01*
X184109190Y-85100608D01*
X184185829Y-85498809D01*
X184497579Y-85664842D01*
X184820136Y-85897266D01*
X184898632Y-86333263D01*
X184709520Y-86863474D01*
X184229353Y-87015716D01*
X183668658Y-86797063D01*
X183238403Y-86304018D01*
X182885138Y-85584468D01*
X182759684Y-85001845D01*
X182973973Y-84448581D01*
X183492441Y-83857931D01*
X184128496Y-83404838D01*
X184619110Y-83258526D01*
X185400471Y-83497376D01*
G36*
X181771888Y-82271717D02*
X182268720Y-82865550D01*
X182450629Y-83667516D01*
X182264613Y-84481400D01*
X181870010Y-84948692D01*
X181346966Y-85151297D01*
X180873388Y-85075173D01*
X180627185Y-84706279D01*
X180620737Y-84611147D01*
X180745623Y-84097869D01*
X180892467Y-83924251D01*
X181044962Y-83601098D01*
X181007676Y-83503058D01*
X180745288Y-83304519D01*
X180535538Y-83585606D01*
X180398356Y-84292208D01*
X180353369Y-85279568D01*
X180341392Y-86208541D01*
X180274065Y-86724185D01*
X180104287Y-86947846D01*
X179784961Y-87000867D01*
X179684947Y-87001684D01*
X179312964Y-86967214D01*
X179113013Y-86779657D01*
X179031924Y-86312793D01*
X179016529Y-85440401D01*
X179016526Y-85414879D01*
X179099919Y-83988105D01*
X179368610Y-82996474D01*
X179850372Y-82364120D01*
X180214316Y-82142849D01*
X181055348Y-81994616D01*
X181771888Y-82271717D01*
X181771888Y-82271717D01*
G37*
X181771888Y-82271717D02*
X182268720Y-82865550D01*
X182450629Y-83667516D01*
X182264613Y-84481400D01*
X181870010Y-84948692D01*
X181346966Y-85151297D01*
X180873388Y-85075173D01*
X180627185Y-84706279D01*
X180620737Y-84611147D01*
X180745623Y-84097869D01*
X180892467Y-83924251D01*
X181044962Y-83601098D01*
X181007676Y-83503058D01*
X180745288Y-83304519D01*
X180535538Y-83585606D01*
X180398356Y-84292208D01*
X180353369Y-85279568D01*
X180341392Y-86208541D01*
X180274065Y-86724185D01*
X180104287Y-86947846D01*
X179784961Y-87000867D01*
X179684947Y-87001684D01*
X179312964Y-86967214D01*
X179113013Y-86779657D01*
X179031924Y-86312793D01*
X179016529Y-85440401D01*
X179016526Y-85414879D01*
X179099919Y-83988105D01*
X179368610Y-82996474D01*
X179850372Y-82364120D01*
X180214316Y-82142849D01*
X181055348Y-81994616D01*
X181771888Y-82271717D01*
G36*
X201573534Y-83471324D02*
X202211911Y-83988120D01*
X202682019Y-84626518D01*
X202812316Y-85081895D01*
X202624353Y-85727897D01*
X202166512Y-86386112D01*
X201597861Y-86868455D01*
X201188700Y-87001684D01*
X200786692Y-86806510D01*
X200674205Y-86347095D01*
X200857261Y-85812600D01*
X201141263Y-85511790D01*
X201448917Y-85179955D01*
X201302097Y-84855979D01*
X201263814Y-84816129D01*
X200889326Y-84648193D01*
X200616176Y-84985017D01*
X200453838Y-85804569D01*
X200410094Y-86801157D01*
X200386396Y-87674464D01*
X200292195Y-88138126D01*
X200083884Y-88316559D01*
X199871263Y-88338526D01*
X199597859Y-88291164D01*
X199437442Y-88075203D01*
X199360460Y-87579827D01*
X199337365Y-86694223D01*
X199336526Y-86333263D01*
X199433493Y-84906322D01*
X199737361Y-83943190D01*
X200267576Y-83406869D01*
X200952890Y-83258526D01*
X201573534Y-83471324D01*
X201573534Y-83471324D01*
G37*
X201573534Y-83471324D02*
X202211911Y-83988120D01*
X202682019Y-84626518D01*
X202812316Y-85081895D01*
X202624353Y-85727897D01*
X202166512Y-86386112D01*
X201597861Y-86868455D01*
X201188700Y-87001684D01*
X200786692Y-86806510D01*
X200674205Y-86347095D01*
X200857261Y-85812600D01*
X201141263Y-85511790D01*
X201448917Y-85179955D01*
X201302097Y-84855979D01*
X201263814Y-84816129D01*
X200889326Y-84648193D01*
X200616176Y-84985017D01*
X200453838Y-85804569D01*
X200410094Y-86801157D01*
X200386396Y-87674464D01*
X200292195Y-88138126D01*
X200083884Y-88316559D01*
X199871263Y-88338526D01*
X199597859Y-88291164D01*
X199437442Y-88075203D01*
X199360460Y-87579827D01*
X199337365Y-86694223D01*
X199336526Y-86333263D01*
X199433493Y-84906322D01*
X199737361Y-83943190D01*
X200267576Y-83406869D01*
X200952890Y-83258526D01*
X201573534Y-83471324D01*
G36*
X237596745Y-91867722D02*
X237532558Y-91991303D01*
X237064547Y-92209582D01*
X236524209Y-92399615D01*
X235801742Y-92601223D01*
X235365595Y-92664771D01*
X235300571Y-92611579D01*
X235656471Y-92366349D01*
X236303808Y-92107498D01*
X237006905Y-91911374D01*
X237530086Y-91854325D01*
X237596745Y-91867722D01*
X237596745Y-91867722D01*
G37*
X237596745Y-91867722D02*
X237532558Y-91991303D01*
X237064547Y-92209582D01*
X236524209Y-92399615D01*
X235801742Y-92601223D01*
X235365595Y-92664771D01*
X235300571Y-92611579D01*
X235656471Y-92366349D01*
X236303808Y-92107498D01*
X237006905Y-91911374D01*
X237530086Y-91854325D01*
X237596745Y-91867722D01*
G36*
X234664630Y-81491928D02*
X236012546Y-81881652D01*
X237407802Y-82592505D01*
X238645153Y-83501976D01*
X239407281Y-84322792D01*
X240272859Y-85937546D01*
X240699925Y-87705058D01*
X240699036Y-89517484D01*
X240280748Y-91266981D01*
X239455617Y-92845704D01*
X238464601Y-93953263D01*
X237703895Y-94621684D01*
X238288879Y-93953263D01*
X239280795Y-92449799D01*
X239828755Y-90781433D01*
X239930535Y-89052640D01*
X239583911Y-87367895D01*
X238786657Y-85831675D01*
X238470383Y-85428328D01*
X237158481Y-84277036D01*
X235621632Y-83548945D01*
X233963048Y-83249530D01*
X232285942Y-83384267D01*
X230693528Y-83958633D01*
X229325202Y-84943129D01*
X228549311Y-85834213D01*
X227909161Y-86837483D01*
X227502890Y-87780292D01*
X227410211Y-88312095D01*
X227277335Y-88865305D01*
X226952853Y-89001478D01*
X226633920Y-88770683D01*
X226476869Y-88219817D01*
X226555098Y-87361423D01*
X226829831Y-86347148D01*
X227262296Y-85328634D01*
X227697803Y-84609880D01*
X229005466Y-83210365D01*
X230583405Y-82183196D01*
X232325719Y-81575772D01*
X234126502Y-81435487D01*
X234664630Y-81491928D01*
X234664630Y-81491928D01*
G37*
X234664630Y-81491928D02*
X236012546Y-81881652D01*
X237407802Y-82592505D01*
X238645153Y-83501976D01*
X239407281Y-84322792D01*
X240272859Y-85937546D01*
X240699925Y-87705058D01*
X240699036Y-89517484D01*
X240280748Y-91266981D01*
X239455617Y-92845704D01*
X238464601Y-93953263D01*
X237703895Y-94621684D01*
X238288879Y-93953263D01*
X239280795Y-92449799D01*
X239828755Y-90781433D01*
X239930535Y-89052640D01*
X239583911Y-87367895D01*
X238786657Y-85831675D01*
X238470383Y-85428328D01*
X237158481Y-84277036D01*
X235621632Y-83548945D01*
X233963048Y-83249530D01*
X232285942Y-83384267D01*
X230693528Y-83958633D01*
X229325202Y-84943129D01*
X228549311Y-85834213D01*
X227909161Y-86837483D01*
X227502890Y-87780292D01*
X227410211Y-88312095D01*
X227277335Y-88865305D01*
X226952853Y-89001478D01*
X226633920Y-88770683D01*
X226476869Y-88219817D01*
X226555098Y-87361423D01*
X226829831Y-86347148D01*
X227262296Y-85328634D01*
X227697803Y-84609880D01*
X229005466Y-83210365D01*
X230583405Y-82183196D01*
X232325719Y-81575772D01*
X234126502Y-81435487D01*
X234664630Y-81491928D01*
G36*
X234298065Y-94839033D02*
X234360565Y-94911305D01*
X233976608Y-94951857D01*
X233693369Y-94955310D01*
X233175587Y-94928986D01*
X233097032Y-94868599D01*
X233228591Y-94833637D01*
X233925255Y-94790590D01*
X234298065Y-94839033D01*
X234298065Y-94839033D01*
G37*
X234298065Y-94839033D02*
X234360565Y-94911305D01*
X233976608Y-94951857D01*
X233693369Y-94955310D01*
X233175587Y-94928986D01*
X233097032Y-94868599D01*
X233228591Y-94833637D01*
X233925255Y-94790590D01*
X234298065Y-94839033D01*
G36*
X234963369Y-96449874D02*
X234996956Y-96547461D01*
X234629158Y-96584731D01*
X234249594Y-96542714D01*
X234294947Y-96449874D01*
X234842343Y-96414560D01*
X234963369Y-96449874D01*
X234963369Y-96449874D01*
G37*
X234963369Y-96449874D02*
X234996956Y-96547461D01*
X234629158Y-96584731D01*
X234249594Y-96542714D01*
X234294947Y-96449874D01*
X234842343Y-96414560D01*
X234963369Y-96449874D01*
G36*
X224885626Y-87699668D02*
X225436848Y-88131501D01*
X226167667Y-88745056D01*
X226311961Y-88869970D01*
X227316406Y-89649540D01*
X228230955Y-90188335D01*
X228764009Y-90378118D01*
X229482363Y-90567150D01*
X229984486Y-90790197D01*
X230006101Y-90806113D01*
X230481930Y-90935362D01*
X231116964Y-90886522D01*
X231802855Y-90861739D01*
X232139553Y-91089182D01*
X232057786Y-91469771D01*
X231730334Y-91763816D01*
X231335231Y-92072095D01*
X231370241Y-92306165D01*
X231617855Y-92519170D01*
X231880684Y-92749224D01*
X231741253Y-92753823D01*
X231316502Y-92610381D01*
X230659486Y-92471835D01*
X230175479Y-92673205D01*
X230068744Y-92763816D01*
X229570581Y-93045725D01*
X229039291Y-92897099D01*
X228719575Y-92747950D01*
X228681056Y-92842610D01*
X228934782Y-93261093D01*
X229129487Y-93550211D01*
X229634251Y-94437636D01*
X230083262Y-95479614D01*
X230434955Y-96539116D01*
X230647765Y-97479113D01*
X230680126Y-98162578D01*
X230597610Y-98390171D01*
X230065457Y-98738364D01*
X229530560Y-98643179D01*
X229437754Y-98565368D01*
X229003019Y-98370087D01*
X228927459Y-98364842D01*
X228685676Y-98134541D01*
X228328228Y-97525338D01*
X228230911Y-97316352D01*
X228529818Y-97316352D01*
X228613369Y-97696421D01*
X228803175Y-98091345D01*
X228929562Y-98137771D01*
X228964288Y-97809121D01*
X228880737Y-97429052D01*
X228690930Y-97034128D01*
X228564544Y-96987701D01*
X228529818Y-97316352D01*
X228230911Y-97316352D01*
X227925166Y-96659780D01*
X227852160Y-96483714D01*
X227396094Y-95454900D01*
X227027526Y-94861212D01*
X227572666Y-94861212D01*
X227820790Y-95672718D01*
X228107558Y-96270734D01*
X228321641Y-96561562D01*
X228365172Y-96563213D01*
X228350701Y-96263838D01*
X228162732Y-95673267D01*
X228092743Y-95498801D01*
X227867464Y-94850856D01*
X227804516Y-94430681D01*
X227819637Y-94386047D01*
X227777881Y-94356963D01*
X227669215Y-94438434D01*
X227572666Y-94861212D01*
X227027526Y-94861212D01*
X227026966Y-94860310D01*
X226689241Y-94618756D01*
X226565394Y-94602586D01*
X226192051Y-94714413D01*
X226175584Y-95140122D01*
X226192448Y-95213714D01*
X226379148Y-95982332D01*
X226503406Y-96493263D01*
X226564824Y-97031221D01*
X226427216Y-97152506D01*
X226163321Y-96900970D01*
X225845880Y-96320467D01*
X225727309Y-96025368D01*
X225450301Y-95223229D01*
X225257024Y-94572385D01*
X225223091Y-94422656D01*
X225119268Y-94129124D01*
X224862484Y-94124076D01*
X224349301Y-94367463D01*
X223631736Y-94633484D01*
X223012828Y-94695937D01*
X223012459Y-94695881D01*
X222806282Y-94595021D01*
X222938392Y-94365444D01*
X223455898Y-93953841D01*
X224001263Y-93576905D01*
X224767512Y-93029261D01*
X225318326Y-92576092D01*
X225538340Y-92312626D01*
X225538632Y-92307877D01*
X225329961Y-92055204D01*
X224784505Y-91622327D01*
X224068105Y-91134357D01*
X223113142Y-90469520D01*
X222634141Y-90018332D01*
X222611389Y-89793815D01*
X223025174Y-89808994D01*
X223855783Y-90076891D01*
X224953399Y-90549480D01*
X225853681Y-90885450D01*
X226347861Y-90882335D01*
X226425509Y-90560752D01*
X226076195Y-89941320D01*
X225567145Y-89336217D01*
X224873500Y-88510320D01*
X224505287Y-87906434D01*
X224491147Y-87579210D01*
X224623952Y-87536421D01*
X224885626Y-87699668D01*
X224885626Y-87699668D01*
G37*
X224885626Y-87699668D02*
X225436848Y-88131501D01*
X226167667Y-88745056D01*
X226311961Y-88869970D01*
X227316406Y-89649540D01*
X228230955Y-90188335D01*
X228764009Y-90378118D01*
X229482363Y-90567150D01*
X229984486Y-90790197D01*
X230006101Y-90806113D01*
X230481930Y-90935362D01*
X231116964Y-90886522D01*
X231802855Y-90861739D01*
X232139553Y-91089182D01*
X232057786Y-91469771D01*
X231730334Y-91763816D01*
X231335231Y-92072095D01*
X231370241Y-92306165D01*
X231617855Y-92519170D01*
X231880684Y-92749224D01*
X231741253Y-92753823D01*
X231316502Y-92610381D01*
X230659486Y-92471835D01*
X230175479Y-92673205D01*
X230068744Y-92763816D01*
X229570581Y-93045725D01*
X229039291Y-92897099D01*
X228719575Y-92747950D01*
X228681056Y-92842610D01*
X228934782Y-93261093D01*
X229129487Y-93550211D01*
X229634251Y-94437636D01*
X230083262Y-95479614D01*
X230434955Y-96539116D01*
X230647765Y-97479113D01*
X230680126Y-98162578D01*
X230597610Y-98390171D01*
X230065457Y-98738364D01*
X229530560Y-98643179D01*
X229437754Y-98565368D01*
X229003019Y-98370087D01*
X228927459Y-98364842D01*
X228685676Y-98134541D01*
X228328228Y-97525338D01*
X228230911Y-97316352D01*
X228529818Y-97316352D01*
X228613369Y-97696421D01*
X228803175Y-98091345D01*
X228929562Y-98137771D01*
X228964288Y-97809121D01*
X228880737Y-97429052D01*
X228690930Y-97034128D01*
X228564544Y-96987701D01*
X228529818Y-97316352D01*
X228230911Y-97316352D01*
X227925166Y-96659780D01*
X227852160Y-96483714D01*
X227396094Y-95454900D01*
X227027526Y-94861212D01*
X227572666Y-94861212D01*
X227820790Y-95672718D01*
X228107558Y-96270734D01*
X228321641Y-96561562D01*
X228365172Y-96563213D01*
X228350701Y-96263838D01*
X228162732Y-95673267D01*
X228092743Y-95498801D01*
X227867464Y-94850856D01*
X227804516Y-94430681D01*
X227819637Y-94386047D01*
X227777881Y-94356963D01*
X227669215Y-94438434D01*
X227572666Y-94861212D01*
X227027526Y-94861212D01*
X227026966Y-94860310D01*
X226689241Y-94618756D01*
X226565394Y-94602586D01*
X226192051Y-94714413D01*
X226175584Y-95140122D01*
X226192448Y-95213714D01*
X226379148Y-95982332D01*
X226503406Y-96493263D01*
X226564824Y-97031221D01*
X226427216Y-97152506D01*
X226163321Y-96900970D01*
X225845880Y-96320467D01*
X225727309Y-96025368D01*
X225450301Y-95223229D01*
X225257024Y-94572385D01*
X225223091Y-94422656D01*
X225119268Y-94129124D01*
X224862484Y-94124076D01*
X224349301Y-94367463D01*
X223631736Y-94633484D01*
X223012828Y-94695937D01*
X223012459Y-94695881D01*
X222806282Y-94595021D01*
X222938392Y-94365444D01*
X223455898Y-93953841D01*
X224001263Y-93576905D01*
X224767512Y-93029261D01*
X225318326Y-92576092D01*
X225538340Y-92312626D01*
X225538632Y-92307877D01*
X225329961Y-92055204D01*
X224784505Y-91622327D01*
X224068105Y-91134357D01*
X223113142Y-90469520D01*
X222634141Y-90018332D01*
X222611389Y-89793815D01*
X223025174Y-89808994D01*
X223855783Y-90076891D01*
X224953399Y-90549480D01*
X225853681Y-90885450D01*
X226347861Y-90882335D01*
X226425509Y-90560752D01*
X226076195Y-89941320D01*
X225567145Y-89336217D01*
X224873500Y-88510320D01*
X224505287Y-87906434D01*
X224491147Y-87579210D01*
X224623952Y-87536421D01*
X224885626Y-87699668D01*
G36*
X209978161Y-97384583D02*
X210718741Y-98012851D01*
X211076777Y-98985847D01*
X211100737Y-99365300D01*
X210960192Y-100211472D01*
X210460431Y-100833691D01*
X210396259Y-100885436D01*
X209486250Y-101333405D01*
X208495803Y-101410078D01*
X207619326Y-101114214D01*
X207357579Y-100904842D01*
X206910724Y-100079871D01*
X206822842Y-99300631D01*
X207015479Y-98216082D01*
X207587387Y-97507042D01*
X208529557Y-97182718D01*
X208915183Y-97161684D01*
X209978161Y-97384583D01*
X209978161Y-97384583D01*
G37*
X209978161Y-97384583D02*
X210718741Y-98012851D01*
X211076777Y-98985847D01*
X211100737Y-99365300D01*
X210960192Y-100211472D01*
X210460431Y-100833691D01*
X210396259Y-100885436D01*
X209486250Y-101333405D01*
X208495803Y-101410078D01*
X207619326Y-101114214D01*
X207357579Y-100904842D01*
X206910724Y-100079871D01*
X206822842Y-99300631D01*
X207015479Y-98216082D01*
X207587387Y-97507042D01*
X208529557Y-97182718D01*
X208915183Y-97161684D01*
X209978161Y-97384583D01*
G36*
X240262733Y-95229364D02*
X240361758Y-96227735D01*
X240378521Y-97117839D01*
X240393000Y-98293392D01*
X240464637Y-99110428D01*
X240634046Y-99744911D01*
X240941837Y-100372807D01*
X241246526Y-100878763D01*
X241798321Y-101846458D01*
X242082077Y-102519223D01*
X242093270Y-102855465D01*
X241827377Y-102813589D01*
X241421649Y-102488816D01*
X240814057Y-101808342D01*
X240345309Y-101105368D01*
X239948548Y-100585382D01*
X239534436Y-100370105D01*
X239336083Y-100416889D01*
X239232852Y-100614312D01*
X239226868Y-101047984D01*
X239320255Y-101803511D01*
X239515137Y-102966501D01*
X239612397Y-103511684D01*
X239623145Y-104111936D01*
X239450843Y-104410817D01*
X239175604Y-104307059D01*
X239083609Y-104180105D01*
X238942430Y-103814137D01*
X238739100Y-103144833D01*
X238672246Y-102901844D01*
X238401686Y-102091048D01*
X238095852Y-101441301D01*
X238030695Y-101341957D01*
X237814833Y-101115401D01*
X237560683Y-101104119D01*
X237159815Y-101355321D01*
X236503799Y-101916216D01*
X236307318Y-102092288D01*
X235503665Y-102748849D01*
X234979780Y-103044701D01*
X234769288Y-102983828D01*
X234905815Y-102570215D01*
X235298705Y-101972790D01*
X235950485Y-101089351D01*
X234439497Y-100144222D01*
X233652395Y-99589443D01*
X233301254Y-99212689D01*
X233380889Y-99056041D01*
X233886113Y-99161580D01*
X234527317Y-99431506D01*
X235162386Y-99683862D01*
X235571338Y-99755998D01*
X235619691Y-99736063D01*
X235694128Y-99370597D01*
X235372971Y-98983390D01*
X234773414Y-98704329D01*
X234666678Y-98679819D01*
X233932529Y-98347115D01*
X233478216Y-97785070D01*
X233429893Y-97248587D01*
X236413463Y-97248587D01*
X236759308Y-97422898D01*
X237302842Y-97659110D01*
X238132661Y-98011297D01*
X238548521Y-98164100D01*
X238627266Y-98130393D01*
X238445745Y-97923049D01*
X238359186Y-97836073D01*
X237829791Y-97522933D01*
X237082423Y-97300313D01*
X237031893Y-97291749D01*
X236513457Y-97217252D01*
X236413463Y-97248587D01*
X233429893Y-97248587D01*
X233420719Y-97146738D01*
X233443342Y-97079220D01*
X233669906Y-96841181D01*
X234169413Y-96837521D01*
X234578699Y-96919789D01*
X235474203Y-97105272D01*
X235884258Y-97128693D01*
X235833174Y-96989496D01*
X235698632Y-96894315D01*
X235432999Y-96685401D01*
X235634044Y-96632155D01*
X235700397Y-96631041D01*
X236237602Y-96699241D01*
X236915075Y-96859785D01*
X237612813Y-96950188D01*
X238207750Y-96687080D01*
X238416360Y-96525575D01*
X239007230Y-95933636D01*
X239416878Y-95356947D01*
X239791976Y-94797053D01*
X240073367Y-94753498D01*
X240262733Y-95229364D01*
X240262733Y-95229364D01*
G37*
X240262733Y-95229364D02*
X240361758Y-96227735D01*
X240378521Y-97117839D01*
X240393000Y-98293392D01*
X240464637Y-99110428D01*
X240634046Y-99744911D01*
X240941837Y-100372807D01*
X241246526Y-100878763D01*
X241798321Y-101846458D01*
X242082077Y-102519223D01*
X242093270Y-102855465D01*
X241827377Y-102813589D01*
X241421649Y-102488816D01*
X240814057Y-101808342D01*
X240345309Y-101105368D01*
X239948548Y-100585382D01*
X239534436Y-100370105D01*
X239336083Y-100416889D01*
X239232852Y-100614312D01*
X239226868Y-101047984D01*
X239320255Y-101803511D01*
X239515137Y-102966501D01*
X239612397Y-103511684D01*
X239623145Y-104111936D01*
X239450843Y-104410817D01*
X239175604Y-104307059D01*
X239083609Y-104180105D01*
X238942430Y-103814137D01*
X238739100Y-103144833D01*
X238672246Y-102901844D01*
X238401686Y-102091048D01*
X238095852Y-101441301D01*
X238030695Y-101341957D01*
X237814833Y-101115401D01*
X237560683Y-101104119D01*
X237159815Y-101355321D01*
X236503799Y-101916216D01*
X236307318Y-102092288D01*
X235503665Y-102748849D01*
X234979780Y-103044701D01*
X234769288Y-102983828D01*
X234905815Y-102570215D01*
X235298705Y-101972790D01*
X235950485Y-101089351D01*
X234439497Y-100144222D01*
X233652395Y-99589443D01*
X233301254Y-99212689D01*
X233380889Y-99056041D01*
X233886113Y-99161580D01*
X234527317Y-99431506D01*
X235162386Y-99683862D01*
X235571338Y-99755998D01*
X235619691Y-99736063D01*
X235694128Y-99370597D01*
X235372971Y-98983390D01*
X234773414Y-98704329D01*
X234666678Y-98679819D01*
X233932529Y-98347115D01*
X233478216Y-97785070D01*
X233429893Y-97248587D01*
X236413463Y-97248587D01*
X236759308Y-97422898D01*
X237302842Y-97659110D01*
X238132661Y-98011297D01*
X238548521Y-98164100D01*
X238627266Y-98130393D01*
X238445745Y-97923049D01*
X238359186Y-97836073D01*
X237829791Y-97522933D01*
X237082423Y-97300313D01*
X237031893Y-97291749D01*
X236513457Y-97217252D01*
X236413463Y-97248587D01*
X233429893Y-97248587D01*
X233420719Y-97146738D01*
X233443342Y-97079220D01*
X233669906Y-96841181D01*
X234169413Y-96837521D01*
X234578699Y-96919789D01*
X235474203Y-97105272D01*
X235884258Y-97128693D01*
X235833174Y-96989496D01*
X235698632Y-96894315D01*
X235432999Y-96685401D01*
X235634044Y-96632155D01*
X235700397Y-96631041D01*
X236237602Y-96699241D01*
X236915075Y-96859785D01*
X237612813Y-96950188D01*
X238207750Y-96687080D01*
X238416360Y-96525575D01*
X239007230Y-95933636D01*
X239416878Y-95356947D01*
X239791976Y-94797053D01*
X240073367Y-94753498D01*
X240262733Y-95229364D01*
G36*
X230319287Y-103791368D02*
X230351263Y-103948395D01*
X230135935Y-104294923D01*
X229670421Y-104483538D01*
X229225424Y-104431693D01*
X229114118Y-104325638D01*
X229156617Y-103989733D01*
X229541986Y-103693110D01*
X230017053Y-103582620D01*
X230319287Y-103791368D01*
X230319287Y-103791368D01*
G37*
X230319287Y-103791368D02*
X230351263Y-103948395D01*
X230135935Y-104294923D01*
X229670421Y-104483538D01*
X229225424Y-104431693D01*
X229114118Y-104325638D01*
X229156617Y-103989733D01*
X229541986Y-103693110D01*
X230017053Y-103582620D01*
X230319287Y-103791368D01*
G36*
X223086721Y-104899565D02*
X223131537Y-105485915D01*
X223132316Y-105670510D01*
X223190918Y-106391441D01*
X223336994Y-106857340D01*
X223391846Y-106915787D01*
X223642203Y-106857040D01*
X223805274Y-106460274D01*
X223848108Y-105919438D01*
X223737750Y-105428481D01*
X223664171Y-105312949D01*
X223493824Y-104990940D01*
X223567473Y-104911717D01*
X223992931Y-104844967D01*
X224385632Y-104751212D01*
X224756281Y-104709282D01*
X224945886Y-104927701D01*
X225037825Y-105529398D01*
X225054053Y-105736715D01*
X225191200Y-106516107D01*
X225434166Y-106959997D01*
X225504932Y-107000021D01*
X225738183Y-106953501D01*
X225791649Y-106533182D01*
X225756125Y-106125973D01*
X225727517Y-105442797D01*
X225913638Y-105080799D01*
X226319001Y-104872805D01*
X226893272Y-104751079D01*
X227096440Y-104909846D01*
X227302260Y-105058026D01*
X227569895Y-104893789D01*
X228019629Y-104726197D01*
X228299971Y-104877167D01*
X228910412Y-105037134D01*
X229499524Y-104929603D01*
X230072866Y-104797226D01*
X230396416Y-104884662D01*
X230558322Y-105292721D01*
X230646733Y-106122213D01*
X230656430Y-106252686D01*
X230690076Y-106993187D01*
X230583326Y-107356051D01*
X230240664Y-107496493D01*
X229864051Y-107540307D01*
X229281406Y-107567040D01*
X229076228Y-107393004D01*
X229125099Y-106871943D01*
X229156607Y-106701979D01*
X229179988Y-106026974D01*
X229016654Y-105581925D01*
X228740884Y-105474014D01*
X228477159Y-105721559D01*
X228077951Y-105936805D01*
X227704946Y-105914529D01*
X227260782Y-105911043D01*
X227142842Y-106261462D01*
X227271546Y-106762828D01*
X227410211Y-106920631D01*
X227683316Y-107186242D01*
X227498284Y-107374301D01*
X226834289Y-107489861D01*
X225670504Y-107537977D01*
X224865672Y-107538065D01*
X223612866Y-107521172D01*
X222795153Y-107483242D01*
X222312888Y-107402057D01*
X222066429Y-107255398D01*
X221956133Y-107021044D01*
X221924619Y-106882251D01*
X221761856Y-106091800D01*
X221656696Y-105583789D01*
X221621951Y-105085929D01*
X221723538Y-104911717D01*
X222122343Y-104845622D01*
X222530737Y-104746849D01*
X222913714Y-104695064D01*
X223086721Y-104899565D01*
X223086721Y-104899565D01*
G37*
X223086721Y-104899565D02*
X223131537Y-105485915D01*
X223132316Y-105670510D01*
X223190918Y-106391441D01*
X223336994Y-106857340D01*
X223391846Y-106915787D01*
X223642203Y-106857040D01*
X223805274Y-106460274D01*
X223848108Y-105919438D01*
X223737750Y-105428481D01*
X223664171Y-105312949D01*
X223493824Y-104990940D01*
X223567473Y-104911717D01*
X223992931Y-104844967D01*
X224385632Y-104751212D01*
X224756281Y-104709282D01*
X224945886Y-104927701D01*
X225037825Y-105529398D01*
X225054053Y-105736715D01*
X225191200Y-106516107D01*
X225434166Y-106959997D01*
X225504932Y-107000021D01*
X225738183Y-106953501D01*
X225791649Y-106533182D01*
X225756125Y-106125973D01*
X225727517Y-105442797D01*
X225913638Y-105080799D01*
X226319001Y-104872805D01*
X226893272Y-104751079D01*
X227096440Y-104909846D01*
X227302260Y-105058026D01*
X227569895Y-104893789D01*
X228019629Y-104726197D01*
X228299971Y-104877167D01*
X228910412Y-105037134D01*
X229499524Y-104929603D01*
X230072866Y-104797226D01*
X230396416Y-104884662D01*
X230558322Y-105292721D01*
X230646733Y-106122213D01*
X230656430Y-106252686D01*
X230690076Y-106993187D01*
X230583326Y-107356051D01*
X230240664Y-107496493D01*
X229864051Y-107540307D01*
X229281406Y-107567040D01*
X229076228Y-107393004D01*
X229125099Y-106871943D01*
X229156607Y-106701979D01*
X229179988Y-106026974D01*
X229016654Y-105581925D01*
X228740884Y-105474014D01*
X228477159Y-105721559D01*
X228077951Y-105936805D01*
X227704946Y-105914529D01*
X227260782Y-105911043D01*
X227142842Y-106261462D01*
X227271546Y-106762828D01*
X227410211Y-106920631D01*
X227683316Y-107186242D01*
X227498284Y-107374301D01*
X226834289Y-107489861D01*
X225670504Y-107537977D01*
X224865672Y-107538065D01*
X223612866Y-107521172D01*
X222795153Y-107483242D01*
X222312888Y-107402057D01*
X222066429Y-107255398D01*
X221956133Y-107021044D01*
X221924619Y-106882251D01*
X221761856Y-106091800D01*
X221656696Y-105583789D01*
X221621951Y-105085929D01*
X221723538Y-104911717D01*
X222122343Y-104845622D01*
X222530737Y-104746849D01*
X222913714Y-104695064D01*
X223086721Y-104899565D01*
G36*
X220651579Y-104893721D02*
X221129203Y-105285560D01*
X221255893Y-105759011D01*
X221023663Y-106099803D01*
X220683303Y-106046554D01*
X220456188Y-105848214D01*
X220011686Y-105483761D01*
X219737085Y-105583545D01*
X219704773Y-106051684D01*
X219954917Y-106544808D01*
X220542138Y-106739472D01*
X221041063Y-106846688D01*
X221086601Y-107053950D01*
X220977295Y-107207367D01*
X220400378Y-107533194D01*
X219639240Y-107539476D01*
X218927010Y-107240976D01*
X218730487Y-107065089D01*
X218395837Y-106387407D01*
X218486414Y-105709731D01*
X218904287Y-105142750D01*
X219551527Y-104797153D01*
X220330204Y-104783627D01*
X220651579Y-104893721D01*
X220651579Y-104893721D01*
G37*
X220651579Y-104893721D02*
X221129203Y-105285560D01*
X221255893Y-105759011D01*
X221023663Y-106099803D01*
X220683303Y-106046554D01*
X220456188Y-105848214D01*
X220011686Y-105483761D01*
X219737085Y-105583545D01*
X219704773Y-106051684D01*
X219954917Y-106544808D01*
X220542138Y-106739472D01*
X221041063Y-106846688D01*
X221086601Y-107053950D01*
X220977295Y-107207367D01*
X220400378Y-107533194D01*
X219639240Y-107539476D01*
X218927010Y-107240976D01*
X218730487Y-107065089D01*
X218395837Y-106387407D01*
X218486414Y-105709731D01*
X218904287Y-105142750D01*
X219551527Y-104797153D01*
X220330204Y-104783627D01*
X220651579Y-104893721D01*
G36*
X217159917Y-104773925D02*
X217739528Y-105043418D01*
X218039550Y-105567769D01*
X218052316Y-105726880D01*
X217921964Y-106112520D01*
X217442364Y-106247455D01*
X217250211Y-106252210D01*
X216687026Y-106329655D01*
X216448167Y-106516252D01*
X216448105Y-106519578D01*
X216680440Y-106707307D01*
X217240231Y-106786926D01*
X217250211Y-106786947D01*
X217855976Y-106880246D01*
X218042835Y-107103187D01*
X217760157Y-107370337D01*
X217629396Y-107426762D01*
X216644256Y-107590523D01*
X215838257Y-107295461D01*
X215480553Y-106909679D01*
X215191602Y-106284715D01*
X215279757Y-105700954D01*
X215331612Y-105580213D01*
X215442455Y-105450105D01*
X216448105Y-105450105D01*
X216651566Y-105709704D01*
X216715474Y-105717473D01*
X216975073Y-105514013D01*
X216982842Y-105450105D01*
X216779382Y-105190506D01*
X216715474Y-105182736D01*
X216455875Y-105386197D01*
X216448105Y-105450105D01*
X215442455Y-105450105D01*
X215797154Y-105033762D01*
X216459524Y-104767853D01*
X217159917Y-104773925D01*
X217159917Y-104773925D01*
G37*
X217159917Y-104773925D02*
X217739528Y-105043418D01*
X218039550Y-105567769D01*
X218052316Y-105726880D01*
X217921964Y-106112520D01*
X217442364Y-106247455D01*
X217250211Y-106252210D01*
X216687026Y-106329655D01*
X216448167Y-106516252D01*
X216448105Y-106519578D01*
X216680440Y-106707307D01*
X217240231Y-106786926D01*
X217250211Y-106786947D01*
X217855976Y-106880246D01*
X218042835Y-107103187D01*
X217760157Y-107370337D01*
X217629396Y-107426762D01*
X216644256Y-107590523D01*
X215838257Y-107295461D01*
X215480553Y-106909679D01*
X215191602Y-106284715D01*
X215279757Y-105700954D01*
X215331612Y-105580213D01*
X215442455Y-105450105D01*
X216448105Y-105450105D01*
X216651566Y-105709704D01*
X216715474Y-105717473D01*
X216975073Y-105514013D01*
X216982842Y-105450105D01*
X216779382Y-105190506D01*
X216715474Y-105182736D01*
X216455875Y-105386197D01*
X216448105Y-105450105D01*
X215442455Y-105450105D01*
X215797154Y-105033762D01*
X216459524Y-104767853D01*
X217159917Y-104773925D01*
G36*
X213295029Y-103630764D02*
X214162141Y-103809891D01*
X214667444Y-104157825D01*
X214673524Y-104167281D01*
X214826208Y-104652948D01*
X214624789Y-104855417D01*
X214194779Y-104664022D01*
X213621821Y-104427633D01*
X213322778Y-104428400D01*
X213128122Y-104548705D01*
X213350236Y-104794245D01*
X213844671Y-105109883D01*
X214556067Y-105708927D01*
X214858958Y-106362258D01*
X214729476Y-106960828D01*
X214326735Y-107312277D01*
X213607982Y-107530280D01*
X212756319Y-107574301D01*
X212011498Y-107448345D01*
X211688947Y-107268210D01*
X211415135Y-106740817D01*
X211368105Y-106419499D01*
X211398250Y-106091633D01*
X211567507Y-106106465D01*
X211994116Y-106479757D01*
X212022922Y-106506798D01*
X212706858Y-106946011D01*
X213159238Y-106932684D01*
X213393109Y-106775998D01*
X213247005Y-106570968D01*
X212670671Y-106240757D01*
X211832229Y-105670414D01*
X211505758Y-105066972D01*
X211668811Y-104378928D01*
X211778825Y-104194669D01*
X212159752Y-103771117D01*
X212679962Y-103617317D01*
X213295029Y-103630764D01*
X213295029Y-103630764D01*
G37*
X213295029Y-103630764D02*
X214162141Y-103809891D01*
X214667444Y-104157825D01*
X214673524Y-104167281D01*
X214826208Y-104652948D01*
X214624789Y-104855417D01*
X214194779Y-104664022D01*
X213621821Y-104427633D01*
X213322778Y-104428400D01*
X213128122Y-104548705D01*
X213350236Y-104794245D01*
X213844671Y-105109883D01*
X214556067Y-105708927D01*
X214858958Y-106362258D01*
X214729476Y-106960828D01*
X214326735Y-107312277D01*
X213607982Y-107530280D01*
X212756319Y-107574301D01*
X212011498Y-107448345D01*
X211688947Y-107268210D01*
X211415135Y-106740817D01*
X211368105Y-106419499D01*
X211398250Y-106091633D01*
X211567507Y-106106465D01*
X211994116Y-106479757D01*
X212022922Y-106506798D01*
X212706858Y-106946011D01*
X213159238Y-106932684D01*
X213393109Y-106775998D01*
X213247005Y-106570968D01*
X212670671Y-106240757D01*
X211832229Y-105670414D01*
X211505758Y-105066972D01*
X211668811Y-104378928D01*
X211778825Y-104194669D01*
X212159752Y-103771117D01*
X212679962Y-103617317D01*
X213295029Y-103630764D01*
G36*
X232758664Y-104319893D02*
X232820263Y-104435000D01*
X233142169Y-104638073D01*
X233859825Y-104754108D01*
X234246228Y-104769211D01*
X235046162Y-104806646D01*
X235457145Y-104941414D01*
X235623878Y-105236794D01*
X235650385Y-105383263D01*
X235823011Y-105853484D01*
X236015779Y-105984842D01*
X236185821Y-105773778D01*
X236160414Y-105467372D01*
X236240560Y-104984078D01*
X236618442Y-104710622D01*
X237023056Y-104774009D01*
X237018902Y-105054505D01*
X236819909Y-105656884D01*
X236492525Y-106436477D01*
X236103198Y-107248612D01*
X235718374Y-107948621D01*
X235404503Y-108391831D01*
X235332866Y-108453905D01*
X234724356Y-108647276D01*
X234165540Y-108531700D01*
X233928653Y-108270277D01*
X233880189Y-107770661D01*
X234076776Y-107470046D01*
X234402376Y-107526620D01*
X234445440Y-107565756D01*
X234844206Y-107853169D01*
X234988723Y-107698163D01*
X234863337Y-107136875D01*
X234753897Y-106853789D01*
X234253174Y-105861196D01*
X233766816Y-105362077D01*
X233255516Y-105317866D01*
X233206101Y-105335202D01*
X232870908Y-105665614D01*
X232758717Y-106166220D01*
X232873401Y-106613825D01*
X233180912Y-106786947D01*
X233489765Y-106950001D01*
X233492842Y-107121157D01*
X233177320Y-107346515D01*
X232554152Y-107453897D01*
X232467930Y-107455368D01*
X231892618Y-107421123D01*
X231614620Y-107218877D01*
X231503134Y-106699362D01*
X231472206Y-106319052D01*
X231352157Y-105598104D01*
X231148716Y-105205199D01*
X231071153Y-105173841D01*
X231003792Y-105047142D01*
X231249766Y-104760836D01*
X231665336Y-104432852D01*
X232106762Y-104181118D01*
X232363866Y-104113263D01*
X232758664Y-104319893D01*
X232758664Y-104319893D01*
G37*
X232758664Y-104319893D02*
X232820263Y-104435000D01*
X233142169Y-104638073D01*
X233859825Y-104754108D01*
X234246228Y-104769211D01*
X235046162Y-104806646D01*
X235457145Y-104941414D01*
X235623878Y-105236794D01*
X235650385Y-105383263D01*
X235823011Y-105853484D01*
X236015779Y-105984842D01*
X236185821Y-105773778D01*
X236160414Y-105467372D01*
X236240560Y-104984078D01*
X236618442Y-104710622D01*
X237023056Y-104774009D01*
X237018902Y-105054505D01*
X236819909Y-105656884D01*
X236492525Y-106436477D01*
X236103198Y-107248612D01*
X235718374Y-107948621D01*
X235404503Y-108391831D01*
X235332866Y-108453905D01*
X234724356Y-108647276D01*
X234165540Y-108531700D01*
X233928653Y-108270277D01*
X233880189Y-107770661D01*
X234076776Y-107470046D01*
X234402376Y-107526620D01*
X234445440Y-107565756D01*
X234844206Y-107853169D01*
X234988723Y-107698163D01*
X234863337Y-107136875D01*
X234753897Y-106853789D01*
X234253174Y-105861196D01*
X233766816Y-105362077D01*
X233255516Y-105317866D01*
X233206101Y-105335202D01*
X232870908Y-105665614D01*
X232758717Y-106166220D01*
X232873401Y-106613825D01*
X233180912Y-106786947D01*
X233489765Y-106950001D01*
X233492842Y-107121157D01*
X233177320Y-107346515D01*
X232554152Y-107453897D01*
X232467930Y-107455368D01*
X231892618Y-107421123D01*
X231614620Y-107218877D01*
X231503134Y-106699362D01*
X231472206Y-106319052D01*
X231352157Y-105598104D01*
X231148716Y-105205199D01*
X231071153Y-105173841D01*
X231003792Y-105047142D01*
X231249766Y-104760836D01*
X231665336Y-104432852D01*
X232106762Y-104181118D01*
X232363866Y-104113263D01*
X232758664Y-104319893D01*
G36*
X221682139Y-109257834D02*
X222286220Y-109547515D01*
X222335573Y-109600777D01*
X222560074Y-109969332D01*
X222411354Y-110199124D01*
X221816803Y-110374932D01*
X221642294Y-110410237D01*
X220738716Y-110367631D01*
X220324947Y-110150735D01*
X219973383Y-109814052D01*
X220047649Y-109577044D01*
X220191263Y-109469806D01*
X220896134Y-109226575D01*
X221682139Y-109257834D01*
X221682139Y-109257834D01*
G37*
X221682139Y-109257834D02*
X222286220Y-109547515D01*
X222335573Y-109600777D01*
X222560074Y-109969332D01*
X222411354Y-110199124D01*
X221816803Y-110374932D01*
X221642294Y-110410237D01*
X220738716Y-110367631D01*
X220324947Y-110150735D01*
X219973383Y-109814052D01*
X220047649Y-109577044D01*
X220191263Y-109469806D01*
X220896134Y-109226575D01*
X221682139Y-109257834D01*
G36*
X195943943Y-106472778D02*
X196669315Y-107047850D01*
X197103752Y-107847477D01*
X197191180Y-108741711D01*
X196875527Y-109600603D01*
X196578768Y-109948762D01*
X195714741Y-110445410D01*
X194720230Y-110556450D01*
X193781190Y-110290086D01*
X193185562Y-109799061D01*
X192790768Y-108922686D01*
X192830052Y-107996103D01*
X193235484Y-107153305D01*
X193939132Y-106528286D01*
X194873066Y-106255040D01*
X194983707Y-106252210D01*
X195943943Y-106472778D01*
X195943943Y-106472778D01*
G37*
X195943943Y-106472778D02*
X196669315Y-107047850D01*
X197103752Y-107847477D01*
X197191180Y-108741711D01*
X196875527Y-109600603D01*
X196578768Y-109948762D01*
X195714741Y-110445410D01*
X194720230Y-110556450D01*
X193781190Y-110290086D01*
X193185562Y-109799061D01*
X192790768Y-108922686D01*
X192830052Y-107996103D01*
X193235484Y-107153305D01*
X193939132Y-106528286D01*
X194873066Y-106255040D01*
X194983707Y-106252210D01*
X195943943Y-106472778D01*
G36*
X227854605Y-109331957D02*
X227853236Y-109613603D01*
X227682391Y-109855886D01*
X227472746Y-110435792D01*
X227493830Y-111015045D01*
X227535991Y-111798078D01*
X227435602Y-112687226D01*
X227421591Y-112752276D01*
X227315465Y-113418061D01*
X227413633Y-113701887D01*
X227572052Y-113738526D01*
X227954127Y-113850447D01*
X227949171Y-114107088D01*
X227635514Y-114389769D01*
X227091488Y-114579807D01*
X227009158Y-114591376D01*
X226393730Y-114605705D01*
X226082625Y-114500370D01*
X226073369Y-114468926D01*
X225858932Y-114353570D01*
X225471790Y-114410144D01*
X224636109Y-114629065D01*
X224098167Y-114687706D01*
X223649392Y-114597827D01*
X223451013Y-114524068D01*
X223056782Y-114284797D01*
X222903869Y-113873663D01*
X222916276Y-113166553D01*
X222922713Y-113140946D01*
X223732562Y-113140946D01*
X223861610Y-113372397D01*
X224333573Y-113468375D01*
X224975147Y-113432916D01*
X225613029Y-113270054D01*
X225955424Y-113089200D01*
X226309063Y-112790007D01*
X226231411Y-112623196D01*
X225991505Y-112520094D01*
X225387431Y-112457082D01*
X224656466Y-112586563D01*
X224026232Y-112845976D01*
X223732562Y-113140946D01*
X222922713Y-113140946D01*
X223169354Y-112159810D01*
X223699582Y-111467352D01*
X224416359Y-111164574D01*
X225164405Y-111295784D01*
X225783310Y-111501321D01*
X226028180Y-111357379D01*
X225918805Y-110833751D01*
X225737782Y-110420790D01*
X225306358Y-109516084D01*
X226516473Y-109334616D01*
X227421648Y-109244608D01*
X227854605Y-109331957D01*
X227854605Y-109331957D01*
G37*
X227854605Y-109331957D02*
X227853236Y-109613603D01*
X227682391Y-109855886D01*
X227472746Y-110435792D01*
X227493830Y-111015045D01*
X227535991Y-111798078D01*
X227435602Y-112687226D01*
X227421591Y-112752276D01*
X227315465Y-113418061D01*
X227413633Y-113701887D01*
X227572052Y-113738526D01*
X227954127Y-113850447D01*
X227949171Y-114107088D01*
X227635514Y-114389769D01*
X227091488Y-114579807D01*
X227009158Y-114591376D01*
X226393730Y-114605705D01*
X226082625Y-114500370D01*
X226073369Y-114468926D01*
X225858932Y-114353570D01*
X225471790Y-114410144D01*
X224636109Y-114629065D01*
X224098167Y-114687706D01*
X223649392Y-114597827D01*
X223451013Y-114524068D01*
X223056782Y-114284797D01*
X222903869Y-113873663D01*
X222916276Y-113166553D01*
X222922713Y-113140946D01*
X223732562Y-113140946D01*
X223861610Y-113372397D01*
X224333573Y-113468375D01*
X224975147Y-113432916D01*
X225613029Y-113270054D01*
X225955424Y-113089200D01*
X226309063Y-112790007D01*
X226231411Y-112623196D01*
X225991505Y-112520094D01*
X225387431Y-112457082D01*
X224656466Y-112586563D01*
X224026232Y-112845976D01*
X223732562Y-113140946D01*
X222922713Y-113140946D01*
X223169354Y-112159810D01*
X223699582Y-111467352D01*
X224416359Y-111164574D01*
X225164405Y-111295784D01*
X225783310Y-111501321D01*
X226028180Y-111357379D01*
X225918805Y-110833751D01*
X225737782Y-110420790D01*
X225306358Y-109516084D01*
X226516473Y-109334616D01*
X227421648Y-109244608D01*
X227854605Y-109331957D01*
G36*
X221868571Y-112305436D02*
X221811227Y-113170930D01*
X221883930Y-113648563D01*
X222111671Y-113874792D01*
X222159713Y-113895080D01*
X222607640Y-114162633D01*
X222565109Y-114403590D01*
X222076397Y-114590358D01*
X221185781Y-114695343D01*
X220857572Y-114706572D01*
X219973285Y-114699346D01*
X219348049Y-114649066D01*
X219121790Y-114570360D01*
X219321115Y-114314917D01*
X219656526Y-114067943D01*
X220062023Y-113541199D01*
X220190568Y-112798933D01*
X220032101Y-112085233D01*
X219752533Y-111738775D01*
X219569373Y-111536799D01*
X219732511Y-111381071D01*
X220319225Y-111221778D01*
X220664549Y-111150892D01*
X222015295Y-110883816D01*
X221868571Y-112305436D01*
X221868571Y-112305436D01*
G37*
X221868571Y-112305436D02*
X221811227Y-113170930D01*
X221883930Y-113648563D01*
X222111671Y-113874792D01*
X222159713Y-113895080D01*
X222607640Y-114162633D01*
X222565109Y-114403590D01*
X222076397Y-114590358D01*
X221185781Y-114695343D01*
X220857572Y-114706572D01*
X219973285Y-114699346D01*
X219348049Y-114649066D01*
X219121790Y-114570360D01*
X219321115Y-114314917D01*
X219656526Y-114067943D01*
X220062023Y-113541199D01*
X220190568Y-112798933D01*
X220032101Y-112085233D01*
X219752533Y-111738775D01*
X219569373Y-111536799D01*
X219732511Y-111381071D01*
X220319225Y-111221778D01*
X220664549Y-111150892D01*
X222015295Y-110883816D01*
X221868571Y-112305436D01*
G36*
X217640851Y-109553448D02*
X218304194Y-109852238D01*
X218574281Y-110387513D01*
X218587053Y-110583578D01*
X218472877Y-110904908D01*
X218044214Y-111044093D01*
X217533358Y-111064842D01*
X216690522Y-110983846D01*
X216332830Y-110753421D01*
X216475950Y-110392412D01*
X216770492Y-110147346D01*
X217152550Y-109859125D01*
X217109836Y-109747155D01*
X216590053Y-109728019D01*
X216507596Y-109728000D01*
X215851773Y-109853502D01*
X215638699Y-110250750D01*
X215854941Y-110950854D01*
X215922776Y-111082419D01*
X216381183Y-111485905D01*
X217143511Y-111599578D01*
X218222268Y-111759390D01*
X218900595Y-112191882D01*
X219142016Y-112826641D01*
X218910057Y-113593252D01*
X218465522Y-114151732D01*
X217991553Y-114534969D01*
X217430582Y-114734241D01*
X216593842Y-114804058D01*
X216192890Y-114808000D01*
X215163849Y-114761498D01*
X214499475Y-114594790D01*
X214041790Y-114273263D01*
X213587455Y-113696121D01*
X213601181Y-113276524D01*
X214024212Y-112945828D01*
X214896948Y-112696088D01*
X215787416Y-112769179D01*
X216180737Y-112946835D01*
X216378090Y-113175942D01*
X216229710Y-113471487D01*
X215779684Y-113877202D01*
X214977579Y-114537975D01*
X215661740Y-114539303D01*
X216394060Y-114400763D01*
X216834846Y-114183106D01*
X217174989Y-113667519D01*
X217122964Y-113052538D01*
X216748148Y-112508806D01*
X216119917Y-112206964D01*
X216026434Y-112194685D01*
X214991567Y-112064919D01*
X214386137Y-111881247D01*
X214104845Y-111590545D01*
X214041790Y-111193432D01*
X214268852Y-110332727D01*
X214935514Y-109757513D01*
X216019993Y-109482970D01*
X216528316Y-109460631D01*
X217640851Y-109553448D01*
X217640851Y-109553448D01*
G37*
X217640851Y-109553448D02*
X218304194Y-109852238D01*
X218574281Y-110387513D01*
X218587053Y-110583578D01*
X218472877Y-110904908D01*
X218044214Y-111044093D01*
X217533358Y-111064842D01*
X216690522Y-110983846D01*
X216332830Y-110753421D01*
X216475950Y-110392412D01*
X216770492Y-110147346D01*
X217152550Y-109859125D01*
X217109836Y-109747155D01*
X216590053Y-109728019D01*
X216507596Y-109728000D01*
X215851773Y-109853502D01*
X215638699Y-110250750D01*
X215854941Y-110950854D01*
X215922776Y-111082419D01*
X216381183Y-111485905D01*
X217143511Y-111599578D01*
X218222268Y-111759390D01*
X218900595Y-112191882D01*
X219142016Y-112826641D01*
X218910057Y-113593252D01*
X218465522Y-114151732D01*
X217991553Y-114534969D01*
X217430582Y-114734241D01*
X216593842Y-114804058D01*
X216192890Y-114808000D01*
X215163849Y-114761498D01*
X214499475Y-114594790D01*
X214041790Y-114273263D01*
X213587455Y-113696121D01*
X213601181Y-113276524D01*
X214024212Y-112945828D01*
X214896948Y-112696088D01*
X215787416Y-112769179D01*
X216180737Y-112946835D01*
X216378090Y-113175942D01*
X216229710Y-113471487D01*
X215779684Y-113877202D01*
X214977579Y-114537975D01*
X215661740Y-114539303D01*
X216394060Y-114400763D01*
X216834846Y-114183106D01*
X217174989Y-113667519D01*
X217122964Y-113052538D01*
X216748148Y-112508806D01*
X216119917Y-112206964D01*
X216026434Y-112194685D01*
X214991567Y-112064919D01*
X214386137Y-111881247D01*
X214104845Y-111590545D01*
X214041790Y-111193432D01*
X214268852Y-110332727D01*
X214935514Y-109757513D01*
X216019993Y-109482970D01*
X216528316Y-109460631D01*
X217640851Y-109553448D01*
G36*
X210589290Y-109628057D02*
X211489114Y-109644261D01*
X212182947Y-109674510D01*
X212370737Y-109690724D01*
X212609849Y-109945104D01*
X212696704Y-110487824D01*
X212626374Y-111093185D01*
X212410665Y-111519545D01*
X212314870Y-111794269D01*
X212678033Y-111992089D01*
X213156126Y-112382264D01*
X213307809Y-113039368D01*
X213126541Y-113801812D01*
X212773062Y-114340105D01*
X212309497Y-114631099D01*
X211538346Y-114758317D01*
X210383317Y-114727782D01*
X209296000Y-114614586D01*
X208639714Y-114418916D01*
X208427053Y-114106859D01*
X208556918Y-113840501D01*
X208685309Y-113866578D01*
X208818317Y-113743530D01*
X208857292Y-113241120D01*
X208841352Y-112938488D01*
X209925069Y-112938488D01*
X210132838Y-113239312D01*
X210357088Y-113380946D01*
X211242175Y-113691707D01*
X212013038Y-113638047D01*
X212411665Y-113368697D01*
X212508975Y-113003584D01*
X212100726Y-112768714D01*
X211201775Y-112671397D01*
X210989747Y-112669052D01*
X210217809Y-112740408D01*
X209925069Y-112938488D01*
X208841352Y-112938488D01*
X208818426Y-112503236D01*
X208717910Y-111673771D01*
X208571936Y-110896615D01*
X208559613Y-110855759D01*
X209589834Y-110855759D01*
X209641629Y-111083316D01*
X210014891Y-111269176D01*
X210657275Y-111325955D01*
X211320406Y-111259252D01*
X211755908Y-111074666D01*
X211787633Y-111034949D01*
X211788040Y-110680120D01*
X211405085Y-110446270D01*
X210787918Y-110405615D01*
X210568221Y-110444511D01*
X209859507Y-110650816D01*
X209589834Y-110855759D01*
X208559613Y-110855759D01*
X208396696Y-110315658D01*
X208261417Y-110099577D01*
X207945906Y-109795490D01*
X207892387Y-109698524D01*
X208135024Y-109661131D01*
X208764130Y-109636750D01*
X209631590Y-109625639D01*
X210589290Y-109628057D01*
X210589290Y-109628057D01*
G37*
X210589290Y-109628057D02*
X211489114Y-109644261D01*
X212182947Y-109674510D01*
X212370737Y-109690724D01*
X212609849Y-109945104D01*
X212696704Y-110487824D01*
X212626374Y-111093185D01*
X212410665Y-111519545D01*
X212314870Y-111794269D01*
X212678033Y-111992089D01*
X213156126Y-112382264D01*
X213307809Y-113039368D01*
X213126541Y-113801812D01*
X212773062Y-114340105D01*
X212309497Y-114631099D01*
X211538346Y-114758317D01*
X210383317Y-114727782D01*
X209296000Y-114614586D01*
X208639714Y-114418916D01*
X208427053Y-114106859D01*
X208556918Y-113840501D01*
X208685309Y-113866578D01*
X208818317Y-113743530D01*
X208857292Y-113241120D01*
X208841352Y-112938488D01*
X209925069Y-112938488D01*
X210132838Y-113239312D01*
X210357088Y-113380946D01*
X211242175Y-113691707D01*
X212013038Y-113638047D01*
X212411665Y-113368697D01*
X212508975Y-113003584D01*
X212100726Y-112768714D01*
X211201775Y-112671397D01*
X210989747Y-112669052D01*
X210217809Y-112740408D01*
X209925069Y-112938488D01*
X208841352Y-112938488D01*
X208818426Y-112503236D01*
X208717910Y-111673771D01*
X208571936Y-110896615D01*
X208559613Y-110855759D01*
X209589834Y-110855759D01*
X209641629Y-111083316D01*
X210014891Y-111269176D01*
X210657275Y-111325955D01*
X211320406Y-111259252D01*
X211755908Y-111074666D01*
X211787633Y-111034949D01*
X211788040Y-110680120D01*
X211405085Y-110446270D01*
X210787918Y-110405615D01*
X210568221Y-110444511D01*
X209859507Y-110650816D01*
X209589834Y-110855759D01*
X208559613Y-110855759D01*
X208396696Y-110315658D01*
X208261417Y-110099577D01*
X207945906Y-109795490D01*
X207892387Y-109698524D01*
X208135024Y-109661131D01*
X208764130Y-109636750D01*
X209631590Y-109625639D01*
X210589290Y-109628057D01*
G36*
X236451460Y-110995200D02*
X237086962Y-111213886D01*
X237442072Y-111535100D01*
X237403105Y-111921023D01*
X237049029Y-112106737D01*
X236462132Y-112146753D01*
X235864315Y-112059993D01*
X235477478Y-111865381D01*
X235431263Y-111752867D01*
X235652355Y-111365013D01*
X235899158Y-111235604D01*
X236045148Y-111152332D01*
X235700134Y-111149047D01*
X235698632Y-111149158D01*
X235129867Y-111364659D01*
X234946011Y-111790654D01*
X234978102Y-112184008D01*
X235272058Y-112443365D01*
X235921621Y-112613721D01*
X236901790Y-112729422D01*
X237557717Y-112976196D01*
X237803728Y-113471828D01*
X237602856Y-114081961D01*
X237351280Y-114363111D01*
X236709799Y-114691301D01*
X235764472Y-114906813D01*
X234739313Y-114982467D01*
X233858335Y-114891084D01*
X233626526Y-114815042D01*
X233118231Y-114413650D01*
X233017763Y-113937376D01*
X233308472Y-113557530D01*
X233760211Y-113439479D01*
X234800649Y-113451343D01*
X235338126Y-113595868D01*
X235366185Y-113869747D01*
X235096632Y-114124072D01*
X234683612Y-114496580D01*
X234760292Y-114654391D01*
X235301530Y-114605314D01*
X235966146Y-114368912D01*
X236146480Y-113966200D01*
X235977153Y-113491997D01*
X235529687Y-113087196D01*
X234683414Y-112894793D01*
X234563411Y-112884892D01*
X233707298Y-112709371D01*
X233345979Y-112336848D01*
X233473475Y-111757853D01*
X233664088Y-111460723D01*
X234141880Y-111111805D01*
X234850992Y-110928411D01*
X235663494Y-110894792D01*
X236451460Y-110995200D01*
X236451460Y-110995200D01*
G37*
X236451460Y-110995200D02*
X237086962Y-111213886D01*
X237442072Y-111535100D01*
X237403105Y-111921023D01*
X237049029Y-112106737D01*
X236462132Y-112146753D01*
X235864315Y-112059993D01*
X235477478Y-111865381D01*
X235431263Y-111752867D01*
X235652355Y-111365013D01*
X235899158Y-111235604D01*
X236045148Y-111152332D01*
X235700134Y-111149047D01*
X235698632Y-111149158D01*
X235129867Y-111364659D01*
X234946011Y-111790654D01*
X234978102Y-112184008D01*
X235272058Y-112443365D01*
X235921621Y-112613721D01*
X236901790Y-112729422D01*
X237557717Y-112976196D01*
X237803728Y-113471828D01*
X237602856Y-114081961D01*
X237351280Y-114363111D01*
X236709799Y-114691301D01*
X235764472Y-114906813D01*
X234739313Y-114982467D01*
X233858335Y-114891084D01*
X233626526Y-114815042D01*
X233118231Y-114413650D01*
X233017763Y-113937376D01*
X233308472Y-113557530D01*
X233760211Y-113439479D01*
X234800649Y-113451343D01*
X235338126Y-113595868D01*
X235366185Y-113869747D01*
X235096632Y-114124072D01*
X234683612Y-114496580D01*
X234760292Y-114654391D01*
X235301530Y-114605314D01*
X235966146Y-114368912D01*
X236146480Y-113966200D01*
X235977153Y-113491997D01*
X235529687Y-113087196D01*
X234683414Y-112894793D01*
X234563411Y-112884892D01*
X233707298Y-112709371D01*
X233345979Y-112336848D01*
X233473475Y-111757853D01*
X233664088Y-111460723D01*
X234141880Y-111111805D01*
X234850992Y-110928411D01*
X235663494Y-110894792D01*
X236451460Y-110995200D01*
G36*
X231726263Y-110982847D02*
X232417043Y-111465992D01*
X232747350Y-112137445D01*
X232757579Y-112283160D01*
X232719139Y-112676343D01*
X232527799Y-112867078D01*
X232069527Y-112881643D01*
X231230290Y-112746315D01*
X230966699Y-112695842D01*
X230154574Y-112604175D01*
X229762438Y-112780328D01*
X229714122Y-113292697D01*
X229805490Y-113738526D01*
X230171057Y-114324635D01*
X230629592Y-114492137D01*
X231287053Y-114577327D01*
X230646869Y-114115726D01*
X230227666Y-113765878D01*
X230221598Y-113527512D01*
X230446657Y-113332409D01*
X231046005Y-113131682D01*
X231739539Y-113190393D01*
X232282174Y-113467634D01*
X232415051Y-113660941D01*
X232361569Y-114144270D01*
X231917353Y-114563674D01*
X231226400Y-114857773D01*
X230432707Y-114965185D01*
X229682842Y-114825599D01*
X228768454Y-114194924D01*
X228271697Y-113232829D01*
X228181527Y-112053830D01*
X228391358Y-111715543D01*
X229657157Y-111715543D01*
X229690988Y-111880127D01*
X230033365Y-112049833D01*
X230606295Y-112082891D01*
X231180958Y-111997333D01*
X231528532Y-111811196D01*
X231554421Y-111733263D01*
X231326327Y-111497947D01*
X230791703Y-111365324D01*
X230175038Y-111375132D01*
X229913820Y-111442862D01*
X229657157Y-111715543D01*
X228391358Y-111715543D01*
X228446612Y-111626464D01*
X229079841Y-111222591D01*
X229917411Y-110920272D01*
X230795521Y-110797565D01*
X230817921Y-110797473D01*
X231726263Y-110982847D01*
X231726263Y-110982847D01*
G37*
X231726263Y-110982847D02*
X232417043Y-111465992D01*
X232747350Y-112137445D01*
X232757579Y-112283160D01*
X232719139Y-112676343D01*
X232527799Y-112867078D01*
X232069527Y-112881643D01*
X231230290Y-112746315D01*
X230966699Y-112695842D01*
X230154574Y-112604175D01*
X229762438Y-112780328D01*
X229714122Y-113292697D01*
X229805490Y-113738526D01*
X230171057Y-114324635D01*
X230629592Y-114492137D01*
X231287053Y-114577327D01*
X230646869Y-114115726D01*
X230227666Y-113765878D01*
X230221598Y-113527512D01*
X230446657Y-113332409D01*
X231046005Y-113131682D01*
X231739539Y-113190393D01*
X232282174Y-113467634D01*
X232415051Y-113660941D01*
X232361569Y-114144270D01*
X231917353Y-114563674D01*
X231226400Y-114857773D01*
X230432707Y-114965185D01*
X229682842Y-114825599D01*
X228768454Y-114194924D01*
X228271697Y-113232829D01*
X228181527Y-112053830D01*
X228391358Y-111715543D01*
X229657157Y-111715543D01*
X229690988Y-111880127D01*
X230033365Y-112049833D01*
X230606295Y-112082891D01*
X231180958Y-111997333D01*
X231528532Y-111811196D01*
X231554421Y-111733263D01*
X231326327Y-111497947D01*
X230791703Y-111365324D01*
X230175038Y-111375132D01*
X229913820Y-111442862D01*
X229657157Y-111715543D01*
X228391358Y-111715543D01*
X228446612Y-111626464D01*
X229079841Y-111222591D01*
X229917411Y-110920272D01*
X230795521Y-110797565D01*
X230817921Y-110797473D01*
X231726263Y-110982847D01*
G36*
X234614981Y-116289106D02*
X234821585Y-116614446D01*
X234616475Y-116959687D01*
X234596570Y-116972745D01*
X234199767Y-117178943D01*
X234094421Y-117206127D01*
X233779906Y-117081727D01*
X233592272Y-116972745D01*
X233366907Y-116630316D01*
X233557535Y-116300731D01*
X234066398Y-116145167D01*
X234094421Y-116144842D01*
X234614981Y-116289106D01*
X234614981Y-116289106D01*
G37*
X234614981Y-116289106D02*
X234821585Y-116614446D01*
X234616475Y-116959687D01*
X234596570Y-116972745D01*
X234199767Y-117178943D01*
X234094421Y-117206127D01*
X233779906Y-117081727D01*
X233592272Y-116972745D01*
X233366907Y-116630316D01*
X233557535Y-116300731D01*
X234066398Y-116145167D01*
X234094421Y-116144842D01*
X234614981Y-116289106D01*
G36*
X219707507Y-81686335D02*
X219872987Y-82104632D01*
X220149017Y-82674678D01*
X220602686Y-83107050D01*
X221175871Y-83646319D01*
X221672094Y-84367376D01*
X221687501Y-84397360D01*
X222145861Y-85170733D01*
X222640862Y-85828271D01*
X222648373Y-85836535D01*
X222998014Y-86259265D01*
X222984573Y-86508701D01*
X222653094Y-86772325D01*
X222431513Y-86991092D01*
X222268977Y-87349758D01*
X222147758Y-87941981D01*
X222050126Y-88861421D01*
X221958354Y-90201738D01*
X221937851Y-90550915D01*
X221740868Y-93966462D01*
X220735113Y-95013252D01*
X219729357Y-96060042D01*
X219864605Y-98645711D01*
X219999852Y-101231381D01*
X219226610Y-101082746D01*
X218569345Y-100965540D01*
X217596902Y-100802536D01*
X216546903Y-100633341D01*
X214640438Y-100332571D01*
X214460444Y-98975707D01*
X214009002Y-97200764D01*
X213189187Y-95786765D01*
X212028309Y-94761869D01*
X210553683Y-94154235D01*
X209644080Y-94010144D01*
X207940493Y-94069155D01*
X206457143Y-94580698D01*
X205141895Y-95522900D01*
X203940625Y-96896821D01*
X203262331Y-98378104D01*
X203107083Y-99962251D01*
X203474949Y-101644766D01*
X204366000Y-103421154D01*
X205005829Y-104340620D01*
X205422320Y-104918492D01*
X205681427Y-105414430D01*
X205820410Y-105981914D01*
X205876531Y-106774422D01*
X205887051Y-107945432D01*
X205887053Y-107970342D01*
X205873810Y-109152433D01*
X205802969Y-110019030D01*
X205627858Y-110765014D01*
X205301806Y-111585266D01*
X204778142Y-112674669D01*
X204743866Y-112743873D01*
X203806788Y-114400696D01*
X202782271Y-115670198D01*
X201527790Y-116696947D01*
X199960895Y-117595452D01*
X197945942Y-118362167D01*
X195794214Y-118749733D01*
X193660572Y-118744617D01*
X191699874Y-118333285D01*
X191663009Y-118320657D01*
X189593405Y-117332420D01*
X187782215Y-115923468D01*
X186278290Y-114165049D01*
X185130480Y-112128408D01*
X184387637Y-109884794D01*
X184098610Y-107505454D01*
X184096526Y-107285191D01*
X184096526Y-106252210D01*
X189372044Y-106252210D01*
X189504523Y-108103782D01*
X189845180Y-109980100D01*
X190555104Y-111513268D01*
X191603500Y-112671078D01*
X192959575Y-113421323D01*
X194592531Y-113731797D01*
X194892247Y-113738526D01*
X196618349Y-113496319D01*
X198111579Y-112813063D01*
X199311720Y-111753806D01*
X200158555Y-110383597D01*
X200591866Y-108767484D01*
X200618952Y-107552432D01*
X200269070Y-105932084D01*
X199459070Y-104556502D01*
X198167831Y-103392304D01*
X197855995Y-103185695D01*
X197199534Y-102710297D01*
X196805358Y-102305653D01*
X196748766Y-102129087D01*
X196865141Y-101779254D01*
X197108612Y-101022030D01*
X197446352Y-99960285D01*
X197845532Y-98696892D01*
X197953372Y-98354305D01*
X198782374Y-95984845D01*
X199647671Y-94075675D01*
X200593127Y-92552402D01*
X201662608Y-91340632D01*
X202499222Y-90644723D01*
X204390135Y-89514915D01*
X206398723Y-88848936D01*
X208646577Y-88608095D01*
X208906582Y-88605894D01*
X211038994Y-88748872D01*
X212915872Y-89215421D01*
X214744905Y-90061962D01*
X215162467Y-90305383D01*
X215952833Y-90748240D01*
X216554171Y-91023686D01*
X216833519Y-91072410D01*
X216908691Y-90748461D01*
X216945715Y-90261207D01*
X218319684Y-90261207D01*
X218319684Y-91814315D01*
X220214690Y-91814315D01*
X220136134Y-89878730D01*
X220076079Y-88858009D01*
X219976186Y-88255662D01*
X219802396Y-87955359D01*
X219540515Y-87844393D01*
X218946356Y-87961509D01*
X218543553Y-88561970D01*
X218342046Y-89626095D01*
X218319684Y-90261207D01*
X216945715Y-90261207D01*
X216962330Y-90042559D01*
X216982842Y-89107393D01*
X216982842Y-89105477D01*
X216959621Y-88102894D01*
X216867079Y-87498880D01*
X216670896Y-87158415D01*
X216448105Y-87001684D01*
X216092676Y-86643544D01*
X215917605Y-86167383D01*
X215964818Y-85777581D01*
X216173871Y-85664842D01*
X216454319Y-85449005D01*
X216809529Y-84917491D01*
X216873545Y-84795894D01*
X217385607Y-84003043D01*
X218035453Y-83252570D01*
X218083569Y-83206755D01*
X218585566Y-82599578D01*
X218844748Y-82016125D01*
X218854421Y-81917151D01*
X219010155Y-81501353D01*
X219355464Y-81435632D01*
X219707507Y-81686335D01*
X219707507Y-81686335D01*
G37*
X219707507Y-81686335D02*
X219872987Y-82104632D01*
X220149017Y-82674678D01*
X220602686Y-83107050D01*
X221175871Y-83646319D01*
X221672094Y-84367376D01*
X221687501Y-84397360D01*
X222145861Y-85170733D01*
X222640862Y-85828271D01*
X222648373Y-85836535D01*
X222998014Y-86259265D01*
X222984573Y-86508701D01*
X222653094Y-86772325D01*
X222431513Y-86991092D01*
X222268977Y-87349758D01*
X222147758Y-87941981D01*
X222050126Y-88861421D01*
X221958354Y-90201738D01*
X221937851Y-90550915D01*
X221740868Y-93966462D01*
X220735113Y-95013252D01*
X219729357Y-96060042D01*
X219864605Y-98645711D01*
X219999852Y-101231381D01*
X219226610Y-101082746D01*
X218569345Y-100965540D01*
X217596902Y-100802536D01*
X216546903Y-100633341D01*
X214640438Y-100332571D01*
X214460444Y-98975707D01*
X214009002Y-97200764D01*
X213189187Y-95786765D01*
X212028309Y-94761869D01*
X210553683Y-94154235D01*
X209644080Y-94010144D01*
X207940493Y-94069155D01*
X206457143Y-94580698D01*
X205141895Y-95522900D01*
X203940625Y-96896821D01*
X203262331Y-98378104D01*
X203107083Y-99962251D01*
X203474949Y-101644766D01*
X204366000Y-103421154D01*
X205005829Y-104340620D01*
X205422320Y-104918492D01*
X205681427Y-105414430D01*
X205820410Y-105981914D01*
X205876531Y-106774422D01*
X205887051Y-107945432D01*
X205887053Y-107970342D01*
X205873810Y-109152433D01*
X205802969Y-110019030D01*
X205627858Y-110765014D01*
X205301806Y-111585266D01*
X204778142Y-112674669D01*
X204743866Y-112743873D01*
X203806788Y-114400696D01*
X202782271Y-115670198D01*
X201527790Y-116696947D01*
X199960895Y-117595452D01*
X197945942Y-118362167D01*
X195794214Y-118749733D01*
X193660572Y-118744617D01*
X191699874Y-118333285D01*
X191663009Y-118320657D01*
X189593405Y-117332420D01*
X187782215Y-115923468D01*
X186278290Y-114165049D01*
X185130480Y-112128408D01*
X184387637Y-109884794D01*
X184098610Y-107505454D01*
X184096526Y-107285191D01*
X184096526Y-106252210D01*
X189372044Y-106252210D01*
X189504523Y-108103782D01*
X189845180Y-109980100D01*
X190555104Y-111513268D01*
X191603500Y-112671078D01*
X192959575Y-113421323D01*
X194592531Y-113731797D01*
X194892247Y-113738526D01*
X196618349Y-113496319D01*
X198111579Y-112813063D01*
X199311720Y-111753806D01*
X200158555Y-110383597D01*
X200591866Y-108767484D01*
X200618952Y-107552432D01*
X200269070Y-105932084D01*
X199459070Y-104556502D01*
X198167831Y-103392304D01*
X197855995Y-103185695D01*
X197199534Y-102710297D01*
X196805358Y-102305653D01*
X196748766Y-102129087D01*
X196865141Y-101779254D01*
X197108612Y-101022030D01*
X197446352Y-99960285D01*
X197845532Y-98696892D01*
X197953372Y-98354305D01*
X198782374Y-95984845D01*
X199647671Y-94075675D01*
X200593127Y-92552402D01*
X201662608Y-91340632D01*
X202499222Y-90644723D01*
X204390135Y-89514915D01*
X206398723Y-88848936D01*
X208646577Y-88608095D01*
X208906582Y-88605894D01*
X211038994Y-88748872D01*
X212915872Y-89215421D01*
X214744905Y-90061962D01*
X215162467Y-90305383D01*
X215952833Y-90748240D01*
X216554171Y-91023686D01*
X216833519Y-91072410D01*
X216908691Y-90748461D01*
X216945715Y-90261207D01*
X218319684Y-90261207D01*
X218319684Y-91814315D01*
X220214690Y-91814315D01*
X220136134Y-89878730D01*
X220076079Y-88858009D01*
X219976186Y-88255662D01*
X219802396Y-87955359D01*
X219540515Y-87844393D01*
X218946356Y-87961509D01*
X218543553Y-88561970D01*
X218342046Y-89626095D01*
X218319684Y-90261207D01*
X216945715Y-90261207D01*
X216962330Y-90042559D01*
X216982842Y-89107393D01*
X216982842Y-89105477D01*
X216959621Y-88102894D01*
X216867079Y-87498880D01*
X216670896Y-87158415D01*
X216448105Y-87001684D01*
X216092676Y-86643544D01*
X215917605Y-86167383D01*
X215964818Y-85777581D01*
X216173871Y-85664842D01*
X216454319Y-85449005D01*
X216809529Y-84917491D01*
X216873545Y-84795894D01*
X217385607Y-84003043D01*
X218035453Y-83252570D01*
X218083569Y-83206755D01*
X218585566Y-82599578D01*
X218844748Y-82016125D01*
X218854421Y-81917151D01*
X219010155Y-81501353D01*
X219355464Y-81435632D01*
X219707507Y-81686335D01*
G36*
X234510320Y-117563637D02*
X234589336Y-117882666D01*
X234512459Y-118420964D01*
X234449926Y-119111726D01*
X234625831Y-119454352D01*
X234750072Y-119519043D01*
X235146875Y-119766846D01*
X235059835Y-119980790D01*
X234539819Y-120121503D01*
X233927999Y-120155368D01*
X233184401Y-120122617D01*
X232896017Y-120006872D01*
X232953593Y-119821157D01*
X233304208Y-119158456D01*
X233378167Y-118530769D01*
X233160896Y-118122592D01*
X233090584Y-118086996D01*
X232829775Y-117932984D01*
X233049721Y-117773275D01*
X233178180Y-117721091D01*
X233866042Y-117538237D01*
X234191019Y-117500476D01*
X234510320Y-117563637D01*
X234510320Y-117563637D01*
G37*
X234510320Y-117563637D02*
X234589336Y-117882666D01*
X234512459Y-118420964D01*
X234449926Y-119111726D01*
X234625831Y-119454352D01*
X234750072Y-119519043D01*
X235146875Y-119766846D01*
X235059835Y-119980790D01*
X234539819Y-120121503D01*
X233927999Y-120155368D01*
X233184401Y-120122617D01*
X232896017Y-120006872D01*
X232953593Y-119821157D01*
X233304208Y-119158456D01*
X233378167Y-118530769D01*
X233160896Y-118122592D01*
X233090584Y-118086996D01*
X232829775Y-117932984D01*
X233049721Y-117773275D01*
X233178180Y-117721091D01*
X233866042Y-117538237D01*
X234191019Y-117500476D01*
X234510320Y-117563637D01*
G36*
X228897631Y-116418654D02*
X228907716Y-116422467D01*
X229748696Y-116586297D01*
X230522725Y-116556448D01*
X231353835Y-116560198D01*
X231794977Y-116824646D01*
X232053981Y-117368123D01*
X231881388Y-117887768D01*
X231364011Y-118228617D01*
X230977539Y-118283789D01*
X230512974Y-118330493D01*
X230500530Y-118527642D01*
X230613969Y-118679223D01*
X231044849Y-118930774D01*
X231431235Y-118812908D01*
X232097618Y-118568363D01*
X232436044Y-118733675D01*
X232490211Y-119032421D01*
X232268911Y-119704311D01*
X231607123Y-120075510D01*
X230853770Y-120155368D01*
X230179858Y-120103696D01*
X229848834Y-119862910D01*
X229705502Y-119423700D01*
X230697059Y-119423700D01*
X230752316Y-119620631D01*
X231133879Y-119853269D01*
X231369674Y-119883905D01*
X231668893Y-119840637D01*
X231474540Y-119655801D01*
X231420737Y-119620631D01*
X230930870Y-119384445D01*
X230697059Y-119423700D01*
X229705502Y-119423700D01*
X229683516Y-119356329D01*
X229462483Y-118671949D01*
X229236371Y-118374541D01*
X229087916Y-118490006D01*
X229099853Y-119044243D01*
X229123214Y-119180928D01*
X229306020Y-120155368D01*
X228342336Y-120155368D01*
X227712965Y-120104507D01*
X227545121Y-119932502D01*
X227593943Y-119821157D01*
X227825697Y-119279399D01*
X228022535Y-118515395D01*
X228157593Y-117702152D01*
X228174361Y-117453046D01*
X229027291Y-117453046D01*
X229099788Y-117673189D01*
X229482316Y-117836814D01*
X230184469Y-117932124D01*
X230760321Y-117855710D01*
X231018459Y-117635142D01*
X231019684Y-117615368D01*
X230783185Y-117423803D01*
X230196867Y-117284237D01*
X230017053Y-117265018D01*
X229356827Y-117291560D01*
X229027291Y-117453046D01*
X228174361Y-117453046D01*
X228204004Y-117012677D01*
X228134904Y-116619977D01*
X228095957Y-116588273D01*
X227935732Y-116375908D01*
X227974709Y-116307649D01*
X228312179Y-116267558D01*
X228897631Y-116418654D01*
X228897631Y-116418654D01*
G37*
X228897631Y-116418654D02*
X228907716Y-116422467D01*
X229748696Y-116586297D01*
X230522725Y-116556448D01*
X231353835Y-116560198D01*
X231794977Y-116824646D01*
X232053981Y-117368123D01*
X231881388Y-117887768D01*
X231364011Y-118228617D01*
X230977539Y-118283789D01*
X230512974Y-118330493D01*
X230500530Y-118527642D01*
X230613969Y-118679223D01*
X231044849Y-118930774D01*
X231431235Y-118812908D01*
X232097618Y-118568363D01*
X232436044Y-118733675D01*
X232490211Y-119032421D01*
X232268911Y-119704311D01*
X231607123Y-120075510D01*
X230853770Y-120155368D01*
X230179858Y-120103696D01*
X229848834Y-119862910D01*
X229705502Y-119423700D01*
X230697059Y-119423700D01*
X230752316Y-119620631D01*
X231133879Y-119853269D01*
X231369674Y-119883905D01*
X231668893Y-119840637D01*
X231474540Y-119655801D01*
X231420737Y-119620631D01*
X230930870Y-119384445D01*
X230697059Y-119423700D01*
X229705502Y-119423700D01*
X229683516Y-119356329D01*
X229462483Y-118671949D01*
X229236371Y-118374541D01*
X229087916Y-118490006D01*
X229099853Y-119044243D01*
X229123214Y-119180928D01*
X229306020Y-120155368D01*
X228342336Y-120155368D01*
X227712965Y-120104507D01*
X227545121Y-119932502D01*
X227593943Y-119821157D01*
X227825697Y-119279399D01*
X228022535Y-118515395D01*
X228157593Y-117702152D01*
X228174361Y-117453046D01*
X229027291Y-117453046D01*
X229099788Y-117673189D01*
X229482316Y-117836814D01*
X230184469Y-117932124D01*
X230760321Y-117855710D01*
X231018459Y-117635142D01*
X231019684Y-117615368D01*
X230783185Y-117423803D01*
X230196867Y-117284237D01*
X230017053Y-117265018D01*
X229356827Y-117291560D01*
X229027291Y-117453046D01*
X228174361Y-117453046D01*
X228204004Y-117012677D01*
X228134904Y-116619977D01*
X228095957Y-116588273D01*
X227935732Y-116375908D01*
X227974709Y-116307649D01*
X228312179Y-116267558D01*
X228897631Y-116418654D01*
G36*
X237797464Y-117582898D02*
X238355320Y-117903333D01*
X238409640Y-117976830D01*
X238663857Y-118312195D01*
X238910898Y-118260942D01*
X239214011Y-117976830D01*
X239835140Y-117617095D01*
X240613986Y-117484513D01*
X241339090Y-117583674D01*
X241798990Y-117919166D01*
X241799858Y-117920712D01*
X241925018Y-118580152D01*
X241745215Y-119335919D01*
X241349023Y-120000802D01*
X240825016Y-120387591D01*
X240616089Y-120422736D01*
X239912874Y-120260182D01*
X239224887Y-119867496D01*
X238790281Y-119387146D01*
X238760490Y-119312688D01*
X238537255Y-119079277D01*
X239174421Y-119079277D01*
X239404175Y-119264372D01*
X239958564Y-119347119D01*
X240635276Y-119316126D01*
X241157817Y-119190973D01*
X241546321Y-118901068D01*
X241421845Y-118591827D01*
X241081315Y-118428682D01*
X240507557Y-118398849D01*
X239856051Y-118554325D01*
X239342168Y-118821629D01*
X239174421Y-119079277D01*
X238537255Y-119079277D01*
X238370088Y-118904490D01*
X237835341Y-118818526D01*
X237162224Y-118718348D01*
X236893749Y-118466663D01*
X237086925Y-118136744D01*
X237230377Y-118040983D01*
X237532152Y-117830842D01*
X237347419Y-117763692D01*
X237120333Y-117757182D01*
X236579457Y-117969734D01*
X236314960Y-118515874D01*
X236399094Y-119206666D01*
X236727652Y-119542568D01*
X237340946Y-119558007D01*
X237941435Y-119557673D01*
X238070596Y-119743854D01*
X237717328Y-120030795D01*
X237419121Y-120161986D01*
X236908684Y-120354372D01*
X236611302Y-120378701D01*
X236240178Y-120218473D01*
X235966000Y-120078389D01*
X235404921Y-119544563D01*
X235209394Y-118817076D01*
X235417337Y-118102696D01*
X235569530Y-117916350D01*
X236186025Y-117584752D01*
X237001518Y-117475153D01*
X237797464Y-117582898D01*
X237797464Y-117582898D01*
G37*
X237797464Y-117582898D02*
X238355320Y-117903333D01*
X238409640Y-117976830D01*
X238663857Y-118312195D01*
X238910898Y-118260942D01*
X239214011Y-117976830D01*
X239835140Y-117617095D01*
X240613986Y-117484513D01*
X241339090Y-117583674D01*
X241798990Y-117919166D01*
X241799858Y-117920712D01*
X241925018Y-118580152D01*
X241745215Y-119335919D01*
X241349023Y-120000802D01*
X240825016Y-120387591D01*
X240616089Y-120422736D01*
X239912874Y-120260182D01*
X239224887Y-119867496D01*
X238790281Y-119387146D01*
X238760490Y-119312688D01*
X238537255Y-119079277D01*
X239174421Y-119079277D01*
X239404175Y-119264372D01*
X239958564Y-119347119D01*
X240635276Y-119316126D01*
X241157817Y-119190973D01*
X241546321Y-118901068D01*
X241421845Y-118591827D01*
X241081315Y-118428682D01*
X240507557Y-118398849D01*
X239856051Y-118554325D01*
X239342168Y-118821629D01*
X239174421Y-119079277D01*
X238537255Y-119079277D01*
X238370088Y-118904490D01*
X237835341Y-118818526D01*
X237162224Y-118718348D01*
X236893749Y-118466663D01*
X237086925Y-118136744D01*
X237230377Y-118040983D01*
X237532152Y-117830842D01*
X237347419Y-117763692D01*
X237120333Y-117757182D01*
X236579457Y-117969734D01*
X236314960Y-118515874D01*
X236399094Y-119206666D01*
X236727652Y-119542568D01*
X237340946Y-119558007D01*
X237941435Y-119557673D01*
X238070596Y-119743854D01*
X237717328Y-120030795D01*
X237419121Y-120161986D01*
X236908684Y-120354372D01*
X236611302Y-120378701D01*
X236240178Y-120218473D01*
X235966000Y-120078389D01*
X235404921Y-119544563D01*
X235209394Y-118817076D01*
X235417337Y-118102696D01*
X235569530Y-117916350D01*
X236186025Y-117584752D01*
X237001518Y-117475153D01*
X237797464Y-117582898D01*
G36*
X224508805Y-117526366D02*
X224949685Y-117694489D01*
X225159961Y-118138550D01*
X225219046Y-118592595D01*
X225191752Y-119352448D01*
X224890850Y-119839020D01*
X224691660Y-119996279D01*
X224084927Y-120337428D01*
X223547656Y-120344662D01*
X222937672Y-120099040D01*
X222300310Y-119594355D01*
X222130528Y-119079277D01*
X222597579Y-119079277D01*
X222827333Y-119264372D01*
X223381721Y-119347119D01*
X224058434Y-119316126D01*
X224580975Y-119190973D01*
X224969479Y-118901068D01*
X224845003Y-118591827D01*
X224504472Y-118428682D01*
X223930715Y-118398849D01*
X223279209Y-118554325D01*
X222765326Y-118821629D01*
X222597579Y-119079277D01*
X222130528Y-119079277D01*
X222101358Y-118990783D01*
X222281628Y-118385239D01*
X222781933Y-117874641D01*
X223543085Y-117555908D01*
X224505897Y-117525956D01*
X224508805Y-117526366D01*
X224508805Y-117526366D01*
G37*
X224508805Y-117526366D02*
X224949685Y-117694489D01*
X225159961Y-118138550D01*
X225219046Y-118592595D01*
X225191752Y-119352448D01*
X224890850Y-119839020D01*
X224691660Y-119996279D01*
X224084927Y-120337428D01*
X223547656Y-120344662D01*
X222937672Y-120099040D01*
X222300310Y-119594355D01*
X222130528Y-119079277D01*
X222597579Y-119079277D01*
X222827333Y-119264372D01*
X223381721Y-119347119D01*
X224058434Y-119316126D01*
X224580975Y-119190973D01*
X224969479Y-118901068D01*
X224845003Y-118591827D01*
X224504472Y-118428682D01*
X223930715Y-118398849D01*
X223279209Y-118554325D01*
X222765326Y-118821629D01*
X222597579Y-119079277D01*
X222130528Y-119079277D01*
X222101358Y-118990783D01*
X222281628Y-118385239D01*
X222781933Y-117874641D01*
X223543085Y-117555908D01*
X224505897Y-117525956D01*
X224508805Y-117526366D01*
G36*
X220317278Y-116458548D02*
X220405115Y-116682707D01*
X220370121Y-116791954D01*
X220393194Y-117152277D01*
X220600707Y-117214315D01*
X220952946Y-117031158D01*
X220997463Y-116880105D01*
X221073433Y-116713571D01*
X221238594Y-116904889D01*
X221413346Y-117304510D01*
X221518090Y-117762888D01*
X221524011Y-117869368D01*
X221462745Y-118213717D01*
X221219290Y-118081830D01*
X221207263Y-118069894D01*
X220670809Y-117787357D01*
X220405158Y-117749052D01*
X220085773Y-117861427D01*
X219946014Y-118284739D01*
X219923895Y-118818526D01*
X219990120Y-119562164D01*
X220209648Y-119868590D01*
X220324947Y-119888000D01*
X220680753Y-119743628D01*
X220726000Y-119620631D01*
X220522539Y-119361032D01*
X220458632Y-119353263D01*
X220221428Y-119136706D01*
X220191263Y-118952210D01*
X220397768Y-118644693D01*
X220868659Y-118551655D01*
X221381003Y-118667434D01*
X221711866Y-118986367D01*
X221713623Y-118990874D01*
X221663763Y-119488271D01*
X221197996Y-119895086D01*
X220435093Y-120128716D01*
X220039215Y-120155368D01*
X219175630Y-119984351D01*
X218727078Y-119477620D01*
X218701419Y-118644657D01*
X218718332Y-118562109D01*
X218788397Y-117985232D01*
X218615209Y-117767077D01*
X218446007Y-117749052D01*
X218124708Y-117903065D01*
X218152288Y-118158664D01*
X218067999Y-118536181D01*
X217653422Y-118834810D01*
X217112956Y-118968440D01*
X216650999Y-118850964D01*
X216605094Y-118810462D01*
X216505744Y-118479102D01*
X216833418Y-118132105D01*
X217188341Y-117845286D01*
X217094087Y-117755883D01*
X216782355Y-117749052D01*
X216244785Y-117868000D01*
X216037661Y-118031617D01*
X215947832Y-118531277D01*
X216090607Y-119113960D01*
X216383111Y-119539892D01*
X216586883Y-119620631D01*
X216939616Y-119752163D01*
X216982842Y-119861077D01*
X216743736Y-120023527D01*
X216138809Y-120157647D01*
X215779684Y-120197214D01*
X215062748Y-120253503D01*
X214632194Y-120285894D01*
X214576526Y-120289214D01*
X214641560Y-120060025D01*
X214801718Y-119500361D01*
X214838432Y-119372311D01*
X214965078Y-118556017D01*
X214800332Y-118097614D01*
X214622420Y-117713146D01*
X214662692Y-117573764D01*
X214983683Y-117500389D01*
X215644690Y-117455155D01*
X216451556Y-117441607D01*
X217210128Y-117463288D01*
X217702621Y-117518289D01*
X218135690Y-117465582D01*
X218669438Y-117246273D01*
X219083387Y-116970125D01*
X219180319Y-116782635D01*
X219351327Y-116582358D01*
X219818681Y-116457744D01*
X220317278Y-116458548D01*
X220317278Y-116458548D01*
G37*
X220317278Y-116458548D02*
X220405115Y-116682707D01*
X220370121Y-116791954D01*
X220393194Y-117152277D01*
X220600707Y-117214315D01*
X220952946Y-117031158D01*
X220997463Y-116880105D01*
X221073433Y-116713571D01*
X221238594Y-116904889D01*
X221413346Y-117304510D01*
X221518090Y-117762888D01*
X221524011Y-117869368D01*
X221462745Y-118213717D01*
X221219290Y-118081830D01*
X221207263Y-118069894D01*
X220670809Y-117787357D01*
X220405158Y-117749052D01*
X220085773Y-117861427D01*
X219946014Y-118284739D01*
X219923895Y-118818526D01*
X219990120Y-119562164D01*
X220209648Y-119868590D01*
X220324947Y-119888000D01*
X220680753Y-119743628D01*
X220726000Y-119620631D01*
X220522539Y-119361032D01*
X220458632Y-119353263D01*
X220221428Y-119136706D01*
X220191263Y-118952210D01*
X220397768Y-118644693D01*
X220868659Y-118551655D01*
X221381003Y-118667434D01*
X221711866Y-118986367D01*
X221713623Y-118990874D01*
X221663763Y-119488271D01*
X221197996Y-119895086D01*
X220435093Y-120128716D01*
X220039215Y-120155368D01*
X219175630Y-119984351D01*
X218727078Y-119477620D01*
X218701419Y-118644657D01*
X218718332Y-118562109D01*
X218788397Y-117985232D01*
X218615209Y-117767077D01*
X218446007Y-117749052D01*
X218124708Y-117903065D01*
X218152288Y-118158664D01*
X218067999Y-118536181D01*
X217653422Y-118834810D01*
X217112956Y-118968440D01*
X216650999Y-118850964D01*
X216605094Y-118810462D01*
X216505744Y-118479102D01*
X216833418Y-118132105D01*
X217188341Y-117845286D01*
X217094087Y-117755883D01*
X216782355Y-117749052D01*
X216244785Y-117868000D01*
X216037661Y-118031617D01*
X215947832Y-118531277D01*
X216090607Y-119113960D01*
X216383111Y-119539892D01*
X216586883Y-119620631D01*
X216939616Y-119752163D01*
X216982842Y-119861077D01*
X216743736Y-120023527D01*
X216138809Y-120157647D01*
X215779684Y-120197214D01*
X215062748Y-120253503D01*
X214632194Y-120285894D01*
X214576526Y-120289214D01*
X214641560Y-120060025D01*
X214801718Y-119500361D01*
X214838432Y-119372311D01*
X214965078Y-118556017D01*
X214800332Y-118097614D01*
X214622420Y-117713146D01*
X214662692Y-117573764D01*
X214983683Y-117500389D01*
X215644690Y-117455155D01*
X216451556Y-117441607D01*
X217210128Y-117463288D01*
X217702621Y-117518289D01*
X218135690Y-117465582D01*
X218669438Y-117246273D01*
X219083387Y-116970125D01*
X219180319Y-116782635D01*
X219351327Y-116582358D01*
X219818681Y-116457744D01*
X220317278Y-116458548D01*
G36*
X213269530Y-117528826D02*
X213926508Y-117675606D01*
X214215638Y-118021876D01*
X214264482Y-118244193D01*
X214281238Y-118634561D01*
X214090802Y-118778953D01*
X213558556Y-118737035D01*
X213261850Y-118688587D01*
X212571587Y-118596381D01*
X212257772Y-118676303D01*
X212173028Y-118993005D01*
X212170211Y-119167472D01*
X212347547Y-119767178D01*
X212638105Y-120008919D01*
X212943038Y-120087249D01*
X212805195Y-119884361D01*
X212771790Y-119850366D01*
X212462755Y-119403722D01*
X212640595Y-119155664D01*
X213239684Y-119085894D01*
X213861076Y-119225122D01*
X214041512Y-119555357D01*
X213766816Y-119945427D01*
X213355963Y-120161986D01*
X212839182Y-120347067D01*
X212620700Y-120405789D01*
X212366728Y-120305984D01*
X211965795Y-120145598D01*
X211393692Y-119685999D01*
X211022912Y-118977795D01*
X210970034Y-118262868D01*
X211004044Y-118150119D01*
X211141613Y-118016421D01*
X212170211Y-118016421D01*
X212399492Y-118215703D01*
X212854411Y-118283789D01*
X213309308Y-118198916D01*
X213373369Y-118016421D01*
X212996253Y-117791813D01*
X212689168Y-117749052D01*
X212263344Y-117864060D01*
X212170211Y-118016421D01*
X211141613Y-118016421D01*
X211439501Y-117726916D01*
X212285459Y-117518295D01*
X213269530Y-117528826D01*
X213269530Y-117528826D01*
G37*
X213269530Y-117528826D02*
X213926508Y-117675606D01*
X214215638Y-118021876D01*
X214264482Y-118244193D01*
X214281238Y-118634561D01*
X214090802Y-118778953D01*
X213558556Y-118737035D01*
X213261850Y-118688587D01*
X212571587Y-118596381D01*
X212257772Y-118676303D01*
X212173028Y-118993005D01*
X212170211Y-119167472D01*
X212347547Y-119767178D01*
X212638105Y-120008919D01*
X212943038Y-120087249D01*
X212805195Y-119884361D01*
X212771790Y-119850366D01*
X212462755Y-119403722D01*
X212640595Y-119155664D01*
X213239684Y-119085894D01*
X213861076Y-119225122D01*
X214041512Y-119555357D01*
X213766816Y-119945427D01*
X213355963Y-120161986D01*
X212839182Y-120347067D01*
X212620700Y-120405789D01*
X212366728Y-120305984D01*
X211965795Y-120145598D01*
X211393692Y-119685999D01*
X211022912Y-118977795D01*
X210970034Y-118262868D01*
X211004044Y-118150119D01*
X211141613Y-118016421D01*
X212170211Y-118016421D01*
X212399492Y-118215703D01*
X212854411Y-118283789D01*
X213309308Y-118198916D01*
X213373369Y-118016421D01*
X212996253Y-117791813D01*
X212689168Y-117749052D01*
X212263344Y-117864060D01*
X212170211Y-118016421D01*
X211141613Y-118016421D01*
X211439501Y-117726916D01*
X212285459Y-117518295D01*
X213269530Y-117528826D01*
G36*
X210557107Y-117349913D02*
X210699684Y-117481684D01*
X210678486Y-117728059D01*
X210581779Y-117749052D01*
X210382998Y-117981316D01*
X210298654Y-118540961D01*
X210298632Y-118551157D01*
X210376077Y-119114342D01*
X210562674Y-119353201D01*
X210566000Y-119353263D01*
X210841560Y-119455428D01*
X210707162Y-119699065D01*
X210232808Y-119989885D01*
X210031263Y-120073526D01*
X209486667Y-120218285D01*
X209231754Y-120166283D01*
X209229158Y-120148953D01*
X208999311Y-120035042D01*
X208435250Y-120052082D01*
X208327359Y-120067960D01*
X207554337Y-120079071D01*
X207215255Y-119780958D01*
X207300579Y-119159959D01*
X207452887Y-118815121D01*
X207655225Y-118282796D01*
X207630384Y-118021790D01*
X207604455Y-118016421D01*
X207364614Y-117812351D01*
X207357579Y-117749052D01*
X207590549Y-117563847D01*
X208154594Y-117481902D01*
X208188290Y-117481684D01*
X208754638Y-117540614D01*
X208895703Y-117760247D01*
X208855571Y-117907575D01*
X208542911Y-118871971D01*
X208490965Y-119439104D01*
X208702298Y-119576641D01*
X208723529Y-119570486D01*
X209007784Y-119255428D01*
X209274500Y-118609336D01*
X209347351Y-118332470D01*
X209607748Y-117548373D01*
X209949888Y-117229510D01*
X210066835Y-117214315D01*
X210557107Y-117349913D01*
X210557107Y-117349913D01*
G37*
X210557107Y-117349913D02*
X210699684Y-117481684D01*
X210678486Y-117728059D01*
X210581779Y-117749052D01*
X210382998Y-117981316D01*
X210298654Y-118540961D01*
X210298632Y-118551157D01*
X210376077Y-119114342D01*
X210562674Y-119353201D01*
X210566000Y-119353263D01*
X210841560Y-119455428D01*
X210707162Y-119699065D01*
X210232808Y-119989885D01*
X210031263Y-120073526D01*
X209486667Y-120218285D01*
X209231754Y-120166283D01*
X209229158Y-120148953D01*
X208999311Y-120035042D01*
X208435250Y-120052082D01*
X208327359Y-120067960D01*
X207554337Y-120079071D01*
X207215255Y-119780958D01*
X207300579Y-119159959D01*
X207452887Y-118815121D01*
X207655225Y-118282796D01*
X207630384Y-118021790D01*
X207604455Y-118016421D01*
X207364614Y-117812351D01*
X207357579Y-117749052D01*
X207590549Y-117563847D01*
X208154594Y-117481902D01*
X208188290Y-117481684D01*
X208754638Y-117540614D01*
X208895703Y-117760247D01*
X208855571Y-117907575D01*
X208542911Y-118871971D01*
X208490965Y-119439104D01*
X208702298Y-119576641D01*
X208723529Y-119570486D01*
X209007784Y-119255428D01*
X209274500Y-118609336D01*
X209347351Y-118332470D01*
X209607748Y-117548373D01*
X209949888Y-117229510D01*
X210066835Y-117214315D01*
X210557107Y-117349913D01*
G36*
X205311748Y-116485854D02*
X206033564Y-116574006D01*
X206465789Y-116716732D01*
X206477717Y-116725994D01*
X206823743Y-117284345D01*
X206772702Y-117913755D01*
X206422448Y-118482805D01*
X205870835Y-118860075D01*
X205215716Y-118914147D01*
X204928651Y-118806424D01*
X204583860Y-118630785D01*
X204452488Y-118652346D01*
X204529215Y-118966074D01*
X204808726Y-119666936D01*
X204871834Y-119821157D01*
X204795058Y-120120896D01*
X204645658Y-120159019D01*
X204088911Y-120229576D01*
X203748105Y-120306977D01*
X203463908Y-120345508D01*
X203313443Y-120193911D01*
X203266687Y-119743729D01*
X203293617Y-118886505D01*
X203303024Y-118699116D01*
X203313891Y-117700032D01*
X204208446Y-117700032D01*
X204281149Y-117928341D01*
X204761437Y-117987455D01*
X205102901Y-117967401D01*
X205785406Y-117828039D01*
X206195499Y-117590432D01*
X206228817Y-117530704D01*
X206156115Y-117302395D01*
X205675826Y-117243281D01*
X205334363Y-117263335D01*
X204651858Y-117402697D01*
X204241765Y-117640303D01*
X204208446Y-117700032D01*
X203313891Y-117700032D01*
X203314540Y-117640455D01*
X203219772Y-117057013D01*
X203102498Y-116946947D01*
X202824550Y-116771672D01*
X202812316Y-116701197D01*
X203050624Y-116559947D01*
X203656091Y-116477713D01*
X204464528Y-116453386D01*
X205311748Y-116485854D01*
X205311748Y-116485854D01*
G37*
X205311748Y-116485854D02*
X206033564Y-116574006D01*
X206465789Y-116716732D01*
X206477717Y-116725994D01*
X206823743Y-117284345D01*
X206772702Y-117913755D01*
X206422448Y-118482805D01*
X205870835Y-118860075D01*
X205215716Y-118914147D01*
X204928651Y-118806424D01*
X204583860Y-118630785D01*
X204452488Y-118652346D01*
X204529215Y-118966074D01*
X204808726Y-119666936D01*
X204871834Y-119821157D01*
X204795058Y-120120896D01*
X204645658Y-120159019D01*
X204088911Y-120229576D01*
X203748105Y-120306977D01*
X203463908Y-120345508D01*
X203313443Y-120193911D01*
X203266687Y-119743729D01*
X203293617Y-118886505D01*
X203303024Y-118699116D01*
X203313891Y-117700032D01*
X204208446Y-117700032D01*
X204281149Y-117928341D01*
X204761437Y-117987455D01*
X205102901Y-117967401D01*
X205785406Y-117828039D01*
X206195499Y-117590432D01*
X206228817Y-117530704D01*
X206156115Y-117302395D01*
X205675826Y-117243281D01*
X205334363Y-117263335D01*
X204651858Y-117402697D01*
X204241765Y-117640303D01*
X204208446Y-117700032D01*
X203313891Y-117700032D01*
X203314540Y-117640455D01*
X203219772Y-117057013D01*
X203102498Y-116946947D01*
X202824550Y-116771672D01*
X202812316Y-116701197D01*
X203050624Y-116559947D01*
X203656091Y-116477713D01*
X204464528Y-116453386D01*
X205311748Y-116485854D01*
G36*
X214722434Y-33847870D02*
X217379579Y-34212915D01*
X217651985Y-34265745D01*
X222261708Y-35458295D01*
X226817536Y-37171862D01*
X231285907Y-39393110D01*
X232847277Y-40302734D01*
X233866397Y-40852603D01*
X235148464Y-41450815D01*
X236446836Y-41983665D01*
X236682373Y-42070797D01*
X238072264Y-42585709D01*
X239024769Y-42972649D01*
X239611658Y-43267058D01*
X239904703Y-43504375D01*
X239976526Y-43697407D01*
X239738872Y-43857084D01*
X239143312Y-43947640D01*
X238876397Y-43955368D01*
X237776268Y-43955368D01*
X239420908Y-45713493D01*
X242224054Y-48968703D01*
X244569889Y-52281992D01*
X246531879Y-55776403D01*
X248183490Y-59574977D01*
X248907462Y-61601684D01*
X249330803Y-62839353D01*
X249661851Y-63684437D01*
X249972163Y-64253366D01*
X250333292Y-64662570D01*
X250816794Y-65028480D01*
X251145809Y-65243819D01*
X252561561Y-66337080D01*
X253682038Y-67642452D01*
X254564767Y-69251749D01*
X255267271Y-71256784D01*
X255518577Y-72222954D01*
X255894492Y-74556528D01*
X255939374Y-77097634D01*
X255650906Y-79921408D01*
X255207965Y-82299694D01*
X254161064Y-86307251D01*
X252834184Y-89902233D01*
X251195988Y-93145482D01*
X249215137Y-96097838D01*
X246860292Y-98820141D01*
X246521277Y-99164098D01*
X244583082Y-101102292D01*
X244416460Y-102941988D01*
X244357655Y-103701198D01*
X244276880Y-104902941D01*
X244179715Y-106455721D01*
X244071740Y-108268044D01*
X243958535Y-110248417D01*
X243847685Y-112268000D01*
X243737366Y-114247227D01*
X243627722Y-116078228D01*
X243523893Y-117685210D01*
X243431015Y-118992382D01*
X243354228Y-119923951D01*
X243298669Y-120404123D01*
X243294857Y-120422736D01*
X242968368Y-121242119D01*
X242376108Y-122240554D01*
X241645541Y-123239576D01*
X240904130Y-124060717D01*
X240416081Y-124453428D01*
X239883632Y-124708747D01*
X239216956Y-124866015D01*
X238281653Y-124945382D01*
X236990912Y-124967000D01*
X235647920Y-124941638D01*
X234787253Y-124860186D01*
X234358836Y-124716455D01*
X234294983Y-124633789D01*
X234171657Y-124573302D01*
X233825935Y-124519306D01*
X233230331Y-124471335D01*
X232357359Y-124428920D01*
X231179534Y-124391593D01*
X229669371Y-124358888D01*
X227799382Y-124330335D01*
X225542083Y-124305468D01*
X222869989Y-124283818D01*
X219755613Y-124264918D01*
X216171469Y-124248301D01*
X212090073Y-124233498D01*
X210476913Y-124228472D01*
X206342795Y-124216827D01*
X202711573Y-124208565D01*
X199551413Y-124204132D01*
X196830481Y-124203980D01*
X194516944Y-124208555D01*
X192578969Y-124218307D01*
X190984721Y-124233685D01*
X189702369Y-124255138D01*
X188700077Y-124283113D01*
X187946013Y-124318061D01*
X187408343Y-124360430D01*
X187055233Y-124410668D01*
X186854851Y-124469225D01*
X186775363Y-124536549D01*
X186770211Y-124562683D01*
X186688819Y-124744060D01*
X186387651Y-124863372D01*
X185781217Y-124932440D01*
X184784027Y-124963081D01*
X183838461Y-124968000D01*
X182548662Y-124962682D01*
X181669628Y-124929039D01*
X181077393Y-124840537D01*
X180647988Y-124670642D01*
X180257446Y-124392820D01*
X179961619Y-124138197D01*
X179399506Y-123582107D01*
X179061062Y-123126592D01*
X179047227Y-123084648D01*
X180341353Y-123084648D01*
X180486880Y-123312850D01*
X181088632Y-123587769D01*
X181768610Y-123743275D01*
X182686877Y-123837935D01*
X183685687Y-123870849D01*
X184607293Y-123841118D01*
X185293950Y-123747842D01*
X185578047Y-123613369D01*
X185662431Y-123337607D01*
X185594353Y-123268206D01*
X235466075Y-123268206D01*
X235523526Y-123485942D01*
X235881348Y-123741668D01*
X236618577Y-123878280D01*
X237592614Y-123892651D01*
X238660861Y-123781652D01*
X239575474Y-123574833D01*
X240056990Y-123423694D01*
X240252097Y-123318373D01*
X240103526Y-123236175D01*
X239554010Y-123154403D01*
X238546281Y-123050360D01*
X238156399Y-123012417D01*
X237058217Y-122922403D01*
X236172832Y-122881081D01*
X235626090Y-122892760D01*
X235516527Y-122922034D01*
X235466075Y-123268206D01*
X185594353Y-123268206D01*
X185471535Y-123143004D01*
X184937355Y-123010881D01*
X183991888Y-122922565D01*
X182871553Y-122870085D01*
X181547723Y-122857617D01*
X180699646Y-122931021D01*
X180341353Y-123084648D01*
X179047227Y-123084648D01*
X179016526Y-122991572D01*
X178899723Y-122575188D01*
X178606080Y-121903485D01*
X178460829Y-121615585D01*
X178310642Y-121288574D01*
X178181621Y-120889998D01*
X178067882Y-120363046D01*
X177963542Y-119650910D01*
X177862718Y-118696779D01*
X177759527Y-117443845D01*
X177648087Y-115835299D01*
X177522515Y-113814329D01*
X177376927Y-111324129D01*
X177354403Y-110931157D01*
X176803675Y-101305894D01*
X174219276Y-98632210D01*
X171817070Y-95881476D01*
X169884303Y-93064220D01*
X168356618Y-90082206D01*
X167918520Y-89014557D01*
X167009259Y-86394379D01*
X166262663Y-83695183D01*
X165696101Y-81020139D01*
X165326938Y-78472415D01*
X165172543Y-76155179D01*
X165194815Y-75586879D01*
X166498502Y-75586879D01*
X166611983Y-76588054D01*
X166821067Y-77654429D01*
X167957714Y-81884115D01*
X169467536Y-85730925D01*
X171350502Y-89194793D01*
X173606578Y-92275650D01*
X174402970Y-93175925D01*
X175172518Y-93978746D01*
X175663197Y-94408833D01*
X175933618Y-94508239D01*
X176037350Y-94348568D01*
X176051597Y-93943371D01*
X176036776Y-93091368D01*
X175995956Y-91879524D01*
X175932204Y-90394803D01*
X175848589Y-88724171D01*
X175821017Y-88216499D01*
X175713837Y-86167674D01*
X175653430Y-84578246D01*
X175650064Y-83537843D01*
X177021336Y-83537843D01*
X177023794Y-84326593D01*
X177051628Y-85380785D01*
X177105444Y-86747543D01*
X177185845Y-88473991D01*
X177293438Y-90607252D01*
X177428827Y-93194451D01*
X177540142Y-95294800D01*
X177688455Y-98091999D01*
X177838328Y-100926609D01*
X177985224Y-103712291D01*
X178124607Y-106362706D01*
X178251941Y-108791514D01*
X178362689Y-110912378D01*
X178452315Y-112638957D01*
X178495162Y-113471157D01*
X178605850Y-115604969D01*
X178700818Y-117269697D01*
X178791816Y-118530293D01*
X178890595Y-119451703D01*
X179008903Y-120098877D01*
X179158491Y-120536764D01*
X179351107Y-120830311D01*
X179598502Y-121044468D01*
X179899981Y-121236595D01*
X180043514Y-121316978D01*
X180215501Y-121388643D01*
X180445799Y-121452092D01*
X180764261Y-121507824D01*
X181200742Y-121556342D01*
X181785097Y-121598146D01*
X182547181Y-121633738D01*
X183516846Y-121663619D01*
X184723949Y-121688290D01*
X186198344Y-121708252D01*
X187969885Y-121724008D01*
X190068427Y-121736056D01*
X192523824Y-121744900D01*
X195365931Y-121751040D01*
X198624602Y-121754977D01*
X202329693Y-121757213D01*
X206511056Y-121758249D01*
X210992456Y-121758579D01*
X215662093Y-121758443D01*
X219826372Y-121757400D01*
X223514674Y-121754986D01*
X226756376Y-121750738D01*
X229580858Y-121744190D01*
X232017500Y-121734879D01*
X234095681Y-121722342D01*
X235844780Y-121706114D01*
X237294176Y-121685732D01*
X238473248Y-121660731D01*
X239411376Y-121630647D01*
X240137939Y-121595017D01*
X240682316Y-121553377D01*
X241073886Y-121505262D01*
X241342029Y-121450209D01*
X241516124Y-121387754D01*
X241625550Y-121317433D01*
X241669807Y-121274140D01*
X242045961Y-120644535D01*
X242248151Y-120004140D01*
X242293077Y-119569515D01*
X242363060Y-118656285D01*
X242454929Y-117319837D01*
X242565512Y-115615558D01*
X242691637Y-113598834D01*
X242830134Y-111325052D01*
X242977830Y-108849599D01*
X243131554Y-106227860D01*
X243288136Y-103515223D01*
X243444403Y-100767075D01*
X243597184Y-98038802D01*
X243743307Y-95385790D01*
X243879602Y-92863427D01*
X244002896Y-90527098D01*
X244110018Y-88432191D01*
X244197798Y-86634092D01*
X244263062Y-85188188D01*
X244302641Y-84149865D01*
X244304362Y-84094046D01*
X244338351Y-83656253D01*
X244394516Y-83263044D01*
X244445894Y-82912099D01*
X244465521Y-82601099D01*
X244426435Y-82327722D01*
X244301673Y-82089650D01*
X244064270Y-81884563D01*
X243687264Y-81710140D01*
X243143692Y-81564063D01*
X242406590Y-81444010D01*
X241448995Y-81347663D01*
X240243945Y-81272702D01*
X238764474Y-81216806D01*
X236983622Y-81177656D01*
X234874423Y-81152931D01*
X232409916Y-81140313D01*
X229563136Y-81137481D01*
X226307121Y-81142116D01*
X222614907Y-81151897D01*
X218459531Y-81164505D01*
X213814030Y-81177620D01*
X210497076Y-81185363D01*
X177871058Y-81253263D01*
X177368514Y-81926379D01*
X177253166Y-82094780D01*
X177160169Y-82293003D01*
X177090129Y-82568171D01*
X177043649Y-82967410D01*
X177021336Y-83537843D01*
X175650064Y-83537843D01*
X175649534Y-83374159D01*
X175711887Y-82481356D01*
X175850228Y-81825781D01*
X176074294Y-81333378D01*
X176393824Y-80930091D01*
X176818557Y-80541864D01*
X176831673Y-80530813D01*
X177373125Y-80159172D01*
X178031583Y-79914892D01*
X178965193Y-79751745D01*
X179781936Y-79668403D01*
X180003771Y-79649052D01*
X198753165Y-79649052D01*
X199646425Y-79814382D01*
X200138572Y-79855663D01*
X201089153Y-79891037D01*
X202426339Y-79920494D01*
X204078297Y-79944026D01*
X205973198Y-79961623D01*
X208039210Y-79973278D01*
X210204502Y-79978982D01*
X212397243Y-79978727D01*
X214545603Y-79972502D01*
X216577750Y-79960301D01*
X218421854Y-79942115D01*
X220006084Y-79917934D01*
X221258609Y-79887750D01*
X222107598Y-79851555D01*
X222453523Y-79817116D01*
X223245256Y-79647394D01*
X222204775Y-78789741D01*
X221017094Y-77966054D01*
X219497327Y-77134394D01*
X217838696Y-76386774D01*
X216234422Y-75815202D01*
X215598567Y-75643902D01*
X214578942Y-75405061D01*
X213953550Y-75296086D01*
X213593226Y-75337308D01*
X213368804Y-75549060D01*
X213151118Y-75951674D01*
X213107866Y-76035969D01*
X212567278Y-76904712D01*
X211907965Y-77718122D01*
X211246254Y-78353783D01*
X210698470Y-78689281D01*
X210563734Y-78713263D01*
X210172593Y-78522833D01*
X209556278Y-78016403D01*
X208828937Y-77291261D01*
X208603135Y-77042210D01*
X207124144Y-75371157D01*
X204970219Y-76107668D01*
X203137029Y-76833322D01*
X201419725Y-77696212D01*
X199980817Y-78609618D01*
X199379056Y-79091298D01*
X198753165Y-79649052D01*
X180003771Y-79649052D01*
X181929964Y-79481028D01*
X182065467Y-78361882D01*
X182239746Y-76893345D01*
X182339359Y-75891233D01*
X182355375Y-75291292D01*
X182278867Y-75029266D01*
X182100904Y-75040901D01*
X181812559Y-75261940D01*
X181654379Y-75403584D01*
X181097932Y-75696013D01*
X180651316Y-75524982D01*
X180339736Y-74955030D01*
X180188397Y-74050693D01*
X180222505Y-72876511D01*
X180345661Y-72052619D01*
X180478873Y-71236095D01*
X180528988Y-70659824D01*
X180505003Y-70487354D01*
X180254477Y-70585143D01*
X179670241Y-70942275D01*
X178847006Y-71498094D01*
X178133039Y-72006439D01*
X176882876Y-72865273D01*
X175985314Y-73355979D01*
X175408555Y-73482150D01*
X175120798Y-73247383D01*
X175090243Y-72655271D01*
X175138005Y-72345027D01*
X175712509Y-70575891D01*
X176725417Y-68854790D01*
X177725256Y-67684315D01*
X178364957Y-67019874D01*
X178638102Y-66627239D01*
X178506691Y-66468455D01*
X177932722Y-66505569D01*
X176878191Y-66700629D01*
X176763356Y-66723642D01*
X175684325Y-66863202D01*
X175046323Y-66743424D01*
X174813440Y-66346787D01*
X174896437Y-65812736D01*
X174903561Y-65501781D01*
X174585133Y-65367919D01*
X174052406Y-65344842D01*
X172268142Y-65595791D01*
X170664778Y-66325517D01*
X169273874Y-67499333D01*
X168126996Y-69082554D01*
X167255704Y-71040496D01*
X166691563Y-73338472D01*
X166673162Y-73454088D01*
X166521890Y-74627281D01*
X166498502Y-75586879D01*
X165194815Y-75586879D01*
X165250282Y-74171602D01*
X165327389Y-73622032D01*
X165927812Y-71038632D01*
X166779735Y-68893415D01*
X167908844Y-67139845D01*
X169340823Y-65731387D01*
X169912053Y-65315569D01*
X170509911Y-64900235D01*
X170947293Y-64526281D01*
X171290264Y-64086055D01*
X171604888Y-63471905D01*
X171721452Y-63175572D01*
X173158944Y-63175572D01*
X173313242Y-63531804D01*
X173722362Y-63694351D01*
X174400316Y-63738898D01*
X174742682Y-63740631D01*
X175880084Y-63671323D01*
X176827304Y-63408338D01*
X177788433Y-62929362D01*
X178965416Y-62393818D01*
X180171858Y-62061599D01*
X181307344Y-61933191D01*
X182271454Y-62009082D01*
X182963774Y-62289757D01*
X183283884Y-62775703D01*
X183294421Y-62902685D01*
X183231309Y-63173161D01*
X182968446Y-63342233D01*
X182395539Y-63444961D01*
X181402297Y-63516408D01*
X181356000Y-63518911D01*
X179936874Y-63673221D01*
X178942710Y-63972195D01*
X178623605Y-64149713D01*
X177829630Y-64676421D01*
X179425710Y-64811156D01*
X180704481Y-64993758D01*
X181468697Y-65294858D01*
X181723038Y-65733805D01*
X181472184Y-66329942D01*
X180720814Y-67102616D01*
X180101659Y-67605424D01*
X179317907Y-68256659D01*
X178583177Y-68948861D01*
X177977436Y-69594072D01*
X177580655Y-70104332D01*
X177472801Y-70391685D01*
X177538342Y-70424842D01*
X177828566Y-70286464D01*
X178422539Y-69926038D01*
X179090347Y-69489052D01*
X180266864Y-68845185D01*
X181300704Y-68566937D01*
X182111794Y-68667194D01*
X182482992Y-68943080D01*
X182631344Y-69280765D01*
X182581471Y-69801587D01*
X182316056Y-70640858D01*
X182238959Y-70849819D01*
X181961930Y-71673452D01*
X181815119Y-72282062D01*
X181820654Y-72515987D01*
X182070442Y-72420499D01*
X182580987Y-72026372D01*
X183233740Y-71426567D01*
X184385304Y-70438545D01*
X185382082Y-69870289D01*
X186181055Y-69744237D01*
X186366836Y-69792526D01*
X186719154Y-70146990D01*
X186711324Y-70639867D01*
X186367201Y-71037434D01*
X186234031Y-71093721D01*
X185676568Y-71376626D01*
X185003089Y-71850769D01*
X184897189Y-71937610D01*
X184503052Y-72298476D01*
X184265428Y-72658819D01*
X184144819Y-73160966D01*
X184101730Y-73947245D01*
X184096526Y-74822871D01*
X184118058Y-76053819D01*
X184174865Y-77254480D01*
X184255268Y-78187708D01*
X184266552Y-78274893D01*
X184436578Y-79515368D01*
X196911604Y-79515368D01*
X197789855Y-78747797D01*
X199322621Y-77574884D01*
X201146360Y-76436963D01*
X203027348Y-75472178D01*
X204051821Y-75046606D01*
X204977235Y-74674344D01*
X205669077Y-74342481D01*
X206006112Y-74110761D01*
X206020737Y-74076334D01*
X205984482Y-73961708D01*
X205814199Y-73943087D01*
X205417613Y-74043671D01*
X204702451Y-74286659D01*
X203614421Y-74681336D01*
X202066618Y-75066776D01*
X200233478Y-75244565D01*
X198322242Y-75215169D01*
X196540148Y-74979056D01*
X195402872Y-74662845D01*
X193034030Y-73505699D01*
X190877630Y-71901687D01*
X190013702Y-70993253D01*
X206324732Y-70993253D01*
X206542521Y-71737245D01*
X206720666Y-72109172D01*
X207193955Y-72960623D01*
X207807844Y-73947760D01*
X208490518Y-74969202D01*
X209170161Y-75923573D01*
X209774956Y-76709495D01*
X210233089Y-77225590D01*
X210451976Y-77376421D01*
X210791498Y-77171451D01*
X211282942Y-76644826D01*
X211630704Y-76180196D01*
X212249853Y-75192513D01*
X218720737Y-75192513D01*
X220458632Y-76179929D01*
X221596477Y-76881125D01*
X222794219Y-77703762D01*
X223630926Y-78341356D01*
X225065326Y-79515368D01*
X237544181Y-79515368D01*
X237411184Y-77175894D01*
X237299541Y-75417858D01*
X237257395Y-74993142D01*
X238693658Y-74993142D01*
X238812344Y-76117939D01*
X238927808Y-77170541D01*
X239051624Y-78242258D01*
X239063727Y-78343171D01*
X239196424Y-79443605D01*
X241232926Y-79628148D01*
X242820046Y-79850839D01*
X243975665Y-80212245D01*
X244793564Y-80750977D01*
X245227601Y-81272803D01*
X245378319Y-81557521D01*
X245484843Y-81932150D01*
X245550451Y-82473659D01*
X245578422Y-83259017D01*
X245572035Y-84365194D01*
X245534569Y-85869160D01*
X245486497Y-87349871D01*
X245421807Y-89105673D01*
X245351600Y-90778761D01*
X245281193Y-92257927D01*
X245215901Y-93431962D01*
X245161041Y-94189656D01*
X245158081Y-94220631D01*
X245014248Y-95691157D01*
X245557463Y-95022736D01*
X245924862Y-94477468D01*
X246430356Y-93607248D01*
X246983396Y-92570511D01*
X247167391Y-92205785D01*
X248256159Y-89641174D01*
X249133372Y-86813089D01*
X249790661Y-83818988D01*
X250219657Y-80756325D01*
X250411992Y-77722556D01*
X250359295Y-74815137D01*
X250053200Y-72131524D01*
X249485335Y-69769173D01*
X249168657Y-68900846D01*
X248562884Y-67606827D01*
X247933221Y-66570574D01*
X247326630Y-65834934D01*
X246790076Y-65442754D01*
X246370522Y-65436882D01*
X246114932Y-65860165D01*
X246076917Y-66080105D01*
X245983107Y-66484381D01*
X245750835Y-66715828D01*
X245282537Y-66791134D01*
X244480651Y-66726990D01*
X243319394Y-66551824D01*
X241983315Y-66333781D01*
X243497251Y-67969013D01*
X244465724Y-69150325D01*
X245216509Y-70334308D01*
X245722250Y-71442371D01*
X245955586Y-72395925D01*
X245889162Y-73116380D01*
X245495618Y-73525146D01*
X245438477Y-73545461D01*
X245130419Y-73430893D01*
X244496541Y-73060007D01*
X243639706Y-72496132D01*
X242967214Y-72024006D01*
X242034724Y-71358400D01*
X241278424Y-70828380D01*
X240793086Y-70499779D01*
X240664998Y-70424842D01*
X240643898Y-70672416D01*
X240651986Y-71337834D01*
X240686821Y-72305141D01*
X240718349Y-72959363D01*
X240769197Y-74161573D01*
X240762112Y-74934074D01*
X240685406Y-75379891D01*
X240527389Y-75602048D01*
X240411659Y-75662445D01*
X239879754Y-75650200D01*
X239333028Y-75412074D01*
X238693658Y-74993142D01*
X237257395Y-74993142D01*
X237169324Y-74105635D01*
X236984714Y-73150580D01*
X236709895Y-72464047D01*
X236309050Y-71957391D01*
X235746362Y-71541966D01*
X234986014Y-71129128D01*
X234963369Y-71117672D01*
X234304530Y-70712239D01*
X234127048Y-70359913D01*
X234395869Y-69975002D01*
X234469899Y-69911330D01*
X235088230Y-69710905D01*
X235926438Y-69964722D01*
X236997736Y-70678660D01*
X237851541Y-71416467D01*
X239425629Y-72873794D01*
X238986193Y-71448791D01*
X238732703Y-70519217D01*
X238564203Y-69697592D01*
X238526378Y-69355368D01*
X238589637Y-68895049D01*
X238918950Y-68682008D01*
X239441790Y-68609088D01*
X240216614Y-68670495D01*
X241119183Y-69015779D01*
X241914947Y-69458529D01*
X242683797Y-69903423D01*
X243235108Y-70186461D01*
X243452181Y-70247862D01*
X243452316Y-70246083D01*
X243248996Y-69791260D01*
X242705673Y-69137476D01*
X241922299Y-68389714D01*
X240998827Y-67652956D01*
X240949630Y-67617473D01*
X240030318Y-66927893D01*
X239508552Y-66430596D01*
X239327564Y-66035835D01*
X239430586Y-65653859D01*
X239571530Y-65438704D01*
X240000368Y-65114212D01*
X240781716Y-64904931D01*
X241625271Y-64807312D01*
X243318632Y-64668772D01*
X242192967Y-64071017D01*
X240740536Y-63568437D01*
X239618863Y-63473263D01*
X238551154Y-63391917D01*
X237907702Y-63167003D01*
X237721127Y-62827206D01*
X238024050Y-62401212D01*
X238229514Y-62251492D01*
X239152302Y-61933299D01*
X240358640Y-61932110D01*
X241714994Y-62230287D01*
X243087832Y-62810191D01*
X243284984Y-62919275D01*
X244209592Y-63367611D01*
X245095032Y-63665769D01*
X245586544Y-63740631D01*
X246452523Y-63740631D01*
X246347496Y-60866421D01*
X246275832Y-59561539D01*
X246138985Y-58457357D01*
X245896339Y-57450088D01*
X245507274Y-56435946D01*
X244931173Y-55311145D01*
X244127417Y-53971900D01*
X243055389Y-52314423D01*
X242920592Y-52110105D01*
X241953568Y-50744031D01*
X240834905Y-49322965D01*
X239632135Y-47917390D01*
X238412790Y-46597786D01*
X237244404Y-45434635D01*
X236194509Y-44498419D01*
X235330638Y-43859619D01*
X234762842Y-43596140D01*
X234219211Y-43527602D01*
X233256918Y-43450736D01*
X231991802Y-43373108D01*
X230539702Y-43302282D01*
X229816526Y-43273156D01*
X225672316Y-43117963D01*
X227276526Y-43996283D01*
X229165753Y-45281043D01*
X230946229Y-46962209D01*
X232488835Y-48901839D01*
X233529143Y-50676284D01*
X234405871Y-52647855D01*
X234981573Y-54441625D01*
X235305477Y-56271158D01*
X235426812Y-58350017D01*
X235431263Y-58928000D01*
X235352775Y-61098822D01*
X235084349Y-62967781D01*
X234576539Y-64748965D01*
X233779902Y-66656462D01*
X233522300Y-67193525D01*
X232169039Y-69432485D01*
X230478051Y-71377759D01*
X228518259Y-72988039D01*
X226358583Y-74222016D01*
X224067945Y-75038381D01*
X221715266Y-75395826D01*
X219936734Y-75336160D01*
X218720737Y-75192513D01*
X212249853Y-75192513D01*
X212261770Y-75173504D01*
X212881590Y-74033178D01*
X213425885Y-72896080D01*
X213830378Y-71899073D01*
X214030788Y-71179020D01*
X214041579Y-71046934D01*
X213874896Y-70473291D01*
X213461921Y-69785394D01*
X213341521Y-69633647D01*
X212185643Y-68611462D01*
X210907533Y-68085008D01*
X209585446Y-68054283D01*
X208297636Y-68519289D01*
X207122358Y-69480025D01*
X206988374Y-69633647D01*
X206465376Y-70365792D01*
X206324732Y-70993253D01*
X190013702Y-70993253D01*
X188988075Y-69914790D01*
X187419766Y-67608990D01*
X186227107Y-65048270D01*
X185725705Y-63415479D01*
X198904796Y-63415479D01*
X198948069Y-64501903D01*
X199404185Y-65629931D01*
X200186895Y-66649212D01*
X201189876Y-67398859D01*
X202441025Y-67899989D01*
X203573526Y-67957875D01*
X204762701Y-67575951D01*
X204972403Y-67473004D01*
X206122767Y-66622045D01*
X206829795Y-65473285D01*
X207088078Y-64035780D01*
X207089211Y-63927880D01*
X206998750Y-63113616D01*
X214292027Y-63113616D01*
X214292507Y-64489658D01*
X214732733Y-65806895D01*
X215581995Y-66942680D01*
X216167890Y-67416038D01*
X217182604Y-67893293D01*
X218318370Y-67985580D01*
X219709910Y-67703556D01*
X219729362Y-67697747D01*
X220880124Y-67106990D01*
X221700928Y-66191582D01*
X222177512Y-65058471D01*
X222295616Y-63814605D01*
X222040980Y-62566932D01*
X221399343Y-61422399D01*
X220662290Y-60701139D01*
X219529357Y-60142089D01*
X218238933Y-59980690D01*
X216937011Y-60189718D01*
X215769581Y-60741948D01*
X214882634Y-61610158D01*
X214762002Y-61801413D01*
X214292027Y-63113616D01*
X206998750Y-63113616D01*
X206935858Y-62547523D01*
X206429336Y-61512920D01*
X205503667Y-60718753D01*
X204867027Y-60380779D01*
X203737455Y-59922311D01*
X202851493Y-59768180D01*
X202016921Y-59912895D01*
X201186965Y-60275626D01*
X200039000Y-61149199D01*
X199230057Y-62377135D01*
X198904796Y-63415479D01*
X185725705Y-63415479D01*
X185661344Y-63205894D01*
X185409570Y-61674398D01*
X185298989Y-59840020D01*
X185324222Y-57886784D01*
X185479893Y-55998714D01*
X185760624Y-54359836D01*
X185938677Y-53714315D01*
X187023542Y-51056762D01*
X188438624Y-48665230D01*
X190132748Y-46597496D01*
X192054738Y-44911338D01*
X194153421Y-43664532D01*
X195220471Y-43235001D01*
X196529158Y-42788096D01*
X195593369Y-42537830D01*
X194817451Y-42425257D01*
X193681892Y-42378071D01*
X192318503Y-42389058D01*
X190859094Y-42451007D01*
X189435473Y-42556706D01*
X188179452Y-42698941D01*
X187222840Y-42870502D01*
X186768001Y-43020721D01*
X186131888Y-43460940D01*
X185235927Y-44230554D01*
X184160719Y-45246603D01*
X182986863Y-46426127D01*
X181794961Y-47686163D01*
X180665613Y-48943752D01*
X179679420Y-50115931D01*
X178963322Y-51053957D01*
X176836470Y-54406420D01*
X174982682Y-58046347D01*
X174084829Y-60187920D01*
X173558752Y-61579315D01*
X173245452Y-62549971D01*
X173158944Y-63175572D01*
X171721452Y-63175572D01*
X171957228Y-62576178D01*
X172413350Y-61291220D01*
X172455262Y-61171359D01*
X173940985Y-57388332D01*
X175639522Y-53993568D01*
X177629503Y-50857700D01*
X179989559Y-47851364D01*
X181690211Y-45977814D01*
X182819343Y-44779144D01*
X183578015Y-43917365D01*
X183971783Y-43349165D01*
X184006202Y-43031229D01*
X183686827Y-42920243D01*
X183019212Y-42972895D01*
X182054511Y-43137429D01*
X180979850Y-43265623D01*
X180316212Y-43187185D01*
X180099143Y-42910969D01*
X180186582Y-42672086D01*
X180481147Y-42508606D01*
X181201154Y-42213447D01*
X182262756Y-41817928D01*
X183582107Y-41353364D01*
X184353531Y-41093448D01*
X187983750Y-41093448D01*
X188227621Y-41159754D01*
X188809108Y-41201844D01*
X189785664Y-41225517D01*
X191214744Y-41236570D01*
X191983895Y-41238889D01*
X194969843Y-41305863D01*
X197521334Y-41500253D01*
X199726054Y-41834098D01*
X201671686Y-42319433D01*
X202867828Y-42732976D01*
X203906537Y-43128321D01*
X204520397Y-43322549D01*
X204783251Y-43307545D01*
X204768941Y-43075194D01*
X204551310Y-42617382D01*
X204517498Y-42551684D01*
X204135098Y-41982370D01*
X203504943Y-41220309D01*
X202720634Y-40360095D01*
X201875774Y-39496323D01*
X201063967Y-38723587D01*
X200378813Y-38136480D01*
X199913917Y-37829598D01*
X199821454Y-37805894D01*
X199567600Y-37978360D01*
X199533426Y-38551276D01*
X199550077Y-38715358D01*
X199473374Y-39471612D01*
X199037940Y-39840114D01*
X198266974Y-39807372D01*
X197883909Y-39684282D01*
X197179927Y-39519675D01*
X196238049Y-39421858D01*
X195818488Y-39410105D01*
X194865640Y-39474390D01*
X193588599Y-39646438D01*
X192149117Y-39895035D01*
X190708945Y-40188968D01*
X189429835Y-40497024D01*
X188473536Y-40787989D01*
X188279039Y-40864996D01*
X188020041Y-40997128D01*
X187983750Y-41093448D01*
X184353531Y-41093448D01*
X184962549Y-40888252D01*
X186697271Y-40290565D01*
X188488624Y-39630065D01*
X190179063Y-38967723D01*
X191611044Y-38364516D01*
X192284684Y-38054381D01*
X192417378Y-37997518D01*
X195787591Y-37997518D01*
X195895590Y-38100461D01*
X196361607Y-38255996D01*
X197000869Y-38327309D01*
X197604973Y-38310464D01*
X197965519Y-38201529D01*
X197995590Y-38140105D01*
X197864035Y-37759034D01*
X197759990Y-37574149D01*
X197510942Y-37361532D01*
X197069265Y-37381014D01*
X196528937Y-37538599D01*
X195916588Y-37790098D01*
X195787591Y-37997518D01*
X192417378Y-37997518D01*
X195916499Y-36498056D01*
X196360039Y-36349589D01*
X200004947Y-36349589D01*
X201251092Y-37207858D01*
X202738313Y-38448073D01*
X204186262Y-40049254D01*
X205452599Y-41847655D01*
X205793724Y-42433524D01*
X206392872Y-43369186D01*
X207232093Y-44488872D01*
X208167115Y-45604818D01*
X208560737Y-46034690D01*
X210432316Y-48013223D01*
X211814861Y-46529277D01*
X212667795Y-45509814D01*
X213505352Y-44340171D01*
X213878585Y-43724487D01*
X215413306Y-43724487D01*
X215626397Y-43901071D01*
X216218735Y-43796067D01*
X216916000Y-43543959D01*
X217968940Y-43175767D01*
X219272506Y-42795092D01*
X220550710Y-42482300D01*
X220592316Y-42473417D01*
X221789544Y-42271465D01*
X223242660Y-42127828D01*
X225038752Y-42036586D01*
X227264905Y-41991820D01*
X227731428Y-41988156D01*
X229273281Y-41969276D01*
X230587933Y-41935376D01*
X231599654Y-41889918D01*
X232232711Y-41836361D01*
X232411374Y-41778166D01*
X232405898Y-41774551D01*
X232011846Y-41625364D01*
X231240827Y-41384221D01*
X230233278Y-41094212D01*
X229812049Y-40978657D01*
X228592209Y-40686938D01*
X227398154Y-40497711D01*
X226053061Y-40391521D01*
X224380106Y-40348913D01*
X224068105Y-40346686D01*
X220592316Y-40328341D01*
X220622813Y-39334486D01*
X220610450Y-38923987D01*
X222062842Y-38923987D01*
X222304540Y-38972009D01*
X222930627Y-38973999D01*
X223600211Y-38941835D01*
X224453101Y-38933654D01*
X225509235Y-38988800D01*
X226589474Y-39090050D01*
X227514681Y-39220179D01*
X228105718Y-39361965D01*
X228145474Y-39378849D01*
X228212316Y-39259023D01*
X227987973Y-39090413D01*
X227401672Y-38773806D01*
X226583504Y-38370564D01*
X225663559Y-37942050D01*
X224771930Y-37549625D01*
X224038705Y-37254652D01*
X223761434Y-37159607D01*
X223312309Y-37142880D01*
X222912707Y-37473362D01*
X222625119Y-37895018D01*
X222269723Y-38497063D01*
X222075272Y-38878972D01*
X222062842Y-38923987D01*
X220610450Y-38923987D01*
X220603529Y-38694235D01*
X220517394Y-38358323D01*
X220489128Y-38343473D01*
X220154066Y-38517106D01*
X219557338Y-38964271D01*
X218817907Y-39582914D01*
X218054733Y-40270980D01*
X217386781Y-40926412D01*
X217064159Y-41281684D01*
X216130723Y-42437146D01*
X215580927Y-43243963D01*
X215413306Y-43724487D01*
X213878585Y-43724487D01*
X214067557Y-43412760D01*
X214976814Y-41972500D01*
X216146128Y-40506922D01*
X217449615Y-39149072D01*
X218761388Y-38031994D01*
X219779265Y-37376175D01*
X220549881Y-36950120D01*
X221085483Y-36609303D01*
X221260102Y-36443451D01*
X221010222Y-36282322D01*
X220321081Y-36080420D01*
X219285036Y-35854598D01*
X217994448Y-35621709D01*
X216541678Y-35398605D01*
X215019086Y-35202139D01*
X213712472Y-35066265D01*
X209920709Y-34929822D01*
X206061482Y-35177782D01*
X202358774Y-35794665D01*
X202010211Y-35874989D01*
X200004947Y-36349589D01*
X196360039Y-36349589D01*
X199810492Y-35194614D01*
X203347053Y-34304193D01*
X205919930Y-33903667D01*
X208801115Y-33693761D01*
X211799115Y-33674991D01*
X214722434Y-33847870D01*
X214722434Y-33847870D01*
G37*
X214722434Y-33847870D02*
X217379579Y-34212915D01*
X217651985Y-34265745D01*
X222261708Y-35458295D01*
X226817536Y-37171862D01*
X231285907Y-39393110D01*
X232847277Y-40302734D01*
X233866397Y-40852603D01*
X235148464Y-41450815D01*
X236446836Y-41983665D01*
X236682373Y-42070797D01*
X238072264Y-42585709D01*
X239024769Y-42972649D01*
X239611658Y-43267058D01*
X239904703Y-43504375D01*
X239976526Y-43697407D01*
X239738872Y-43857084D01*
X239143312Y-43947640D01*
X238876397Y-43955368D01*
X237776268Y-43955368D01*
X239420908Y-45713493D01*
X242224054Y-48968703D01*
X244569889Y-52281992D01*
X246531879Y-55776403D01*
X248183490Y-59574977D01*
X248907462Y-61601684D01*
X249330803Y-62839353D01*
X249661851Y-63684437D01*
X249972163Y-64253366D01*
X250333292Y-64662570D01*
X250816794Y-65028480D01*
X251145809Y-65243819D01*
X252561561Y-66337080D01*
X253682038Y-67642452D01*
X254564767Y-69251749D01*
X255267271Y-71256784D01*
X255518577Y-72222954D01*
X255894492Y-74556528D01*
X255939374Y-77097634D01*
X255650906Y-79921408D01*
X255207965Y-82299694D01*
X254161064Y-86307251D01*
X252834184Y-89902233D01*
X251195988Y-93145482D01*
X249215137Y-96097838D01*
X246860292Y-98820141D01*
X246521277Y-99164098D01*
X244583082Y-101102292D01*
X244416460Y-102941988D01*
X244357655Y-103701198D01*
X244276880Y-104902941D01*
X244179715Y-106455721D01*
X244071740Y-108268044D01*
X243958535Y-110248417D01*
X243847685Y-112268000D01*
X243737366Y-114247227D01*
X243627722Y-116078228D01*
X243523893Y-117685210D01*
X243431015Y-118992382D01*
X243354228Y-119923951D01*
X243298669Y-120404123D01*
X243294857Y-120422736D01*
X242968368Y-121242119D01*
X242376108Y-122240554D01*
X241645541Y-123239576D01*
X240904130Y-124060717D01*
X240416081Y-124453428D01*
X239883632Y-124708747D01*
X239216956Y-124866015D01*
X238281653Y-124945382D01*
X236990912Y-124967000D01*
X235647920Y-124941638D01*
X234787253Y-124860186D01*
X234358836Y-124716455D01*
X234294983Y-124633789D01*
X234171657Y-124573302D01*
X233825935Y-124519306D01*
X233230331Y-124471335D01*
X232357359Y-124428920D01*
X231179534Y-124391593D01*
X229669371Y-124358888D01*
X227799382Y-124330335D01*
X225542083Y-124305468D01*
X222869989Y-124283818D01*
X219755613Y-124264918D01*
X216171469Y-124248301D01*
X212090073Y-124233498D01*
X210476913Y-124228472D01*
X206342795Y-124216827D01*
X202711573Y-124208565D01*
X199551413Y-124204132D01*
X196830481Y-124203980D01*
X194516944Y-124208555D01*
X192578969Y-124218307D01*
X190984721Y-124233685D01*
X189702369Y-124255138D01*
X188700077Y-124283113D01*
X187946013Y-124318061D01*
X187408343Y-124360430D01*
X187055233Y-124410668D01*
X186854851Y-124469225D01*
X186775363Y-124536549D01*
X186770211Y-124562683D01*
X186688819Y-124744060D01*
X186387651Y-124863372D01*
X185781217Y-124932440D01*
X184784027Y-124963081D01*
X183838461Y-124968000D01*
X182548662Y-124962682D01*
X181669628Y-124929039D01*
X181077393Y-124840537D01*
X180647988Y-124670642D01*
X180257446Y-124392820D01*
X179961619Y-124138197D01*
X179399506Y-123582107D01*
X179061062Y-123126592D01*
X179047227Y-123084648D01*
X180341353Y-123084648D01*
X180486880Y-123312850D01*
X181088632Y-123587769D01*
X181768610Y-123743275D01*
X182686877Y-123837935D01*
X183685687Y-123870849D01*
X184607293Y-123841118D01*
X185293950Y-123747842D01*
X185578047Y-123613369D01*
X185662431Y-123337607D01*
X185594353Y-123268206D01*
X235466075Y-123268206D01*
X235523526Y-123485942D01*
X235881348Y-123741668D01*
X236618577Y-123878280D01*
X237592614Y-123892651D01*
X238660861Y-123781652D01*
X239575474Y-123574833D01*
X240056990Y-123423694D01*
X240252097Y-123318373D01*
X240103526Y-123236175D01*
X239554010Y-123154403D01*
X238546281Y-123050360D01*
X238156399Y-123012417D01*
X237058217Y-122922403D01*
X236172832Y-122881081D01*
X235626090Y-122892760D01*
X235516527Y-122922034D01*
X235466075Y-123268206D01*
X185594353Y-123268206D01*
X185471535Y-123143004D01*
X184937355Y-123010881D01*
X183991888Y-122922565D01*
X182871553Y-122870085D01*
X181547723Y-122857617D01*
X180699646Y-122931021D01*
X180341353Y-123084648D01*
X179047227Y-123084648D01*
X179016526Y-122991572D01*
X178899723Y-122575188D01*
X178606080Y-121903485D01*
X178460829Y-121615585D01*
X178310642Y-121288574D01*
X178181621Y-120889998D01*
X178067882Y-120363046D01*
X177963542Y-119650910D01*
X177862718Y-118696779D01*
X177759527Y-117443845D01*
X177648087Y-115835299D01*
X177522515Y-113814329D01*
X177376927Y-111324129D01*
X177354403Y-110931157D01*
X176803675Y-101305894D01*
X174219276Y-98632210D01*
X171817070Y-95881476D01*
X169884303Y-93064220D01*
X168356618Y-90082206D01*
X167918520Y-89014557D01*
X167009259Y-86394379D01*
X166262663Y-83695183D01*
X165696101Y-81020139D01*
X165326938Y-78472415D01*
X165172543Y-76155179D01*
X165194815Y-75586879D01*
X166498502Y-75586879D01*
X166611983Y-76588054D01*
X166821067Y-77654429D01*
X167957714Y-81884115D01*
X169467536Y-85730925D01*
X171350502Y-89194793D01*
X173606578Y-92275650D01*
X174402970Y-93175925D01*
X175172518Y-93978746D01*
X175663197Y-94408833D01*
X175933618Y-94508239D01*
X176037350Y-94348568D01*
X176051597Y-93943371D01*
X176036776Y-93091368D01*
X175995956Y-91879524D01*
X175932204Y-90394803D01*
X175848589Y-88724171D01*
X175821017Y-88216499D01*
X175713837Y-86167674D01*
X175653430Y-84578246D01*
X175650064Y-83537843D01*
X177021336Y-83537843D01*
X177023794Y-84326593D01*
X177051628Y-85380785D01*
X177105444Y-86747543D01*
X177185845Y-88473991D01*
X177293438Y-90607252D01*
X177428827Y-93194451D01*
X177540142Y-95294800D01*
X177688455Y-98091999D01*
X177838328Y-100926609D01*
X177985224Y-103712291D01*
X178124607Y-106362706D01*
X178251941Y-108791514D01*
X178362689Y-110912378D01*
X178452315Y-112638957D01*
X178495162Y-113471157D01*
X178605850Y-115604969D01*
X178700818Y-117269697D01*
X178791816Y-118530293D01*
X178890595Y-119451703D01*
X179008903Y-120098877D01*
X179158491Y-120536764D01*
X179351107Y-120830311D01*
X179598502Y-121044468D01*
X179899981Y-121236595D01*
X180043514Y-121316978D01*
X180215501Y-121388643D01*
X180445799Y-121452092D01*
X180764261Y-121507824D01*
X181200742Y-121556342D01*
X181785097Y-121598146D01*
X182547181Y-121633738D01*
X183516846Y-121663619D01*
X184723949Y-121688290D01*
X186198344Y-121708252D01*
X187969885Y-121724008D01*
X190068427Y-121736056D01*
X192523824Y-121744900D01*
X195365931Y-121751040D01*
X198624602Y-121754977D01*
X202329693Y-121757213D01*
X206511056Y-121758249D01*
X210992456Y-121758579D01*
X215662093Y-121758443D01*
X219826372Y-121757400D01*
X223514674Y-121754986D01*
X226756376Y-121750738D01*
X229580858Y-121744190D01*
X232017500Y-121734879D01*
X234095681Y-121722342D01*
X235844780Y-121706114D01*
X237294176Y-121685732D01*
X238473248Y-121660731D01*
X239411376Y-121630647D01*
X240137939Y-121595017D01*
X240682316Y-121553377D01*
X241073886Y-121505262D01*
X241342029Y-121450209D01*
X241516124Y-121387754D01*
X241625550Y-121317433D01*
X241669807Y-121274140D01*
X242045961Y-120644535D01*
X242248151Y-120004140D01*
X242293077Y-119569515D01*
X242363060Y-118656285D01*
X242454929Y-117319837D01*
X242565512Y-115615558D01*
X242691637Y-113598834D01*
X242830134Y-111325052D01*
X242977830Y-108849599D01*
X243131554Y-106227860D01*
X243288136Y-103515223D01*
X243444403Y-100767075D01*
X243597184Y-98038802D01*
X243743307Y-95385790D01*
X243879602Y-92863427D01*
X244002896Y-90527098D01*
X244110018Y-88432191D01*
X244197798Y-86634092D01*
X244263062Y-85188188D01*
X244302641Y-84149865D01*
X244304362Y-84094046D01*
X244338351Y-83656253D01*
X244394516Y-83263044D01*
X244445894Y-82912099D01*
X244465521Y-82601099D01*
X244426435Y-82327722D01*
X244301673Y-82089650D01*
X244064270Y-81884563D01*
X243687264Y-81710140D01*
X243143692Y-81564063D01*
X242406590Y-81444010D01*
X241448995Y-81347663D01*
X240243945Y-81272702D01*
X238764474Y-81216806D01*
X236983622Y-81177656D01*
X234874423Y-81152931D01*
X232409916Y-81140313D01*
X229563136Y-81137481D01*
X226307121Y-81142116D01*
X222614907Y-81151897D01*
X218459531Y-81164505D01*
X213814030Y-81177620D01*
X210497076Y-81185363D01*
X177871058Y-81253263D01*
X177368514Y-81926379D01*
X177253166Y-82094780D01*
X177160169Y-82293003D01*
X177090129Y-82568171D01*
X177043649Y-82967410D01*
X177021336Y-83537843D01*
X175650064Y-83537843D01*
X175649534Y-83374159D01*
X175711887Y-82481356D01*
X175850228Y-81825781D01*
X176074294Y-81333378D01*
X176393824Y-80930091D01*
X176818557Y-80541864D01*
X176831673Y-80530813D01*
X177373125Y-80159172D01*
X178031583Y-79914892D01*
X178965193Y-79751745D01*
X179781936Y-79668403D01*
X180003771Y-79649052D01*
X198753165Y-79649052D01*
X199646425Y-79814382D01*
X200138572Y-79855663D01*
X201089153Y-79891037D01*
X202426339Y-79920494D01*
X204078297Y-79944026D01*
X205973198Y-79961623D01*
X208039210Y-79973278D01*
X210204502Y-79978982D01*
X212397243Y-79978727D01*
X214545603Y-79972502D01*
X216577750Y-79960301D01*
X218421854Y-79942115D01*
X220006084Y-79917934D01*
X221258609Y-79887750D01*
X222107598Y-79851555D01*
X222453523Y-79817116D01*
X223245256Y-79647394D01*
X222204775Y-78789741D01*
X221017094Y-77966054D01*
X219497327Y-77134394D01*
X217838696Y-76386774D01*
X216234422Y-75815202D01*
X215598567Y-75643902D01*
X214578942Y-75405061D01*
X213953550Y-75296086D01*
X213593226Y-75337308D01*
X213368804Y-75549060D01*
X213151118Y-75951674D01*
X213107866Y-76035969D01*
X212567278Y-76904712D01*
X211907965Y-77718122D01*
X211246254Y-78353783D01*
X210698470Y-78689281D01*
X210563734Y-78713263D01*
X210172593Y-78522833D01*
X209556278Y-78016403D01*
X208828937Y-77291261D01*
X208603135Y-77042210D01*
X207124144Y-75371157D01*
X204970219Y-76107668D01*
X203137029Y-76833322D01*
X201419725Y-77696212D01*
X199980817Y-78609618D01*
X199379056Y-79091298D01*
X198753165Y-79649052D01*
X180003771Y-79649052D01*
X181929964Y-79481028D01*
X182065467Y-78361882D01*
X182239746Y-76893345D01*
X182339359Y-75891233D01*
X182355375Y-75291292D01*
X182278867Y-75029266D01*
X182100904Y-75040901D01*
X181812559Y-75261940D01*
X181654379Y-75403584D01*
X181097932Y-75696013D01*
X180651316Y-75524982D01*
X180339736Y-74955030D01*
X180188397Y-74050693D01*
X180222505Y-72876511D01*
X180345661Y-72052619D01*
X180478873Y-71236095D01*
X180528988Y-70659824D01*
X180505003Y-70487354D01*
X180254477Y-70585143D01*
X179670241Y-70942275D01*
X178847006Y-71498094D01*
X178133039Y-72006439D01*
X176882876Y-72865273D01*
X175985314Y-73355979D01*
X175408555Y-73482150D01*
X175120798Y-73247383D01*
X175090243Y-72655271D01*
X175138005Y-72345027D01*
X175712509Y-70575891D01*
X176725417Y-68854790D01*
X177725256Y-67684315D01*
X178364957Y-67019874D01*
X178638102Y-66627239D01*
X178506691Y-66468455D01*
X177932722Y-66505569D01*
X176878191Y-66700629D01*
X176763356Y-66723642D01*
X175684325Y-66863202D01*
X175046323Y-66743424D01*
X174813440Y-66346787D01*
X174896437Y-65812736D01*
X174903561Y-65501781D01*
X174585133Y-65367919D01*
X174052406Y-65344842D01*
X172268142Y-65595791D01*
X170664778Y-66325517D01*
X169273874Y-67499333D01*
X168126996Y-69082554D01*
X167255704Y-71040496D01*
X166691563Y-73338472D01*
X166673162Y-73454088D01*
X166521890Y-74627281D01*
X166498502Y-75586879D01*
X165194815Y-75586879D01*
X165250282Y-74171602D01*
X165327389Y-73622032D01*
X165927812Y-71038632D01*
X166779735Y-68893415D01*
X167908844Y-67139845D01*
X169340823Y-65731387D01*
X169912053Y-65315569D01*
X170509911Y-64900235D01*
X170947293Y-64526281D01*
X171290264Y-64086055D01*
X171604888Y-63471905D01*
X171721452Y-63175572D01*
X173158944Y-63175572D01*
X173313242Y-63531804D01*
X173722362Y-63694351D01*
X174400316Y-63738898D01*
X174742682Y-63740631D01*
X175880084Y-63671323D01*
X176827304Y-63408338D01*
X177788433Y-62929362D01*
X178965416Y-62393818D01*
X180171858Y-62061599D01*
X181307344Y-61933191D01*
X182271454Y-62009082D01*
X182963774Y-62289757D01*
X183283884Y-62775703D01*
X183294421Y-62902685D01*
X183231309Y-63173161D01*
X182968446Y-63342233D01*
X182395539Y-63444961D01*
X181402297Y-63516408D01*
X181356000Y-63518911D01*
X179936874Y-63673221D01*
X178942710Y-63972195D01*
X178623605Y-64149713D01*
X177829630Y-64676421D01*
X179425710Y-64811156D01*
X180704481Y-64993758D01*
X181468697Y-65294858D01*
X181723038Y-65733805D01*
X181472184Y-66329942D01*
X180720814Y-67102616D01*
X180101659Y-67605424D01*
X179317907Y-68256659D01*
X178583177Y-68948861D01*
X177977436Y-69594072D01*
X177580655Y-70104332D01*
X177472801Y-70391685D01*
X177538342Y-70424842D01*
X177828566Y-70286464D01*
X178422539Y-69926038D01*
X179090347Y-69489052D01*
X180266864Y-68845185D01*
X181300704Y-68566937D01*
X182111794Y-68667194D01*
X182482992Y-68943080D01*
X182631344Y-69280765D01*
X182581471Y-69801587D01*
X182316056Y-70640858D01*
X182238959Y-70849819D01*
X181961930Y-71673452D01*
X181815119Y-72282062D01*
X181820654Y-72515987D01*
X182070442Y-72420499D01*
X182580987Y-72026372D01*
X183233740Y-71426567D01*
X184385304Y-70438545D01*
X185382082Y-69870289D01*
X186181055Y-69744237D01*
X186366836Y-69792526D01*
X186719154Y-70146990D01*
X186711324Y-70639867D01*
X186367201Y-71037434D01*
X186234031Y-71093721D01*
X185676568Y-71376626D01*
X185003089Y-71850769D01*
X184897189Y-71937610D01*
X184503052Y-72298476D01*
X184265428Y-72658819D01*
X184144819Y-73160966D01*
X184101730Y-73947245D01*
X184096526Y-74822871D01*
X184118058Y-76053819D01*
X184174865Y-77254480D01*
X184255268Y-78187708D01*
X184266552Y-78274893D01*
X184436578Y-79515368D01*
X196911604Y-79515368D01*
X197789855Y-78747797D01*
X199322621Y-77574884D01*
X201146360Y-76436963D01*
X203027348Y-75472178D01*
X204051821Y-75046606D01*
X204977235Y-74674344D01*
X205669077Y-74342481D01*
X206006112Y-74110761D01*
X206020737Y-74076334D01*
X205984482Y-73961708D01*
X205814199Y-73943087D01*
X205417613Y-74043671D01*
X204702451Y-74286659D01*
X203614421Y-74681336D01*
X202066618Y-75066776D01*
X200233478Y-75244565D01*
X198322242Y-75215169D01*
X196540148Y-74979056D01*
X195402872Y-74662845D01*
X193034030Y-73505699D01*
X190877630Y-71901687D01*
X190013702Y-70993253D01*
X206324732Y-70993253D01*
X206542521Y-71737245D01*
X206720666Y-72109172D01*
X207193955Y-72960623D01*
X207807844Y-73947760D01*
X208490518Y-74969202D01*
X209170161Y-75923573D01*
X209774956Y-76709495D01*
X210233089Y-77225590D01*
X210451976Y-77376421D01*
X210791498Y-77171451D01*
X211282942Y-76644826D01*
X211630704Y-76180196D01*
X212249853Y-75192513D01*
X218720737Y-75192513D01*
X220458632Y-76179929D01*
X221596477Y-76881125D01*
X222794219Y-77703762D01*
X223630926Y-78341356D01*
X225065326Y-79515368D01*
X237544181Y-79515368D01*
X237411184Y-77175894D01*
X237299541Y-75417858D01*
X237257395Y-74993142D01*
X238693658Y-74993142D01*
X238812344Y-76117939D01*
X238927808Y-77170541D01*
X239051624Y-78242258D01*
X239063727Y-78343171D01*
X239196424Y-79443605D01*
X241232926Y-79628148D01*
X242820046Y-79850839D01*
X243975665Y-80212245D01*
X244793564Y-80750977D01*
X245227601Y-81272803D01*
X245378319Y-81557521D01*
X245484843Y-81932150D01*
X245550451Y-82473659D01*
X245578422Y-83259017D01*
X245572035Y-84365194D01*
X245534569Y-85869160D01*
X245486497Y-87349871D01*
X245421807Y-89105673D01*
X245351600Y-90778761D01*
X245281193Y-92257927D01*
X245215901Y-93431962D01*
X245161041Y-94189656D01*
X245158081Y-94220631D01*
X245014248Y-95691157D01*
X245557463Y-95022736D01*
X245924862Y-94477468D01*
X246430356Y-93607248D01*
X246983396Y-92570511D01*
X247167391Y-92205785D01*
X248256159Y-89641174D01*
X249133372Y-86813089D01*
X249790661Y-83818988D01*
X250219657Y-80756325D01*
X250411992Y-77722556D01*
X250359295Y-74815137D01*
X250053200Y-72131524D01*
X249485335Y-69769173D01*
X249168657Y-68900846D01*
X248562884Y-67606827D01*
X247933221Y-66570574D01*
X247326630Y-65834934D01*
X246790076Y-65442754D01*
X246370522Y-65436882D01*
X246114932Y-65860165D01*
X246076917Y-66080105D01*
X245983107Y-66484381D01*
X245750835Y-66715828D01*
X245282537Y-66791134D01*
X244480651Y-66726990D01*
X243319394Y-66551824D01*
X241983315Y-66333781D01*
X243497251Y-67969013D01*
X244465724Y-69150325D01*
X245216509Y-70334308D01*
X245722250Y-71442371D01*
X245955586Y-72395925D01*
X245889162Y-73116380D01*
X245495618Y-73525146D01*
X245438477Y-73545461D01*
X245130419Y-73430893D01*
X244496541Y-73060007D01*
X243639706Y-72496132D01*
X242967214Y-72024006D01*
X242034724Y-71358400D01*
X241278424Y-70828380D01*
X240793086Y-70499779D01*
X240664998Y-70424842D01*
X240643898Y-70672416D01*
X240651986Y-71337834D01*
X240686821Y-72305141D01*
X240718349Y-72959363D01*
X240769197Y-74161573D01*
X240762112Y-74934074D01*
X240685406Y-75379891D01*
X240527389Y-75602048D01*
X240411659Y-75662445D01*
X239879754Y-75650200D01*
X239333028Y-75412074D01*
X238693658Y-74993142D01*
X237257395Y-74993142D01*
X237169324Y-74105635D01*
X236984714Y-73150580D01*
X236709895Y-72464047D01*
X236309050Y-71957391D01*
X235746362Y-71541966D01*
X234986014Y-71129128D01*
X234963369Y-71117672D01*
X234304530Y-70712239D01*
X234127048Y-70359913D01*
X234395869Y-69975002D01*
X234469899Y-69911330D01*
X235088230Y-69710905D01*
X235926438Y-69964722D01*
X236997736Y-70678660D01*
X237851541Y-71416467D01*
X239425629Y-72873794D01*
X238986193Y-71448791D01*
X238732703Y-70519217D01*
X238564203Y-69697592D01*
X238526378Y-69355368D01*
X238589637Y-68895049D01*
X238918950Y-68682008D01*
X239441790Y-68609088D01*
X240216614Y-68670495D01*
X241119183Y-69015779D01*
X241914947Y-69458529D01*
X242683797Y-69903423D01*
X243235108Y-70186461D01*
X243452181Y-70247862D01*
X243452316Y-70246083D01*
X243248996Y-69791260D01*
X242705673Y-69137476D01*
X241922299Y-68389714D01*
X240998827Y-67652956D01*
X240949630Y-67617473D01*
X240030318Y-66927893D01*
X239508552Y-66430596D01*
X239327564Y-66035835D01*
X239430586Y-65653859D01*
X239571530Y-65438704D01*
X240000368Y-65114212D01*
X240781716Y-64904931D01*
X241625271Y-64807312D01*
X243318632Y-64668772D01*
X242192967Y-64071017D01*
X240740536Y-63568437D01*
X239618863Y-63473263D01*
X238551154Y-63391917D01*
X237907702Y-63167003D01*
X237721127Y-62827206D01*
X238024050Y-62401212D01*
X238229514Y-62251492D01*
X239152302Y-61933299D01*
X240358640Y-61932110D01*
X241714994Y-62230287D01*
X243087832Y-62810191D01*
X243284984Y-62919275D01*
X244209592Y-63367611D01*
X245095032Y-63665769D01*
X245586544Y-63740631D01*
X246452523Y-63740631D01*
X246347496Y-60866421D01*
X246275832Y-59561539D01*
X246138985Y-58457357D01*
X245896339Y-57450088D01*
X245507274Y-56435946D01*
X244931173Y-55311145D01*
X244127417Y-53971900D01*
X243055389Y-52314423D01*
X242920592Y-52110105D01*
X241953568Y-50744031D01*
X240834905Y-49322965D01*
X239632135Y-47917390D01*
X238412790Y-46597786D01*
X237244404Y-45434635D01*
X236194509Y-44498419D01*
X235330638Y-43859619D01*
X234762842Y-43596140D01*
X234219211Y-43527602D01*
X233256918Y-43450736D01*
X231991802Y-43373108D01*
X230539702Y-43302282D01*
X229816526Y-43273156D01*
X225672316Y-43117963D01*
X227276526Y-43996283D01*
X229165753Y-45281043D01*
X230946229Y-46962209D01*
X232488835Y-48901839D01*
X233529143Y-50676284D01*
X234405871Y-52647855D01*
X234981573Y-54441625D01*
X235305477Y-56271158D01*
X235426812Y-58350017D01*
X235431263Y-58928000D01*
X235352775Y-61098822D01*
X235084349Y-62967781D01*
X234576539Y-64748965D01*
X233779902Y-66656462D01*
X233522300Y-67193525D01*
X232169039Y-69432485D01*
X230478051Y-71377759D01*
X228518259Y-72988039D01*
X226358583Y-74222016D01*
X224067945Y-75038381D01*
X221715266Y-75395826D01*
X219936734Y-75336160D01*
X218720737Y-75192513D01*
X212249853Y-75192513D01*
X212261770Y-75173504D01*
X212881590Y-74033178D01*
X213425885Y-72896080D01*
X213830378Y-71899073D01*
X214030788Y-71179020D01*
X214041579Y-71046934D01*
X213874896Y-70473291D01*
X213461921Y-69785394D01*
X213341521Y-69633647D01*
X212185643Y-68611462D01*
X210907533Y-68085008D01*
X209585446Y-68054283D01*
X208297636Y-68519289D01*
X207122358Y-69480025D01*
X206988374Y-69633647D01*
X206465376Y-70365792D01*
X206324732Y-70993253D01*
X190013702Y-70993253D01*
X188988075Y-69914790D01*
X187419766Y-67608990D01*
X186227107Y-65048270D01*
X185725705Y-63415479D01*
X198904796Y-63415479D01*
X198948069Y-64501903D01*
X199404185Y-65629931D01*
X200186895Y-66649212D01*
X201189876Y-67398859D01*
X202441025Y-67899989D01*
X203573526Y-67957875D01*
X204762701Y-67575951D01*
X204972403Y-67473004D01*
X206122767Y-66622045D01*
X206829795Y-65473285D01*
X207088078Y-64035780D01*
X207089211Y-63927880D01*
X206998750Y-63113616D01*
X214292027Y-63113616D01*
X214292507Y-64489658D01*
X214732733Y-65806895D01*
X215581995Y-66942680D01*
X216167890Y-67416038D01*
X217182604Y-67893293D01*
X218318370Y-67985580D01*
X219709910Y-67703556D01*
X219729362Y-67697747D01*
X220880124Y-67106990D01*
X221700928Y-66191582D01*
X222177512Y-65058471D01*
X222295616Y-63814605D01*
X222040980Y-62566932D01*
X221399343Y-61422399D01*
X220662290Y-60701139D01*
X219529357Y-60142089D01*
X218238933Y-59980690D01*
X216937011Y-60189718D01*
X215769581Y-60741948D01*
X214882634Y-61610158D01*
X214762002Y-61801413D01*
X214292027Y-63113616D01*
X206998750Y-63113616D01*
X206935858Y-62547523D01*
X206429336Y-61512920D01*
X205503667Y-60718753D01*
X204867027Y-60380779D01*
X203737455Y-59922311D01*
X202851493Y-59768180D01*
X202016921Y-59912895D01*
X201186965Y-60275626D01*
X200039000Y-61149199D01*
X199230057Y-62377135D01*
X198904796Y-63415479D01*
X185725705Y-63415479D01*
X185661344Y-63205894D01*
X185409570Y-61674398D01*
X185298989Y-59840020D01*
X185324222Y-57886784D01*
X185479893Y-55998714D01*
X185760624Y-54359836D01*
X185938677Y-53714315D01*
X187023542Y-51056762D01*
X188438624Y-48665230D01*
X190132748Y-46597496D01*
X192054738Y-44911338D01*
X194153421Y-43664532D01*
X195220471Y-43235001D01*
X196529158Y-42788096D01*
X195593369Y-42537830D01*
X194817451Y-42425257D01*
X193681892Y-42378071D01*
X192318503Y-42389058D01*
X190859094Y-42451007D01*
X189435473Y-42556706D01*
X188179452Y-42698941D01*
X187222840Y-42870502D01*
X186768001Y-43020721D01*
X186131888Y-43460940D01*
X185235927Y-44230554D01*
X184160719Y-45246603D01*
X182986863Y-46426127D01*
X181794961Y-47686163D01*
X180665613Y-48943752D01*
X179679420Y-50115931D01*
X178963322Y-51053957D01*
X176836470Y-54406420D01*
X174982682Y-58046347D01*
X174084829Y-60187920D01*
X173558752Y-61579315D01*
X173245452Y-62549971D01*
X173158944Y-63175572D01*
X171721452Y-63175572D01*
X171957228Y-62576178D01*
X172413350Y-61291220D01*
X172455262Y-61171359D01*
X173940985Y-57388332D01*
X175639522Y-53993568D01*
X177629503Y-50857700D01*
X179989559Y-47851364D01*
X181690211Y-45977814D01*
X182819343Y-44779144D01*
X183578015Y-43917365D01*
X183971783Y-43349165D01*
X184006202Y-43031229D01*
X183686827Y-42920243D01*
X183019212Y-42972895D01*
X182054511Y-43137429D01*
X180979850Y-43265623D01*
X180316212Y-43187185D01*
X180099143Y-42910969D01*
X180186582Y-42672086D01*
X180481147Y-42508606D01*
X181201154Y-42213447D01*
X182262756Y-41817928D01*
X183582107Y-41353364D01*
X184353531Y-41093448D01*
X187983750Y-41093448D01*
X188227621Y-41159754D01*
X188809108Y-41201844D01*
X189785664Y-41225517D01*
X191214744Y-41236570D01*
X191983895Y-41238889D01*
X194969843Y-41305863D01*
X197521334Y-41500253D01*
X199726054Y-41834098D01*
X201671686Y-42319433D01*
X202867828Y-42732976D01*
X203906537Y-43128321D01*
X204520397Y-43322549D01*
X204783251Y-43307545D01*
X204768941Y-43075194D01*
X204551310Y-42617382D01*
X204517498Y-42551684D01*
X204135098Y-41982370D01*
X203504943Y-41220309D01*
X202720634Y-40360095D01*
X201875774Y-39496323D01*
X201063967Y-38723587D01*
X200378813Y-38136480D01*
X199913917Y-37829598D01*
X199821454Y-37805894D01*
X199567600Y-37978360D01*
X199533426Y-38551276D01*
X199550077Y-38715358D01*
X199473374Y-39471612D01*
X199037940Y-39840114D01*
X198266974Y-39807372D01*
X197883909Y-39684282D01*
X197179927Y-39519675D01*
X196238049Y-39421858D01*
X195818488Y-39410105D01*
X194865640Y-39474390D01*
X193588599Y-39646438D01*
X192149117Y-39895035D01*
X190708945Y-40188968D01*
X189429835Y-40497024D01*
X188473536Y-40787989D01*
X188279039Y-40864996D01*
X188020041Y-40997128D01*
X187983750Y-41093448D01*
X184353531Y-41093448D01*
X184962549Y-40888252D01*
X186697271Y-40290565D01*
X188488624Y-39630065D01*
X190179063Y-38967723D01*
X191611044Y-38364516D01*
X192284684Y-38054381D01*
X192417378Y-37997518D01*
X195787591Y-37997518D01*
X195895590Y-38100461D01*
X196361607Y-38255996D01*
X197000869Y-38327309D01*
X197604973Y-38310464D01*
X197965519Y-38201529D01*
X197995590Y-38140105D01*
X197864035Y-37759034D01*
X197759990Y-37574149D01*
X197510942Y-37361532D01*
X197069265Y-37381014D01*
X196528937Y-37538599D01*
X195916588Y-37790098D01*
X195787591Y-37997518D01*
X192417378Y-37997518D01*
X195916499Y-36498056D01*
X196360039Y-36349589D01*
X200004947Y-36349589D01*
X201251092Y-37207858D01*
X202738313Y-38448073D01*
X204186262Y-40049254D01*
X205452599Y-41847655D01*
X205793724Y-42433524D01*
X206392872Y-43369186D01*
X207232093Y-44488872D01*
X208167115Y-45604818D01*
X208560737Y-46034690D01*
X210432316Y-48013223D01*
X211814861Y-46529277D01*
X212667795Y-45509814D01*
X213505352Y-44340171D01*
X213878585Y-43724487D01*
X215413306Y-43724487D01*
X215626397Y-43901071D01*
X216218735Y-43796067D01*
X216916000Y-43543959D01*
X217968940Y-43175767D01*
X219272506Y-42795092D01*
X220550710Y-42482300D01*
X220592316Y-42473417D01*
X221789544Y-42271465D01*
X223242660Y-42127828D01*
X225038752Y-42036586D01*
X227264905Y-41991820D01*
X227731428Y-41988156D01*
X229273281Y-41969276D01*
X230587933Y-41935376D01*
X231599654Y-41889918D01*
X232232711Y-41836361D01*
X232411374Y-41778166D01*
X232405898Y-41774551D01*
X232011846Y-41625364D01*
X231240827Y-41384221D01*
X230233278Y-41094212D01*
X229812049Y-40978657D01*
X228592209Y-40686938D01*
X227398154Y-40497711D01*
X226053061Y-40391521D01*
X224380106Y-40348913D01*
X224068105Y-40346686D01*
X220592316Y-40328341D01*
X220622813Y-39334486D01*
X220610450Y-38923987D01*
X222062842Y-38923987D01*
X222304540Y-38972009D01*
X222930627Y-38973999D01*
X223600211Y-38941835D01*
X224453101Y-38933654D01*
X225509235Y-38988800D01*
X226589474Y-39090050D01*
X227514681Y-39220179D01*
X228105718Y-39361965D01*
X228145474Y-39378849D01*
X228212316Y-39259023D01*
X227987973Y-39090413D01*
X227401672Y-38773806D01*
X226583504Y-38370564D01*
X225663559Y-37942050D01*
X224771930Y-37549625D01*
X224038705Y-37254652D01*
X223761434Y-37159607D01*
X223312309Y-37142880D01*
X222912707Y-37473362D01*
X222625119Y-37895018D01*
X222269723Y-38497063D01*
X222075272Y-38878972D01*
X222062842Y-38923987D01*
X220610450Y-38923987D01*
X220603529Y-38694235D01*
X220517394Y-38358323D01*
X220489128Y-38343473D01*
X220154066Y-38517106D01*
X219557338Y-38964271D01*
X218817907Y-39582914D01*
X218054733Y-40270980D01*
X217386781Y-40926412D01*
X217064159Y-41281684D01*
X216130723Y-42437146D01*
X215580927Y-43243963D01*
X215413306Y-43724487D01*
X213878585Y-43724487D01*
X214067557Y-43412760D01*
X214976814Y-41972500D01*
X216146128Y-40506922D01*
X217449615Y-39149072D01*
X218761388Y-38031994D01*
X219779265Y-37376175D01*
X220549881Y-36950120D01*
X221085483Y-36609303D01*
X221260102Y-36443451D01*
X221010222Y-36282322D01*
X220321081Y-36080420D01*
X219285036Y-35854598D01*
X217994448Y-35621709D01*
X216541678Y-35398605D01*
X215019086Y-35202139D01*
X213712472Y-35066265D01*
X209920709Y-34929822D01*
X206061482Y-35177782D01*
X202358774Y-35794665D01*
X202010211Y-35874989D01*
X200004947Y-36349589D01*
X196360039Y-36349589D01*
X199810492Y-35194614D01*
X203347053Y-34304193D01*
X205919930Y-33903667D01*
X208801115Y-33693761D01*
X211799115Y-33674991D01*
X214722434Y-33847870D01*
D11*
G04 #@! TO.C,REF\002A\002A*
X205232000Y-63754000D02*
G75*
G03X205232000Y-63754000I-2286000J0D01*
G01*
D13*
G04 #@! TO.C,CON1*
X188976000Y-97790000D02*
X188976000Y-105410000D01*
X183896000Y-97790000D02*
X188976000Y-97790000D01*
X183896000Y-105410000D02*
X183896000Y-97790000D01*
X188976000Y-105410000D02*
X183896000Y-105410000D01*
G04 #@! TO.C,REF\002A\002A*
D14*
X216852666Y-61158380D02*
X216519333Y-60682190D01*
X216281238Y-61158380D02*
X216281238Y-60158380D01*
X216662190Y-60158380D01*
X216757428Y-60206000D01*
X216805047Y-60253619D01*
X216852666Y-60348857D01*
X216852666Y-60491714D01*
X216805047Y-60586952D01*
X216757428Y-60634571D01*
X216662190Y-60682190D01*
X216281238Y-60682190D01*
X217281238Y-60634571D02*
X217614571Y-60634571D01*
X217757428Y-61158380D02*
X217281238Y-61158380D01*
X217281238Y-60158380D01*
X217757428Y-60158380D01*
X218519333Y-60634571D02*
X218186000Y-60634571D01*
X218186000Y-61158380D02*
X218186000Y-60158380D01*
X218662190Y-60158380D01*
X219186000Y-60158380D02*
X219186000Y-60396476D01*
X218947904Y-60301238D02*
X219186000Y-60396476D01*
X219424095Y-60301238D01*
X219043142Y-60586952D02*
X219186000Y-60396476D01*
X219328857Y-60586952D01*
X219947904Y-60158380D02*
X219947904Y-60396476D01*
X219709809Y-60301238D02*
X219947904Y-60396476D01*
X220186000Y-60301238D01*
X219805047Y-60586952D02*
X219947904Y-60396476D01*
X220090761Y-60586952D01*
X201612666Y-61158380D02*
X201279333Y-60682190D01*
X201041238Y-61158380D02*
X201041238Y-60158380D01*
X201422190Y-60158380D01*
X201517428Y-60206000D01*
X201565047Y-60253619D01*
X201612666Y-60348857D01*
X201612666Y-60491714D01*
X201565047Y-60586952D01*
X201517428Y-60634571D01*
X201422190Y-60682190D01*
X201041238Y-60682190D01*
X202041238Y-60634571D02*
X202374571Y-60634571D01*
X202517428Y-61158380D02*
X202041238Y-61158380D01*
X202041238Y-60158380D01*
X202517428Y-60158380D01*
X203279333Y-60634571D02*
X202946000Y-60634571D01*
X202946000Y-61158380D02*
X202946000Y-60158380D01*
X203422190Y-60158380D01*
X203946000Y-60158380D02*
X203946000Y-60396476D01*
X203707904Y-60301238D02*
X203946000Y-60396476D01*
X204184095Y-60301238D01*
X203803142Y-60586952D02*
X203946000Y-60396476D01*
X204088857Y-60586952D01*
X204707904Y-60158380D02*
X204707904Y-60396476D01*
X204469809Y-60301238D02*
X204707904Y-60396476D01*
X204946000Y-60301238D01*
X204565047Y-60586952D02*
X204707904Y-60396476D01*
X204850761Y-60586952D01*
G04 #@! TO.C,CON1*
X182918142Y-102814285D02*
X182965761Y-102861904D01*
X183013380Y-103004761D01*
X183013380Y-103100000D01*
X182965761Y-103242857D01*
X182870523Y-103338095D01*
X182775285Y-103385714D01*
X182584809Y-103433333D01*
X182441952Y-103433333D01*
X182251476Y-103385714D01*
X182156238Y-103338095D01*
X182061000Y-103242857D01*
X182013380Y-103100000D01*
X182013380Y-103004761D01*
X182061000Y-102861904D01*
X182108619Y-102814285D01*
X182013380Y-102195238D02*
X182013380Y-102004761D01*
X182061000Y-101909523D01*
X182156238Y-101814285D01*
X182346714Y-101766666D01*
X182680047Y-101766666D01*
X182870523Y-101814285D01*
X182965761Y-101909523D01*
X183013380Y-102004761D01*
X183013380Y-102195238D01*
X182965761Y-102290476D01*
X182870523Y-102385714D01*
X182680047Y-102433333D01*
X182346714Y-102433333D01*
X182156238Y-102385714D01*
X182061000Y-102290476D01*
X182013380Y-102195238D01*
X183013380Y-101338095D02*
X182013380Y-101338095D01*
X183013380Y-100766666D01*
X182013380Y-100766666D01*
X183013380Y-99766666D02*
X183013380Y-100338095D01*
X183013380Y-100052380D02*
X182013380Y-100052380D01*
X182156238Y-100147619D01*
X182251476Y-100242857D01*
X182299095Y-100338095D01*
G04 #@! TO.C,REF\002A\002A*
X209105666Y-55745380D02*
X208772333Y-55269190D01*
X208534238Y-55745380D02*
X208534238Y-54745380D01*
X208915190Y-54745380D01*
X209010428Y-54793000D01*
X209058047Y-54840619D01*
X209105666Y-54935857D01*
X209105666Y-55078714D01*
X209058047Y-55173952D01*
X209010428Y-55221571D01*
X208915190Y-55269190D01*
X208534238Y-55269190D01*
X209534238Y-55221571D02*
X209867571Y-55221571D01*
X210010428Y-55745380D02*
X209534238Y-55745380D01*
X209534238Y-54745380D01*
X210010428Y-54745380D01*
X210772333Y-55221571D02*
X210439000Y-55221571D01*
X210439000Y-55745380D02*
X210439000Y-54745380D01*
X210915190Y-54745380D01*
X211439000Y-54745380D02*
X211439000Y-54983476D01*
X211200904Y-54888238D02*
X211439000Y-54983476D01*
X211677095Y-54888238D01*
X211296142Y-55173952D02*
X211439000Y-54983476D01*
X211581857Y-55173952D01*
X212200904Y-54745380D02*
X212200904Y-54983476D01*
X211962809Y-54888238D02*
X212200904Y-54983476D01*
X212439000Y-54888238D01*
X212058047Y-55173952D02*
X212200904Y-54983476D01*
X212343761Y-55173952D01*
G04 #@! TD*
M02*
