M48
;DRILL file {KiCad (5.0.2)-1} date 2/25/2019 10:43:07 PM
;FORMAT={-:-/ absolute / inch / decimal}
FMAT,2
INCH,TZ
T1C0.0157
T2C0.0177
T3C0.0350
T4C0.0400
T5C0.0984
T6C0.1181
T7C0.3937
%
G90
G05
T1
X7.21Y-3.35
X7.625Y-4.515
X7.75Y-3.945
X7.8Y-3.925
X7.825Y-3.9
X7.84Y-4.08
X7.845Y-3.87
X7.8612Y-3.843
X7.89Y-3.815
X7.915Y-3.7904
X7.9289Y-3.7621
X8.07Y-4.18
X8.0924Y-4.0576
X8.13Y-4.3
X8.205Y-4.02
X8.25Y-3.675
X8.26Y-4.01
X8.265Y-4.045
X8.32Y-3.76
X8.47Y-4.44
X8.48Y-3.755
X8.5468Y-4.0834
X8.555Y-4.125
X8.58Y-4.0696
X8.585Y-3.9918
X8.6235Y-4.0385
X8.63Y-4.0048
T3
X7.29Y-3.9
X7.29Y-4.
X7.29Y-4.1
X7.39Y-3.9
X7.39Y-4.
X7.39Y-4.1
T4
X6.65Y-3.52
X6.605Y-2.69
X6.75Y-3.715
X9.975Y-3.395
X6.58Y-3.32
X10.025Y-3.18
X10.04Y-2.955
X9.83Y-2.555
X6.765Y-2.535
X9.885Y-3.6
X9.995Y-2.74
X6.545Y-2.9
X6.545Y-3.11
X6.85Y-3.89
T5
X7.25Y-4.89
X9.33Y-4.89
T6
X8.28Y-1.53
T7
X8.59Y-2.51
X7.99Y-2.51
T1
X8.0967Y-4.7168G85X8.1124Y-4.7168
G05
X8.2876Y-4.7168G85X8.3033Y-4.7168
G05
T2
X8.0593Y-4.8027G85X8.0593Y-4.846
G05
X8.3407Y-4.8027G85X8.3407Y-4.846
G05
T0
M30
